<?xml version="1.0"?>
<svg version="1.1" id="topsvg"
xmlns="http://www.w3.org/2000/svg" xmlns:xlink="http://www.w3.org/1999/xlink"
xmlns:cml="http://www.xml-cml.org/schema" x="0" y="0" width="200px" height="200px" viewBox="0 0 100 100">
<title>69 - Open Babel Depiction</title>
<defs>
<radialGradient id='radialffffff0ccff' cx='50%' cy='50%' r='50%' fx='30%' fy='30%'>
  <stop offset=' 0%' stop-color="rgb(255,255,255)"  stop-opacity='0.8'/>
  <stop offset='100%' stop-color="rgb(12,12,255)"  stop-opacity ='1.0'/>
</radialGradient>
<radialGradient id='radialffffff666666' cx='50%' cy='50%' r='50%' fx='30%' fy='30%'>
  <stop offset=' 0%' stop-color="rgb(255,255,255)"  stop-opacity='0.8'/>
  <stop offset='100%' stop-color="rgb(102,102,102)"  stop-opacity ='1.0'/>
</radialGradient>
<radialGradient id='radialffffffbfbfbf' cx='50%' cy='50%' r='50%' fx='30%' fy='30%'>
  <stop offset=' 0%' stop-color="rgb(255,255,255)"  stop-opacity='0.8'/>
  <stop offset='100%' stop-color="rgb(191,191,191)"  stop-opacity ='1.0'/>
</radialGradient>
<radialGradient id='radialffffffffcc' cx='50%' cy='50%' r='50%' fx='30%' fy='30%'>
  <stop offset=' 0%' stop-color="rgb(255,255,255)"  stop-opacity='0.8'/>
  <stop offset='100%' stop-color="rgb(255,12,12)"  stop-opacity ='1.0'/>
</radialGradient>
</defs>
<g transform="translate(0,0)">
<svg width="100" height="100" x="0" y="0" viewBox="0 0 311.842 246.477"
font-family="sans-serif" stroke="rgb(76,76,76)" stroke-width="2"  stroke-linecap="round">
<line x1="83.6" y1="168.7" x2="75.8" y2="177.5" stroke="rgb(76,76,76)"  stroke-width="2.0"/>
<line x1="40.7" y1="96.7" x2="66.5" y2="102.5" stroke="rgb(76,76,76)"  stroke-width="2.0"/>
<line x1="39.3" y1="102.6" x2="65.2" y2="108.4" stroke="rgb(76,76,76)"  stroke-width="2.0"/>
<line x1="75.8" y1="177.5" x2="41.5" y2="185.2" stroke="rgb(76,76,76)"  stroke-width="2.0"/>
<line x1="75.8" y1="177.5" x2="93.8" y2="206.5" stroke="rgb(76,76,76)"  stroke-width="2.0"/>
<line x1="75.8" y1="177.5" x2="86.1" y2="142.6" stroke="rgb(76,76,76)"  stroke-width="2.0"/>
<line x1="65.9" y1="105.4" x2="86.1" y2="142.6" stroke="rgb(76,76,76)"  stroke-width="2.0"/>
<line x1="65.9" y1="105.4" x2="79.2" y2="71.9" stroke="rgb(76,76,76)"  stroke-width="2.0"/>
<line x1="68.9" y1="40.0" x2="79.2" y2="71.9" stroke="rgb(76,76,76)"  stroke-width="2.0"/>
<line x1="144.5" y1="52.4" x2="125.3" y2="71.3" stroke="rgb(76,76,76)"  stroke-width="2.0"/>
<line x1="79.2" y1="71.9" x2="125.3" y2="71.3" stroke="rgb(76,76,76)"  stroke-width="2.0"/>
<line x1="79.2" y1="71.9" x2="62.6" y2="78.4" stroke="rgb(76,76,76)"  stroke-width="2.0"/>
<line x1="125.3" y1="71.3" x2="143.2" y2="95.8" stroke="rgb(76,76,76)"  stroke-width="2.0"/>
<line x1="215.8" y1="69.9" x2="194.8" y2="93.4" stroke="rgb(76,76,76)"  stroke-width="2.0"/>
<line x1="211.3" y1="65.9" x2="190.4" y2="89.5" stroke="rgb(76,76,76)"  stroke-width="2.0"/>
<line x1="143.2" y1="95.8" x2="192.6" y2="91.5" stroke="rgb(76,76,76)"  stroke-width="2.0"/>
<line x1="145.5" y1="97.8" x2="124.9" y2="121.9" stroke="rgb(76,76,76)"  stroke-width="2.0"/>
<line x1="141.0" y1="93.9" x2="120.3" y2="118.0" stroke="rgb(76,76,76)"  stroke-width="2.0"/>
<line x1="192.6" y1="91.5" x2="209.2" y2="116.6" stroke="rgb(76,76,76)"  stroke-width="2.0"/>
<line x1="271.8" y1="124.0" x2="255.6" y2="114.5" stroke="rgb(76,76,76)"  stroke-width="2.0"/>
<line x1="209.2" y1="116.6" x2="255.6" y2="114.5" stroke="rgb(76,76,76)"  stroke-width="2.0"/>
<line x1="255.6" y1="114.5" x2="265.8" y2="81.9" stroke="rgb(76,76,76)"  stroke-width="2.0"/>
<line x1="255.6" y1="114.5" x2="266.2" y2="136.0" stroke="rgb(76,76,76)"  stroke-width="2.0"/>
<circle cx="83.644592" cy="168.725232" r="2.066667" opacity="1.000000" style="stroke:black;fill:url(#radialffffffbfbfbf)"/>
<circle cx="40.000000" cy="99.663000" r="4.400000" opacity="1.000000" style="stroke:black;fill:url(#radialffffffffcc)"/>
<circle cx="75.762928" cy="177.498063" r="5.066667" opacity="1.000000" style="stroke:black;fill:url(#radialffffff666666)"/>
<circle cx="41.514339" cy="185.189224" r="2.066667" opacity="1.000000" style="stroke:black;fill:url(#radialffffffbfbfbf)"/>
<circle cx="93.834896" cy="206.477142" r="2.066667" opacity="1.000000" style="stroke:black;fill:url(#radialffffffbfbfbf)"/>
<circle cx="65.889054" cy="105.432985" r="5.066667" opacity="1.000000" style="stroke:black;fill:url(#radialffffff666666)"/>
<circle cx="86.124362" cy="142.610157" r="4.400000" opacity="1.000000" style="stroke:black;fill:url(#radialffffffffcc)"/>
<circle cx="68.940333" cy="40.000000" r="2.066667" opacity="1.000000" style="stroke:black;fill:url(#radialffffffbfbfbf)"/>
<circle cx="144.547477" cy="52.366560" r="2.066667" opacity="1.000000" style="stroke:black;fill:url(#radialffffffbfbfbf)"/>
<circle cx="79.237189" cy="71.943179" r="5.066667" opacity="1.000000" style="stroke:black;fill:url(#radialffffff666666)"/>
<circle cx="125.326034" cy="71.284490" r="4.746320" opacity="1.000000" style="stroke:black;fill:url(#radialffffff0ccff)"/>
<circle cx="213.574191" cy="67.878036" r="4.896606" opacity="1.000000" style="stroke:black;fill:url(#radialffffffffcc)"/>
<circle cx="62.579465" cy="78.362166" r="2.571328" opacity="1.000000" style="stroke:black;fill:url(#radialffffffbfbfbf)"/>
<circle cx="143.249473" cy="95.823878" r="6.700007" opacity="1.000000" style="stroke:black;fill:url(#radialffffff666666)"/>
<circle cx="192.602702" cy="91.455221" r="6.860990" opacity="1.000000" style="stroke:black;fill:url(#radialffffff666666)"/>
<circle cx="271.842321" cy="123.979596" r="2.934020" opacity="1.000000" style="stroke:black;fill:url(#radialffffffbfbfbf)"/>
<circle cx="122.594412" cy="119.979030" r="6.918650" opacity="1.000000" style="stroke:black;fill:url(#radialffffffffcc)"/>
<circle cx="209.179704" cy="116.569347" r="7.376655" opacity="1.000000" style="stroke:black;fill:url(#radialffffffffcc)"/>
<circle cx="255.572062" cy="114.519016" r="8.769785" opacity="1.000000" style="stroke:black;fill:url(#radialffffff666666)"/>
<circle cx="265.765594" cy="81.901004" r="3.753770" opacity="1.000000" style="stroke:black;fill:url(#radialffffffbfbfbf)"/>
<circle cx="266.201491" cy="136.036185" r="4.133333" opacity="1.000000" style="stroke:black;fill:url(#radialffffffbfbfbf)"/>
</svg>
</g>
</svg>
