<?xml version="1.0"?>
<svg version="1.1" id="topsvg"
xmlns="http://www.w3.org/2000/svg" xmlns:xlink="http://www.w3.org/1999/xlink"
xmlns:cml="http://www.xml-cml.org/schema" x="0" y="0" width="200px" height="200px" viewBox="0 0 100 100">
<title>72 - Open Babel Depiction</title>
<defs>
<radialGradient id='radialffffff0ccff' cx='50%' cy='50%' r='50%' fx='30%' fy='30%'>
  <stop offset=' 0%' stop-color="rgb(255,255,255)"  stop-opacity='0.8'/>
  <stop offset='100%' stop-color="rgb(12,12,255)"  stop-opacity ='1.0'/>
</radialGradient>
<radialGradient id='radialffffff666666' cx='50%' cy='50%' r='50%' fx='30%' fy='30%'>
  <stop offset=' 0%' stop-color="rgb(255,255,255)"  stop-opacity='0.8'/>
  <stop offset='100%' stop-color="rgb(102,102,102)"  stop-opacity ='1.0'/>
</radialGradient>
<radialGradient id='radialffffffbfbfbf' cx='50%' cy='50%' r='50%' fx='30%' fy='30%'>
  <stop offset=' 0%' stop-color="rgb(255,255,255)"  stop-opacity='0.8'/>
  <stop offset='100%' stop-color="rgb(191,191,191)"  stop-opacity ='1.0'/>
</radialGradient>
<radialGradient id='radialffffffffcc' cx='50%' cy='50%' r='50%' fx='30%' fy='30%'>
  <stop offset=' 0%' stop-color="rgb(255,255,255)"  stop-opacity='0.8'/>
  <stop offset='100%' stop-color="rgb(255,12,12)"  stop-opacity ='1.0'/>
</radialGradient>
</defs>
<g transform="translate(0,0)">
<svg width="100" height="100" x="0" y="0" viewBox="0 0 311.911 270.589"
font-family="sans-serif" stroke="rgb(76,76,76)" stroke-width="2"  stroke-linecap="round">
<line x1="69.1" y1="117.3" x2="79.3" y2="128.5" stroke="rgb(76,76,76)"  stroke-width="2.0"/>
<line x1="144.7" y1="117.3" x2="125.4" y2="136.0" stroke="rgb(76,76,76)"  stroke-width="2.0"/>
<line x1="215.9" y1="148.5" x2="194.9" y2="171.4" stroke="rgb(76,76,76)"  stroke-width="2.0"/>
<line x1="211.5" y1="144.5" x2="190.5" y2="167.3" stroke="rgb(76,76,76)"  stroke-width="2.0"/>
<line x1="125.4" y1="136.0" x2="79.3" y2="128.5" stroke="rgb(76,76,76)"  stroke-width="2.0"/>
<line x1="125.4" y1="136.0" x2="143.4" y2="166.3" stroke="rgb(76,76,76)"  stroke-width="2.0"/>
<line x1="79.3" y1="128.5" x2="62.7" y2="159.0" stroke="rgb(76,76,76)"  stroke-width="2.0"/>
<line x1="79.3" y1="128.5" x2="65.9" y2="95.6" stroke="rgb(76,76,76)"  stroke-width="2.0"/>
<line x1="265.9" y1="213.3" x2="255.7" y2="205.1" stroke="rgb(76,76,76)"  stroke-width="2.0"/>
<line x1="192.7" y1="169.4" x2="143.4" y2="166.3" stroke="rgb(76,76,76)"  stroke-width="2.0"/>
<line x1="192.7" y1="169.4" x2="209.3" y2="199.9" stroke="rgb(76,76,76)"  stroke-width="2.0"/>
<line x1="145.6" y1="168.3" x2="125.0" y2="192.0" stroke="rgb(76,76,76)"  stroke-width="2.0"/>
<line x1="141.1" y1="164.4" x2="120.4" y2="188.1" stroke="rgb(76,76,76)"  stroke-width="2.0"/>
<line x1="42.2" y1="64.8" x2="68.2" y2="93.6" stroke="rgb(76,76,76)"  stroke-width="2.0"/>
<line x1="37.8" y1="68.8" x2="63.7" y2="97.6" stroke="rgb(76,76,76)"  stroke-width="2.0"/>
<line x1="65.9" y1="95.6" x2="86.2" y2="102.5" stroke="rgb(76,76,76)"  stroke-width="2.0"/>
<line x1="255.7" y1="205.1" x2="209.3" y2="199.9" stroke="rgb(76,76,76)"  stroke-width="2.0"/>
<line x1="255.7" y1="205.1" x2="271.9" y2="175.3" stroke="rgb(76,76,76)"  stroke-width="2.0"/>
<line x1="255.7" y1="205.1" x2="266.4" y2="230.6" stroke="rgb(76,76,76)"  stroke-width="2.0"/>
<line x1="86.2" y1="102.5" x2="75.8" y2="73.1" stroke="rgb(76,76,76)"  stroke-width="2.0"/>
<line x1="83.6" y1="40.0" x2="75.8" y2="73.1" stroke="rgb(76,76,76)"  stroke-width="2.0"/>
<line x1="75.8" y1="73.1" x2="41.5" y2="74.5" stroke="rgb(76,76,76)"  stroke-width="2.0"/>
<line x1="75.8" y1="73.1" x2="93.8" y2="81.2" stroke="rgb(76,76,76)"  stroke-width="2.0"/>
<circle cx="69.062341" cy="117.297239" r="2.066667" opacity="1.000000" style="stroke:black;fill:url(#radialffffffbfbfbf)"/>
<circle cx="144.658007" cy="117.258493" r="2.066667" opacity="1.000000" style="stroke:black;fill:url(#radialffffffbfbfbf)"/>
<circle cx="213.679856" cy="146.488731" r="4.400000" opacity="1.000000" style="stroke:black;fill:url(#radialffffffffcc)"/>
<circle cx="125.430561" cy="136.037137" r="4.733333" opacity="1.000000" style="stroke:black;fill:url(#radialffffff0ccff)"/>
<circle cx="79.336352" cy="128.468853" r="5.066667" opacity="1.000000" style="stroke:black;fill:url(#radialffffff666666)"/>
<circle cx="62.691938" cy="159.039039" r="2.066667" opacity="1.000000" style="stroke:black;fill:url(#radialffffffbfbfbf)"/>
<circle cx="265.947513" cy="213.340833" r="2.066667" opacity="1.000000" style="stroke:black;fill:url(#radialffffffbfbfbf)"/>
<circle cx="192.708864" cy="169.367939" r="5.066667" opacity="1.000000" style="stroke:black;fill:url(#radialffffff666666)"/>
<circle cx="143.350347" cy="166.339334" r="5.066667" opacity="1.000000" style="stroke:black;fill:url(#radialffffff666666)"/>
<circle cx="40.000000" cy="66.779586" r="4.400000" opacity="1.000000" style="stroke:black;fill:url(#radialffffffffcc)"/>
<circle cx="65.936872" cy="95.635285" r="5.066667" opacity="1.000000" style="stroke:black;fill:url(#radialffffff666666)"/>
<circle cx="255.699333" cy="205.055758" r="5.066667" opacity="1.000000" style="stroke:black;fill:url(#radialffffff666666)"/>
<circle cx="209.298388" cy="199.944583" r="4.400000" opacity="1.000000" style="stroke:black;fill:url(#radialffffffffcc)"/>
<circle cx="122.689318" cy="190.025739" r="4.400000" opacity="1.000000" style="stroke:black;fill:url(#radialffffffffcc)"/>
<circle cx="271.911088" cy="175.321828" r="2.100128" opacity="1.000000" style="stroke:black;fill:url(#radialffffffbfbfbf)"/>
<circle cx="266.351112" cy="230.589031" r="2.406096" opacity="1.000000" style="stroke:black;fill:url(#radialffffffbfbfbf)"/>
<circle cx="86.178158" cy="102.509379" r="5.425898" opacity="1.000000" style="stroke:black;fill:url(#radialffffffffcc)"/>
<circle cx="83.640329" cy="40.000000" r="3.190394" opacity="1.000000" style="stroke:black;fill:url(#radialffffffbfbfbf)"/>
<circle cx="75.774996" cy="73.053126" r="8.364967" opacity="1.000000" style="stroke:black;fill:url(#radialffffff666666)"/>
<circle cx="41.523989" cy="74.467336" r="3.602765" opacity="1.000000" style="stroke:black;fill:url(#radialffffffbfbfbf)"/>
<circle cx="93.836849" cy="81.154161" r="4.133333" opacity="1.000000" style="stroke:black;fill:url(#radialffffffbfbfbf)"/>
</svg>
</g>
</svg>
