<?xml version="1.0"?>
<svg version="1.1" id="topsvg"
xmlns="http://www.w3.org/2000/svg" xmlns:xlink="http://www.w3.org/1999/xlink"
xmlns:cml="http://www.xml-cml.org/schema" x="0" y="0" width="200px" height="200px" viewBox="0 0 100 100">
<title>67 - Open Babel Depiction</title>
<defs>
<radialGradient id='radialffffff0ccff' cx='50%' cy='50%' r='50%' fx='30%' fy='30%'>
  <stop offset=' 0%' stop-color="rgb(255,255,255)"  stop-opacity='0.8'/>
  <stop offset='100%' stop-color="rgb(12,12,255)"  stop-opacity ='1.0'/>
</radialGradient>
<radialGradient id='radialffffff666666' cx='50%' cy='50%' r='50%' fx='30%' fy='30%'>
  <stop offset=' 0%' stop-color="rgb(255,255,255)"  stop-opacity='0.8'/>
  <stop offset='100%' stop-color="rgb(102,102,102)"  stop-opacity ='1.0'/>
</radialGradient>
<radialGradient id='radialffffffbfbfbf' cx='50%' cy='50%' r='50%' fx='30%' fy='30%'>
  <stop offset=' 0%' stop-color="rgb(255,255,255)"  stop-opacity='0.8'/>
  <stop offset='100%' stop-color="rgb(191,191,191)"  stop-opacity ='1.0'/>
</radialGradient>
<radialGradient id='radialffffffffcc' cx='50%' cy='50%' r='50%' fx='30%' fy='30%'>
  <stop offset=' 0%' stop-color="rgb(255,255,255)"  stop-opacity='0.8'/>
  <stop offset='100%' stop-color="rgb(255,12,12)"  stop-opacity ='1.0'/>
</radialGradient>
</defs>
<g transform="translate(0,0)">
<svg width="100" height="100" x="0" y="0" viewBox="0 0 350.443 313.934"
font-family="sans-serif" stroke="rgb(76,76,76)" stroke-width="2"  stroke-linecap="round">
<line x1="127.0" y1="94.1" x2="110.9" y2="118.8" stroke="rgb(76,76,76)"  stroke-width="2.0"/>
<line x1="122.0" y1="90.8" x2="105.9" y2="115.6" stroke="rgb(76,76,76)"  stroke-width="2.0"/>
<line x1="105.1" y1="182.2" x2="119.6" y2="164.4" stroke="rgb(76,76,76)"  stroke-width="2.0"/>
<line x1="185.4" y1="153.2" x2="165.6" y2="172.2" stroke="rgb(76,76,76)"  stroke-width="2.0"/>
<line x1="51.5" y1="53.0" x2="64.7" y2="61.4" stroke="rgb(76,76,76)"  stroke-width="2.0"/>
<line x1="108.4" y1="117.2" x2="119.6" y2="164.4" stroke="rgb(76,76,76)"  stroke-width="2.0"/>
<line x1="108.4" y1="117.2" x2="78.3" y2="106.1" stroke="rgb(76,76,76)"  stroke-width="2.0"/>
<line x1="255.9" y1="186.4" x2="234.1" y2="210.2" stroke="rgb(76,76,76)"  stroke-width="2.0"/>
<line x1="251.4" y1="182.3" x2="229.6" y2="206.2" stroke="rgb(76,76,76)"  stroke-width="2.0"/>
<line x1="119.6" y1="164.4" x2="165.6" y2="172.2" stroke="rgb(76,76,76)"  stroke-width="2.0"/>
<line x1="119.6" y1="164.4" x2="105.4" y2="177.0" stroke="rgb(76,76,76)"  stroke-width="2.0"/>
<line x1="165.6" y1="172.2" x2="182.5" y2="204.4" stroke="rgb(76,76,76)"  stroke-width="2.0"/>
<line x1="304.3" y1="253.1" x2="293.7" y2="246.8" stroke="rgb(76,76,76)"  stroke-width="2.0"/>
<line x1="231.9" y1="208.2" x2="182.5" y2="204.4" stroke="rgb(76,76,76)"  stroke-width="2.0"/>
<line x1="231.9" y1="208.2" x2="247.4" y2="240.8" stroke="rgb(76,76,76)"  stroke-width="2.0"/>
<line x1="64.7" y1="61.4" x2="78.3" y2="106.1" stroke="rgb(76,76,76)"  stroke-width="2.0"/>
<line x1="64.7" y1="61.4" x2="91.9" y2="40.0" stroke="rgb(76,76,76)"  stroke-width="2.0"/>
<line x1="64.7" y1="61.4" x2="40.0" y2="55.3" stroke="rgb(76,76,76)"  stroke-width="2.0"/>
<line x1="184.8" y1="206.3" x2="163.3" y2="231.0" stroke="rgb(76,76,76)"  stroke-width="2.0"/>
<line x1="180.3" y1="202.4" x2="158.8" y2="227.1" stroke="rgb(76,76,76)"  stroke-width="2.0"/>
<line x1="293.7" y1="246.8" x2="247.4" y2="240.8" stroke="rgb(76,76,76)"  stroke-width="2.0"/>
<line x1="293.7" y1="246.8" x2="310.4" y2="218.1" stroke="rgb(76,76,76)"  stroke-width="2.0"/>
<line x1="293.7" y1="246.8" x2="303.5" y2="273.9" stroke="rgb(76,76,76)"  stroke-width="2.0"/>
<circle cx="124.496095" cy="92.443180" r="4.400000" opacity="1.000000" style="stroke:black;fill:url(#radialffffffffcc)"/>
<circle cx="105.142295" cy="182.150659" r="2.066667" opacity="1.000000" style="stroke:black;fill:url(#radialffffffbfbfbf)"/>
<circle cx="185.440869" cy="153.245884" r="2.066667" opacity="1.000000" style="stroke:black;fill:url(#radialffffffbfbfbf)"/>
<circle cx="51.507665" cy="53.012315" r="2.066667" opacity="1.000000" style="stroke:black;fill:url(#radialffffffbfbfbf)"/>
<circle cx="108.429277" cy="117.208553" r="5.066667" opacity="1.000000" style="stroke:black;fill:url(#radialffffff666666)"/>
<circle cx="253.660270" cy="184.333369" r="4.400000" opacity="1.000000" style="stroke:black;fill:url(#radialffffffffcc)"/>
<circle cx="119.575309" cy="164.388688" r="5.066667" opacity="1.000000" style="stroke:black;fill:url(#radialffffff666666)"/>
<circle cx="165.628571" cy="172.186390" r="4.733333" opacity="1.000000" style="stroke:black;fill:url(#radialffffff0ccff)"/>
<circle cx="304.266227" cy="253.104906" r="2.066667" opacity="1.000000" style="stroke:black;fill:url(#radialffffffbfbfbf)"/>
<circle cx="231.865450" cy="208.226950" r="5.507293" opacity="1.000000" style="stroke:black;fill:url(#radialffffff666666)"/>
<circle cx="64.726627" cy="61.358923" r="5.902534" opacity="1.000000" style="stroke:black;fill:url(#radialffffff666666)"/>
<circle cx="182.528435" cy="204.374917" r="5.936126" opacity="1.000000" style="stroke:black;fill:url(#radialffffff666666)"/>
<circle cx="78.255559" cy="106.068978" r="5.216504" opacity="1.000000" style="stroke:black;fill:url(#radialffffffffcc)"/>
<circle cx="91.852298" cy="40.000000" r="2.700602" opacity="1.000000" style="stroke:black;fill:url(#radialffffffbfbfbf)"/>
<circle cx="105.381231" cy="176.978021" r="2.708911" opacity="1.000000" style="stroke:black;fill:url(#radialffffffbfbfbf)"/>
<circle cx="293.727221" cy="246.776336" r="7.915907" opacity="1.000000" style="stroke:black;fill:url(#radialffffff666666)"/>
<circle cx="247.422108" cy="240.751279" r="7.036648" opacity="1.000000" style="stroke:black;fill:url(#radialffffffffcc)"/>
<circle cx="161.020984" cy="229.075713" r="7.316885" opacity="1.000000" style="stroke:black;fill:url(#radialffffffffcc)"/>
<circle cx="40.000000" cy="55.317722" r="3.500710" opacity="1.000000" style="stroke:black;fill:url(#radialffffffbfbfbf)"/>
<circle cx="310.443041" cy="218.107268" r="3.749095" opacity="1.000000" style="stroke:black;fill:url(#radialffffffbfbfbf)"/>
<circle cx="303.488071" cy="273.934296" r="4.133333" opacity="1.000000" style="stroke:black;fill:url(#radialffffffbfbfbf)"/>
</svg>
</g>
</svg>
