<?xml version="1.0"?>
<svg version="1.1" id="topsvg"
xmlns="http://www.w3.org/2000/svg" xmlns:xlink="http://www.w3.org/1999/xlink"
xmlns:cml="http://www.xml-cml.org/schema" x="0" y="0" width="200px" height="200px" viewBox="0 0 100 100">
<title>88 - Open Babel Depiction</title>
<defs>
<radialGradient id='radialffffff0ccff' cx='50%' cy='50%' r='50%' fx='30%' fy='30%'>
  <stop offset=' 0%' stop-color="rgb(255,255,255)"  stop-opacity='0.8'/>
  <stop offset='100%' stop-color="rgb(12,12,255)"  stop-opacity ='1.0'/>
</radialGradient>
<radialGradient id='radialffffff666666' cx='50%' cy='50%' r='50%' fx='30%' fy='30%'>
  <stop offset=' 0%' stop-color="rgb(255,255,255)"  stop-opacity='0.8'/>
  <stop offset='100%' stop-color="rgb(102,102,102)"  stop-opacity ='1.0'/>
</radialGradient>
<radialGradient id='radialffffffbfbfbf' cx='50%' cy='50%' r='50%' fx='30%' fy='30%'>
  <stop offset=' 0%' stop-color="rgb(255,255,255)"  stop-opacity='0.8'/>
  <stop offset='100%' stop-color="rgb(191,191,191)"  stop-opacity ='1.0'/>
</radialGradient>
<radialGradient id='radialffffffffcc' cx='50%' cy='50%' r='50%' fx='30%' fy='30%'>
  <stop offset=' 0%' stop-color="rgb(255,255,255)"  stop-opacity='0.8'/>
  <stop offset='100%' stop-color="rgb(255,12,12)"  stop-opacity ='1.0'/>
</radialGradient>
</defs>
<g transform="translate(0,0)">
<svg width="100" height="100" x="0" y="0" viewBox="0 0 393.863 186.168"
font-family="sans-serif" stroke="rgb(76,76,76)" stroke-width="2"  stroke-linecap="round">
<line x1="159.5" y1="148.2" x2="138.3" y2="125.7" stroke="rgb(76,76,76)"  stroke-width="2.0"/>
<line x1="163.9" y1="144.1" x2="142.6" y2="121.6" stroke="rgb(76,76,76)"  stroke-width="2.0"/>
<line x1="299.4" y1="45.5" x2="278.3" y2="67.7" stroke="rgb(76,76,76)"  stroke-width="2.0"/>
<line x1="295.1" y1="41.3" x2="273.9" y2="63.6" stroke="rgb(76,76,76)"  stroke-width="2.0"/>
<line x1="208.8" y1="38.1" x2="228.7" y2="62.4" stroke="rgb(76,76,76)"  stroke-width="2.0"/>
<line x1="204.1" y1="41.9" x2="224.0" y2="66.2" stroke="rgb(76,76,76)"  stroke-width="2.0"/>
<line x1="352.3" y1="105.1" x2="340.0" y2="95.3" stroke="rgb(76,76,76)"  stroke-width="2.0"/>
<line x1="140.4" y1="123.6" x2="97.5" y2="125.0" stroke="rgb(76,76,76)"  stroke-width="2.0"/>
<line x1="140.4" y1="123.6" x2="159.7" y2="91.4" stroke="rgb(76,76,76)"  stroke-width="2.0"/>
<line x1="276.1" y1="65.6" x2="226.4" y2="64.3" stroke="rgb(76,76,76)"  stroke-width="2.0"/>
<line x1="276.1" y1="65.6" x2="293.4" y2="93.2" stroke="rgb(76,76,76)"  stroke-width="2.0"/>
<line x1="226.4" y1="64.3" x2="206.3" y2="90.4" stroke="rgb(76,76,76)"  stroke-width="2.0"/>
<line x1="97.5" y1="125.0" x2="74.7" y2="97.0" stroke="rgb(76,76,76)"  stroke-width="2.0"/>
<line x1="147.4" y1="59.0" x2="159.7" y2="91.4" stroke="rgb(76,76,76)"  stroke-width="2.0"/>
<line x1="81.5" y1="63.3" x2="74.7" y2="97.0" stroke="rgb(76,76,76)"  stroke-width="2.0"/>
<line x1="40.0" y1="101.8" x2="74.7" y2="97.0" stroke="rgb(76,76,76)"  stroke-width="2.0"/>
<line x1="293.4" y1="93.2" x2="340.0" y2="95.3" stroke="rgb(76,76,76)"  stroke-width="2.0"/>
<line x1="206.3" y1="90.4" x2="159.7" y2="91.4" stroke="rgb(76,76,76)"  stroke-width="2.0"/>
<line x1="206.3" y1="90.4" x2="223.3" y2="110.7" stroke="rgb(76,76,76)"  stroke-width="2.0"/>
<line x1="340.0" y1="95.3" x2="353.9" y2="64.0" stroke="rgb(76,76,76)"  stroke-width="2.0"/>
<line x1="340.0" y1="95.3" x2="351.3" y2="118.5" stroke="rgb(76,76,76)"  stroke-width="2.0"/>
<line x1="74.7" y1="97.0" x2="84.1" y2="103.6" stroke="rgb(76,76,76)"  stroke-width="2.0"/>
<line x1="159.7" y1="91.4" x2="150.0" y2="99.6" stroke="rgb(76,76,76)"  stroke-width="2.0"/>
<circle cx="161.698121" cy="146.167614" r="4.400000" opacity="1.000000" style="stroke:black;fill:url(#radialffffffffcc)"/>
<circle cx="297.248821" cy="43.394576" r="4.400000" opacity="1.000000" style="stroke:black;fill:url(#radialffffffffcc)"/>
<circle cx="206.456828" cy="40.000000" r="4.400000" opacity="1.000000" style="stroke:black;fill:url(#radialffffffffcc)"/>
<circle cx="352.297739" cy="105.055172" r="2.066667" opacity="1.000000" style="stroke:black;fill:url(#radialffffffbfbfbf)"/>
<circle cx="140.436848" cy="123.609174" r="5.066667" opacity="1.000000" style="stroke:black;fill:url(#radialffffff666666)"/>
<circle cx="276.084351" cy="65.623884" r="5.066667" opacity="1.000000" style="stroke:black;fill:url(#radialffffff666666)"/>
<circle cx="226.356398" cy="64.294449" r="5.066667" opacity="1.000000" style="stroke:black;fill:url(#radialffffff666666)"/>
<circle cx="97.465778" cy="125.016052" r="4.400000" opacity="1.000000" style="stroke:black;fill:url(#radialffffffffcc)"/>
<circle cx="147.377658" cy="59.028339" r="2.240017" opacity="1.000000" style="stroke:black;fill:url(#radialffffffbfbfbf)"/>
<circle cx="81.525470" cy="63.261879" r="2.256044" opacity="1.000000" style="stroke:black;fill:url(#radialffffffbfbfbf)"/>
<circle cx="40.000000" cy="101.809028" r="2.458348" opacity="1.000000" style="stroke:black;fill:url(#radialffffffbfbfbf)"/>
<circle cx="293.396042" cy="93.161250" r="5.265772" opacity="1.000000" style="stroke:black;fill:url(#radialffffffffcc)"/>
<circle cx="206.289035" cy="90.437845" r="5.697245" opacity="1.000000" style="stroke:black;fill:url(#radialffffff0ccff)"/>
<circle cx="340.042417" cy="95.278019" r="6.105132" opacity="1.000000" style="stroke:black;fill:url(#radialffffff666666)"/>
<circle cx="74.678237" cy="96.997895" r="6.323093" opacity="1.000000" style="stroke:black;fill:url(#radialffffff666666)"/>
<circle cx="159.658794" cy="91.418787" r="6.332731" opacity="1.000000" style="stroke:black;fill:url(#radialffffff666666)"/>
<circle cx="353.862728" cy="63.978224" r="2.859329" opacity="1.000000" style="stroke:black;fill:url(#radialffffffbfbfbf)"/>
<circle cx="223.307088" cy="110.689135" r="3.403041" opacity="1.000000" style="stroke:black;fill:url(#radialffffffbfbfbf)"/>
<circle cx="351.261941" cy="118.494723" r="3.606706" opacity="1.000000" style="stroke:black;fill:url(#radialffffffbfbfbf)"/>
<circle cx="150.017166" cy="99.627723" r="4.132426" opacity="1.000000" style="stroke:black;fill:url(#radialffffffbfbfbf)"/>
<circle cx="84.139165" cy="103.564398" r="4.133333" opacity="1.000000" style="stroke:black;fill:url(#radialffffffbfbfbf)"/>
</svg>
</g>
</svg>
