<?xml version="1.0"?>
<svg version="1.1" id="topsvg"
xmlns="http://www.w3.org/2000/svg" xmlns:xlink="http://www.w3.org/1999/xlink"
xmlns:cml="http://www.xml-cml.org/schema" x="0" y="0" width="200px" height="200px" viewBox="0 0 100 100">
<title>89 - Open Babel Depiction</title>
<defs>
<radialGradient id='radialffffff0ccff' cx='50%' cy='50%' r='50%' fx='30%' fy='30%'>
  <stop offset=' 0%' stop-color="rgb(255,255,255)"  stop-opacity='0.8'/>
  <stop offset='100%' stop-color="rgb(12,12,255)"  stop-opacity ='1.0'/>
</radialGradient>
<radialGradient id='radialffffff666666' cx='50%' cy='50%' r='50%' fx='30%' fy='30%'>
  <stop offset=' 0%' stop-color="rgb(255,255,255)"  stop-opacity='0.8'/>
  <stop offset='100%' stop-color="rgb(102,102,102)"  stop-opacity ='1.0'/>
</radialGradient>
<radialGradient id='radialffffffbfbfbf' cx='50%' cy='50%' r='50%' fx='30%' fy='30%'>
  <stop offset=' 0%' stop-color="rgb(255,255,255)"  stop-opacity='0.8'/>
  <stop offset='100%' stop-color="rgb(191,191,191)"  stop-opacity ='1.0'/>
</radialGradient>
<radialGradient id='radialffffffffcc' cx='50%' cy='50%' r='50%' fx='30%' fy='30%'>
  <stop offset=' 0%' stop-color="rgb(255,255,255)"  stop-opacity='0.8'/>
  <stop offset='100%' stop-color="rgb(255,12,12)"  stop-opacity ='1.0'/>
</radialGradient>
</defs>
<g transform="translate(0,0)">
<svg width="100" height="100" x="0" y="0" viewBox="0 0 399.117 215.327"
font-family="sans-serif" stroke="rgb(76,76,76)" stroke-width="2"  stroke-linecap="round">
<line x1="83.4" y1="111.3" x2="73.8" y2="117.4" stroke="rgb(76,76,76)"  stroke-width="2.0"/>
<line x1="73.8" y1="117.4" x2="40.0" y2="108.4" stroke="rgb(76,76,76)"  stroke-width="2.0"/>
<line x1="73.8" y1="117.4" x2="76.6" y2="151.9" stroke="rgb(76,76,76)"  stroke-width="2.0"/>
<line x1="73.8" y1="117.4" x2="100.5" y2="93.1" stroke="rgb(76,76,76)"  stroke-width="2.0"/>
<line x1="156.5" y1="129.1" x2="140.1" y2="103.0" stroke="rgb(76,76,76)"  stroke-width="2.0"/>
<line x1="161.5" y1="125.9" x2="145.1" y2="99.8" stroke="rgb(76,76,76)"  stroke-width="2.0"/>
<line x1="142.6" y1="101.4" x2="100.5" y2="93.1" stroke="rgb(76,76,76)"  stroke-width="2.0"/>
<line x1="142.6" y1="101.4" x2="166.7" y2="74.2" stroke="rgb(76,76,76)"  stroke-width="2.0"/>
<line x1="231.9" y1="67.0" x2="212.7" y2="82.5" stroke="rgb(76,76,76)"  stroke-width="2.0"/>
<line x1="161.2" y1="40.0" x2="166.7" y2="74.2" stroke="rgb(76,76,76)"  stroke-width="2.0"/>
<line x1="302.5" y1="98.4" x2="281.4" y2="118.2" stroke="rgb(76,76,76)"  stroke-width="2.0"/>
<line x1="298.4" y1="94.0" x2="277.3" y2="113.8" stroke="rgb(76,76,76)"  stroke-width="2.0"/>
<line x1="166.7" y1="74.2" x2="212.7" y2="82.5" stroke="rgb(76,76,76)"  stroke-width="2.0"/>
<line x1="166.7" y1="74.2" x2="153.8" y2="80.6" stroke="rgb(76,76,76)"  stroke-width="2.0"/>
<line x1="212.7" y1="82.5" x2="230.2" y2="110.8" stroke="rgb(76,76,76)"  stroke-width="2.0"/>
<line x1="350.8" y1="163.1" x2="341.7" y2="151.5" stroke="rgb(76,76,76)"  stroke-width="2.0"/>
<line x1="279.4" y1="116.0" x2="230.2" y2="110.8" stroke="rgb(76,76,76)"  stroke-width="2.0"/>
<line x1="279.4" y1="116.0" x2="295.5" y2="144.6" stroke="rgb(76,76,76)"  stroke-width="2.0"/>
<line x1="232.3" y1="113.0" x2="211.5" y2="133.4" stroke="rgb(76,76,76)"  stroke-width="2.0"/>
<line x1="228.1" y1="108.7" x2="207.3" y2="129.1" stroke="rgb(76,76,76)"  stroke-width="2.0"/>
<line x1="341.7" y1="151.5" x2="295.5" y2="144.6" stroke="rgb(76,76,76)"  stroke-width="2.0"/>
<line x1="341.7" y1="151.5" x2="359.1" y2="121.7" stroke="rgb(76,76,76)"  stroke-width="2.0"/>
<line x1="341.7" y1="151.5" x2="352.0" y2="175.3" stroke="rgb(76,76,76)"  stroke-width="2.0"/>
<circle cx="83.358911" cy="111.319903" r="2.066667" opacity="1.000000" style="stroke:black;fill:url(#radialffffffbfbfbf)"/>
<circle cx="73.788890" cy="117.399643" r="5.066667" opacity="1.000000" style="stroke:black;fill:url(#radialffffff666666)"/>
<circle cx="40.000000" cy="108.439856" r="2.066667" opacity="1.000000" style="stroke:black;fill:url(#radialffffffbfbfbf)"/>
<circle cx="159.008570" cy="127.528238" r="4.400000" opacity="1.000000" style="stroke:black;fill:url(#radialffffffffcc)"/>
<circle cx="76.649564" cy="151.882714" r="2.066667" opacity="1.000000" style="stroke:black;fill:url(#radialffffffbfbfbf)"/>
<circle cx="142.590366" cy="101.423778" r="5.066667" opacity="1.000000" style="stroke:black;fill:url(#radialffffff666666)"/>
<circle cx="100.513270" cy="93.096827" r="4.400000" opacity="1.000000" style="stroke:black;fill:url(#radialffffffffcc)"/>
<circle cx="231.926705" cy="67.047256" r="2.066667" opacity="1.000000" style="stroke:black;fill:url(#radialffffffbfbfbf)"/>
<circle cx="161.165376" cy="40.000000" r="2.167618" opacity="1.000000" style="stroke:black;fill:url(#radialffffffbfbfbf)"/>
<circle cx="300.482796" cy="96.189971" r="4.790246" opacity="1.000000" style="stroke:black;fill:url(#radialffffffffcc)"/>
<circle cx="166.731745" cy="74.221542" r="5.759568" opacity="1.000000" style="stroke:black;fill:url(#radialffffff666666)"/>
<circle cx="212.702716" cy="82.516206" r="5.382131" opacity="1.000000" style="stroke:black;fill:url(#radialffffff0ccff)"/>
<circle cx="350.841641" cy="163.115543" r="2.741454" opacity="1.000000" style="stroke:black;fill:url(#radialffffffbfbfbf)"/>
<circle cx="279.350615" cy="115.975763" r="7.125539" opacity="1.000000" style="stroke:black;fill:url(#radialffffff666666)"/>
<circle cx="230.231610" cy="110.835590" r="7.434707" opacity="1.000000" style="stroke:black;fill:url(#radialffffff666666)"/>
<circle cx="153.826423" cy="80.566040" r="3.160304" opacity="1.000000" style="stroke:black;fill:url(#radialffffffbfbfbf)"/>
<circle cx="341.681672" cy="151.517865" r="8.678320" opacity="1.000000" style="stroke:black;fill:url(#radialffffff666666)"/>
<circle cx="295.536348" cy="144.582506" r="7.667666" opacity="1.000000" style="stroke:black;fill:url(#radialffffffffcc)"/>
<circle cx="359.116933" cy="121.661596" r="3.695474" opacity="1.000000" style="stroke:black;fill:url(#radialffffffbfbfbf)"/>
<circle cx="209.415846" cy="131.289734" r="7.894133" opacity="1.000000" style="stroke:black;fill:url(#radialffffffffcc)"/>
<circle cx="351.978162" cy="175.326683" r="4.133333" opacity="1.000000" style="stroke:black;fill:url(#radialffffffbfbfbf)"/>
</svg>
</g>
</svg>
