<?xml version="1.0"?>
<svg version="1.1" id="topsvg"
xmlns="http://www.w3.org/2000/svg" xmlns:xlink="http://www.w3.org/1999/xlink"
xmlns:cml="http://www.xml-cml.org/schema" x="0" y="0" width="200px" height="200px" viewBox="0 0 100 100">
<title>76 - Open Babel Depiction</title>
<defs>
<radialGradient id='radialffffff0ccff' cx='50%' cy='50%' r='50%' fx='30%' fy='30%'>
  <stop offset=' 0%' stop-color="rgb(255,255,255)"  stop-opacity='0.8'/>
  <stop offset='100%' stop-color="rgb(12,12,255)"  stop-opacity ='1.0'/>
</radialGradient>
<radialGradient id='radialffffff666666' cx='50%' cy='50%' r='50%' fx='30%' fy='30%'>
  <stop offset=' 0%' stop-color="rgb(255,255,255)"  stop-opacity='0.8'/>
  <stop offset='100%' stop-color="rgb(102,102,102)"  stop-opacity ='1.0'/>
</radialGradient>
<radialGradient id='radialffffffbfbfbf' cx='50%' cy='50%' r='50%' fx='30%' fy='30%'>
  <stop offset=' 0%' stop-color="rgb(255,255,255)"  stop-opacity='0.8'/>
  <stop offset='100%' stop-color="rgb(191,191,191)"  stop-opacity ='1.0'/>
</radialGradient>
<radialGradient id='radialffffffffcc' cx='50%' cy='50%' r='50%' fx='30%' fy='30%'>
  <stop offset=' 0%' stop-color="rgb(255,255,255)"  stop-opacity='0.8'/>
  <stop offset='100%' stop-color="rgb(255,12,12)"  stop-opacity ='1.0'/>
</radialGradient>
</defs>
<g transform="translate(0,0)">
<svg width="100" height="100" x="0" y="0" viewBox="0 0 319.875 314.949"
font-family="sans-serif" stroke="rgb(76,76,76)" stroke-width="2"  stroke-linecap="round">
<line x1="74.1" y1="188.5" x2="87.4" y2="175.2" stroke="rgb(76,76,76)"  stroke-width="2.0"/>
<line x1="81.4" y1="47.1" x2="104.0" y2="57.3" stroke="rgb(76,76,76)"  stroke-width="2.0"/>
<line x1="153.0" y1="166.4" x2="133.5" y2="183.1" stroke="rgb(76,76,76)"  stroke-width="2.0"/>
<line x1="134.2" y1="40.0" x2="104.0" y2="57.3" stroke="rgb(76,76,76)"  stroke-width="2.0"/>
<line x1="110.9" y1="103.5" x2="104.0" y2="57.3" stroke="rgb(76,76,76)"  stroke-width="2.0"/>
<line x1="110.9" y1="103.5" x2="76.1" y2="128.0" stroke="rgb(76,76,76)"  stroke-width="2.0"/>
<line x1="223.6" y1="196.6" x2="202.6" y2="217.8" stroke="rgb(76,76,76)"  stroke-width="2.0"/>
<line x1="219.3" y1="192.4" x2="198.3" y2="213.6" stroke="rgb(76,76,76)"  stroke-width="2.0"/>
<line x1="104.0" y1="57.3" x2="90.8" y2="47.9" stroke="rgb(76,76,76)"  stroke-width="2.0"/>
<line x1="87.4" y1="175.2" x2="133.5" y2="183.1" stroke="rgb(76,76,76)"  stroke-width="2.0"/>
<line x1="87.4" y1="175.2" x2="76.1" y2="128.0" stroke="rgb(76,76,76)"  stroke-width="2.0"/>
<line x1="87.4" y1="175.2" x2="71.9" y2="192.2" stroke="rgb(76,76,76)"  stroke-width="2.0"/>
<line x1="133.5" y1="183.1" x2="151.2" y2="212.1" stroke="rgb(76,76,76)"  stroke-width="2.0"/>
<line x1="75.0" y1="130.8" x2="38.9" y2="116.6" stroke="rgb(76,76,76)"  stroke-width="2.0"/>
<line x1="77.2" y1="125.2" x2="41.1" y2="111.0" stroke="rgb(76,76,76)"  stroke-width="2.0"/>
<line x1="273.2" y1="260.8" x2="263.3" y2="250.6" stroke="rgb(76,76,76)"  stroke-width="2.0"/>
<line x1="200.5" y1="215.7" x2="151.2" y2="212.1" stroke="rgb(76,76,76)"  stroke-width="2.0"/>
<line x1="200.5" y1="215.7" x2="217.0" y2="244.9" stroke="rgb(76,76,76)"  stroke-width="2.0"/>
<line x1="153.4" y1="214.1" x2="132.9" y2="236.3" stroke="rgb(76,76,76)"  stroke-width="2.0"/>
<line x1="149.0" y1="210.0" x2="128.5" y2="232.2" stroke="rgb(76,76,76)"  stroke-width="2.0"/>
<line x1="263.3" y1="250.6" x2="217.0" y2="244.9" stroke="rgb(76,76,76)"  stroke-width="2.0"/>
<line x1="263.3" y1="250.6" x2="279.9" y2="220.5" stroke="rgb(76,76,76)"  stroke-width="2.0"/>
<line x1="263.3" y1="250.6" x2="273.9" y2="274.9" stroke="rgb(76,76,76)"  stroke-width="2.0"/>
<circle cx="74.080662" cy="188.494315" r="2.066667" opacity="1.000000" style="stroke:black;fill:url(#radialffffffbfbfbf)"/>
<circle cx="81.441776" cy="47.064086" r="2.066667" opacity="1.000000" style="stroke:black;fill:url(#radialffffffbfbfbf)"/>
<circle cx="152.967258" cy="166.378690" r="2.066667" opacity="1.000000" style="stroke:black;fill:url(#radialffffffbfbfbf)"/>
<circle cx="134.173820" cy="40.000000" r="2.066667" opacity="1.000000" style="stroke:black;fill:url(#radialffffffbfbfbf)"/>
<circle cx="110.886228" cy="103.476687" r="4.400000" opacity="1.000000" style="stroke:black;fill:url(#radialffffffffcc)"/>
<circle cx="221.428839" cy="194.460691" r="4.400000" opacity="1.000000" style="stroke:black;fill:url(#radialffffffffcc)"/>
<circle cx="103.983570" cy="57.305073" r="5.066667" opacity="1.000000" style="stroke:black;fill:url(#radialffffff666666)"/>
<circle cx="87.388780" cy="175.218483" r="5.066667" opacity="1.000000" style="stroke:black;fill:url(#radialffffff666666)"/>
<circle cx="133.469994" cy="183.096165" r="4.733333" opacity="1.000000" style="stroke:black;fill:url(#radialffffff0ccff)"/>
<circle cx="76.069454" cy="127.965302" r="5.066667" opacity="1.000000" style="stroke:black;fill:url(#radialffffff666666)"/>
<circle cx="40.000000" cy="113.772559" r="4.400000" opacity="1.000000" style="stroke:black;fill:url(#radialffffffffcc)"/>
<circle cx="273.205230" cy="260.820480" r="2.066667" opacity="1.000000" style="stroke:black;fill:url(#radialffffffbfbfbf)"/>
<circle cx="200.459353" cy="215.740119" r="5.320552" opacity="1.000000" style="stroke:black;fill:url(#radialffffff666666)"/>
<circle cx="71.891700" cy="192.187786" r="2.335892" opacity="1.000000" style="stroke:black;fill:url(#radialffffffbfbfbf)"/>
<circle cx="151.168951" cy="212.082163" r="5.772156" opacity="1.000000" style="stroke:black;fill:url(#radialffffff666666)"/>
<circle cx="90.820738" cy="47.935797" r="2.477193" opacity="1.000000" style="stroke:black;fill:url(#radialffffffbfbfbf)"/>
<circle cx="263.316156" cy="250.592407" r="7.821744" opacity="1.000000" style="stroke:black;fill:url(#radialffffff666666)"/>
<circle cx="216.983114" cy="244.932745" r="6.970473" opacity="1.000000" style="stroke:black;fill:url(#radialffffffffcc)"/>
<circle cx="130.719263" cy="234.233302" r="7.272716" opacity="1.000000" style="stroke:black;fill:url(#radialffffffffcc)"/>
<circle cx="279.875432" cy="220.534529" r="3.497945" opacity="1.000000" style="stroke:black;fill:url(#radialffffffbfbfbf)"/>
<circle cx="273.905828" cy="274.948652" r="4.133333" opacity="1.000000" style="stroke:black;fill:url(#radialffffffbfbfbf)"/>
</svg>
</g>
</svg>
