<?xml version="1.0"?>
<svg version="1.1" id="topsvg"
xmlns="http://www.w3.org/2000/svg" xmlns:xlink="http://www.w3.org/1999/xlink"
xmlns:cml="http://www.xml-cml.org/schema" x="0" y="0" width="200px" height="200px" viewBox="0 0 100 100">
<title>77 - Open Babel Depiction</title>
<defs>
<radialGradient id='radialffffff0ccff' cx='50%' cy='50%' r='50%' fx='30%' fy='30%'>
  <stop offset=' 0%' stop-color="rgb(255,255,255)"  stop-opacity='0.8'/>
  <stop offset='100%' stop-color="rgb(12,12,255)"  stop-opacity ='1.0'/>
</radialGradient>
<radialGradient id='radialffffff666666' cx='50%' cy='50%' r='50%' fx='30%' fy='30%'>
  <stop offset=' 0%' stop-color="rgb(255,255,255)"  stop-opacity='0.8'/>
  <stop offset='100%' stop-color="rgb(102,102,102)"  stop-opacity ='1.0'/>
</radialGradient>
<radialGradient id='radialffffffbfbfbf' cx='50%' cy='50%' r='50%' fx='30%' fy='30%'>
  <stop offset=' 0%' stop-color="rgb(255,255,255)"  stop-opacity='0.8'/>
  <stop offset='100%' stop-color="rgb(191,191,191)"  stop-opacity ='1.0'/>
</radialGradient>
<radialGradient id='radialffffffffcc' cx='50%' cy='50%' r='50%' fx='30%' fy='30%'>
  <stop offset=' 0%' stop-color="rgb(255,255,255)"  stop-opacity='0.8'/>
  <stop offset='100%' stop-color="rgb(255,12,12)"  stop-opacity ='1.0'/>
</radialGradient>
</defs>
<g transform="translate(0,0)">
<svg width="100" height="100" x="0" y="0" viewBox="0 0 380.369 224.134"
font-family="sans-serif" stroke="rgb(76,76,76)" stroke-width="2"  stroke-linecap="round">
<line x1="194.7" y1="102.1" x2="214.4" y2="124.7" stroke="rgb(76,76,76)"  stroke-width="2.0"/>
<line x1="190.1" y1="106.1" x2="209.8" y2="128.6" stroke="rgb(76,76,76)"  stroke-width="2.0"/>
<line x1="285.3" y1="103.3" x2="264.0" y2="126.7" stroke="rgb(76,76,76)"  stroke-width="2.0"/>
<line x1="280.8" y1="99.3" x2="259.5" y2="122.7" stroke="rgb(76,76,76)"  stroke-width="2.0"/>
<line x1="134.7" y1="164.4" x2="145.3" y2="157.1" stroke="rgb(76,76,76)"  stroke-width="2.0"/>
<line x1="212.1" y1="126.6" x2="261.7" y2="124.7" stroke="rgb(76,76,76)"  stroke-width="2.0"/>
<line x1="212.1" y1="126.6" x2="191.9" y2="153.6" stroke="rgb(76,76,76)"  stroke-width="2.0"/>
<line x1="261.7" y1="124.7" x2="278.8" y2="150.9" stroke="rgb(76,76,76)"  stroke-width="2.0"/>
<line x1="40.0" y1="62.7" x2="66.1" y2="68.3" stroke="rgb(76,76,76)"  stroke-width="2.0"/>
<line x1="340.4" y1="159.2" x2="325.4" y2="150.0" stroke="rgb(76,76,76)"  stroke-width="2.0"/>
<line x1="90.2" y1="106.6" x2="66.1" y2="68.3" stroke="rgb(76,76,76)"  stroke-width="2.0"/>
<line x1="90.2" y1="106.6" x2="123.1" y2="116.6" stroke="rgb(76,76,76)"  stroke-width="2.0"/>
<line x1="145.3" y1="157.1" x2="191.9" y2="153.6" stroke="rgb(76,76,76)"  stroke-width="2.0"/>
<line x1="145.3" y1="157.1" x2="123.1" y2="116.6" stroke="rgb(76,76,76)"  stroke-width="2.0"/>
<line x1="145.3" y1="157.1" x2="135.4" y2="184.1" stroke="rgb(76,76,76)"  stroke-width="2.0"/>
<line x1="191.9" y1="153.6" x2="208.7" y2="171.9" stroke="rgb(76,76,76)"  stroke-width="2.0"/>
<line x1="86.9" y1="40.0" x2="66.1" y2="68.3" stroke="rgb(76,76,76)"  stroke-width="2.0"/>
<line x1="66.1" y1="68.3" x2="52.2" y2="71.5" stroke="rgb(76,76,76)"  stroke-width="2.0"/>
<line x1="278.8" y1="150.9" x2="325.4" y2="150.0" stroke="rgb(76,76,76)"  stroke-width="2.0"/>
<line x1="325.4" y1="150.0" x2="336.6" y2="117.7" stroke="rgb(76,76,76)"  stroke-width="2.0"/>
<line x1="325.4" y1="150.0" x2="336.4" y2="172.2" stroke="rgb(76,76,76)"  stroke-width="2.0"/>
<line x1="120.4" y1="115.3" x2="130.7" y2="94.4" stroke="rgb(76,76,76)"  stroke-width="2.0"/>
<line x1="125.8" y1="117.9" x2="136.1" y2="97.0" stroke="rgb(76,76,76)"  stroke-width="2.0"/>
<circle cx="192.397191" cy="104.090617" r="4.400000" opacity="1.000000" style="stroke:black;fill:url(#radialffffffffcc)"/>
<circle cx="283.063384" cy="101.285543" r="4.400000" opacity="1.000000" style="stroke:black;fill:url(#radialffffffffcc)"/>
<circle cx="134.720477" cy="164.365818" r="2.066667" opacity="1.000000" style="stroke:black;fill:url(#radialffffffbfbfbf)"/>
<circle cx="212.097269" cy="126.631276" r="5.066667" opacity="1.000000" style="stroke:black;fill:url(#radialffffff666666)"/>
<circle cx="261.746112" cy="124.691288" r="5.066667" opacity="1.000000" style="stroke:black;fill:url(#radialffffff666666)"/>
<circle cx="40.000000" cy="62.737563" r="2.066667" opacity="1.000000" style="stroke:black;fill:url(#radialffffffbfbfbf)"/>
<circle cx="340.368886" cy="159.210808" r="2.066667" opacity="1.000000" style="stroke:black;fill:url(#radialffffffbfbfbf)"/>
<circle cx="90.223416" cy="106.631001" r="4.400000" opacity="1.000000" style="stroke:black;fill:url(#radialffffffffcc)"/>
<circle cx="145.304871" cy="157.093284" r="5.350888" opacity="1.000000" style="stroke:black;fill:url(#radialffffff666666)"/>
<circle cx="191.867810" cy="153.613572" r="5.059573" opacity="1.000000" style="stroke:black;fill:url(#radialffffff0ccff)"/>
<circle cx="86.940607" cy="40.000000" r="2.216646" opacity="1.000000" style="stroke:black;fill:url(#radialffffffbfbfbf)"/>
<circle cx="66.123665" cy="68.286380" r="5.445244" opacity="1.000000" style="stroke:black;fill:url(#radialffffff666666)"/>
<circle cx="278.799284" cy="150.856916" r="5.193476" opacity="1.000000" style="stroke:black;fill:url(#radialffffffffcc)"/>
<circle cx="325.362223" cy="149.956323" r="6.346901" opacity="1.000000" style="stroke:black;fill:url(#radialffffff666666)"/>
<circle cx="123.080550" cy="116.582720" r="6.906107" opacity="1.000000" style="stroke:black;fill:url(#radialffffff666666)"/>
<circle cx="336.579292" cy="117.748004" r="2.938213" opacity="1.000000" style="stroke:black;fill:url(#radialffffffbfbfbf)"/>
<circle cx="135.443534" cy="184.133682" r="3.042505" opacity="1.000000" style="stroke:black;fill:url(#radialffffffbfbfbf)"/>
<circle cx="208.707939" cy="171.890130" r="3.107637" opacity="1.000000" style="stroke:black;fill:url(#radialffffffbfbfbf)"/>
<circle cx="52.153169" cy="71.472351" r="3.557910" opacity="1.000000" style="stroke:black;fill:url(#radialffffffbfbfbf)"/>
<circle cx="336.372704" cy="172.187100" r="3.625195" opacity="1.000000" style="stroke:black;fill:url(#radialffffffbfbfbf)"/>
<circle cx="133.377657" cy="95.691535" r="8.800000" opacity="1.000000" style="stroke:black;fill:url(#radialffffffffcc)"/>
</svg>
</g>
</svg>
