<?xml version="1.0"?>
<svg version="1.1" id="topsvg"
xmlns="http://www.w3.org/2000/svg" xmlns:xlink="http://www.w3.org/1999/xlink"
xmlns:cml="http://www.xml-cml.org/schema" x="0" y="0" width="200px" height="200px" viewBox="0 0 100 100">
<title>97 - Open Babel Depiction</title>
<defs>
<radialGradient id='radialffffff0ccff' cx='50%' cy='50%' r='50%' fx='30%' fy='30%'>
  <stop offset=' 0%' stop-color="rgb(255,255,255)"  stop-opacity='0.8'/>
  <stop offset='100%' stop-color="rgb(12,12,255)"  stop-opacity ='1.0'/>
</radialGradient>
<radialGradient id='radialffffff666666' cx='50%' cy='50%' r='50%' fx='30%' fy='30%'>
  <stop offset=' 0%' stop-color="rgb(255,255,255)"  stop-opacity='0.8'/>
  <stop offset='100%' stop-color="rgb(102,102,102)"  stop-opacity ='1.0'/>
</radialGradient>
<radialGradient id='radialffffffbfbfbf' cx='50%' cy='50%' r='50%' fx='30%' fy='30%'>
  <stop offset=' 0%' stop-color="rgb(255,255,255)"  stop-opacity='0.8'/>
  <stop offset='100%' stop-color="rgb(191,191,191)"  stop-opacity ='1.0'/>
</radialGradient>
<radialGradient id='radialffffffffcc' cx='50%' cy='50%' r='50%' fx='30%' fy='30%'>
  <stop offset=' 0%' stop-color="rgb(255,255,255)"  stop-opacity='0.8'/>
  <stop offset='100%' stop-color="rgb(255,12,12)"  stop-opacity ='1.0'/>
</radialGradient>
</defs>
<g transform="translate(0,0)">
<svg width="100" height="100" x="0" y="0" viewBox="0 0 370.913 211.826"
font-family="sans-serif" stroke="rgb(76,76,76)" stroke-width="2"  stroke-linecap="round">
<line x1="85.5" y1="106.4" x2="72.8" y2="123.9" stroke="rgb(76,76,76)"  stroke-width="2.0"/>
<line x1="71.6" y1="158.0" x2="72.8" y2="123.9" stroke="rgb(76,76,76)"  stroke-width="2.0"/>
<line x1="72.8" y1="123.9" x2="40.0" y2="112.9" stroke="rgb(76,76,76)"  stroke-width="2.0"/>
<line x1="72.8" y1="123.9" x2="99.7" y2="117.0" stroke="rgb(76,76,76)"  stroke-width="2.0"/>
<line x1="88.8" y1="44.3" x2="106.2" y2="74.8" stroke="rgb(76,76,76)"  stroke-width="2.0"/>
<line x1="83.6" y1="47.3" x2="101.0" y2="77.8" stroke="rgb(76,76,76)"  stroke-width="2.0"/>
<line x1="99.7" y1="117.0" x2="103.6" y2="76.3" stroke="rgb(76,76,76)"  stroke-width="2.0"/>
<line x1="103.6" y1="76.3" x2="132.3" y2="73.4" stroke="rgb(76,76,76)"  stroke-width="2.0"/>
<line x1="189.5" y1="80.8" x2="176.1" y2="87.0" stroke="rgb(76,76,76)"  stroke-width="2.0"/>
<line x1="261.0" y1="112.8" x2="247.3" y2="120.6" stroke="rgb(76,76,76)"  stroke-width="2.0"/>
<line x1="258.0" y1="107.5" x2="244.3" y2="115.3" stroke="rgb(76,76,76)"  stroke-width="2.0"/>
<line x1="176.1" y1="87.0" x2="132.3" y2="73.4" stroke="rgb(76,76,76)"  stroke-width="2.0"/>
<line x1="176.1" y1="87.0" x2="199.8" y2="106.5" stroke="rgb(76,76,76)"  stroke-width="2.0"/>
<line x1="312.3" y1="171.8" x2="312.1" y2="149.4" stroke="rgb(76,76,76)"  stroke-width="2.0"/>
<line x1="132.3" y1="73.4" x2="132.6" y2="40.0" stroke="rgb(76,76,76)"  stroke-width="2.0"/>
<line x1="132.3" y1="73.4" x2="118.8" y2="93.7" stroke="rgb(76,76,76)"  stroke-width="2.0"/>
<line x1="245.8" y1="118.0" x2="199.8" y2="106.5" stroke="rgb(76,76,76)"  stroke-width="2.0"/>
<line x1="245.8" y1="118.0" x2="268.3" y2="137.3" stroke="rgb(76,76,76)"  stroke-width="2.0"/>
<line x1="330.9" y1="121.2" x2="312.1" y2="149.4" stroke="rgb(76,76,76)"  stroke-width="2.0"/>
<line x1="201.4" y1="109.0" x2="188.1" y2="117.2" stroke="rgb(76,76,76)"  stroke-width="2.0"/>
<line x1="198.2" y1="103.9" x2="185.0" y2="112.1" stroke="rgb(76,76,76)"  stroke-width="2.0"/>
<line x1="312.1" y1="149.4" x2="268.3" y2="137.3" stroke="rgb(76,76,76)"  stroke-width="2.0"/>
<line x1="312.1" y1="149.4" x2="328.0" y2="165.0" stroke="rgb(76,76,76)"  stroke-width="2.0"/>
<circle cx="85.465934" cy="106.402026" r="2.066667" opacity="1.000000" style="stroke:black;fill:url(#radialffffffbfbfbf)"/>
<circle cx="71.555896" cy="158.035131" r="2.066667" opacity="1.000000" style="stroke:black;fill:url(#radialffffffbfbfbf)"/>
<circle cx="72.821619" cy="123.915500" r="5.066667" opacity="1.000000" style="stroke:black;fill:url(#radialffffff666666)"/>
<circle cx="40.000000" cy="112.859797" r="2.066667" opacity="1.000000" style="stroke:black;fill:url(#radialffffffbfbfbf)"/>
<circle cx="86.234409" cy="45.779705" r="4.400000" opacity="1.000000" style="stroke:black;fill:url(#radialffffffffcc)"/>
<circle cx="99.650427" cy="116.979855" r="4.400000" opacity="1.000000" style="stroke:black;fill:url(#radialffffffffcc)"/>
<circle cx="103.570294" cy="76.305586" r="5.066667" opacity="1.000000" style="stroke:black;fill:url(#radialffffff666666)"/>
<circle cx="189.468330" cy="80.848628" r="2.066667" opacity="1.000000" style="stroke:black;fill:url(#radialffffffbfbfbf)"/>
<circle cx="259.518997" cy="110.150762" r="4.444861" opacity="1.000000" style="stroke:black;fill:url(#radialffffffffcc)"/>
<circle cx="176.133034" cy="87.025486" r="5.871125" opacity="1.000000" style="stroke:black;fill:url(#radialffffff0ccff)"/>
<circle cx="312.320958" cy="171.825701" r="2.760339" opacity="1.000000" style="stroke:black;fill:url(#radialffffffbfbfbf)"/>
<circle cx="132.278313" cy="73.444794" r="6.781617" opacity="1.000000" style="stroke:black;fill:url(#radialffffff666666)"/>
<circle cx="245.793005" cy="117.951749" r="7.177382" opacity="1.000000" style="stroke:black;fill:url(#radialffffff666666)"/>
<circle cx="132.620575" cy="40.000000" r="3.040299" opacity="1.000000" style="stroke:black;fill:url(#radialffffffbfbfbf)"/>
<circle cx="330.912880" cy="121.174177" r="3.185024" opacity="1.000000" style="stroke:black;fill:url(#radialffffffbfbfbf)"/>
<circle cx="199.810449" cy="106.450460" r="8.026992" opacity="1.000000" style="stroke:black;fill:url(#radialffffff666666)"/>
<circle cx="118.762199" cy="93.657616" r="3.371892" opacity="1.000000" style="stroke:black;fill:url(#radialffffffbfbfbf)"/>
<circle cx="312.088478" cy="149.433381" r="8.328005" opacity="1.000000" style="stroke:black;fill:url(#radialffffff666666)"/>
<circle cx="268.346769" cy="137.344434" r="7.788489" opacity="1.000000" style="stroke:black;fill:url(#radialffffffffcc)"/>
<circle cx="328.006883" cy="164.977235" r="4.036293" opacity="1.000000" style="stroke:black;fill:url(#radialffffffbfbfbf)"/>
<circle cx="186.542960" cy="114.667973" r="8.800000" opacity="1.000000" style="stroke:black;fill:url(#radialffffffffcc)"/>
</svg>
</g>
</svg>
