<?xml version="1.0"?>
<svg version="1.1" id="topsvg"
xmlns="http://www.w3.org/2000/svg" xmlns:xlink="http://www.w3.org/1999/xlink"
xmlns:cml="http://www.xml-cml.org/schema" x="0" y="0" width="200px" height="200px" viewBox="0 0 100 100">
<title>82 - Open Babel Depiction</title>
<defs>
<radialGradient id='radialffffff0ccff' cx='50%' cy='50%' r='50%' fx='30%' fy='30%'>
  <stop offset=' 0%' stop-color="rgb(255,255,255)"  stop-opacity='0.8'/>
  <stop offset='100%' stop-color="rgb(12,12,255)"  stop-opacity ='1.0'/>
</radialGradient>
<radialGradient id='radialffffff666666' cx='50%' cy='50%' r='50%' fx='30%' fy='30%'>
  <stop offset=' 0%' stop-color="rgb(255,255,255)"  stop-opacity='0.8'/>
  <stop offset='100%' stop-color="rgb(102,102,102)"  stop-opacity ='1.0'/>
</radialGradient>
<radialGradient id='radialffffffbfbfbf' cx='50%' cy='50%' r='50%' fx='30%' fy='30%'>
  <stop offset=' 0%' stop-color="rgb(255,255,255)"  stop-opacity='0.8'/>
  <stop offset='100%' stop-color="rgb(191,191,191)"  stop-opacity ='1.0'/>
</radialGradient>
<radialGradient id='radialffffffffcc' cx='50%' cy='50%' r='50%' fx='30%' fy='30%'>
  <stop offset=' 0%' stop-color="rgb(255,255,255)"  stop-opacity='0.8'/>
  <stop offset='100%' stop-color="rgb(255,12,12)"  stop-opacity ='1.0'/>
</radialGradient>
</defs>
<g transform="translate(0,0)">
<svg width="100" height="100" x="0" y="0" viewBox="0 0 398.49 198.962"
font-family="sans-serif" stroke="rgb(76,76,76)" stroke-width="2"  stroke-linecap="round">
<line x1="80.3" y1="60.2" x2="67.0" y2="73.3" stroke="rgb(76,76,76)"  stroke-width="2.0"/>
<line x1="341.1" y1="129.5" x2="337.1" y2="128.1" stroke="rgb(76,76,76)"  stroke-width="2.0"/>
<line x1="299.9" y1="58.7" x2="279.2" y2="83.8" stroke="rgb(76,76,76)"  stroke-width="2.0"/>
<line x1="295.3" y1="54.9" x2="274.6" y2="80.0" stroke="rgb(76,76,76)"  stroke-width="2.0"/>
<line x1="136.7" y1="119.5" x2="131.3" y2="99.5" stroke="rgb(76,76,76)"  stroke-width="2.0"/>
<line x1="142.5" y1="117.9" x2="137.1" y2="97.9" stroke="rgb(76,76,76)"  stroke-width="2.0"/>
<line x1="54.7" y1="105.5" x2="67.0" y2="73.3" stroke="rgb(76,76,76)"  stroke-width="2.0"/>
<line x1="67.0" y1="73.3" x2="40.0" y2="53.1" stroke="rgb(76,76,76)"  stroke-width="2.0"/>
<line x1="67.0" y1="73.3" x2="99.5" y2="74.8" stroke="rgb(76,76,76)"  stroke-width="2.0"/>
<line x1="276.9" y1="81.9" x2="229.5" y2="73.3" stroke="rgb(76,76,76)"  stroke-width="2.0"/>
<line x1="276.9" y1="81.9" x2="292.7" y2="119.0" stroke="rgb(76,76,76)"  stroke-width="2.0"/>
<line x1="213.8" y1="38.6" x2="232.2" y2="71.9" stroke="rgb(76,76,76)"  stroke-width="2.0"/>
<line x1="208.6" y1="41.4" x2="226.9" y2="74.8" stroke="rgb(76,76,76)"  stroke-width="2.0"/>
<line x1="337.1" y1="128.1" x2="292.7" y2="119.0" stroke="rgb(76,76,76)"  stroke-width="2.0"/>
<line x1="337.1" y1="128.1" x2="358.5" y2="103.2" stroke="rgb(76,76,76)"  stroke-width="2.0"/>
<line x1="337.1" y1="128.1" x2="347.3" y2="159.0" stroke="rgb(76,76,76)"  stroke-width="2.0"/>
<line x1="134.2" y1="98.7" x2="99.5" y2="74.8" stroke="rgb(76,76,76)"  stroke-width="2.0"/>
<line x1="134.2" y1="98.7" x2="165.3" y2="97.7" stroke="rgb(76,76,76)"  stroke-width="2.0"/>
<line x1="229.5" y1="73.3" x2="209.7" y2="103.4" stroke="rgb(76,76,76)"  stroke-width="2.0"/>
<line x1="209.7" y1="103.4" x2="225.4" y2="130.9" stroke="rgb(76,76,76)"  stroke-width="2.0"/>
<line x1="209.7" y1="103.4" x2="165.3" y2="97.7" stroke="rgb(76,76,76)"  stroke-width="2.0"/>
<line x1="165.3" y1="97.7" x2="162.1" y2="66.7" stroke="rgb(76,76,76)"  stroke-width="2.0"/>
<line x1="165.3" y1="97.7" x2="156.6" y2="123.3" stroke="rgb(76,76,76)"  stroke-width="2.0"/>
<circle cx="80.335012" cy="60.177189" r="2.066667" opacity="1.000000" style="stroke:black;fill:url(#radialffffffbfbfbf)"/>
<circle cx="341.137529" cy="129.462642" r="2.066667" opacity="1.000000" style="stroke:black;fill:url(#radialffffffbfbfbf)"/>
<circle cx="297.597279" cy="56.800875" r="4.400000" opacity="1.000000" style="stroke:black;fill:url(#radialffffffffcc)"/>
<circle cx="139.614180" cy="118.678450" r="4.400000" opacity="1.000000" style="stroke:black;fill:url(#radialffffffffcc)"/>
<circle cx="54.696327" cy="105.512115" r="2.066667" opacity="1.000000" style="stroke:black;fill:url(#radialffffffbfbfbf)"/>
<circle cx="67.013741" cy="73.343523" r="5.066667" opacity="1.000000" style="stroke:black;fill:url(#radialffffff666666)"/>
<circle cx="40.000000" cy="53.137284" r="2.066667" opacity="1.000000" style="stroke:black;fill:url(#radialffffffbfbfbf)"/>
<circle cx="276.887497" cy="81.903739" r="5.066667" opacity="1.000000" style="stroke:black;fill:url(#radialffffff666666)"/>
<circle cx="211.217218" cy="40.000000" r="4.400000" opacity="1.000000" style="stroke:black;fill:url(#radialffffffffcc)"/>
<circle cx="337.141471" cy="128.126319" r="5.066667" opacity="1.000000" style="stroke:black;fill:url(#radialffffff666666)"/>
<circle cx="134.197875" cy="98.685247" r="5.066667" opacity="1.000000" style="stroke:black;fill:url(#radialffffff666666)"/>
<circle cx="229.538402" cy="73.314473" r="5.066667" opacity="1.000000" style="stroke:black;fill:url(#radialffffff666666)"/>
<circle cx="292.723250" cy="119.049650" r="4.400000" opacity="1.000000" style="stroke:black;fill:url(#radialffffffffcc)"/>
<circle cx="358.490364" cy="103.200986" r="2.109078" opacity="1.000000" style="stroke:black;fill:url(#radialffffffbfbfbf)"/>
<circle cx="347.322059" cy="158.961816" r="2.140133" opacity="1.000000" style="stroke:black;fill:url(#radialffffffbfbfbf)"/>
<circle cx="99.527711" cy="74.841238" r="4.830995" opacity="1.000000" style="stroke:black;fill:url(#radialffffffffcc)"/>
<circle cx="209.738870" cy="103.401112" r="6.506708" opacity="1.000000" style="stroke:black;fill:url(#radialffffff0ccff)"/>
<circle cx="225.371269" cy="130.902256" r="3.164717" opacity="1.000000" style="stroke:black;fill:url(#radialffffffbfbfbf)"/>
<circle cx="165.278687" cy="97.684618" r="8.118030" opacity="1.000000" style="stroke:black;fill:url(#radialffffff666666)"/>
<circle cx="162.086359" cy="66.694186" r="3.915485" opacity="1.000000" style="stroke:black;fill:url(#radialffffffbfbfbf)"/>
<circle cx="156.602269" cy="123.265201" r="4.133333" opacity="1.000000" style="stroke:black;fill:url(#radialffffffbfbfbf)"/>
</svg>
</g>
</svg>
