<?xml version="1.0"?>
<svg version="1.1" id="topsvg"
xmlns="http://www.w3.org/2000/svg" xmlns:xlink="http://www.w3.org/1999/xlink"
xmlns:cml="http://www.xml-cml.org/schema" x="0" y="0" width="200px" height="200px" viewBox="0 0 100 100">
<title>92 - Open Babel Depiction</title>
<defs>
<radialGradient id='radialffffff0ccff' cx='50%' cy='50%' r='50%' fx='30%' fy='30%'>
  <stop offset=' 0%' stop-color="rgb(255,255,255)"  stop-opacity='0.8'/>
  <stop offset='100%' stop-color="rgb(12,12,255)"  stop-opacity ='1.0'/>
</radialGradient>
<radialGradient id='radialffffff666666' cx='50%' cy='50%' r='50%' fx='30%' fy='30%'>
  <stop offset=' 0%' stop-color="rgb(255,255,255)"  stop-opacity='0.8'/>
  <stop offset='100%' stop-color="rgb(102,102,102)"  stop-opacity ='1.0'/>
</radialGradient>
<radialGradient id='radialffffffbfbfbf' cx='50%' cy='50%' r='50%' fx='30%' fy='30%'>
  <stop offset=' 0%' stop-color="rgb(255,255,255)"  stop-opacity='0.8'/>
  <stop offset='100%' stop-color="rgb(191,191,191)"  stop-opacity ='1.0'/>
</radialGradient>
<radialGradient id='radialffffffffcc' cx='50%' cy='50%' r='50%' fx='30%' fy='30%'>
  <stop offset=' 0%' stop-color="rgb(255,255,255)"  stop-opacity='0.8'/>
  <stop offset='100%' stop-color="rgb(255,12,12)"  stop-opacity ='1.0'/>
</radialGradient>
</defs>
<g transform="translate(0,0)">
<svg width="100" height="100" x="0" y="0" viewBox="0 0 399.6 245.047"
font-family="sans-serif" stroke="rgb(76,76,76)" stroke-width="2"  stroke-linecap="round">
<line x1="161.3" y1="127.4" x2="166.8" y2="134.1" stroke="rgb(76,76,76)"  stroke-width="2.0"/>
<line x1="231.9" y1="111.8" x2="212.8" y2="133.9" stroke="rgb(76,76,76)"  stroke-width="2.0"/>
<line x1="166.8" y1="134.1" x2="154.0" y2="166.4" stroke="rgb(76,76,76)"  stroke-width="2.0"/>
<line x1="166.8" y1="134.1" x2="212.8" y2="133.9" stroke="rgb(76,76,76)"  stroke-width="2.0"/>
<line x1="166.8" y1="134.1" x2="142.6" y2="101.4" stroke="rgb(76,76,76)"  stroke-width="2.0"/>
<line x1="212.8" y1="133.9" x2="230.5" y2="161.4" stroke="rgb(76,76,76)"  stroke-width="2.0"/>
<line x1="100.6" y1="103.2" x2="142.6" y2="101.4" stroke="rgb(76,76,76)"  stroke-width="2.0"/>
<line x1="100.6" y1="103.2" x2="73.8" y2="73.2" stroke="rgb(76,76,76)"  stroke-width="2.0"/>
<line x1="302.8" y1="131.1" x2="281.9" y2="157.8" stroke="rgb(76,76,76)"  stroke-width="2.0"/>
<line x1="298.1" y1="127.4" x2="277.2" y2="154.1" stroke="rgb(76,76,76)"  stroke-width="2.0"/>
<line x1="140.1" y1="99.8" x2="156.5" y2="75.0" stroke="rgb(76,76,76)"  stroke-width="2.0"/>
<line x1="145.1" y1="103.1" x2="161.5" y2="78.3" stroke="rgb(76,76,76)"  stroke-width="2.0"/>
<line x1="40.0" y1="76.9" x2="73.8" y2="73.2" stroke="rgb(76,76,76)"  stroke-width="2.0"/>
<line x1="83.2" y1="40.0" x2="73.8" y2="73.2" stroke="rgb(76,76,76)"  stroke-width="2.0"/>
<line x1="230.5" y1="161.4" x2="279.5" y2="156.0" stroke="rgb(76,76,76)"  stroke-width="2.0"/>
<line x1="232.9" y1="163.2" x2="212.2" y2="190.6" stroke="rgb(76,76,76)"  stroke-width="2.0"/>
<line x1="228.1" y1="159.6" x2="207.4" y2="187.0" stroke="rgb(76,76,76)"  stroke-width="2.0"/>
<line x1="279.5" y1="156.0" x2="295.9" y2="184.0" stroke="rgb(76,76,76)"  stroke-width="2.0"/>
<line x1="73.8" y1="73.2" x2="76.8" y2="78.5" stroke="rgb(76,76,76)"  stroke-width="2.0"/>
<line x1="359.6" y1="186.5" x2="342.0" y2="181.0" stroke="rgb(76,76,76)"  stroke-width="2.0"/>
<line x1="295.9" y1="184.0" x2="342.0" y2="181.0" stroke="rgb(76,76,76)"  stroke-width="2.0"/>
<line x1="342.0" y1="181.0" x2="350.7" y2="149.3" stroke="rgb(76,76,76)"  stroke-width="2.0"/>
<line x1="342.0" y1="181.0" x2="352.4" y2="205.0" stroke="rgb(76,76,76)"  stroke-width="2.0"/>
<circle cx="161.318249" cy="127.386078" r="2.066667" opacity="1.000000" style="stroke:black;fill:url(#radialffffffbfbfbf)"/>
<circle cx="231.907757" cy="111.800333" r="2.066667" opacity="1.000000" style="stroke:black;fill:url(#radialffffffbfbfbf)"/>
<circle cx="166.849300" cy="134.127954" r="5.066667" opacity="1.000000" style="stroke:black;fill:url(#radialffffff666666)"/>
<circle cx="153.988719" cy="166.419860" r="2.066667" opacity="1.000000" style="stroke:black;fill:url(#radialffffffbfbfbf)"/>
<circle cx="212.802546" cy="133.930993" r="4.733333" opacity="1.000000" style="stroke:black;fill:url(#radialffffff0ccff)"/>
<circle cx="100.560644" cy="103.169569" r="4.400000" opacity="1.000000" style="stroke:black;fill:url(#radialffffffffcc)"/>
<circle cx="300.450162" cy="129.287881" r="4.400000" opacity="1.000000" style="stroke:black;fill:url(#radialffffffffcc)"/>
<circle cx="142.645707" cy="101.429210" r="5.066667" opacity="1.000000" style="stroke:black;fill:url(#radialffffff666666)"/>
<circle cx="40.000000" cy="76.941476" r="2.078681" opacity="1.000000" style="stroke:black;fill:url(#radialffffffbfbfbf)"/>
<circle cx="83.234540" cy="40.000000" r="2.139196" opacity="1.000000" style="stroke:black;fill:url(#radialffffffbfbfbf)"/>
<circle cx="230.461224" cy="161.379598" r="5.311388" opacity="1.000000" style="stroke:black;fill:url(#radialffffff666666)"/>
<circle cx="279.510955" cy="155.968015" r="5.713075" opacity="1.000000" style="stroke:black;fill:url(#radialffffff666666)"/>
<circle cx="73.809475" cy="73.154014" r="5.754044" opacity="1.000000" style="stroke:black;fill:url(#radialffffff666666)"/>
<circle cx="359.599791" cy="186.474358" r="2.501101" opacity="1.000000" style="stroke:black;fill:url(#radialffffffbfbfbf)"/>
<circle cx="159.035440" cy="76.644421" r="5.651444" opacity="1.000000" style="stroke:black;fill:url(#radialffffffffcc)"/>
<circle cx="209.815844" cy="188.763626" r="5.920490" opacity="1.000000" style="stroke:black;fill:url(#radialffffffffcc)"/>
<circle cx="295.871628" cy="183.952613" r="6.804258" opacity="1.000000" style="stroke:black;fill:url(#radialffffffffcc)"/>
<circle cx="76.822008" cy="78.530079" r="3.406260" opacity="1.000000" style="stroke:black;fill:url(#radialffffffbfbfbf)"/>
<circle cx="341.950800" cy="181.046632" r="8.375557" opacity="1.000000" style="stroke:black;fill:url(#radialffffff666666)"/>
<circle cx="350.655828" cy="149.287488" r="3.791105" opacity="1.000000" style="stroke:black;fill:url(#radialffffffbfbfbf)"/>
<circle cx="352.434934" cy="205.046806" r="4.133333" opacity="1.000000" style="stroke:black;fill:url(#radialffffffbfbfbf)"/>
</svg>
</g>
</svg>
