<?xml version="1.0"?>
<svg version="1.1" id="topsvg"
xmlns="http://www.w3.org/2000/svg" xmlns:xlink="http://www.w3.org/1999/xlink"
xmlns:cml="http://www.xml-cml.org/schema" x="0" y="0" width="200px" height="200px" viewBox="0 0 100 100">
<title>80 - Open Babel Depiction</title>
<defs>
<radialGradient id='radialffffff0ccff' cx='50%' cy='50%' r='50%' fx='30%' fy='30%'>
  <stop offset=' 0%' stop-color="rgb(255,255,255)"  stop-opacity='0.8'/>
  <stop offset='100%' stop-color="rgb(12,12,255)"  stop-opacity ='1.0'/>
</radialGradient>
<radialGradient id='radialffffff666666' cx='50%' cy='50%' r='50%' fx='30%' fy='30%'>
  <stop offset=' 0%' stop-color="rgb(255,255,255)"  stop-opacity='0.8'/>
  <stop offset='100%' stop-color="rgb(102,102,102)"  stop-opacity ='1.0'/>
</radialGradient>
<radialGradient id='radialffffffbfbfbf' cx='50%' cy='50%' r='50%' fx='30%' fy='30%'>
  <stop offset=' 0%' stop-color="rgb(255,255,255)"  stop-opacity='0.8'/>
  <stop offset='100%' stop-color="rgb(191,191,191)"  stop-opacity ='1.0'/>
</radialGradient>
<radialGradient id='radialffffffffcc' cx='50%' cy='50%' r='50%' fx='30%' fy='30%'>
  <stop offset=' 0%' stop-color="rgb(255,255,255)"  stop-opacity='0.8'/>
  <stop offset='100%' stop-color="rgb(255,12,12)"  stop-opacity ='1.0'/>
</radialGradient>
</defs>
<g transform="translate(0,0)">
<svg width="100" height="100" x="0" y="0" viewBox="0 0 340.905 255.024"
font-family="sans-serif" stroke="rgb(76,76,76)" stroke-width="2"  stroke-linecap="round">
<line x1="159.9" y1="38.4" x2="177.9" y2="65.7" stroke="rgb(76,76,76)"  stroke-width="2.0"/>
<line x1="154.9" y1="41.6" x2="172.8" y2="69.0" stroke="rgb(76,76,76)"  stroke-width="2.0"/>
<line x1="250.2" y1="48.5" x2="227.2" y2="72.5" stroke="rgb(76,76,76)"  stroke-width="2.0"/>
<line x1="245.9" y1="44.4" x2="222.8" y2="68.3" stroke="rgb(76,76,76)"  stroke-width="2.0"/>
<line x1="94.7" y1="83.2" x2="106.5" y2="94.2" stroke="rgb(76,76,76)"  stroke-width="2.0"/>
<line x1="300.0" y1="112.0" x2="286.5" y2="105.4" stroke="rgb(76,76,76)"  stroke-width="2.0"/>
<line x1="175.4" y1="67.3" x2="225.0" y2="70.4" stroke="rgb(76,76,76)"  stroke-width="2.0"/>
<line x1="175.4" y1="67.3" x2="153.1" y2="95.5" stroke="rgb(76,76,76)"  stroke-width="2.0"/>
<line x1="225.0" y1="70.4" x2="240.0" y2="101.5" stroke="rgb(76,76,76)"  stroke-width="2.0"/>
<line x1="65.4" y1="158.3" x2="84.2" y2="135.5" stroke="rgb(76,76,76)"  stroke-width="2.0"/>
<line x1="70.0" y1="162.1" x2="88.8" y2="139.3" stroke="rgb(76,76,76)"  stroke-width="2.0"/>
<line x1="153.1" y1="95.5" x2="106.5" y2="94.2" stroke="rgb(76,76,76)"  stroke-width="2.0"/>
<line x1="153.1" y1="95.5" x2="168.5" y2="117.6" stroke="rgb(76,76,76)"  stroke-width="2.0"/>
<line x1="106.5" y1="94.2" x2="86.5" y2="137.4" stroke="rgb(76,76,76)"  stroke-width="2.0"/>
<line x1="106.5" y1="94.2" x2="95.9" y2="70.6" stroke="rgb(76,76,76)"  stroke-width="2.0"/>
<line x1="240.0" y1="101.5" x2="286.5" y2="105.4" stroke="rgb(76,76,76)"  stroke-width="2.0"/>
<line x1="286.5" y1="105.4" x2="300.9" y2="75.6" stroke="rgb(76,76,76)"  stroke-width="2.0"/>
<line x1="286.5" y1="105.4" x2="295.8" y2="131.5" stroke="rgb(76,76,76)"  stroke-width="2.0"/>
<line x1="86.5" y1="137.4" x2="92.4" y2="147.6" stroke="rgb(76,76,76)"  stroke-width="2.0"/>
<line x1="89.0" y1="215.0" x2="74.8" y2="188.6" stroke="rgb(76,76,76)"  stroke-width="2.0"/>
<line x1="92.4" y1="147.6" x2="74.8" y2="188.6" stroke="rgb(76,76,76)"  stroke-width="2.0"/>
<line x1="40.0" y1="189.4" x2="74.8" y2="188.6" stroke="rgb(76,76,76)"  stroke-width="2.0"/>
<line x1="74.8" y1="188.6" x2="81.2" y2="194.1" stroke="rgb(76,76,76)"  stroke-width="2.0"/>
<circle cx="157.426465" cy="40.000000" r="4.400000" opacity="1.000000" style="stroke:black;fill:url(#radialffffffffcc)"/>
<circle cx="248.039063" cy="46.433133" r="4.400000" opacity="1.000000" style="stroke:black;fill:url(#radialffffffffcc)"/>
<circle cx="94.683244" cy="83.192048" r="2.066667" opacity="1.000000" style="stroke:black;fill:url(#radialffffffbfbfbf)"/>
<circle cx="300.046408" cy="112.049153" r="2.066667" opacity="1.000000" style="stroke:black;fill:url(#radialffffffbfbfbf)"/>
<circle cx="175.354022" cy="67.349692" r="5.066667" opacity="1.000000" style="stroke:black;fill:url(#radialffffff666666)"/>
<circle cx="225.005026" cy="70.406479" r="5.066667" opacity="1.000000" style="stroke:black;fill:url(#radialffffff666666)"/>
<circle cx="67.701529" cy="160.212112" r="4.400000" opacity="1.000000" style="stroke:black;fill:url(#radialffffffffcc)"/>
<circle cx="153.133406" cy="95.467615" r="4.733333" opacity="1.000000" style="stroke:black;fill:url(#radialffffff0ccff)"/>
<circle cx="106.455264" cy="94.211976" r="5.066667" opacity="1.000000" style="stroke:black;fill:url(#radialffffff666666)"/>
<circle cx="240.027505" cy="101.513404" r="4.400000" opacity="1.000000" style="stroke:black;fill:url(#radialffffffffcc)"/>
<circle cx="286.528114" cy="105.357791" r="5.066667" opacity="1.000000" style="stroke:black;fill:url(#radialffffff666666)"/>
<circle cx="86.532888" cy="137.416936" r="5.066667" opacity="1.000000" style="stroke:black;fill:url(#radialffffff666666)"/>
<circle cx="300.905020" cy="75.638847" r="2.066667" opacity="1.000000" style="stroke:black;fill:url(#radialffffffbfbfbf)"/>
<circle cx="168.546456" cy="117.610762" r="2.066667" opacity="1.000000" style="stroke:black;fill:url(#radialffffffbfbfbf)"/>
<circle cx="95.903377" cy="70.648569" r="2.066667" opacity="1.000000" style="stroke:black;fill:url(#radialffffffbfbfbf)"/>
<circle cx="295.808223" cy="131.464755" r="2.075775" opacity="1.000000" style="stroke:black;fill:url(#radialffffffbfbfbf)"/>
<circle cx="89.002204" cy="215.024470" r="2.656883" opacity="1.000000" style="stroke:black;fill:url(#radialffffffbfbfbf)"/>
<circle cx="92.439879" cy="147.600847" r="5.927492" opacity="1.000000" style="stroke:black;fill:url(#radialffffffffcc)"/>
<circle cx="40.000000" cy="189.430737" r="3.034420" opacity="1.000000" style="stroke:black;fill:url(#radialffffffbfbfbf)"/>
<circle cx="74.773779" cy="188.601176" r="7.775513" opacity="1.000000" style="stroke:black;fill:url(#radialffffff666666)"/>
<circle cx="81.187545" cy="194.130507" r="4.133333" opacity="1.000000" style="stroke:black;fill:url(#radialffffffbfbfbf)"/>
</svg>
</g>
</svg>
