<?xml version="1.0"?>
<svg version="1.1" id="topsvg"
xmlns="http://www.w3.org/2000/svg" xmlns:xlink="http://www.w3.org/1999/xlink"
xmlns:cml="http://www.xml-cml.org/schema" x="0" y="0" width="200px" height="200px" viewBox="0 0 100 100">
<title>66 - Open Babel Depiction</title>
<defs>
<radialGradient id='radialffffff0ccff' cx='50%' cy='50%' r='50%' fx='30%' fy='30%'>
  <stop offset=' 0%' stop-color="rgb(255,255,255)"  stop-opacity='0.8'/>
  <stop offset='100%' stop-color="rgb(12,12,255)"  stop-opacity ='1.0'/>
</radialGradient>
<radialGradient id='radialffffff666666' cx='50%' cy='50%' r='50%' fx='30%' fy='30%'>
  <stop offset=' 0%' stop-color="rgb(255,255,255)"  stop-opacity='0.8'/>
  <stop offset='100%' stop-color="rgb(102,102,102)"  stop-opacity ='1.0'/>
</radialGradient>
<radialGradient id='radialffffffbfbfbf' cx='50%' cy='50%' r='50%' fx='30%' fy='30%'>
  <stop offset=' 0%' stop-color="rgb(255,255,255)"  stop-opacity='0.8'/>
  <stop offset='100%' stop-color="rgb(191,191,191)"  stop-opacity ='1.0'/>
</radialGradient>
<radialGradient id='radialffffffffcc' cx='50%' cy='50%' r='50%' fx='30%' fy='30%'>
  <stop offset=' 0%' stop-color="rgb(255,255,255)"  stop-opacity='0.8'/>
  <stop offset='100%' stop-color="rgb(255,12,12)"  stop-opacity ='1.0'/>
</radialGradient>
</defs>
<g transform="translate(0,0)">
<svg width="100" height="100" x="0" y="0" viewBox="0 0 365.967 305.029"
font-family="sans-serif" stroke="rgb(76,76,76)" stroke-width="2"  stroke-linecap="round">
<line x1="120.1" y1="173.6" x2="134.3" y2="161.4" stroke="rgb(76,76,76)"  stroke-width="2.0"/>
<line x1="93.9" y1="40.0" x2="73.2" y2="59.5" stroke="rgb(76,76,76)"  stroke-width="2.0"/>
<line x1="199.7" y1="156.8" x2="180.0" y2="171.5" stroke="rgb(76,76,76)"  stroke-width="2.0"/>
<line x1="40.0" y1="55.2" x2="73.2" y2="59.5" stroke="rgb(76,76,76)"  stroke-width="2.0"/>
<line x1="85.5" y1="104.6" x2="73.2" y2="59.5" stroke="rgb(76,76,76)"  stroke-width="2.0"/>
<line x1="85.5" y1="104.6" x2="125.6" y2="113.7" stroke="rgb(76,76,76)"  stroke-width="2.0"/>
<line x1="73.2" y1="59.5" x2="75.8" y2="47.4" stroke="rgb(76,76,76)"  stroke-width="2.0"/>
<line x1="269.2" y1="189.3" x2="248.0" y2="208.0" stroke="rgb(76,76,76)"  stroke-width="2.0"/>
<line x1="265.2" y1="184.8" x2="244.0" y2="203.5" stroke="rgb(76,76,76)"  stroke-width="2.0"/>
<line x1="134.3" y1="161.4" x2="180.0" y2="171.5" stroke="rgb(76,76,76)"  stroke-width="2.0"/>
<line x1="134.3" y1="161.4" x2="125.6" y2="113.7" stroke="rgb(76,76,76)"  stroke-width="2.0"/>
<line x1="134.3" y1="161.4" x2="118.3" y2="177.9" stroke="rgb(76,76,76)"  stroke-width="2.0"/>
<line x1="180.0" y1="171.5" x2="197.1" y2="199.7" stroke="rgb(76,76,76)"  stroke-width="2.0"/>
<line x1="123.5" y1="111.6" x2="149.3" y2="84.8" stroke="rgb(76,76,76)"  stroke-width="2.0"/>
<line x1="127.8" y1="115.8" x2="153.6" y2="88.9" stroke="rgb(76,76,76)"  stroke-width="2.0"/>
<line x1="316.6" y1="254.4" x2="308.0" y2="241.7" stroke="rgb(76,76,76)"  stroke-width="2.0"/>
<line x1="246.0" y1="205.8" x2="197.1" y2="199.7" stroke="rgb(76,76,76)"  stroke-width="2.0"/>
<line x1="246.0" y1="205.8" x2="262.0" y2="234.0" stroke="rgb(76,76,76)"  stroke-width="2.0"/>
<line x1="199.1" y1="201.9" x2="178.4" y2="221.6" stroke="rgb(76,76,76)"  stroke-width="2.0"/>
<line x1="195.0" y1="197.5" x2="174.3" y2="217.2" stroke="rgb(76,76,76)"  stroke-width="2.0"/>
<line x1="308.0" y1="241.7" x2="262.0" y2="234.0" stroke="rgb(76,76,76)"  stroke-width="2.0"/>
<line x1="308.0" y1="241.7" x2="326.0" y2="212.0" stroke="rgb(76,76,76)"  stroke-width="2.0"/>
<line x1="308.0" y1="241.7" x2="318.1" y2="265.0" stroke="rgb(76,76,76)"  stroke-width="2.0"/>
<circle cx="120.108530" cy="173.569100" r="2.066667" opacity="1.000000" style="stroke:black;fill:url(#radialffffffbfbfbf)"/>
<circle cx="93.902874" cy="40.000000" r="2.066667" opacity="1.000000" style="stroke:black;fill:url(#radialffffffbfbfbf)"/>
<circle cx="199.710186" cy="156.797093" r="2.066667" opacity="1.000000" style="stroke:black;fill:url(#radialffffffbfbfbf)"/>
<circle cx="40.000000" cy="55.225560" r="2.066667" opacity="1.000000" style="stroke:black;fill:url(#radialffffffbfbfbf)"/>
<circle cx="85.531399" cy="104.553663" r="4.400000" opacity="1.000000" style="stroke:black;fill:url(#radialffffffffcc)"/>
<circle cx="73.195337" cy="59.535595" r="5.066667" opacity="1.000000" style="stroke:black;fill:url(#radialffffff666666)"/>
<circle cx="267.221147" cy="187.038362" r="4.400000" opacity="1.000000" style="stroke:black;fill:url(#radialffffffffcc)"/>
<circle cx="134.349400" cy="161.417063" r="5.066667" opacity="1.000000" style="stroke:black;fill:url(#radialffffff666666)"/>
<circle cx="179.997024" cy="171.512552" r="4.733333" opacity="1.000000" style="stroke:black;fill:url(#radialffffff0ccff)"/>
<circle cx="125.626019" cy="113.670920" r="5.066667" opacity="1.000000" style="stroke:black;fill:url(#radialffffff666666)"/>
<circle cx="151.418428" cy="86.861537" r="4.400000" opacity="1.000000" style="stroke:black;fill:url(#radialffffffffcc)"/>
<circle cx="316.600906" cy="254.374984" r="2.066667" opacity="1.000000" style="stroke:black;fill:url(#radialffffffbfbfbf)"/>
<circle cx="246.019651" cy="205.795890" r="5.213069" opacity="1.000000" style="stroke:black;fill:url(#radialffffff666666)"/>
<circle cx="75.816871" cy="47.383557" r="2.261299" opacity="1.000000" style="stroke:black;fill:url(#radialffffffbfbfbf)"/>
<circle cx="118.258605" cy="177.946933" r="2.293954" opacity="1.000000" style="stroke:black;fill:url(#radialffffffbfbfbf)"/>
<circle cx="197.056367" cy="199.694044" r="5.742860" opacity="1.000000" style="stroke:black;fill:url(#radialffffff666666)"/>
<circle cx="307.977608" cy="241.732216" r="7.738269" opacity="1.000000" style="stroke:black;fill:url(#radialffffff666666)"/>
<circle cx="261.990992" cy="233.961240" r="6.955518" opacity="1.000000" style="stroke:black;fill:url(#radialffffffffcc)"/>
<circle cx="325.966756" cy="212.007506" r="3.364952" opacity="1.000000" style="stroke:black;fill:url(#radialffffffbfbfbf)"/>
<circle cx="176.316546" cy="219.381378" r="7.353831" opacity="1.000000" style="stroke:black;fill:url(#radialffffffffcc)"/>
<circle cx="318.140895" cy="265.029002" r="4.133333" opacity="1.000000" style="stroke:black;fill:url(#radialffffffbfbfbf)"/>
</svg>
</g>
</svg>
