<?xml version="1.0"?>
<svg version="1.1" id="topsvg"
xmlns="http://www.w3.org/2000/svg" xmlns:xlink="http://www.w3.org/1999/xlink"
xmlns:cml="http://www.xml-cml.org/schema" x="0" y="0" width="200px" height="200px" viewBox="0 0 100 100">
<title>71 - Open Babel Depiction</title>
<defs>
<radialGradient id='radialffffff0ccff' cx='50%' cy='50%' r='50%' fx='30%' fy='30%'>
  <stop offset=' 0%' stop-color="rgb(255,255,255)"  stop-opacity='0.8'/>
  <stop offset='100%' stop-color="rgb(12,12,255)"  stop-opacity ='1.0'/>
</radialGradient>
<radialGradient id='radialffffff666666' cx='50%' cy='50%' r='50%' fx='30%' fy='30%'>
  <stop offset=' 0%' stop-color="rgb(255,255,255)"  stop-opacity='0.8'/>
  <stop offset='100%' stop-color="rgb(102,102,102)"  stop-opacity ='1.0'/>
</radialGradient>
<radialGradient id='radialffffffbfbfbf' cx='50%' cy='50%' r='50%' fx='30%' fy='30%'>
  <stop offset=' 0%' stop-color="rgb(255,255,255)"  stop-opacity='0.8'/>
  <stop offset='100%' stop-color="rgb(191,191,191)"  stop-opacity ='1.0'/>
</radialGradient>
<radialGradient id='radialffffffffcc' cx='50%' cy='50%' r='50%' fx='30%' fy='30%'>
  <stop offset=' 0%' stop-color="rgb(255,255,255)"  stop-opacity='0.8'/>
  <stop offset='100%' stop-color="rgb(255,12,12)"  stop-opacity ='1.0'/>
</radialGradient>
</defs>
<g transform="translate(0,0)">
<svg width="100" height="100" x="0" y="0" viewBox="0 0 321.748 284.471"
font-family="sans-serif" stroke="rgb(76,76,76)" stroke-width="2"  stroke-linecap="round">
<line x1="80.9" y1="127.5" x2="89.8" y2="143.4" stroke="rgb(76,76,76)"  stroke-width="2.0"/>
<line x1="155.2" y1="135.4" x2="135.7" y2="152.1" stroke="rgb(76,76,76)"  stroke-width="2.0"/>
<line x1="225.7" y1="167.0" x2="204.5" y2="187.4" stroke="rgb(76,76,76)"  stroke-width="2.0"/>
<line x1="221.6" y1="162.6" x2="200.3" y2="183.1" stroke="rgb(76,76,76)"  stroke-width="2.0"/>
<line x1="135.7" y1="152.1" x2="89.8" y2="143.4" stroke="rgb(76,76,76)"  stroke-width="2.0"/>
<line x1="135.7" y1="152.1" x2="153.1" y2="180.7" stroke="rgb(76,76,76)"  stroke-width="2.0"/>
<line x1="89.8" y1="143.4" x2="72.2" y2="174.2" stroke="rgb(76,76,76)"  stroke-width="2.0"/>
<line x1="89.8" y1="143.4" x2="76.0" y2="115.4" stroke="rgb(76,76,76)"  stroke-width="2.0"/>
<line x1="274.5" y1="231.5" x2="264.7" y2="220.5" stroke="rgb(76,76,76)"  stroke-width="2.0"/>
<line x1="202.4" y1="185.2" x2="153.1" y2="180.7" stroke="rgb(76,76,76)"  stroke-width="2.0"/>
<line x1="202.4" y1="185.2" x2="218.5" y2="214.1" stroke="rgb(76,76,76)"  stroke-width="2.0"/>
<line x1="155.3" y1="182.8" x2="134.3" y2="204.0" stroke="rgb(76,76,76)"  stroke-width="2.0"/>
<line x1="151.0" y1="178.6" x2="130.1" y2="199.8" stroke="rgb(76,76,76)"  stroke-width="2.0"/>
<line x1="76.0" y1="115.4" x2="108.6" y2="91.0" stroke="rgb(76,76,76)"  stroke-width="2.0"/>
<line x1="75.9" y1="118.4" x2="39.9" y2="117.8" stroke="rgb(76,76,76)"  stroke-width="2.0"/>
<line x1="76.1" y1="112.4" x2="40.1" y2="111.8" stroke="rgb(76,76,76)"  stroke-width="2.0"/>
<line x1="264.7" y1="220.5" x2="218.5" y2="214.1" stroke="rgb(76,76,76)"  stroke-width="2.0"/>
<line x1="264.7" y1="220.5" x2="281.7" y2="190.5" stroke="rgb(76,76,76)"  stroke-width="2.0"/>
<line x1="264.7" y1="220.5" x2="275.0" y2="244.5" stroke="rgb(76,76,76)"  stroke-width="2.0"/>
<line x1="108.6" y1="91.0" x2="99.3" y2="62.5" stroke="rgb(76,76,76)"  stroke-width="2.0"/>
<line x1="73.6" y1="40.0" x2="99.3" y2="62.5" stroke="rgb(76,76,76)"  stroke-width="2.0"/>
<line x1="99.3" y1="62.5" x2="127.7" y2="43.9" stroke="rgb(76,76,76)"  stroke-width="2.0"/>
<line x1="99.3" y1="62.5" x2="89.0" y2="80.8" stroke="rgb(76,76,76)"  stroke-width="2.0"/>
<circle cx="80.867752" cy="127.482886" r="2.066667" opacity="1.000000" style="stroke:black;fill:url(#radialffffffbfbfbf)"/>
<circle cx="155.160722" cy="135.406522" r="2.066667" opacity="1.000000" style="stroke:black;fill:url(#radialffffffbfbfbf)"/>
<circle cx="223.648191" cy="164.792428" r="4.400000" opacity="1.000000" style="stroke:black;fill:url(#radialffffffffcc)"/>
<circle cx="135.690662" cy="152.061011" r="4.733333" opacity="1.000000" style="stroke:black;fill:url(#radialffffff0ccff)"/>
<circle cx="89.782650" cy="143.436711" r="5.066667" opacity="1.000000" style="stroke:black;fill:url(#radialffffff666666)"/>
<circle cx="72.246681" cy="174.175512" r="2.066667" opacity="1.000000" style="stroke:black;fill:url(#radialffffffbfbfbf)"/>
<circle cx="274.457621" cy="231.526623" r="2.066667" opacity="1.000000" style="stroke:black;fill:url(#radialffffffbfbfbf)"/>
<circle cx="202.379653" cy="185.215003" r="5.066667" opacity="1.000000" style="stroke:black;fill:url(#radialffffff666666)"/>
<circle cx="153.145910" cy="180.694591" r="5.066667" opacity="1.000000" style="stroke:black;fill:url(#radialffffff666666)"/>
<circle cx="75.995394" cy="115.423073" r="5.066667" opacity="1.000000" style="stroke:black;fill:url(#radialffffff666666)"/>
<circle cx="264.741964" cy="220.461301" r="5.457017" opacity="1.000000" style="stroke:black;fill:url(#radialffffff666666)"/>
<circle cx="218.498150" cy="214.071376" r="4.856353" opacity="1.000000" style="stroke:black;fill:url(#radialffffffffcc)"/>
<circle cx="108.574649" cy="91.032221" r="4.924033" opacity="1.000000" style="stroke:black;fill:url(#radialffffffffcc)"/>
<circle cx="40.000000" cy="114.751468" r="5.046679" opacity="1.000000" style="stroke:black;fill:url(#radialffffffffcc)"/>
<circle cx="132.193801" cy="201.872721" r="5.049613" opacity="1.000000" style="stroke:black;fill:url(#radialffffffffcc)"/>
<circle cx="281.748399" cy="190.490970" r="2.420482" opacity="1.000000" style="stroke:black;fill:url(#radialffffffbfbfbf)"/>
<circle cx="274.990384" cy="244.471146" r="2.894840" opacity="1.000000" style="stroke:black;fill:url(#radialffffffbfbfbf)"/>
<circle cx="73.618949" cy="40.000000" r="3.094579" opacity="1.000000" style="stroke:black;fill:url(#radialffffffbfbfbf)"/>
<circle cx="99.259371" cy="62.511651" r="8.168970" opacity="1.000000" style="stroke:black;fill:url(#radialffffff666666)"/>
<circle cx="127.721822" cy="43.906927" r="3.583178" opacity="1.000000" style="stroke:black;fill:url(#radialffffffbfbfbf)"/>
<circle cx="88.998036" cy="80.838693" r="4.133333" opacity="1.000000" style="stroke:black;fill:url(#radialffffffbfbfbf)"/>
</svg>
</g>
</svg>
