<?xml version="1.0"?>
<svg version="1.1" id="topsvg"
xmlns="http://www.w3.org/2000/svg" xmlns:xlink="http://www.w3.org/1999/xlink"
xmlns:cml="http://www.xml-cml.org/schema" x="0" y="0" width="200px" height="200px" viewBox="0 0 100 100">
<title>78 - Open Babel Depiction</title>
<defs>
<radialGradient id='radialffffff0ccff' cx='50%' cy='50%' r='50%' fx='30%' fy='30%'>
  <stop offset=' 0%' stop-color="rgb(255,255,255)"  stop-opacity='0.8'/>
  <stop offset='100%' stop-color="rgb(12,12,255)"  stop-opacity ='1.0'/>
</radialGradient>
<radialGradient id='radialffffff666666' cx='50%' cy='50%' r='50%' fx='30%' fy='30%'>
  <stop offset=' 0%' stop-color="rgb(255,255,255)"  stop-opacity='0.8'/>
  <stop offset='100%' stop-color="rgb(102,102,102)"  stop-opacity ='1.0'/>
</radialGradient>
<radialGradient id='radialffffffbfbfbf' cx='50%' cy='50%' r='50%' fx='30%' fy='30%'>
  <stop offset=' 0%' stop-color="rgb(255,255,255)"  stop-opacity='0.8'/>
  <stop offset='100%' stop-color="rgb(191,191,191)"  stop-opacity ='1.0'/>
</radialGradient>
<radialGradient id='radialffffffffcc' cx='50%' cy='50%' r='50%' fx='30%' fy='30%'>
  <stop offset=' 0%' stop-color="rgb(255,255,255)"  stop-opacity='0.8'/>
  <stop offset='100%' stop-color="rgb(255,12,12)"  stop-opacity ='1.0'/>
</radialGradient>
</defs>
<g transform="translate(0,0)">
<svg width="100" height="100" x="0" y="0" viewBox="0 0 380.273 179.142"
font-family="sans-serif" stroke="rgb(76,76,76)" stroke-width="2"  stroke-linecap="round">
<line x1="87.0" y1="93.4" x2="66.1" y2="93.4" stroke="rgb(76,76,76)"  stroke-width="2.0"/>
<line x1="40.0" y1="70.6" x2="66.1" y2="93.4" stroke="rgb(76,76,76)"  stroke-width="2.0"/>
<line x1="66.1" y1="93.4" x2="52.1" y2="125.5" stroke="rgb(76,76,76)"  stroke-width="2.0"/>
<line x1="66.1" y1="93.4" x2="90.2" y2="81.8" stroke="rgb(76,76,76)"  stroke-width="2.0"/>
<line x1="130.5" y1="140.1" x2="120.2" y2="108.4" stroke="rgb(76,76,76)"  stroke-width="2.0"/>
<line x1="136.2" y1="138.2" x2="125.9" y2="106.5" stroke="rgb(76,76,76)"  stroke-width="2.0"/>
<line x1="285.2" y1="48.0" x2="263.9" y2="70.7" stroke="rgb(76,76,76)"  stroke-width="2.0"/>
<line x1="280.8" y1="43.9" x2="259.5" y2="66.6" stroke="rgb(76,76,76)"  stroke-width="2.0"/>
<line x1="194.7" y1="38.2" x2="214.4" y2="64.1" stroke="rgb(76,76,76)"  stroke-width="2.0"/>
<line x1="189.9" y1="41.8" x2="209.6" y2="67.7" stroke="rgb(76,76,76)"  stroke-width="2.0"/>
<line x1="90.2" y1="81.8" x2="123.0" y2="107.5" stroke="rgb(76,76,76)"  stroke-width="2.0"/>
<line x1="123.0" y1="107.5" x2="145.2" y2="92.0" stroke="rgb(76,76,76)"  stroke-width="2.0"/>
<line x1="336.6" y1="110.2" x2="325.3" y2="101.6" stroke="rgb(76,76,76)"  stroke-width="2.0"/>
<line x1="261.7" y1="68.7" x2="212.0" y2="65.9" stroke="rgb(76,76,76)"  stroke-width="2.0"/>
<line x1="261.7" y1="68.7" x2="278.8" y2="98.1" stroke="rgb(76,76,76)"  stroke-width="2.0"/>
<line x1="212.0" y1="65.9" x2="191.8" y2="92.6" stroke="rgb(76,76,76)"  stroke-width="2.0"/>
<line x1="325.3" y1="101.6" x2="278.8" y2="98.1" stroke="rgb(76,76,76)"  stroke-width="2.0"/>
<line x1="325.3" y1="101.6" x2="340.3" y2="71.1" stroke="rgb(76,76,76)"  stroke-width="2.0"/>
<line x1="325.3" y1="101.6" x2="336.4" y2="126.2" stroke="rgb(76,76,76)"  stroke-width="2.0"/>
<line x1="191.8" y1="92.6" x2="145.2" y2="92.0" stroke="rgb(76,76,76)"  stroke-width="2.0"/>
<line x1="191.8" y1="92.6" x2="208.6" y2="114.0" stroke="rgb(76,76,76)"  stroke-width="2.0"/>
<line x1="145.2" y1="92.0" x2="134.6" y2="59.0" stroke="rgb(76,76,76)"  stroke-width="2.0"/>
<line x1="145.2" y1="92.0" x2="135.4" y2="112.5" stroke="rgb(76,76,76)"  stroke-width="2.0"/>
<circle cx="86.969293" cy="93.441249" r="2.066667" opacity="1.000000" style="stroke:black;fill:url(#radialffffffbfbfbf)"/>
<circle cx="40.000000" cy="70.639305" r="2.066667" opacity="1.000000" style="stroke:black;fill:url(#radialffffffbfbfbf)"/>
<circle cx="66.110550" cy="93.428337" r="5.066667" opacity="1.000000" style="stroke:black;fill:url(#radialffffff666666)"/>
<circle cx="52.136935" cy="125.478238" r="2.066667" opacity="1.000000" style="stroke:black;fill:url(#radialffffffbfbfbf)"/>
<circle cx="133.380157" cy="139.141973" r="4.400000" opacity="1.000000" style="stroke:black;fill:url(#radialffffffffcc)"/>
<circle cx="283.022755" cy="45.965174" r="4.400000" opacity="1.000000" style="stroke:black;fill:url(#radialffffffffcc)"/>
<circle cx="192.334673" cy="40.000000" r="4.400000" opacity="1.000000" style="stroke:black;fill:url(#radialffffffffcc)"/>
<circle cx="90.168150" cy="81.817551" r="4.400000" opacity="1.000000" style="stroke:black;fill:url(#radialffffffffcc)"/>
<circle cx="123.044395" cy="107.466510" r="5.385941" opacity="1.000000" style="stroke:black;fill:url(#radialffffff666666)"/>
<circle cx="336.580208" cy="110.165041" r="2.237224" opacity="1.000000" style="stroke:black;fill:url(#radialffffffbfbfbf)"/>
<circle cx="261.692737" cy="68.696104" r="5.950794" opacity="1.000000" style="stroke:black;fill:url(#radialffffff666666)"/>
<circle cx="212.037825" cy="65.910419" r="6.079365" opacity="1.000000" style="stroke:black;fill:url(#radialffffff666666)"/>
<circle cx="325.337404" cy="101.562666" r="7.742630" opacity="1.000000" style="stroke:black;fill:url(#radialffffff666666)"/>
<circle cx="278.761916" cy="98.076525" r="6.776047" opacity="1.000000" style="stroke:black;fill:url(#radialffffffffcc)"/>
<circle cx="191.798840" cy="92.637499" r="7.460550" opacity="1.000000" style="stroke:black;fill:url(#radialffffff0ccff)"/>
<circle cx="145.233036" cy="92.011285" r="8.226757" opacity="1.000000" style="stroke:black;fill:url(#radialffffff666666)"/>
<circle cx="340.272935" cy="71.084756" r="3.416604" opacity="1.000000" style="stroke:black;fill:url(#radialffffffbfbfbf)"/>
<circle cx="134.616446" cy="58.983328" r="3.558951" opacity="1.000000" style="stroke:black;fill:url(#radialffffffbfbfbf)"/>
<circle cx="208.635610" cy="114.041759" r="3.786114" opacity="1.000000" style="stroke:black;fill:url(#radialffffffbfbfbf)"/>
<circle cx="336.396217" cy="126.227112" r="3.800728" opacity="1.000000" style="stroke:black;fill:url(#radialffffffbfbfbf)"/>
<circle cx="135.371776" cy="112.508503" r="4.133333" opacity="1.000000" style="stroke:black;fill:url(#radialffffffbfbfbf)"/>
</svg>
</g>
</svg>
