<?xml version="1.0"?>
<svg version="1.1" id="topsvg"
xmlns="http://www.w3.org/2000/svg" xmlns:xlink="http://www.w3.org/1999/xlink"
xmlns:cml="http://www.xml-cml.org/schema" x="0" y="0" width="200px" height="200px" viewBox="0 0 100 100">
<title>62 - Open Babel Depiction</title>
<defs>
<radialGradient id='radialffffff0ccff' cx='50%' cy='50%' r='50%' fx='30%' fy='30%'>
  <stop offset=' 0%' stop-color="rgb(255,255,255)"  stop-opacity='0.8'/>
  <stop offset='100%' stop-color="rgb(12,12,255)"  stop-opacity ='1.0'/>
</radialGradient>
<radialGradient id='radialffffff666666' cx='50%' cy='50%' r='50%' fx='30%' fy='30%'>
  <stop offset=' 0%' stop-color="rgb(255,255,255)"  stop-opacity='0.8'/>
  <stop offset='100%' stop-color="rgb(102,102,102)"  stop-opacity ='1.0'/>
</radialGradient>
<radialGradient id='radialffffffbfbfbf' cx='50%' cy='50%' r='50%' fx='30%' fy='30%'>
  <stop offset=' 0%' stop-color="rgb(255,255,255)"  stop-opacity='0.8'/>
  <stop offset='100%' stop-color="rgb(191,191,191)"  stop-opacity ='1.0'/>
</radialGradient>
<radialGradient id='radialffffffffcc' cx='50%' cy='50%' r='50%' fx='30%' fy='30%'>
  <stop offset=' 0%' stop-color="rgb(255,255,255)"  stop-opacity='0.8'/>
  <stop offset='100%' stop-color="rgb(255,12,12)"  stop-opacity ='1.0'/>
</radialGradient>
</defs>
<g transform="translate(0,0)">
<svg width="100" height="100" x="0" y="0" viewBox="0 0 395.296 239.319"
font-family="sans-serif" stroke="rgb(76,76,76)" stroke-width="2"  stroke-linecap="round">
<line x1="159.1" y1="149.5" x2="159.7" y2="144.7" stroke="rgb(76,76,76)"  stroke-width="2.0"/>
<line x1="40.0" y1="72.6" x2="66.3" y2="71.4" stroke="rgb(76,76,76)"  stroke-width="2.0"/>
<line x1="96.9" y1="105.8" x2="66.3" y2="71.4" stroke="rgb(76,76,76)"  stroke-width="2.0"/>
<line x1="96.9" y1="105.8" x2="130.6" y2="107.5" stroke="rgb(76,76,76)"  stroke-width="2.0"/>
<line x1="81.8" y1="40.0" x2="66.3" y2="71.4" stroke="rgb(76,76,76)"  stroke-width="2.0"/>
<line x1="66.3" y1="71.4" x2="52.5" y2="74.0" stroke="rgb(76,76,76)"  stroke-width="2.0"/>
<line x1="159.7" y1="144.7" x2="130.6" y2="107.5" stroke="rgb(76,76,76)"  stroke-width="2.0"/>
<line x1="159.7" y1="144.7" x2="203.9" y2="137.9" stroke="rgb(76,76,76)"  stroke-width="2.0"/>
<line x1="159.7" y1="144.7" x2="147.0" y2="174.2" stroke="rgb(76,76,76)"  stroke-width="2.0"/>
<line x1="219.8" y1="111.0" x2="203.9" y2="137.9" stroke="rgb(76,76,76)"  stroke-width="2.0"/>
<line x1="127.6" y1="106.8" x2="133.6" y2="81.7" stroke="rgb(76,76,76)"  stroke-width="2.0"/>
<line x1="133.5" y1="108.2" x2="139.4" y2="83.0" stroke="rgb(76,76,76)"  stroke-width="2.0"/>
<line x1="203.9" y1="137.9" x2="224.7" y2="165.8" stroke="rgb(76,76,76)"  stroke-width="2.0"/>
<line x1="290.6" y1="121.3" x2="274.0" y2="153.9" stroke="rgb(76,76,76)"  stroke-width="2.0"/>
<line x1="285.3" y1="118.5" x2="268.7" y2="151.2" stroke="rgb(76,76,76)"  stroke-width="2.0"/>
<line x1="224.7" y1="165.8" x2="271.4" y2="152.5" stroke="rgb(76,76,76)"  stroke-width="2.0"/>
<line x1="227.4" y1="167.1" x2="211.4" y2="200.6" stroke="rgb(76,76,76)"  stroke-width="2.0"/>
<line x1="222.0" y1="164.6" x2="206.0" y2="198.0" stroke="rgb(76,76,76)"  stroke-width="2.0"/>
<line x1="271.4" y1="152.5" x2="291.0" y2="181.0" stroke="rgb(76,76,76)"  stroke-width="2.0"/>
<line x1="355.3" y1="168.9" x2="335.2" y2="171.1" stroke="rgb(76,76,76)"  stroke-width="2.0"/>
<line x1="291.0" y1="181.0" x2="335.2" y2="171.1" stroke="rgb(76,76,76)"  stroke-width="2.0"/>
<line x1="335.2" y1="171.1" x2="337.1" y2="140.4" stroke="rgb(76,76,76)"  stroke-width="2.0"/>
<line x1="335.2" y1="171.1" x2="348.6" y2="195.9" stroke="rgb(76,76,76)"  stroke-width="2.0"/>
<circle cx="159.091093" cy="149.463592" r="2.066667" opacity="1.000000" style="stroke:black;fill:url(#radialffffffbfbfbf)"/>
<circle cx="40.000000" cy="72.601780" r="2.066667" opacity="1.000000" style="stroke:black;fill:url(#radialffffffbfbfbf)"/>
<circle cx="96.922359" cy="105.778240" r="4.400000" opacity="1.000000" style="stroke:black;fill:url(#radialffffffffcc)"/>
<circle cx="81.845085" cy="40.000000" r="2.066667" opacity="1.000000" style="stroke:black;fill:url(#radialffffffbfbfbf)"/>
<circle cx="66.286759" cy="71.374935" r="5.066667" opacity="1.000000" style="stroke:black;fill:url(#radialffffff666666)"/>
<circle cx="159.707744" cy="144.724098" r="5.066667" opacity="1.000000" style="stroke:black;fill:url(#radialffffff666666)"/>
<circle cx="219.803757" cy="111.008472" r="2.066667" opacity="1.000000" style="stroke:black;fill:url(#radialffffffbfbfbf)"/>
<circle cx="130.554043" cy="107.463537" r="5.066667" opacity="1.000000" style="stroke:black;fill:url(#radialffffff666666)"/>
<circle cx="203.922577" cy="137.928025" r="4.733333" opacity="1.000000" style="stroke:black;fill:url(#radialffffff0ccff)"/>
<circle cx="146.987303" cy="174.187739" r="2.066667" opacity="1.000000" style="stroke:black;fill:url(#radialffffffbfbfbf)"/>
<circle cx="52.520272" cy="74.025565" r="2.066667" opacity="1.000000" style="stroke:black;fill:url(#radialffffffbfbfbf)"/>
<circle cx="287.932372" cy="119.906324" r="4.400000" opacity="1.000000" style="stroke:black;fill:url(#radialffffffffcc)"/>
<circle cx="224.665935" cy="165.841967" r="5.279954" opacity="1.000000" style="stroke:black;fill:url(#radialffffff666666)"/>
<circle cx="136.491325" cy="82.348737" r="4.705708" opacity="1.000000" style="stroke:black;fill:url(#radialffffffffcc)"/>
<circle cx="271.350600" cy="152.511332" r="6.014840" opacity="1.000000" style="stroke:black;fill:url(#radialffffff666666)"/>
<circle cx="208.739556" cy="199.318681" r="5.469179" opacity="1.000000" style="stroke:black;fill:url(#radialffffffffcc)"/>
<circle cx="355.295825" cy="168.912307" r="2.691331" opacity="1.000000" style="stroke:black;fill:url(#radialffffffbfbfbf)"/>
<circle cx="291.009170" cy="180.999954" r="6.803106" opacity="1.000000" style="stroke:black;fill:url(#radialffffffffcc)"/>
<circle cx="335.211088" cy="171.056056" r="8.646074" opacity="1.000000" style="stroke:black;fill:url(#radialffffff666666)"/>
<circle cx="337.090097" cy="140.362343" r="4.020244" opacity="1.000000" style="stroke:black;fill:url(#radialffffffbfbfbf)"/>
<circle cx="348.586922" cy="195.944858" r="4.133333" opacity="1.000000" style="stroke:black;fill:url(#radialffffffbfbfbf)"/>
</svg>
</g>
</svg>
