<?xml version="1.0"?>
<svg version="1.1" id="topsvg"
xmlns="http://www.w3.org/2000/svg" xmlns:xlink="http://www.w3.org/1999/xlink"
xmlns:cml="http://www.xml-cml.org/schema" x="0" y="0" width="200px" height="200px" viewBox="0 0 100 100">
<title>57 - Open Babel Depiction</title>
<defs>
<radialGradient id='radialffffff0ccff' cx='50%' cy='50%' r='50%' fx='30%' fy='30%'>
  <stop offset=' 0%' stop-color="rgb(255,255,255)"  stop-opacity='0.8'/>
  <stop offset='100%' stop-color="rgb(12,12,255)"  stop-opacity ='1.0'/>
</radialGradient>
<radialGradient id='radialffffff666666' cx='50%' cy='50%' r='50%' fx='30%' fy='30%'>
  <stop offset=' 0%' stop-color="rgb(255,255,255)"  stop-opacity='0.8'/>
  <stop offset='100%' stop-color="rgb(102,102,102)"  stop-opacity ='1.0'/>
</radialGradient>
<radialGradient id='radialffffffbfbfbf' cx='50%' cy='50%' r='50%' fx='30%' fy='30%'>
  <stop offset=' 0%' stop-color="rgb(255,255,255)"  stop-opacity='0.8'/>
  <stop offset='100%' stop-color="rgb(191,191,191)"  stop-opacity ='1.0'/>
</radialGradient>
<radialGradient id='radialffffffffcc' cx='50%' cy='50%' r='50%' fx='30%' fy='30%'>
  <stop offset=' 0%' stop-color="rgb(255,255,255)"  stop-opacity='0.8'/>
  <stop offset='100%' stop-color="rgb(255,12,12)"  stop-opacity ='1.0'/>
</radialGradient>
</defs>
<g transform="translate(0,0)">
<svg width="100" height="100" x="0" y="0" viewBox="0 0 402.438 190.309"
font-family="sans-serif" stroke="rgb(76,76,76)" stroke-width="2"  stroke-linecap="round">
<line x1="158.4" y1="40.0" x2="166.9" y2="68.3" stroke="rgb(76,76,76)"  stroke-width="2.0"/>
<line x1="159.9" y1="97.2" x2="166.9" y2="68.3" stroke="rgb(76,76,76)"  stroke-width="2.0"/>
<line x1="166.9" y1="68.3" x2="212.6" y2="67.0" stroke="rgb(76,76,76)"  stroke-width="2.0"/>
<line x1="166.9" y1="68.3" x2="139.2" y2="68.8" stroke="rgb(76,76,76)"  stroke-width="2.0"/>
<line x1="230.3" y1="40.7" x2="212.6" y2="67.0" stroke="rgb(76,76,76)"  stroke-width="2.0"/>
<line x1="212.6" y1="67.0" x2="232.0" y2="99.5" stroke="rgb(76,76,76)"  stroke-width="2.0"/>
<line x1="302.3" y1="62.0" x2="283.1" y2="94.0" stroke="rgb(76,76,76)"  stroke-width="2.0"/>
<line x1="297.2" y1="59.0" x2="278.0" y2="91.0" stroke="rgb(76,76,76)"  stroke-width="2.0"/>
<line x1="232.0" y1="99.5" x2="280.6" y2="92.5" stroke="rgb(76,76,76)"  stroke-width="2.0"/>
<line x1="234.6" y1="101.0" x2="215.8" y2="133.8" stroke="rgb(76,76,76)"  stroke-width="2.0"/>
<line x1="229.4" y1="98.0" x2="210.6" y2="130.9" stroke="rgb(76,76,76)"  stroke-width="2.0"/>
<line x1="100.4" y1="85.1" x2="139.2" y2="68.8" stroke="rgb(76,76,76)"  stroke-width="2.0"/>
<line x1="100.4" y1="85.1" x2="70.8" y2="87.3" stroke="rgb(76,76,76)"  stroke-width="2.0"/>
<line x1="362.4" y1="118.5" x2="344.5" y2="121.9" stroke="rgb(76,76,76)"  stroke-width="2.0"/>
<line x1="280.6" y1="92.5" x2="298.7" y2="125.7" stroke="rgb(76,76,76)"  stroke-width="2.0"/>
<line x1="137.0" y1="66.8" x2="148.1" y2="53.9" stroke="rgb(76,76,76)"  stroke-width="2.0"/>
<line x1="141.5" y1="70.8" x2="152.7" y2="57.9" stroke="rgb(76,76,76)"  stroke-width="2.0"/>
<line x1="40.0" y1="101.0" x2="70.8" y2="87.3" stroke="rgb(76,76,76)"  stroke-width="2.0"/>
<line x1="298.7" y1="125.7" x2="344.5" y2="121.9" stroke="rgb(76,76,76)"  stroke-width="2.0"/>
<line x1="344.5" y1="121.9" x2="356.4" y2="150.3" stroke="rgb(76,76,76)"  stroke-width="2.0"/>
<line x1="344.5" y1="121.9" x2="351.1" y2="93.8" stroke="rgb(76,76,76)"  stroke-width="2.0"/>
<line x1="70.8" y1="87.3" x2="64.7" y2="55.2" stroke="rgb(76,76,76)"  stroke-width="2.0"/>
<line x1="70.8" y1="87.3" x2="83.8" y2="107.3" stroke="rgb(76,76,76)"  stroke-width="2.0"/>
<circle cx="158.367759" cy="40.000000" r="2.066667" opacity="1.000000" style="stroke:black;fill:url(#radialffffffbfbfbf)"/>
<circle cx="159.898210" cy="97.162652" r="2.066667" opacity="1.000000" style="stroke:black;fill:url(#radialffffffbfbfbf)"/>
<circle cx="166.882102" cy="68.277819" r="5.066667" opacity="1.000000" style="stroke:black;fill:url(#radialffffff666666)"/>
<circle cx="230.250504" cy="40.684505" r="2.066667" opacity="1.000000" style="stroke:black;fill:url(#radialffffffbfbfbf)"/>
<circle cx="212.592204" cy="67.008901" r="4.733333" opacity="1.000000" style="stroke:black;fill:url(#radialffffff0ccff)"/>
<circle cx="299.724565" cy="60.493185" r="4.400000" opacity="1.000000" style="stroke:black;fill:url(#radialffffffffcc)"/>
<circle cx="231.994056" cy="99.493844" r="5.066667" opacity="1.000000" style="stroke:black;fill:url(#radialffffff666666)"/>
<circle cx="100.436654" cy="85.128919" r="4.400000" opacity="1.000000" style="stroke:black;fill:url(#radialffffffffcc)"/>
<circle cx="362.437522" cy="118.472723" r="2.066667" opacity="1.000000" style="stroke:black;fill:url(#radialffffffbfbfbf)"/>
<circle cx="280.555188" cy="92.497038" r="5.127819" opacity="1.000000" style="stroke:black;fill:url(#radialffffff666666)"/>
<circle cx="139.217754" cy="68.807342" r="5.348953" opacity="1.000000" style="stroke:black;fill:url(#radialffffff666666)"/>
<circle cx="213.179846" cy="132.353329" r="4.802700" opacity="1.000000" style="stroke:black;fill:url(#radialffffffffcc)"/>
<circle cx="40.000000" cy="100.966177" r="2.825028" opacity="1.000000" style="stroke:black;fill:url(#radialffffffbfbfbf)"/>
<circle cx="298.662291" cy="125.663258" r="6.054593" opacity="1.000000" style="stroke:black;fill:url(#radialffffffffcc)"/>
<circle cx="344.453113" cy="121.856504" r="7.733898" opacity="1.000000" style="stroke:black;fill:url(#radialffffff666666)"/>
<circle cx="70.757536" cy="87.250240" r="7.823453" opacity="1.000000" style="stroke:black;fill:url(#radialffffff666666)"/>
<circle cx="150.411999" cy="55.901833" r="7.399359" opacity="1.000000" style="stroke:black;fill:url(#radialffffffffcc)"/>
<circle cx="64.709996" cy="55.210871" r="3.669923" opacity="1.000000" style="stroke:black;fill:url(#radialffffffbfbfbf)"/>
<circle cx="356.415813" cy="150.308678" r="3.768989" opacity="1.000000" style="stroke:black;fill:url(#radialffffffbfbfbf)"/>
<circle cx="351.123812" cy="93.753040" r="3.886615" opacity="1.000000" style="stroke:black;fill:url(#radialffffffbfbfbf)"/>
<circle cx="83.818027" cy="107.281707" r="4.133333" opacity="1.000000" style="stroke:black;fill:url(#radialffffffbfbfbf)"/>
</svg>
</g>
</svg>
