<?xml version="1.0"?>
<svg version="1.1" id="topsvg"
xmlns="http://www.w3.org/2000/svg" xmlns:xlink="http://www.w3.org/1999/xlink"
xmlns:cml="http://www.xml-cml.org/schema" x="0" y="0" width="200px" height="200px" viewBox="0 0 100 100">
<title>56 - Open Babel Depiction</title>
<defs>
<radialGradient id='radialffffff0ccff' cx='50%' cy='50%' r='50%' fx='30%' fy='30%'>
  <stop offset=' 0%' stop-color="rgb(255,255,255)"  stop-opacity='0.8'/>
  <stop offset='100%' stop-color="rgb(12,12,255)"  stop-opacity ='1.0'/>
</radialGradient>
<radialGradient id='radialffffff666666' cx='50%' cy='50%' r='50%' fx='30%' fy='30%'>
  <stop offset=' 0%' stop-color="rgb(255,255,255)"  stop-opacity='0.8'/>
  <stop offset='100%' stop-color="rgb(102,102,102)"  stop-opacity ='1.0'/>
</radialGradient>
<radialGradient id='radialffffffbfbfbf' cx='50%' cy='50%' r='50%' fx='30%' fy='30%'>
  <stop offset=' 0%' stop-color="rgb(255,255,255)"  stop-opacity='0.8'/>
  <stop offset='100%' stop-color="rgb(191,191,191)"  stop-opacity ='1.0'/>
</radialGradient>
<radialGradient id='radialffffffffcc' cx='50%' cy='50%' r='50%' fx='30%' fy='30%'>
  <stop offset=' 0%' stop-color="rgb(255,255,255)"  stop-opacity='0.8'/>
  <stop offset='100%' stop-color="rgb(255,12,12)"  stop-opacity ='1.0'/>
</radialGradient>
</defs>
<g transform="translate(0,0)">
<svg width="100" height="100" x="0" y="0" viewBox="0 0 402.446 192.592"
font-family="sans-serif" stroke="rgb(76,76,76)" stroke-width="2"  stroke-linecap="round">
<line x1="158.4" y1="40.0" x2="166.9" y2="59.4" stroke="rgb(76,76,76)"  stroke-width="2.0"/>
<line x1="230.3" y1="60.2" x2="212.6" y2="68.9" stroke="rgb(76,76,76)"  stroke-width="2.0"/>
<line x1="64.8" y1="140.2" x2="70.8" y2="127.0" stroke="rgb(76,76,76)"  stroke-width="2.0"/>
<line x1="147.6" y1="135.8" x2="136.4" y2="100.4" stroke="rgb(76,76,76)"  stroke-width="2.0"/>
<line x1="153.3" y1="134.0" x2="142.1" y2="98.5" stroke="rgb(76,76,76)"  stroke-width="2.0"/>
<line x1="301.3" y1="88.0" x2="282.1" y2="99.4" stroke="rgb(76,76,76)"  stroke-width="2.0"/>
<line x1="298.2" y1="82.9" x2="279.1" y2="94.2" stroke="rgb(76,76,76)"  stroke-width="2.0"/>
<line x1="212.6" y1="68.9" x2="166.9" y2="59.4" stroke="rgb(76,76,76)"  stroke-width="2.0"/>
<line x1="212.6" y1="68.9" x2="232.0" y2="89.2" stroke="rgb(76,76,76)"  stroke-width="2.0"/>
<line x1="166.9" y1="59.4" x2="139.2" y2="99.5" stroke="rgb(76,76,76)"  stroke-width="2.0"/>
<line x1="166.9" y1="59.4" x2="159.9" y2="40.0" stroke="rgb(76,76,76)"  stroke-width="2.0"/>
<line x1="139.2" y1="99.5" x2="100.4" y2="90.9" stroke="rgb(76,76,76)"  stroke-width="2.0"/>
<line x1="100.4" y1="90.9" x2="70.8" y2="127.0" stroke="rgb(76,76,76)"  stroke-width="2.0"/>
<line x1="70.8" y1="127.0" x2="40.0" y2="116.9" stroke="rgb(76,76,76)"  stroke-width="2.0"/>
<line x1="70.8" y1="127.0" x2="83.8" y2="152.6" stroke="rgb(76,76,76)"  stroke-width="2.0"/>
<line x1="280.6" y1="96.8" x2="232.0" y2="89.2" stroke="rgb(76,76,76)"  stroke-width="2.0"/>
<line x1="280.6" y1="96.8" x2="298.7" y2="117.1" stroke="rgb(76,76,76)"  stroke-width="2.0"/>
<line x1="351.2" y1="145.7" x2="344.5" y2="125.5" stroke="rgb(76,76,76)"  stroke-width="2.0"/>
<line x1="233.6" y1="91.8" x2="214.8" y2="103.6" stroke="rgb(76,76,76)"  stroke-width="2.0"/>
<line x1="230.4" y1="86.7" x2="211.6" y2="98.5" stroke="rgb(76,76,76)"  stroke-width="2.0"/>
<line x1="362.4" y1="95.5" x2="344.5" y2="125.5" stroke="rgb(76,76,76)"  stroke-width="2.0"/>
<line x1="344.5" y1="125.5" x2="298.7" y2="117.1" stroke="rgb(76,76,76)"  stroke-width="2.0"/>
<line x1="344.5" y1="125.5" x2="356.5" y2="142.1" stroke="rgb(76,76,76)"  stroke-width="2.0"/>
<circle cx="158.388015" cy="40.016144" r="2.066667" opacity="1.000000" style="stroke:black;fill:url(#radialffffffbfbfbf)"/>
<circle cx="230.274525" cy="60.151083" r="2.066667" opacity="1.000000" style="stroke:black;fill:url(#radialffffffbfbfbf)"/>
<circle cx="64.777986" cy="140.174226" r="2.066667" opacity="1.000000" style="stroke:black;fill:url(#radialffffffbfbfbf)"/>
<circle cx="150.458027" cy="134.856355" r="4.400000" opacity="1.000000" style="stroke:black;fill:url(#radialffffffffcc)"/>
<circle cx="299.745876" cy="85.458596" r="4.400000" opacity="1.000000" style="stroke:black;fill:url(#radialffffffffcc)"/>
<circle cx="212.609636" cy="68.946396" r="4.733333" opacity="1.000000" style="stroke:black;fill:url(#radialffffff0ccff)"/>
<circle cx="166.892735" cy="59.418140" r="5.066667" opacity="1.000000" style="stroke:black;fill:url(#radialffffff666666)"/>
<circle cx="139.241096" cy="99.455542" r="5.066667" opacity="1.000000" style="stroke:black;fill:url(#radialffffff666666)"/>
<circle cx="100.440333" cy="90.921764" r="4.400000" opacity="1.000000" style="stroke:black;fill:url(#radialffffffffcc)"/>
<circle cx="70.777139" cy="126.955426" r="5.066667" opacity="1.000000" style="stroke:black;fill:url(#radialffffff666666)"/>
<circle cx="280.579584" cy="96.782077" r="5.066667" opacity="1.000000" style="stroke:black;fill:url(#radialffffff666666)"/>
<circle cx="351.226226" cy="145.682598" r="2.066667" opacity="1.000000" style="stroke:black;fill:url(#radialffffffbfbfbf)"/>
<circle cx="159.873274" cy="40.000000" r="2.128768" opacity="1.000000" style="stroke:black;fill:url(#radialffffffbfbfbf)"/>
<circle cx="232.008403" cy="89.239547" r="5.459154" opacity="1.000000" style="stroke:black;fill:url(#radialffffff666666)"/>
<circle cx="40.000000" cy="116.907329" r="2.280265" opacity="1.000000" style="stroke:black;fill:url(#radialffffffbfbfbf)"/>
<circle cx="83.824811" cy="152.592279" r="2.523261" opacity="1.000000" style="stroke:black;fill:url(#radialffffffbfbfbf)"/>
<circle cx="362.446385" cy="95.538980" r="2.937592" opacity="1.000000" style="stroke:black;fill:url(#radialffffffbfbfbf)"/>
<circle cx="344.503817" cy="125.531515" r="7.526086" opacity="1.000000" style="stroke:black;fill:url(#radialffffff666666)"/>
<circle cx="298.699737" cy="117.084915" r="6.831731" opacity="1.000000" style="stroke:black;fill:url(#radialffffffffcc)"/>
<circle cx="213.187595" cy="101.086098" r="7.350868" opacity="1.000000" style="stroke:black;fill:url(#radialffffffffcc)"/>
<circle cx="356.469834" cy="142.124435" r="4.133333" opacity="1.000000" style="stroke:black;fill:url(#radialffffffbfbfbf)"/>
</svg>
</g>
</svg>
