<?xml version="1.0"?>
<svg version="1.1" id="topsvg"
xmlns="http://www.w3.org/2000/svg" xmlns:xlink="http://www.w3.org/1999/xlink"
xmlns:cml="http://www.xml-cml.org/schema" x="0" y="0" width="200px" height="200px" viewBox="0 0 100 100">
<title>84 - Open Babel Depiction</title>
<defs>
<radialGradient id='radialffffff0ccff' cx='50%' cy='50%' r='50%' fx='30%' fy='30%'>
  <stop offset=' 0%' stop-color="rgb(255,255,255)"  stop-opacity='0.8'/>
  <stop offset='100%' stop-color="rgb(12,12,255)"  stop-opacity ='1.0'/>
</radialGradient>
<radialGradient id='radialffffff666666' cx='50%' cy='50%' r='50%' fx='30%' fy='30%'>
  <stop offset=' 0%' stop-color="rgb(255,255,255)"  stop-opacity='0.8'/>
  <stop offset='100%' stop-color="rgb(102,102,102)"  stop-opacity ='1.0'/>
</radialGradient>
<radialGradient id='radialffffffbfbfbf' cx='50%' cy='50%' r='50%' fx='30%' fy='30%'>
  <stop offset=' 0%' stop-color="rgb(255,255,255)"  stop-opacity='0.8'/>
  <stop offset='100%' stop-color="rgb(191,191,191)"  stop-opacity ='1.0'/>
</radialGradient>
<radialGradient id='radialffffffffcc' cx='50%' cy='50%' r='50%' fx='30%' fy='30%'>
  <stop offset=' 0%' stop-color="rgb(255,255,255)"  stop-opacity='0.8'/>
  <stop offset='100%' stop-color="rgb(255,12,12)"  stop-opacity ='1.0'/>
</radialGradient>
</defs>
<g transform="translate(0,0)">
<svg width="100" height="100" x="0" y="0" viewBox="0 0 356.643 254.519"
font-family="sans-serif" stroke="rgb(76,76,76)" stroke-width="2"  stroke-linecap="round">
<line x1="51.2" y1="173.4" x2="64.7" y2="192.2" stroke="rgb(76,76,76)"  stroke-width="2.0"/>
<line x1="91.5" y1="211.1" x2="64.7" y2="192.2" stroke="rgb(76,76,76)"  stroke-width="2.0"/>
<line x1="125.5" y1="135.0" x2="110.0" y2="138.7" stroke="rgb(76,76,76)"  stroke-width="2.0"/>
<line x1="124.1" y1="129.1" x2="108.6" y2="132.9" stroke="rgb(76,76,76)"  stroke-width="2.0"/>
<line x1="64.7" y1="192.2" x2="40.0" y2="214.5" stroke="rgb(76,76,76)"  stroke-width="2.0"/>
<line x1="64.7" y1="192.2" x2="79.0" y2="164.4" stroke="rgb(76,76,76)"  stroke-width="2.0"/>
<line x1="169.1" y1="45.8" x2="189.1" y2="69.4" stroke="rgb(76,76,76)"  stroke-width="2.0"/>
<line x1="164.5" y1="49.7" x2="184.5" y2="73.3" stroke="rgb(76,76,76)"  stroke-width="2.0"/>
<line x1="109.3" y1="135.8" x2="79.0" y2="164.4" stroke="rgb(76,76,76)"  stroke-width="2.0"/>
<line x1="109.3" y1="135.8" x2="121.2" y2="108.8" stroke="rgb(76,76,76)"  stroke-width="2.0"/>
<line x1="259.2" y1="41.8" x2="238.4" y2="68.5" stroke="rgb(76,76,76)"  stroke-width="2.0"/>
<line x1="254.4" y1="38.2" x2="233.7" y2="64.8" stroke="rgb(76,76,76)"  stroke-width="2.0"/>
<line x1="186.8" y1="71.4" x2="236.1" y2="66.6" stroke="rgb(76,76,76)"  stroke-width="2.0"/>
<line x1="186.8" y1="71.4" x2="167.3" y2="101.9" stroke="rgb(76,76,76)"  stroke-width="2.0"/>
<line x1="236.1" y1="66.6" x2="253.5" y2="94.3" stroke="rgb(76,76,76)"  stroke-width="2.0"/>
<line x1="316.6" y1="96.1" x2="299.7" y2="90.7" stroke="rgb(76,76,76)"  stroke-width="2.0"/>
<line x1="105.1" y1="77.3" x2="121.2" y2="108.8" stroke="rgb(76,76,76)"  stroke-width="2.0"/>
<line x1="121.2" y1="108.8" x2="167.3" y2="101.9" stroke="rgb(76,76,76)"  stroke-width="2.0"/>
<line x1="121.2" y1="108.8" x2="109.4" y2="124.7" stroke="rgb(76,76,76)"  stroke-width="2.0"/>
<line x1="167.3" y1="101.9" x2="184.4" y2="121.5" stroke="rgb(76,76,76)"  stroke-width="2.0"/>
<line x1="253.5" y1="94.3" x2="299.7" y2="90.7" stroke="rgb(76,76,76)"  stroke-width="2.0"/>
<line x1="299.7" y1="90.7" x2="308.3" y2="58.8" stroke="rgb(76,76,76)"  stroke-width="2.0"/>
<line x1="299.7" y1="90.7" x2="311.1" y2="114.4" stroke="rgb(76,76,76)"  stroke-width="2.0"/>
<circle cx="51.184632" cy="173.373105" r="2.066667" opacity="1.000000" style="stroke:black;fill:url(#radialffffffbfbfbf)"/>
<circle cx="91.478358" cy="211.107116" r="2.066667" opacity="1.000000" style="stroke:black;fill:url(#radialffffffbfbfbf)"/>
<circle cx="124.848264" cy="132.036771" r="4.400000" opacity="1.000000" style="stroke:black;fill:url(#radialffffffffcc)"/>
<circle cx="64.693343" cy="192.246566" r="5.066667" opacity="1.000000" style="stroke:black;fill:url(#radialffffff666666)"/>
<circle cx="40.000000" cy="214.518993" r="2.066667" opacity="1.000000" style="stroke:black;fill:url(#radialffffffbfbfbf)"/>
<circle cx="166.836631" cy="47.785666" r="4.400000" opacity="1.000000" style="stroke:black;fill:url(#radialffffffffcc)"/>
<circle cx="109.283388" cy="135.771437" r="5.066667" opacity="1.000000" style="stroke:black;fill:url(#radialffffff666666)"/>
<circle cx="256.784959" cy="40.000000" r="4.400000" opacity="1.000000" style="stroke:black;fill:url(#radialffffffffcc)"/>
<circle cx="78.989659" cy="164.402804" r="4.400000" opacity="1.000000" style="stroke:black;fill:url(#radialffffffffcc)"/>
<circle cx="186.833398" cy="71.387983" r="5.348723" opacity="1.000000" style="stroke:black;fill:url(#radialffffff666666)"/>
<circle cx="236.078057" cy="66.646216" r="5.764412" opacity="1.000000" style="stroke:black;fill:url(#radialffffff666666)"/>
<circle cx="316.642914" cy="96.113605" r="2.464311" opacity="1.000000" style="stroke:black;fill:url(#radialffffffbfbfbf)"/>
<circle cx="105.077450" cy="77.336981" r="2.713518" opacity="1.000000" style="stroke:black;fill:url(#radialffffffbfbfbf)"/>
<circle cx="121.242713" cy="108.750787" r="6.837904" opacity="1.000000" style="stroke:black;fill:url(#radialffffff666666)"/>
<circle cx="167.285308" cy="101.949627" r="6.661447" opacity="1.000000" style="stroke:black;fill:url(#radialffffff0ccff)"/>
<circle cx="253.531248" cy="94.257570" r="6.861217" opacity="1.000000" style="stroke:black;fill:url(#radialffffffffcc)"/>
<circle cx="299.725553" cy="90.716576" r="8.355932" opacity="1.000000" style="stroke:black;fill:url(#radialffffff666666)"/>
<circle cx="184.441533" cy="121.462210" r="3.537268" opacity="1.000000" style="stroke:black;fill:url(#radialffffffbfbfbf)"/>
<circle cx="109.425415" cy="124.667502" r="3.703205" opacity="1.000000" style="stroke:black;fill:url(#radialffffffbfbfbf)"/>
<circle cx="308.340786" cy="58.783080" r="3.775916" opacity="1.000000" style="stroke:black;fill:url(#radialffffffbfbfbf)"/>
<circle cx="311.132909" cy="114.418958" r="4.133333" opacity="1.000000" style="stroke:black;fill:url(#radialffffffbfbfbf)"/>
</svg>
</g>
</svg>
