<?xml version="1.0"?>
<svg version="1.1" id="topsvg"
xmlns="http://www.w3.org/2000/svg" xmlns:xlink="http://www.w3.org/1999/xlink"
xmlns:cml="http://www.xml-cml.org/schema" x="0" y="0" width="200px" height="200px" viewBox="0 0 100 100">
<title>64 - Open Babel Depiction</title>
<defs>
<radialGradient id='radialffffff0ccff' cx='50%' cy='50%' r='50%' fx='30%' fy='30%'>
  <stop offset=' 0%' stop-color="rgb(255,255,255)"  stop-opacity='0.8'/>
  <stop offset='100%' stop-color="rgb(12,12,255)"  stop-opacity ='1.0'/>
</radialGradient>
<radialGradient id='radialffffff666666' cx='50%' cy='50%' r='50%' fx='30%' fy='30%'>
  <stop offset=' 0%' stop-color="rgb(255,255,255)"  stop-opacity='0.8'/>
  <stop offset='100%' stop-color="rgb(102,102,102)"  stop-opacity ='1.0'/>
</radialGradient>
<radialGradient id='radialffffffbfbfbf' cx='50%' cy='50%' r='50%' fx='30%' fy='30%'>
  <stop offset=' 0%' stop-color="rgb(255,255,255)"  stop-opacity='0.8'/>
  <stop offset='100%' stop-color="rgb(191,191,191)"  stop-opacity ='1.0'/>
</radialGradient>
<radialGradient id='radialffffffffcc' cx='50%' cy='50%' r='50%' fx='30%' fy='30%'>
  <stop offset=' 0%' stop-color="rgb(255,255,255)"  stop-opacity='0.8'/>
  <stop offset='100%' stop-color="rgb(255,12,12)"  stop-opacity ='1.0'/>
</radialGradient>
</defs>
<g transform="translate(0,0)">
<svg width="100" height="100" x="0" y="0" viewBox="0 0 410.965 221.614"
font-family="sans-serif" stroke="rgb(76,76,76)" stroke-width="2"  stroke-linecap="round">
<line x1="76.0" y1="77.1" x2="72.6" y2="96.8" stroke="rgb(76,76,76)"  stroke-width="2.0"/>
<line x1="154.8" y1="103.6" x2="143.2" y2="90.9" stroke="rgb(76,76,76)"  stroke-width="2.0"/>
<line x1="159.3" y1="99.5" x2="147.6" y2="86.8" stroke="rgb(76,76,76)"  stroke-width="2.0"/>
<line x1="76.4" y1="130.5" x2="72.6" y2="96.8" stroke="rgb(76,76,76)"  stroke-width="2.0"/>
<line x1="72.6" y1="96.8" x2="40.0" y2="92.5" stroke="rgb(76,76,76)"  stroke-width="2.0"/>
<line x1="72.6" y1="96.8" x2="104.3" y2="84.8" stroke="rgb(76,76,76)"  stroke-width="2.0"/>
<line x1="145.4" y1="88.8" x2="104.3" y2="84.8" stroke="rgb(76,76,76)"  stroke-width="2.0"/>
<line x1="145.4" y1="88.8" x2="175.0" y2="75.3" stroke="rgb(76,76,76)"  stroke-width="2.0"/>
<line x1="234.9" y1="78.3" x2="219.3" y2="88.7" stroke="rgb(76,76,76)"  stroke-width="2.0"/>
<line x1="305.0" y1="113.2" x2="288.8" y2="126.6" stroke="rgb(76,76,76)"  stroke-width="2.0"/>
<line x1="301.1" y1="108.5" x2="284.9" y2="122.0" stroke="rgb(76,76,76)"  stroke-width="2.0"/>
<line x1="219.3" y1="88.7" x2="175.0" y2="75.3" stroke="rgb(76,76,76)"  stroke-width="2.0"/>
<line x1="219.3" y1="88.7" x2="240.3" y2="114.1" stroke="rgb(76,76,76)"  stroke-width="2.0"/>
<line x1="352.5" y1="178.3" x2="351.0" y2="161.0" stroke="rgb(76,76,76)"  stroke-width="2.0"/>
<line x1="175.0" y1="75.3" x2="174.1" y2="40.0" stroke="rgb(76,76,76)"  stroke-width="2.0"/>
<line x1="175.0" y1="75.3" x2="163.1" y2="88.9" stroke="rgb(76,76,76)"  stroke-width="2.0"/>
<line x1="286.8" y1="124.3" x2="240.3" y2="114.1" stroke="rgb(76,76,76)"  stroke-width="2.0"/>
<line x1="286.8" y1="124.3" x2="306.9" y2="149.6" stroke="rgb(76,76,76)"  stroke-width="2.0"/>
<line x1="242.3" y1="116.3" x2="226.7" y2="130.5" stroke="rgb(76,76,76)"  stroke-width="2.0"/>
<line x1="238.3" y1="111.8" x2="222.6" y2="126.1" stroke="rgb(76,76,76)"  stroke-width="2.0"/>
<line x1="371.0" y1="132.3" x2="351.0" y2="161.0" stroke="rgb(76,76,76)"  stroke-width="2.0"/>
<line x1="351.0" y1="161.0" x2="306.9" y2="149.6" stroke="rgb(76,76,76)"  stroke-width="2.0"/>
<line x1="351.0" y1="161.0" x2="364.8" y2="181.6" stroke="rgb(76,76,76)"  stroke-width="2.0"/>
<circle cx="75.995078" cy="77.083098" r="2.066667" opacity="1.000000" style="stroke:black;fill:url(#radialffffffbfbfbf)"/>
<circle cx="157.047766" cy="101.558718" r="4.400000" opacity="1.000000" style="stroke:black;fill:url(#radialffffffffcc)"/>
<circle cx="76.395418" cy="130.499419" r="2.066667" opacity="1.000000" style="stroke:black;fill:url(#radialffffffbfbfbf)"/>
<circle cx="72.576046" cy="96.835353" r="5.066667" opacity="1.000000" style="stroke:black;fill:url(#radialffffff666666)"/>
<circle cx="40.000000" cy="92.531699" r="2.066667" opacity="1.000000" style="stroke:black;fill:url(#radialffffffbfbfbf)"/>
<circle cx="145.363652" cy="88.831783" r="5.066667" opacity="1.000000" style="stroke:black;fill:url(#radialffffff666666)"/>
<circle cx="234.894507" cy="78.342232" r="2.066667" opacity="1.000000" style="stroke:black;fill:url(#radialffffffbfbfbf)"/>
<circle cx="303.033005" cy="110.853707" r="4.400000" opacity="1.000000" style="stroke:black;fill:url(#radialffffffffcc)"/>
<circle cx="104.270698" cy="84.828384" r="4.400000" opacity="1.000000" style="stroke:black;fill:url(#radialffffffffcc)"/>
<circle cx="219.268336" cy="88.673584" r="5.308894" opacity="1.000000" style="stroke:black;fill:url(#radialffffff0ccff)"/>
<circle cx="352.494355" cy="178.285153" r="2.360185" opacity="1.000000" style="stroke:black;fill:url(#radialffffffbfbfbf)"/>
<circle cx="175.037234" cy="75.275112" r="6.194414" opacity="1.000000" style="stroke:black;fill:url(#radialffffff666666)"/>
<circle cx="174.055755" cy="40.000000" r="2.615976" opacity="1.000000" style="stroke:black;fill:url(#radialffffffbfbfbf)"/>
<circle cx="286.841838" cy="124.342579" r="6.696936" opacity="1.000000" style="stroke:black;fill:url(#radialffffff666666)"/>
<circle cx="240.276496" cy="114.056426" r="7.694720" opacity="1.000000" style="stroke:black;fill:url(#radialffffff666666)"/>
<circle cx="370.964876" cy="132.252520" r="3.184388" opacity="1.000000" style="stroke:black;fill:url(#radialffffffbfbfbf)"/>
<circle cx="350.983394" cy="161.018880" r="8.002181" opacity="1.000000" style="stroke:black;fill:url(#radialffffff666666)"/>
<circle cx="163.088379" cy="88.902811" r="3.426519" opacity="1.000000" style="stroke:black;fill:url(#radialffffffbfbfbf)"/>
<circle cx="306.884662" cy="149.644706" r="7.605897" opacity="1.000000" style="stroke:black;fill:url(#radialffffffffcc)"/>
<circle cx="364.759607" cy="181.613785" r="4.000567" opacity="1.000000" style="stroke:black;fill:url(#radialffffffbfbfbf)"/>
<circle cx="224.647097" cy="128.333063" r="8.800000" opacity="1.000000" style="stroke:black;fill:url(#radialffffffffcc)"/>
</svg>
</g>
</svg>
