<?xml version="1.0"?>
<svg version="1.1" id="topsvg"
xmlns="http://www.w3.org/2000/svg" xmlns:xlink="http://www.w3.org/1999/xlink"
xmlns:cml="http://www.xml-cml.org/schema" x="0" y="0" width="200px" height="200px" viewBox="0 0 100 100">
<title>58 - Open Babel Depiction</title>
<defs>
<radialGradient id='radialffffff0ccff' cx='50%' cy='50%' r='50%' fx='30%' fy='30%'>
  <stop offset=' 0%' stop-color="rgb(255,255,255)"  stop-opacity='0.8'/>
  <stop offset='100%' stop-color="rgb(12,12,255)"  stop-opacity ='1.0'/>
</radialGradient>
<radialGradient id='radialffffff666666' cx='50%' cy='50%' r='50%' fx='30%' fy='30%'>
  <stop offset=' 0%' stop-color="rgb(255,255,255)"  stop-opacity='0.8'/>
  <stop offset='100%' stop-color="rgb(102,102,102)"  stop-opacity ='1.0'/>
</radialGradient>
<radialGradient id='radialffffffbfbfbf' cx='50%' cy='50%' r='50%' fx='30%' fy='30%'>
  <stop offset=' 0%' stop-color="rgb(255,255,255)"  stop-opacity='0.8'/>
  <stop offset='100%' stop-color="rgb(191,191,191)"  stop-opacity ='1.0'/>
</radialGradient>
<radialGradient id='radialffffffffcc' cx='50%' cy='50%' r='50%' fx='30%' fy='30%'>
  <stop offset=' 0%' stop-color="rgb(255,255,255)"  stop-opacity='0.8'/>
  <stop offset='100%' stop-color="rgb(255,12,12)"  stop-opacity ='1.0'/>
</radialGradient>
</defs>
<g transform="translate(0,0)">
<svg width="100" height="100" x="0" y="0" viewBox="0 0 367.37 204.029"
font-family="sans-serif" stroke="rgb(76,76,76)" stroke-width="2"  stroke-linecap="round">
<line x1="89.2" y1="86.9" x2="65.0" y2="86.8" stroke="rgb(76,76,76)"  stroke-width="2.0"/>
<line x1="40.0" y1="109.9" x2="65.0" y2="86.8" stroke="rgb(76,76,76)"  stroke-width="2.0"/>
<line x1="65.0" y1="86.8" x2="50.5" y2="54.8" stroke="rgb(76,76,76)"  stroke-width="2.0"/>
<line x1="65.0" y1="86.8" x2="84.3" y2="97.7" stroke="rgb(76,76,76)"  stroke-width="2.0"/>
<line x1="130.7" y1="41.1" x2="118.2" y2="72.7" stroke="rgb(76,76,76)"  stroke-width="2.0"/>
<line x1="125.2" y1="38.9" x2="112.6" y2="70.4" stroke="rgb(76,76,76)"  stroke-width="2.0"/>
<line x1="84.3" y1="97.7" x2="115.4" y2="71.6" stroke="rgb(76,76,76)"  stroke-width="2.0"/>
<line x1="115.4" y1="71.6" x2="132.6" y2="86.3" stroke="rgb(76,76,76)"  stroke-width="2.0"/>
<line x1="197.1" y1="71.0" x2="179.2" y2="89.6" stroke="rgb(76,76,76)"  stroke-width="2.0"/>
<line x1="270.4" y1="94.2" x2="251.0" y2="116.6" stroke="rgb(76,76,76)"  stroke-width="2.0"/>
<line x1="265.9" y1="90.3" x2="246.5" y2="112.6" stroke="rgb(76,76,76)"  stroke-width="2.0"/>
<line x1="132.6" y1="86.3" x2="179.2" y2="89.6" stroke="rgb(76,76,76)"  stroke-width="2.0"/>
<line x1="132.6" y1="86.3" x2="118.7" y2="117.9" stroke="rgb(76,76,76)"  stroke-width="2.0"/>
<line x1="132.6" y1="86.3" x2="122.2" y2="63.5" stroke="rgb(76,76,76)"  stroke-width="2.0"/>
<line x1="179.2" y1="89.6" x2="199.2" y2="115.7" stroke="rgb(76,76,76)"  stroke-width="2.0"/>
<line x1="325.9" y1="152.3" x2="314.2" y2="141.8" stroke="rgb(76,76,76)"  stroke-width="2.0"/>
<line x1="248.8" y1="114.6" x2="199.2" y2="115.7" stroke="rgb(76,76,76)"  stroke-width="2.0"/>
<line x1="248.8" y1="114.6" x2="267.5" y2="140.9" stroke="rgb(76,76,76)"  stroke-width="2.0"/>
<line x1="201.6" y1="117.6" x2="182.6" y2="140.8" stroke="rgb(76,76,76)"  stroke-width="2.0"/>
<line x1="196.9" y1="113.8" x2="177.9" y2="137.0" stroke="rgb(76,76,76)"  stroke-width="2.0"/>
<line x1="314.2" y1="141.8" x2="267.5" y2="140.9" stroke="rgb(76,76,76)"  stroke-width="2.0"/>
<line x1="314.2" y1="141.8" x2="327.4" y2="110.0" stroke="rgb(76,76,76)"  stroke-width="2.0"/>
<line x1="314.2" y1="141.8" x2="326.6" y2="164.0" stroke="rgb(76,76,76)"  stroke-width="2.0"/>
<circle cx="89.188169" cy="86.898920" r="2.066667" opacity="1.000000" style="stroke:black;fill:url(#radialffffffbfbfbf)"/>
<circle cx="40.000000" cy="109.920559" r="2.066667" opacity="1.000000" style="stroke:black;fill:url(#radialffffffbfbfbf)"/>
<circle cx="65.023520" cy="86.789140" r="5.066667" opacity="1.000000" style="stroke:black;fill:url(#radialffffff666666)"/>
<circle cx="50.464675" cy="54.839755" r="2.066667" opacity="1.000000" style="stroke:black;fill:url(#radialffffffbfbfbf)"/>
<circle cx="127.960095" cy="40.000000" r="4.400000" opacity="1.000000" style="stroke:black;fill:url(#radialffffffffcc)"/>
<circle cx="84.302932" cy="97.692937" r="4.400000" opacity="1.000000" style="stroke:black;fill:url(#radialffffffffcc)"/>
<circle cx="115.428962" cy="71.552237" r="5.066667" opacity="1.000000" style="stroke:black;fill:url(#radialffffff666666)"/>
<circle cx="197.102503" cy="71.009792" r="2.138686" opacity="1.000000" style="stroke:black;fill:url(#radialffffffbfbfbf)"/>
<circle cx="268.127326" cy="92.281399" r="5.402778" opacity="1.000000" style="stroke:black;fill:url(#radialffffffffcc)"/>
<circle cx="132.638686" cy="86.324186" r="6.237202" opacity="1.000000" style="stroke:black;fill:url(#radialffffff666666)"/>
<circle cx="179.227638" cy="89.636978" r="5.863430" opacity="1.000000" style="stroke:black;fill:url(#radialffffff0ccff)"/>
<circle cx="118.677176" cy="117.924856" r="2.705059" opacity="1.000000" style="stroke:black;fill:url(#radialffffffbfbfbf)"/>
<circle cx="325.900983" cy="152.279728" r="2.986349" opacity="1.000000" style="stroke:black;fill:url(#radialffffffbfbfbf)"/>
<circle cx="122.248275" cy="63.522109" r="3.059932" opacity="1.000000" style="stroke:black;fill:url(#radialffffffbfbfbf)"/>
<circle cx="248.763964" cy="114.592692" r="7.511229" opacity="1.000000" style="stroke:black;fill:url(#radialffffff666666)"/>
<circle cx="199.246454" cy="115.735702" r="7.677598" opacity="1.000000" style="stroke:black;fill:url(#radialffffff666666)"/>
<circle cx="314.170603" cy="141.837655" r="8.908728" opacity="1.000000" style="stroke:black;fill:url(#radialffffff666666)"/>
<circle cx="267.458955" cy="140.894833" r="7.770238" opacity="1.000000" style="stroke:black;fill:url(#radialffffffffcc)"/>
<circle cx="180.267324" cy="138.876808" r="7.813582" opacity="1.000000" style="stroke:black;fill:url(#radialffffffffcc)"/>
<circle cx="327.370106" cy="109.952847" r="3.769213" opacity="1.000000" style="stroke:black;fill:url(#radialffffffbfbfbf)"/>
<circle cx="326.579040" cy="164.029481" r="4.133333" opacity="1.000000" style="stroke:black;fill:url(#radialffffffbfbfbf)"/>
</svg>
</g>
</svg>
