<?xml version="1.0"?>
<svg version="1.1" id="topsvg"
xmlns="http://www.w3.org/2000/svg" xmlns:xlink="http://www.w3.org/1999/xlink"
xmlns:cml="http://www.xml-cml.org/schema" x="0" y="0" width="200px" height="200px" viewBox="0 0 100 100">
<title>65 - Open Babel Depiction</title>
<defs>
<radialGradient id='radialffffff0ccff' cx='50%' cy='50%' r='50%' fx='30%' fy='30%'>
  <stop offset=' 0%' stop-color="rgb(255,255,255)"  stop-opacity='0.8'/>
  <stop offset='100%' stop-color="rgb(12,12,255)"  stop-opacity ='1.0'/>
</radialGradient>
<radialGradient id='radialffffff666666' cx='50%' cy='50%' r='50%' fx='30%' fy='30%'>
  <stop offset=' 0%' stop-color="rgb(255,255,255)"  stop-opacity='0.8'/>
  <stop offset='100%' stop-color="rgb(102,102,102)"  stop-opacity ='1.0'/>
</radialGradient>
<radialGradient id='radialffffffbfbfbf' cx='50%' cy='50%' r='50%' fx='30%' fy='30%'>
  <stop offset=' 0%' stop-color="rgb(255,255,255)"  stop-opacity='0.8'/>
  <stop offset='100%' stop-color="rgb(191,191,191)"  stop-opacity ='1.0'/>
</radialGradient>
<radialGradient id='radialffffffffcc' cx='50%' cy='50%' r='50%' fx='30%' fy='30%'>
  <stop offset=' 0%' stop-color="rgb(255,255,255)"  stop-opacity='0.8'/>
  <stop offset='100%' stop-color="rgb(255,12,12)"  stop-opacity ='1.0'/>
</radialGradient>
</defs>
<g transform="translate(0,0)">
<svg width="100" height="100" x="0" y="0" viewBox="0 0 395.287 222.04"
font-family="sans-serif" stroke="rgb(76,76,76)" stroke-width="2"  stroke-linecap="round">
<line x1="82.2" y1="65.7" x2="66.5" y2="68.5" stroke="rgb(76,76,76)"  stroke-width="2.0"/>
<line x1="66.5" y1="68.5" x2="40.0" y2="45.5" stroke="rgb(76,76,76)"  stroke-width="2.0"/>
<line x1="66.5" y1="68.5" x2="53.0" y2="100.9" stroke="rgb(76,76,76)"  stroke-width="2.0"/>
<line x1="66.5" y1="68.5" x2="96.9" y2="60.4" stroke="rgb(76,76,76)"  stroke-width="2.0"/>
<line x1="133.9" y1="117.0" x2="127.7" y2="87.4" stroke="rgb(76,76,76)"  stroke-width="2.0"/>
<line x1="139.8" y1="115.8" x2="133.6" y2="86.2" stroke="rgb(76,76,76)"  stroke-width="2.0"/>
<line x1="96.9" y1="60.4" x2="130.7" y2="86.8" stroke="rgb(76,76,76)"  stroke-width="2.0"/>
<line x1="130.7" y1="86.8" x2="159.7" y2="75.1" stroke="rgb(76,76,76)"  stroke-width="2.0"/>
<line x1="219.7" y1="78.5" x2="203.9" y2="88.7" stroke="rgb(76,76,76)"  stroke-width="2.0"/>
<line x1="289.7" y1="113.4" x2="273.2" y2="126.8" stroke="rgb(76,76,76)"  stroke-width="2.0"/>
<line x1="286.0" y1="108.7" x2="269.4" y2="122.1" stroke="rgb(76,76,76)"  stroke-width="2.0"/>
<line x1="203.9" y1="88.7" x2="159.7" y2="75.1" stroke="rgb(76,76,76)"  stroke-width="2.0"/>
<line x1="203.9" y1="88.7" x2="224.7" y2="113.9" stroke="rgb(76,76,76)"  stroke-width="2.0"/>
<line x1="336.9" y1="178.6" x2="335.2" y2="161.3" stroke="rgb(76,76,76)"  stroke-width="2.0"/>
<line x1="159.7" y1="75.1" x2="159.0" y2="40.0" stroke="rgb(76,76,76)"  stroke-width="2.0"/>
<line x1="159.7" y1="75.1" x2="147.0" y2="89.9" stroke="rgb(76,76,76)"  stroke-width="2.0"/>
<line x1="271.3" y1="124.4" x2="224.7" y2="113.9" stroke="rgb(76,76,76)"  stroke-width="2.0"/>
<line x1="271.3" y1="124.4" x2="291.0" y2="149.8" stroke="rgb(76,76,76)"  stroke-width="2.0"/>
<line x1="226.7" y1="116.2" x2="210.8" y2="130.3" stroke="rgb(76,76,76)"  stroke-width="2.0"/>
<line x1="222.7" y1="111.7" x2="206.8" y2="125.8" stroke="rgb(76,76,76)"  stroke-width="2.0"/>
<line x1="355.3" y1="132.6" x2="335.2" y2="161.3" stroke="rgb(76,76,76)"  stroke-width="2.0"/>
<line x1="335.2" y1="161.3" x2="291.0" y2="149.8" stroke="rgb(76,76,76)"  stroke-width="2.0"/>
<line x1="335.2" y1="161.3" x2="348.6" y2="182.0" stroke="rgb(76,76,76)"  stroke-width="2.0"/>
<circle cx="82.242367" cy="65.741241" r="2.066667" opacity="1.000000" style="stroke:black;fill:url(#radialffffffbfbfbf)"/>
<circle cx="66.506408" cy="68.543624" r="5.066667" opacity="1.000000" style="stroke:black;fill:url(#radialffffff666666)"/>
<circle cx="40.000000" cy="45.520823" r="2.066667" opacity="1.000000" style="stroke:black;fill:url(#radialffffffbfbfbf)"/>
<circle cx="53.027205" cy="100.877567" r="2.066667" opacity="1.000000" style="stroke:black;fill:url(#radialffffffbfbfbf)"/>
<circle cx="136.843630" cy="116.390756" r="4.400000" opacity="1.000000" style="stroke:black;fill:url(#radialffffffffcc)"/>
<circle cx="96.854791" cy="60.420588" r="4.400000" opacity="1.000000" style="stroke:black;fill:url(#radialffffffffcc)"/>
<circle cx="130.657725" cy="86.781711" r="5.066667" opacity="1.000000" style="stroke:black;fill:url(#radialffffff666666)"/>
<circle cx="219.749603" cy="78.477876" r="2.066667" opacity="1.000000" style="stroke:black;fill:url(#radialffffffbfbfbf)"/>
<circle cx="287.855897" cy="111.024904" r="4.414480" opacity="1.000000" style="stroke:black;fill:url(#radialffffffffcc)"/>
<circle cx="203.910330" cy="88.689785" r="5.818878" opacity="1.000000" style="stroke:black;fill:url(#radialffffff0ccff)"/>
<circle cx="336.929879" cy="178.550058" r="2.611071" opacity="1.000000" style="stroke:black;fill:url(#radialffffffbfbfbf)"/>
<circle cx="159.682403" cy="75.120183" r="6.655032" opacity="1.000000" style="stroke:black;fill:url(#radialffffff666666)"/>
<circle cx="158.997950" cy="40.000000" r="2.832137" opacity="1.000000" style="stroke:black;fill:url(#radialffffffbfbfbf)"/>
<circle cx="271.325713" cy="124.423392" r="7.157719" opacity="1.000000" style="stroke:black;fill:url(#radialffffff666666)"/>
<circle cx="224.686058" cy="113.949971" r="8.004533" opacity="1.000000" style="stroke:black;fill:url(#radialffffff666666)"/>
<circle cx="355.287423" cy="132.649742" r="3.338779" opacity="1.000000" style="stroke:black;fill:url(#radialffffffbfbfbf)"/>
<circle cx="335.163861" cy="161.335421" r="8.338431" opacity="1.000000" style="stroke:black;fill:url(#radialffffff666666)"/>
<circle cx="146.952225" cy="89.948920" r="3.477728" opacity="1.000000" style="stroke:black;fill:url(#radialffffffbfbfbf)"/>
<circle cx="291.006963" cy="149.790121" r="7.790636" opacity="1.000000" style="stroke:black;fill:url(#radialffffffffcc)"/>
<circle cx="348.572035" cy="182.040122" r="4.047627" opacity="1.000000" style="stroke:black;fill:url(#radialffffffbfbfbf)"/>
<circle cx="208.788671" cy="128.003856" r="8.800000" opacity="1.000000" style="stroke:black;fill:url(#radialffffffffcc)"/>
</svg>
</g>
</svg>
