<?xml version="1.0"?>
<svg version="1.1" id="topsvg"
xmlns="http://www.w3.org/2000/svg" xmlns:xlink="http://www.w3.org/1999/xlink"
xmlns:cml="http://www.xml-cml.org/schema" x="0" y="0" width="200px" height="200px" viewBox="0 0 100 100">
<title>86 - Open Babel Depiction</title>
<defs>
<radialGradient id='radialffffff0ccff' cx='50%' cy='50%' r='50%' fx='30%' fy='30%'>
  <stop offset=' 0%' stop-color="rgb(255,255,255)"  stop-opacity='0.8'/>
  <stop offset='100%' stop-color="rgb(12,12,255)"  stop-opacity ='1.0'/>
</radialGradient>
<radialGradient id='radialffffff666666' cx='50%' cy='50%' r='50%' fx='30%' fy='30%'>
  <stop offset=' 0%' stop-color="rgb(255,255,255)"  stop-opacity='0.8'/>
  <stop offset='100%' stop-color="rgb(102,102,102)"  stop-opacity ='1.0'/>
</radialGradient>
<radialGradient id='radialffffffbfbfbf' cx='50%' cy='50%' r='50%' fx='30%' fy='30%'>
  <stop offset=' 0%' stop-color="rgb(255,255,255)"  stop-opacity='0.8'/>
  <stop offset='100%' stop-color="rgb(191,191,191)"  stop-opacity ='1.0'/>
</radialGradient>
<radialGradient id='radialffffffffcc' cx='50%' cy='50%' r='50%' fx='30%' fy='30%'>
  <stop offset=' 0%' stop-color="rgb(255,255,255)"  stop-opacity='0.8'/>
  <stop offset='100%' stop-color="rgb(255,12,12)"  stop-opacity ='1.0'/>
</radialGradient>
</defs>
<g transform="translate(0,0)">
<svg width="100" height="100" x="0" y="0" viewBox="0 0 344.061 196.626"
font-family="sans-serif" stroke="rgb(76,76,76)" stroke-width="2"  stroke-linecap="round">
<line x1="103.0" y1="96.6" x2="108.1" y2="70.3" stroke="rgb(76,76,76)"  stroke-width="2.0"/>
<line x1="99.3" y1="40.0" x2="108.1" y2="70.3" stroke="rgb(76,76,76)"  stroke-width="2.0"/>
<line x1="108.1" y1="70.3" x2="153.3" y2="68.7" stroke="rgb(76,76,76)"  stroke-width="2.0"/>
<line x1="108.1" y1="70.3" x2="79.0" y2="76.9" stroke="rgb(76,76,76)"  stroke-width="2.0"/>
<line x1="170.1" y1="40.7" x2="153.3" y2="68.7" stroke="rgb(76,76,76)"  stroke-width="2.0"/>
<line x1="153.3" y1="68.7" x2="173.3" y2="103.1" stroke="rgb(76,76,76)"  stroke-width="2.0"/>
<line x1="176.0" y1="104.4" x2="158.1" y2="139.4" stroke="rgb(76,76,76)"  stroke-width="2.0"/>
<line x1="170.6" y1="101.7" x2="152.8" y2="136.7" stroke="rgb(76,76,76)"  stroke-width="2.0"/>
<line x1="173.3" y1="103.1" x2="221.2" y2="95.5" stroke="rgb(76,76,76)"  stroke-width="2.0"/>
<line x1="242.0" y1="62.9" x2="223.8" y2="96.9" stroke="rgb(76,76,76)"  stroke-width="2.0"/>
<line x1="236.7" y1="60.0" x2="218.5" y2="94.1" stroke="rgb(76,76,76)"  stroke-width="2.0"/>
<line x1="42.8" y1="92.3" x2="77.6" y2="74.2" stroke="rgb(76,76,76)"  stroke-width="2.0"/>
<line x1="45.5" y1="97.6" x2="80.4" y2="79.5" stroke="rgb(76,76,76)"  stroke-width="2.0"/>
<line x1="304.1" y1="118.0" x2="285.0" y2="126.5" stroke="rgb(76,76,76)"  stroke-width="2.0"/>
<line x1="79.0" y1="76.9" x2="96.3" y2="60.0" stroke="rgb(76,76,76)"  stroke-width="2.0"/>
<line x1="221.2" y1="95.5" x2="239.8" y2="130.7" stroke="rgb(76,76,76)"  stroke-width="2.0"/>
<line x1="239.8" y1="130.7" x2="285.0" y2="126.5" stroke="rgb(76,76,76)"  stroke-width="2.0"/>
<line x1="285.0" y1="126.5" x2="297.5" y2="156.6" stroke="rgb(76,76,76)"  stroke-width="2.0"/>
<line x1="285.0" y1="126.5" x2="289.6" y2="101.4" stroke="rgb(76,76,76)"  stroke-width="2.0"/>
<line x1="96.3" y1="60.0" x2="71.2" y2="64.2" stroke="rgb(76,76,76)"  stroke-width="2.0"/>
<line x1="40.0" y1="48.5" x2="71.2" y2="64.2" stroke="rgb(76,76,76)"  stroke-width="2.0"/>
<line x1="71.2" y1="64.2" x2="65.7" y2="98.0" stroke="rgb(76,76,76)"  stroke-width="2.0"/>
<line x1="71.2" y1="64.2" x2="88.0" y2="49.4" stroke="rgb(76,76,76)"  stroke-width="2.0"/>
<circle cx="103.017358" cy="96.643619" r="2.066667" opacity="1.000000" style="stroke:black;fill:url(#radialffffffbfbfbf)"/>
<circle cx="99.258983" cy="40.000000" r="2.066667" opacity="1.000000" style="stroke:black;fill:url(#radialffffffbfbfbf)"/>
<circle cx="108.115703" cy="70.251044" r="5.066667" opacity="1.000000" style="stroke:black;fill:url(#radialffffff666666)"/>
<circle cx="170.148263" cy="40.674828" r="2.066667" opacity="1.000000" style="stroke:black;fill:url(#radialffffffbfbfbf)"/>
<circle cx="153.329212" cy="68.681825" r="4.733333" opacity="1.000000" style="stroke:black;fill:url(#radialffffff0ccff)"/>
<circle cx="173.289929" cy="103.081935" r="5.066667" opacity="1.000000" style="stroke:black;fill:url(#radialffffff666666)"/>
<circle cx="239.394062" cy="61.458900" r="4.400000" opacity="1.000000" style="stroke:black;fill:url(#radialffffffffcc)"/>
<circle cx="155.444105" cy="138.024489" r="4.400000" opacity="1.000000" style="stroke:black;fill:url(#radialffffffffcc)"/>
<circle cx="44.152294" cy="94.951704" r="4.400000" opacity="1.000000" style="stroke:black;fill:url(#radialffffffffcc)"/>
<circle cx="304.061359" cy="118.012111" r="2.066667" opacity="1.000000" style="stroke:black;fill:url(#radialffffffbfbfbf)"/>
<circle cx="78.978611" cy="76.879862" r="5.066667" opacity="1.000000" style="stroke:black;fill:url(#radialffffff666666)"/>
<circle cx="221.164006" cy="95.494150" r="5.066667" opacity="1.000000" style="stroke:black;fill:url(#radialffffff666666)"/>
<circle cx="239.826727" cy="130.659495" r="4.400000" opacity="1.000000" style="stroke:black;fill:url(#radialffffffffcc)"/>
<circle cx="285.020863" cy="126.465226" r="5.537861" opacity="1.000000" style="stroke:black;fill:url(#radialffffff666666)"/>
<circle cx="96.336878" cy="59.951030" r="5.223700" opacity="1.000000" style="stroke:black;fill:url(#radialffffffffcc)"/>
<circle cx="297.503576" cy="156.625862" r="2.587657" opacity="1.000000" style="stroke:black;fill:url(#radialffffffbfbfbf)"/>
<circle cx="289.628424" cy="101.406164" r="2.871313" opacity="1.000000" style="stroke:black;fill:url(#radialffffffbfbfbf)"/>
<circle cx="40.000000" cy="48.472488" r="3.358083" opacity="1.000000" style="stroke:black;fill:url(#radialffffffbfbfbf)"/>
<circle cx="71.239070" cy="64.164672" r="8.448220" opacity="1.000000" style="stroke:black;fill:url(#radialffffff666666)"/>
<circle cx="65.695144" cy="97.999733" r="3.639858" opacity="1.000000" style="stroke:black;fill:url(#radialffffffbfbfbf)"/>
<circle cx="87.951569" cy="49.399166" r="4.133333" opacity="1.000000" style="stroke:black;fill:url(#radialffffffbfbfbf)"/>
</svg>
</g>
</svg>
