<?xml version="1.0"?>
<svg version="1.1" id="topsvg"
xmlns="http://www.w3.org/2000/svg" xmlns:xlink="http://www.w3.org/1999/xlink"
xmlns:cml="http://www.xml-cml.org/schema" x="0" y="0" width="200px" height="200px" viewBox="0 0 100 100">
<title>59 - Open Babel Depiction</title>
<defs>
<radialGradient id='radialffffff0ccff' cx='50%' cy='50%' r='50%' fx='30%' fy='30%'>
  <stop offset=' 0%' stop-color="rgb(255,255,255)"  stop-opacity='0.8'/>
  <stop offset='100%' stop-color="rgb(12,12,255)"  stop-opacity ='1.0'/>
</radialGradient>
<radialGradient id='radialffffff666666' cx='50%' cy='50%' r='50%' fx='30%' fy='30%'>
  <stop offset=' 0%' stop-color="rgb(255,255,255)"  stop-opacity='0.8'/>
  <stop offset='100%' stop-color="rgb(102,102,102)"  stop-opacity ='1.0'/>
</radialGradient>
<radialGradient id='radialffffffbfbfbf' cx='50%' cy='50%' r='50%' fx='30%' fy='30%'>
  <stop offset=' 0%' stop-color="rgb(255,255,255)"  stop-opacity='0.8'/>
  <stop offset='100%' stop-color="rgb(191,191,191)"  stop-opacity ='1.0'/>
</radialGradient>
<radialGradient id='radialffffffffcc' cx='50%' cy='50%' r='50%' fx='30%' fy='30%'>
  <stop offset=' 0%' stop-color="rgb(255,255,255)"  stop-opacity='0.8'/>
  <stop offset='100%' stop-color="rgb(255,12,12)"  stop-opacity ='1.0'/>
</radialGradient>
</defs>
<g transform="translate(0,0)">
<svg width="100" height="100" x="0" y="0" viewBox="0 0 367.537 279.906"
font-family="sans-serif" stroke="rgb(76,76,76)" stroke-width="2"  stroke-linecap="round">
<line x1="130.6" y1="102.6" x2="118.0" y2="122.1" stroke="rgb(76,76,76)"  stroke-width="2.0"/>
<line x1="125.6" y1="99.3" x2="113.0" y2="118.9" stroke="rgb(76,76,76)"  stroke-width="2.0"/>
<line x1="50.6" y1="66.8" x2="65.1" y2="65.5" stroke="rgb(76,76,76)"  stroke-width="2.0"/>
<line x1="122.3" y1="188.6" x2="132.7" y2="163.5" stroke="rgb(76,76,76)"  stroke-width="2.0"/>
<line x1="197.2" y1="143.8" x2="179.3" y2="164.2" stroke="rgb(76,76,76)"  stroke-width="2.0"/>
<line x1="115.5" y1="120.5" x2="132.7" y2="163.5" stroke="rgb(76,76,76)"  stroke-width="2.0"/>
<line x1="115.5" y1="120.5" x2="84.3" y2="106.6" stroke="rgb(76,76,76)"  stroke-width="2.0"/>
<line x1="65.1" y1="65.5" x2="89.2" y2="40.0" stroke="rgb(76,76,76)"  stroke-width="2.0"/>
<line x1="65.1" y1="65.5" x2="84.3" y2="106.6" stroke="rgb(76,76,76)"  stroke-width="2.0"/>
<line x1="65.1" y1="65.5" x2="40.0" y2="56.9" stroke="rgb(76,76,76)"  stroke-width="2.0"/>
<line x1="132.7" y1="163.5" x2="179.3" y2="164.2" stroke="rgb(76,76,76)"  stroke-width="2.0"/>
<line x1="132.7" y1="163.5" x2="118.7" y2="171.1" stroke="rgb(76,76,76)"  stroke-width="2.0"/>
<line x1="179.3" y1="164.2" x2="199.3" y2="191.8" stroke="rgb(76,76,76)"  stroke-width="2.0"/>
<line x1="270.6" y1="164.9" x2="251.2" y2="190.3" stroke="rgb(76,76,76)"  stroke-width="2.0"/>
<line x1="265.8" y1="161.2" x2="246.5" y2="186.6" stroke="rgb(76,76,76)"  stroke-width="2.0"/>
<line x1="327.5" y1="222.5" x2="314.3" y2="215.8" stroke="rgb(76,76,76)"  stroke-width="2.0"/>
<line x1="248.8" y1="188.5" x2="199.3" y2="191.8" stroke="rgb(76,76,76)"  stroke-width="2.0"/>
<line x1="248.8" y1="188.5" x2="267.6" y2="216.7" stroke="rgb(76,76,76)"  stroke-width="2.0"/>
<line x1="201.8" y1="193.6" x2="182.8" y2="219.6" stroke="rgb(76,76,76)"  stroke-width="2.0"/>
<line x1="196.9" y1="190.0" x2="177.9" y2="216.1" stroke="rgb(76,76,76)"  stroke-width="2.0"/>
<line x1="267.6" y1="216.7" x2="314.3" y2="215.8" stroke="rgb(76,76,76)"  stroke-width="2.0"/>
<line x1="314.3" y1="215.8" x2="325.9" y2="184.3" stroke="rgb(76,76,76)"  stroke-width="2.0"/>
<line x1="314.3" y1="215.8" x2="326.7" y2="239.9" stroke="rgb(76,76,76)"  stroke-width="2.0"/>
<circle cx="128.083466" cy="100.941618" r="4.400000" opacity="1.000000" style="stroke:black;fill:url(#radialffffffffcc)"/>
<circle cx="50.577765" cy="66.799588" r="2.066667" opacity="1.000000" style="stroke:black;fill:url(#radialffffffbfbfbf)"/>
<circle cx="122.307024" cy="188.618246" r="2.066667" opacity="1.000000" style="stroke:black;fill:url(#radialffffffbfbfbf)"/>
<circle cx="197.155368" cy="143.824188" r="2.066667" opacity="1.000000" style="stroke:black;fill:url(#radialffffffbfbfbf)"/>
<circle cx="115.503804" cy="120.479486" r="5.066667" opacity="1.000000" style="stroke:black;fill:url(#radialffffff666666)"/>
<circle cx="65.072145" cy="65.501584" r="5.066667" opacity="1.000000" style="stroke:black;fill:url(#radialffffff666666)"/>
<circle cx="89.233749" cy="40.000000" r="2.066667" opacity="1.000000" style="stroke:black;fill:url(#radialffffffbfbfbf)"/>
<circle cx="132.700744" cy="163.455693" r="5.066667" opacity="1.000000" style="stroke:black;fill:url(#radialffffff666666)"/>
<circle cx="179.290052" cy="164.204790" r="4.733333" opacity="1.000000" style="stroke:black;fill:url(#radialffffff0ccff)"/>
<circle cx="268.183963" cy="163.039170" r="4.400000" opacity="1.000000" style="stroke:black;fill:url(#radialffffffffcc)"/>
<circle cx="84.329102" cy="106.592133" r="4.400000" opacity="1.000000" style="stroke:black;fill:url(#radialffffffffcc)"/>
<circle cx="40.000000" cy="56.851452" r="2.301366" opacity="1.000000" style="stroke:black;fill:url(#radialffffffbfbfbf)"/>
<circle cx="327.536979" cy="222.514882" r="2.340794" opacity="1.000000" style="stroke:black;fill:url(#radialffffffbfbfbf)"/>
<circle cx="248.839827" cy="188.456803" r="6.088173" opacity="1.000000" style="stroke:black;fill:url(#radialffffff666666)"/>
<circle cx="199.328395" cy="191.808366" r="6.180382" opacity="1.000000" style="stroke:black;fill:url(#radialffffff666666)"/>
<circle cx="118.739127" cy="171.075817" r="2.590613" opacity="1.000000" style="stroke:black;fill:url(#radialffffffbfbfbf)"/>
<circle cx="180.365265" cy="217.849171" r="7.005558" opacity="1.000000" style="stroke:black;fill:url(#radialffffffffcc)"/>
<circle cx="267.557563" cy="216.693237" r="7.154337" opacity="1.000000" style="stroke:black;fill:url(#radialffffffffcc)"/>
<circle cx="314.263111" cy="215.811756" r="8.320844" opacity="1.000000" style="stroke:black;fill:url(#radialffffff666666)"/>
<circle cx="325.903173" cy="184.304481" r="3.734778" opacity="1.000000" style="stroke:black;fill:url(#radialffffffbfbfbf)"/>
<circle cx="326.691016" cy="239.905555" r="4.133333" opacity="1.000000" style="stroke:black;fill:url(#radialffffffbfbfbf)"/>
</svg>
</g>
</svg>
