<?xml version="1.0"?>
<svg version="1.1" id="topsvg"
xmlns="http://www.w3.org/2000/svg" xmlns:xlink="http://www.w3.org/1999/xlink"
xmlns:cml="http://www.xml-cml.org/schema" x="0" y="0" width="200px" height="200px" viewBox="0 0 100 100">
<title>93 - Open Babel Depiction</title>
<defs>
<radialGradient id='radialffffff0ccff' cx='50%' cy='50%' r='50%' fx='30%' fy='30%'>
  <stop offset=' 0%' stop-color="rgb(255,255,255)"  stop-opacity='0.8'/>
  <stop offset='100%' stop-color="rgb(12,12,255)"  stop-opacity ='1.0'/>
</radialGradient>
<radialGradient id='radialffffff666666' cx='50%' cy='50%' r='50%' fx='30%' fy='30%'>
  <stop offset=' 0%' stop-color="rgb(255,255,255)"  stop-opacity='0.8'/>
  <stop offset='100%' stop-color="rgb(102,102,102)"  stop-opacity ='1.0'/>
</radialGradient>
<radialGradient id='radialffffffbfbfbf' cx='50%' cy='50%' r='50%' fx='30%' fy='30%'>
  <stop offset=' 0%' stop-color="rgb(255,255,255)"  stop-opacity='0.8'/>
  <stop offset='100%' stop-color="rgb(191,191,191)"  stop-opacity ='1.0'/>
</radialGradient>
<radialGradient id='radialffffffffcc' cx='50%' cy='50%' r='50%' fx='30%' fy='30%'>
  <stop offset=' 0%' stop-color="rgb(255,255,255)"  stop-opacity='0.8'/>
  <stop offset='100%' stop-color="rgb(255,12,12)"  stop-opacity ='1.0'/>
</radialGradient>
</defs>
<g transform="translate(0,0)">
<svg width="100" height="100" x="0" y="0" viewBox="0 0 319.259 184.03"
font-family="sans-serif" stroke="rgb(76,76,76)" stroke-width="2"  stroke-linecap="round">
<line x1="96.0" y1="121.7" x2="97.4" y2="103.1" stroke="rgb(76,76,76)"  stroke-width="2.0"/>
<line x1="89.0" y1="69.9" x2="97.4" y2="103.1" stroke="rgb(76,76,76)"  stroke-width="2.0"/>
<line x1="97.4" y1="103.1" x2="130.5" y2="103.7" stroke="rgb(76,76,76)"  stroke-width="2.0"/>
<line x1="97.4" y1="103.1" x2="68.1" y2="120.8" stroke="rgb(76,76,76)"  stroke-width="2.0"/>
<line x1="68.1" y1="120.8" x2="64.0" y2="102.2" stroke="rgb(76,76,76)"  stroke-width="2.0"/>
<line x1="87.3" y1="40.0" x2="91.6" y2="62.5" stroke="rgb(76,76,76)"  stroke-width="2.0"/>
<line x1="157.7" y1="67.6" x2="137.0" y2="71.9" stroke="rgb(76,76,76)"  stroke-width="2.0"/>
<line x1="64.0" y1="102.2" x2="91.6" y2="62.5" stroke="rgb(76,76,76)"  stroke-width="2.0"/>
<line x1="65.5" y1="104.8" x2="41.5" y2="119.0" stroke="rgb(76,76,76)"  stroke-width="2.0"/>
<line x1="62.5" y1="99.6" x2="38.5" y2="113.9" stroke="rgb(76,76,76)"  stroke-width="2.0"/>
<line x1="91.6" y1="62.5" x2="137.0" y2="71.9" stroke="rgb(76,76,76)"  stroke-width="2.0"/>
<line x1="91.6" y1="62.5" x2="80.1" y2="45.9" stroke="rgb(76,76,76)"  stroke-width="2.0"/>
<line x1="137.0" y1="71.9" x2="152.1" y2="87.0" stroke="rgb(76,76,76)"  stroke-width="2.0"/>
<line x1="224.7" y1="92.2" x2="201.8" y2="98.5" stroke="rgb(76,76,76)"  stroke-width="2.0"/>
<line x1="223.1" y1="86.4" x2="200.2" y2="92.8" stroke="rgb(76,76,76)"  stroke-width="2.0"/>
<line x1="152.1" y1="87.0" x2="201.0" y2="95.7" stroke="rgb(76,76,76)"  stroke-width="2.0"/>
<line x1="152.9" y1="89.9" x2="130.2" y2="96.5" stroke="rgb(76,76,76)"  stroke-width="2.0"/>
<line x1="151.3" y1="84.1" x2="128.6" y2="90.7" stroke="rgb(76,76,76)"  stroke-width="2.0"/>
<line x1="201.0" y1="95.7" x2="214.7" y2="110.8" stroke="rgb(76,76,76)"  stroke-width="2.0"/>
<line x1="269.8" y1="144.0" x2="260.4" y2="119.9" stroke="rgb(76,76,76)"  stroke-width="2.0"/>
<line x1="279.3" y1="90.9" x2="260.4" y2="119.9" stroke="rgb(76,76,76)"  stroke-width="2.0"/>
<line x1="214.7" y1="110.8" x2="260.4" y2="119.9" stroke="rgb(76,76,76)"  stroke-width="2.0"/>
<line x1="260.4" y1="119.9" x2="268.7" y2="132.2" stroke="rgb(76,76,76)"  stroke-width="2.0"/>
<circle cx="95.978177" cy="121.738788" r="2.066667" opacity="1.000000" style="stroke:black;fill:url(#radialffffffbfbfbf)"/>
<circle cx="88.971626" cy="69.862558" r="2.066667" opacity="1.000000" style="stroke:black;fill:url(#radialffffffbfbfbf)"/>
<circle cx="97.356250" cy="103.113821" r="5.066667" opacity="1.000000" style="stroke:black;fill:url(#radialffffff666666)"/>
<circle cx="130.468738" cy="103.727015" r="2.066667" opacity="1.000000" style="stroke:black;fill:url(#radialffffffbfbfbf)"/>
<circle cx="68.068158" cy="120.773814" r="4.400000" opacity="1.000000" style="stroke:black;fill:url(#radialffffffffcc)"/>
<circle cx="87.332138" cy="40.000000" r="2.066667" opacity="1.000000" style="stroke:black;fill:url(#radialffffffbfbfbf)"/>
<circle cx="157.710697" cy="67.609876" r="2.066667" opacity="1.000000" style="stroke:black;fill:url(#radialffffffbfbfbf)"/>
<circle cx="64.004940" cy="102.229530" r="5.066667" opacity="1.000000" style="stroke:black;fill:url(#radialffffff666666)"/>
<circle cx="91.595452" cy="62.546183" r="5.066667" opacity="1.000000" style="stroke:black;fill:url(#radialffffff666666)"/>
<circle cx="137.004097" cy="71.918372" r="4.788212" opacity="1.000000" style="stroke:black;fill:url(#radialffffff0ccff)"/>
<circle cx="223.916308" cy="89.307269" r="4.705507" opacity="1.000000" style="stroke:black;fill:url(#radialffffffffcc)"/>
<circle cx="40.000000" cy="116.455636" r="5.058452" opacity="1.000000" style="stroke:black;fill:url(#radialffffffffcc)"/>
<circle cx="80.115811" cy="45.883437" r="2.523723" opacity="1.000000" style="stroke:black;fill:url(#radialffffffbfbfbf)"/>
<circle cx="152.098356" cy="86.996495" r="6.826968" opacity="1.000000" style="stroke:black;fill:url(#radialffffff666666)"/>
<circle cx="200.953798" cy="95.652216" r="6.826968" opacity="1.000000" style="stroke:black;fill:url(#radialffffff666666)"/>
<circle cx="269.805826" cy="144.030012" r="3.099925" opacity="1.000000" style="stroke:black;fill:url(#radialffffffbfbfbf)"/>
<circle cx="129.400489" cy="93.580265" r="7.191189" opacity="1.000000" style="stroke:black;fill:url(#radialffffffffcc)"/>
<circle cx="279.258699" cy="90.895120" r="3.433159" opacity="1.000000" style="stroke:black;fill:url(#radialffffffbfbfbf)"/>
<circle cx="214.676439" cy="110.823931" r="7.424741" opacity="1.000000" style="stroke:black;fill:url(#radialffffffffcc)"/>
<circle cx="260.391682" cy="119.934706" r="8.681597" opacity="1.000000" style="stroke:black;fill:url(#radialffffff666666)"/>
<circle cx="268.660121" cy="132.156635" r="4.133333" opacity="1.000000" style="stroke:black;fill:url(#radialffffffbfbfbf)"/>
</svg>
</g>
</svg>
