<?xml version="1.0"?>
<svg version="1.1" id="topsvg"
xmlns="http://www.w3.org/2000/svg" xmlns:xlink="http://www.w3.org/1999/xlink"
xmlns:cml="http://www.xml-cml.org/schema" x="0" y="0" width="200px" height="200px" viewBox="0 0 100 100">
<title>98 - Open Babel Depiction</title>
<defs>
<radialGradient id='radialffffff0ccff' cx='50%' cy='50%' r='50%' fx='30%' fy='30%'>
  <stop offset=' 0%' stop-color="rgb(255,255,255)"  stop-opacity='0.8'/>
  <stop offset='100%' stop-color="rgb(12,12,255)"  stop-opacity ='1.0'/>
</radialGradient>
<radialGradient id='radialffffff666666' cx='50%' cy='50%' r='50%' fx='30%' fy='30%'>
  <stop offset=' 0%' stop-color="rgb(255,255,255)"  stop-opacity='0.8'/>
  <stop offset='100%' stop-color="rgb(102,102,102)"  stop-opacity ='1.0'/>
</radialGradient>
<radialGradient id='radialffffffbfbfbf' cx='50%' cy='50%' r='50%' fx='30%' fy='30%'>
  <stop offset=' 0%' stop-color="rgb(255,255,255)"  stop-opacity='0.8'/>
  <stop offset='100%' stop-color="rgb(191,191,191)"  stop-opacity ='1.0'/>
</radialGradient>
<radialGradient id='radialffffffffcc' cx='50%' cy='50%' r='50%' fx='30%' fy='30%'>
  <stop offset=' 0%' stop-color="rgb(255,255,255)"  stop-opacity='0.8'/>
  <stop offset='100%' stop-color="rgb(255,12,12)"  stop-opacity ='1.0'/>
</radialGradient>
</defs>
<g transform="translate(0,0)">
<svg width="100" height="100" x="0" y="0" viewBox="0 0 349.369 236.998"
font-family="sans-serif" stroke="rgb(76,76,76)" stroke-width="2"  stroke-linecap="round">
<line x1="85.0" y1="108.9" x2="73.3" y2="115.2" stroke="rgb(76,76,76)"  stroke-width="2.0"/>
<line x1="73.3" y1="115.2" x2="40.0" y2="104.1" stroke="rgb(76,76,76)"  stroke-width="2.0"/>
<line x1="73.3" y1="115.2" x2="73.6" y2="149.9" stroke="rgb(76,76,76)"  stroke-width="2.0"/>
<line x1="73.3" y1="115.2" x2="99.9" y2="93.5" stroke="rgb(76,76,76)"  stroke-width="2.0"/>
<line x1="99.9" y1="93.5" x2="88.5" y2="98.9" stroke="rgb(76,76,76)"  stroke-width="2.0"/>
<line x1="90.2" y1="101.4" x2="59.6" y2="123.0" stroke="rgb(76,76,76)"  stroke-width="2.0"/>
<line x1="86.8" y1="96.5" x2="56.2" y2="118.1" stroke="rgb(76,76,76)"  stroke-width="2.0"/>
<line x1="88.5" y1="98.9" x2="118.5" y2="74.7" stroke="rgb(76,76,76)"  stroke-width="2.0"/>
<line x1="181.7" y1="72.7" x2="163.2" y2="87.4" stroke="rgb(76,76,76)"  stroke-width="2.0"/>
<line x1="250.4" y1="111.4" x2="230.0" y2="130.5" stroke="rgb(76,76,76)"  stroke-width="2.0"/>
<line x1="246.3" y1="107.1" x2="225.9" y2="126.1" stroke="rgb(76,76,76)"  stroke-width="2.0"/>
<line x1="293.2" y1="181.7" x2="288.5" y2="171.1" stroke="rgb(76,76,76)"  stroke-width="2.0"/>
<line x1="115.6" y1="40.0" x2="118.5" y2="74.7" stroke="rgb(76,76,76)"  stroke-width="2.0"/>
<line x1="163.2" y1="87.4" x2="118.5" y2="74.7" stroke="rgb(76,76,76)"  stroke-width="2.0"/>
<line x1="163.2" y1="87.4" x2="180.3" y2="118.7" stroke="rgb(76,76,76)"  stroke-width="2.0"/>
<line x1="118.5" y1="74.7" x2="108.6" y2="80.4" stroke="rgb(76,76,76)"  stroke-width="2.0"/>
<line x1="227.9" y1="128.3" x2="180.3" y2="118.7" stroke="rgb(76,76,76)"  stroke-width="2.0"/>
<line x1="227.9" y1="128.3" x2="243.7" y2="159.8" stroke="rgb(76,76,76)"  stroke-width="2.0"/>
<line x1="182.4" y1="120.9" x2="162.3" y2="140.7" stroke="rgb(76,76,76)"  stroke-width="2.0"/>
<line x1="178.2" y1="116.6" x2="158.1" y2="136.4" stroke="rgb(76,76,76)"  stroke-width="2.0"/>
<line x1="288.5" y1="171.1" x2="309.4" y2="143.4" stroke="rgb(76,76,76)"  stroke-width="2.0"/>
<line x1="288.5" y1="171.1" x2="243.7" y2="159.8" stroke="rgb(76,76,76)"  stroke-width="2.0"/>
<line x1="288.5" y1="171.1" x2="298.5" y2="197.0" stroke="rgb(76,76,76)"  stroke-width="2.0"/>
<circle cx="84.994349" cy="108.852494" r="2.066667" opacity="1.000000" style="stroke:black;fill:url(#radialffffffbfbfbf)"/>
<circle cx="73.279997" cy="115.168170" r="5.066667" opacity="1.000000" style="stroke:black;fill:url(#radialffffff666666)"/>
<circle cx="40.000000" cy="104.093135" r="2.066667" opacity="1.000000" style="stroke:black;fill:url(#radialffffffbfbfbf)"/>
<circle cx="73.573825" cy="149.914076" r="2.066667" opacity="1.000000" style="stroke:black;fill:url(#radialffffffbfbfbf)"/>
<circle cx="99.869769" cy="93.460455" r="4.400000" opacity="1.000000" style="stroke:black;fill:url(#radialffffffffcc)"/>
<circle cx="88.504135" cy="98.926938" r="5.851077" opacity="1.000000" style="stroke:black;fill:url(#radialffffff666666)"/>
<circle cx="181.705562" cy="72.708486" r="2.424993" opacity="1.000000" style="stroke:black;fill:url(#radialffffffbfbfbf)"/>
<circle cx="248.323676" cy="109.246417" r="5.618424" opacity="1.000000" style="stroke:black;fill:url(#radialffffffffcc)"/>
<circle cx="57.910560" cy="120.582991" r="5.643212" opacity="1.000000" style="stroke:black;fill:url(#radialffffffffcc)"/>
<circle cx="293.240533" cy="181.747538" r="2.896123" opacity="1.000000" style="stroke:black;fill:url(#radialffffffbfbfbf)"/>
<circle cx="115.578237" cy="40.000000" r="2.915015" opacity="1.000000" style="stroke:black;fill:url(#radialffffffbfbfbf)"/>
<circle cx="163.207347" cy="87.403089" r="6.745757" opacity="1.000000" style="stroke:black;fill:url(#radialffffff0ccff)"/>
<circle cx="118.532656" cy="74.716846" r="7.500860" opacity="1.000000" style="stroke:black;fill:url(#radialffffff666666)"/>
<circle cx="227.930112" cy="128.306456" r="7.987717" opacity="1.000000" style="stroke:black;fill:url(#radialffffff666666)"/>
<circle cx="180.313918" cy="118.729618" r="8.556973" opacity="1.000000" style="stroke:black;fill:url(#radialffffff666666)"/>
<circle cx="288.461800" cy="171.053509" r="8.941504" opacity="1.000000" style="stroke:black;fill:url(#radialffffff666666)"/>
<circle cx="309.368755" cy="143.404667" r="3.776361" opacity="1.000000" style="stroke:black;fill:url(#radialffffffbfbfbf)"/>
<circle cx="243.728989" cy="159.823488" r="8.126363" opacity="1.000000" style="stroke:black;fill:url(#radialffffffffcc)"/>
<circle cx="108.645846" cy="80.354458" r="3.820223" opacity="1.000000" style="stroke:black;fill:url(#radialffffffbfbfbf)"/>
<circle cx="160.243242" cy="138.519382" r="8.782695" opacity="1.000000" style="stroke:black;fill:url(#radialffffffffcc)"/>
<circle cx="298.542343" cy="196.997506" r="4.133333" opacity="1.000000" style="stroke:black;fill:url(#radialffffffbfbfbf)"/>
</svg>
</g>
</svg>
