<?xml version="1.0"?>
<svg version="1.1" id="topsvg"
xmlns="http://www.w3.org/2000/svg" xmlns:xlink="http://www.w3.org/1999/xlink"
xmlns:cml="http://www.xml-cml.org/schema" x="0" y="0" width="200px" height="200px" viewBox="0 0 100 100">
<title>61 - Open Babel Depiction</title>
<defs>
<radialGradient id='radialffffff0ccff' cx='50%' cy='50%' r='50%' fx='30%' fy='30%'>
  <stop offset=' 0%' stop-color="rgb(255,255,255)"  stop-opacity='0.8'/>
  <stop offset='100%' stop-color="rgb(12,12,255)"  stop-opacity ='1.0'/>
</radialGradient>
<radialGradient id='radialffffff666666' cx='50%' cy='50%' r='50%' fx='30%' fy='30%'>
  <stop offset=' 0%' stop-color="rgb(255,255,255)"  stop-opacity='0.8'/>
  <stop offset='100%' stop-color="rgb(102,102,102)"  stop-opacity ='1.0'/>
</radialGradient>
<radialGradient id='radialffffffbfbfbf' cx='50%' cy='50%' r='50%' fx='30%' fy='30%'>
  <stop offset=' 0%' stop-color="rgb(255,255,255)"  stop-opacity='0.8'/>
  <stop offset='100%' stop-color="rgb(191,191,191)"  stop-opacity ='1.0'/>
</radialGradient>
<radialGradient id='radialffffffffcc' cx='50%' cy='50%' r='50%' fx='30%' fy='30%'>
  <stop offset=' 0%' stop-color="rgb(255,255,255)"  stop-opacity='0.8'/>
  <stop offset='100%' stop-color="rgb(255,12,12)"  stop-opacity ='1.0'/>
</radialGradient>
</defs>
<g transform="translate(0,0)">
<svg width="100" height="100" x="0" y="0" viewBox="0 0 365.872 181.912"
font-family="sans-serif" stroke="rgb(76,76,76)" stroke-width="2"  stroke-linecap="round">
<line x1="93.9" y1="43.4" x2="73.2" y2="63.9" stroke="rgb(76,76,76)"  stroke-width="2.0"/>
<line x1="75.8" y1="96.8" x2="73.2" y2="63.9" stroke="rgb(76,76,76)"  stroke-width="2.0"/>
<line x1="40.0" y1="53.3" x2="73.2" y2="63.9" stroke="rgb(76,76,76)"  stroke-width="2.0"/>
<line x1="73.2" y1="63.9" x2="85.5" y2="61.6" stroke="rgb(76,76,76)"  stroke-width="2.0"/>
<line x1="150.1" y1="89.1" x2="124.2" y2="76.5" stroke="rgb(76,76,76)"  stroke-width="2.0"/>
<line x1="152.7" y1="83.7" x2="126.9" y2="71.1" stroke="rgb(76,76,76)"  stroke-width="2.0"/>
<line x1="85.5" y1="61.6" x2="125.6" y2="73.8" stroke="rgb(76,76,76)"  stroke-width="2.0"/>
<line x1="125.6" y1="73.8" x2="134.2" y2="70.1" stroke="rgb(76,76,76)"  stroke-width="2.0"/>
<line x1="199.5" y1="48.4" x2="179.9" y2="70.3" stroke="rgb(76,76,76)"  stroke-width="2.0"/>
<line x1="134.2" y1="70.1" x2="179.9" y2="70.3" stroke="rgb(76,76,76)"  stroke-width="2.0"/>
<line x1="134.2" y1="70.1" x2="119.9" y2="40.0" stroke="rgb(76,76,76)"  stroke-width="2.0"/>
<line x1="134.2" y1="70.1" x2="118.2" y2="96.9" stroke="rgb(76,76,76)"  stroke-width="2.0"/>
<line x1="179.9" y1="70.3" x2="197.0" y2="97.9" stroke="rgb(76,76,76)"  stroke-width="2.0"/>
<line x1="269.5" y1="67.5" x2="248.3" y2="94.3" stroke="rgb(76,76,76)"  stroke-width="2.0"/>
<line x1="264.8" y1="63.8" x2="243.6" y2="90.6" stroke="rgb(76,76,76)"  stroke-width="2.0"/>
<line x1="197.0" y1="97.9" x2="245.9" y2="92.4" stroke="rgb(76,76,76)"  stroke-width="2.0"/>
<line x1="199.4" y1="99.7" x2="178.6" y2="127.2" stroke="rgb(76,76,76)"  stroke-width="2.0"/>
<line x1="194.6" y1="96.1" x2="173.9" y2="123.6" stroke="rgb(76,76,76)"  stroke-width="2.0"/>
<line x1="245.9" y1="92.4" x2="261.9" y2="120.6" stroke="rgb(76,76,76)"  stroke-width="2.0"/>
<line x1="325.9" y1="123.3" x2="307.9" y2="117.8" stroke="rgb(76,76,76)"  stroke-width="2.0"/>
<line x1="261.9" y1="120.6" x2="307.9" y2="117.8" stroke="rgb(76,76,76)"  stroke-width="2.0"/>
<line x1="307.9" y1="117.8" x2="316.5" y2="86.1" stroke="rgb(76,76,76)"  stroke-width="2.0"/>
<line x1="307.9" y1="117.8" x2="318.0" y2="141.9" stroke="rgb(76,76,76)"  stroke-width="2.0"/>
<circle cx="93.921357" cy="43.441514" r="2.066667" opacity="1.000000" style="stroke:black;fill:url(#radialffffffbfbfbf)"/>
<circle cx="75.825967" cy="96.823722" r="2.066667" opacity="1.000000" style="stroke:black;fill:url(#radialffffffbfbfbf)"/>
<circle cx="40.000000" cy="53.281790" r="2.066667" opacity="1.000000" style="stroke:black;fill:url(#radialffffffbfbfbf)"/>
<circle cx="73.191562" cy="63.893663" r="5.066667" opacity="1.000000" style="stroke:black;fill:url(#radialffffff666666)"/>
<circle cx="151.387538" cy="86.405555" r="4.400000" opacity="1.000000" style="stroke:black;fill:url(#radialffffffffcc)"/>
<circle cx="85.472537" cy="61.569188" r="4.400000" opacity="1.000000" style="stroke:black;fill:url(#radialffffffffcc)"/>
<circle cx="125.556812" cy="73.788823" r="5.066667" opacity="1.000000" style="stroke:black;fill:url(#radialffffff666666)"/>
<circle cx="199.536449" cy="48.419764" r="2.141218" opacity="1.000000" style="stroke:black;fill:url(#radialffffffbfbfbf)"/>
<circle cx="134.221937" cy="70.101948" r="5.458361" opacity="1.000000" style="stroke:black;fill:url(#radialffffff666666)"/>
<circle cx="179.859125" cy="70.285969" r="5.524534" opacity="1.000000" style="stroke:black;fill:url(#radialffffff0ccff)"/>
<circle cx="119.910276" cy="40.000000" r="2.445570" opacity="1.000000" style="stroke:black;fill:url(#radialffffffbfbfbf)"/>
<circle cx="118.157234" cy="96.904433" r="2.531202" opacity="1.000000" style="stroke:black;fill:url(#radialffffffbfbfbf)"/>
<circle cx="267.104409" cy="65.617649" r="5.741056" opacity="1.000000" style="stroke:black;fill:url(#radialffffffffcc)"/>
<circle cx="196.956927" cy="97.876192" r="7.184219" opacity="1.000000" style="stroke:black;fill:url(#radialffffff666666)"/>
<circle cx="245.912948" cy="92.426590" r="7.458485" opacity="1.000000" style="stroke:black;fill:url(#radialffffff666666)"/>
<circle cx="325.871650" cy="123.251708" r="3.160294" opacity="1.000000" style="stroke:black;fill:url(#radialffffffbfbfbf)"/>
<circle cx="176.249732" cy="125.405076" r="7.010332" opacity="1.000000" style="stroke:black;fill:url(#radialffffffffcc)"/>
<circle cx="261.884026" cy="120.562420" r="7.581430" opacity="1.000000" style="stroke:black;fill:url(#radialffffffffcc)"/>
<circle cx="307.873113" cy="117.824705" r="9.079447" opacity="1.000000" style="stroke:black;fill:url(#radialffffff666666)"/>
<circle cx="316.538238" cy="86.131138" r="3.930688" opacity="1.000000" style="stroke:black;fill:url(#radialffffffbfbfbf)"/>
<circle cx="317.981350" cy="141.912075" r="4.133333" opacity="1.000000" style="stroke:black;fill:url(#radialffffffbfbfbf)"/>
</svg>
</g>
</svg>
