<?xml version="1.0"?>
<svg version="1.1" id="topsvg"
xmlns="http://www.w3.org/2000/svg" xmlns:xlink="http://www.w3.org/1999/xlink"
xmlns:cml="http://www.xml-cml.org/schema" x="0" y="0" width="200px" height="200px" viewBox="0 0 100 100">
<title>70 - Open Babel Depiction</title>
<defs>
<radialGradient id='radialffffff0ccff' cx='50%' cy='50%' r='50%' fx='30%' fy='30%'>
  <stop offset=' 0%' stop-color="rgb(255,255,255)"  stop-opacity='0.8'/>
  <stop offset='100%' stop-color="rgb(12,12,255)"  stop-opacity ='1.0'/>
</radialGradient>
<radialGradient id='radialffffff666666' cx='50%' cy='50%' r='50%' fx='30%' fy='30%'>
  <stop offset=' 0%' stop-color="rgb(255,255,255)"  stop-opacity='0.8'/>
  <stop offset='100%' stop-color="rgb(102,102,102)"  stop-opacity ='1.0'/>
</radialGradient>
<radialGradient id='radialffffffbfbfbf' cx='50%' cy='50%' r='50%' fx='30%' fy='30%'>
  <stop offset=' 0%' stop-color="rgb(255,255,255)"  stop-opacity='0.8'/>
  <stop offset='100%' stop-color="rgb(191,191,191)"  stop-opacity ='1.0'/>
</radialGradient>
<radialGradient id='radialffffffffcc' cx='50%' cy='50%' r='50%' fx='30%' fy='30%'>
  <stop offset=' 0%' stop-color="rgb(255,255,255)"  stop-opacity='0.8'/>
  <stop offset='100%' stop-color="rgb(255,12,12)"  stop-opacity ='1.0'/>
</radialGradient>
</defs>
<g transform="translate(0,0)">
<svg width="100" height="100" x="0" y="0" viewBox="0 0 321.707 225.493"
font-family="sans-serif" stroke="rgb(76,76,76)" stroke-width="2"  stroke-linecap="round">
<line x1="73.7" y1="149.2" x2="99.3" y2="157.4" stroke="rgb(76,76,76)"  stroke-width="2.0"/>
<line x1="127.8" y1="166.4" x2="99.3" y2="157.4" stroke="rgb(76,76,76)"  stroke-width="2.0"/>
<line x1="99.3" y1="157.4" x2="89.0" y2="185.5" stroke="rgb(76,76,76)"  stroke-width="2.0"/>
<line x1="99.3" y1="157.4" x2="108.6" y2="121.5" stroke="rgb(76,76,76)"  stroke-width="2.0"/>
<line x1="108.6" y1="121.5" x2="76.0" y2="107.7" stroke="rgb(76,76,76)"  stroke-width="2.0"/>
<line x1="38.8" y1="120.6" x2="74.8" y2="105.0" stroke="rgb(76,76,76)"  stroke-width="2.0"/>
<line x1="41.2" y1="126.1" x2="77.2" y2="110.5" stroke="rgb(76,76,76)"  stroke-width="2.0"/>
<line x1="76.0" y1="107.7" x2="89.8" y2="70.3" stroke="rgb(76,76,76)"  stroke-width="2.0"/>
<line x1="80.8" y1="40.0" x2="89.8" y2="70.3" stroke="rgb(76,76,76)"  stroke-width="2.0"/>
<line x1="155.1" y1="49.4" x2="135.7" y2="70.0" stroke="rgb(76,76,76)"  stroke-width="2.0"/>
<line x1="89.8" y1="70.3" x2="135.7" y2="70.0" stroke="rgb(76,76,76)"  stroke-width="2.0"/>
<line x1="89.8" y1="70.3" x2="72.2" y2="71.7" stroke="rgb(76,76,76)"  stroke-width="2.0"/>
<line x1="135.7" y1="70.0" x2="153.1" y2="96.7" stroke="rgb(76,76,76)"  stroke-width="2.0"/>
<line x1="225.9" y1="68.7" x2="204.6" y2="94.2" stroke="rgb(76,76,76)"  stroke-width="2.0"/>
<line x1="221.3" y1="64.8" x2="200.0" y2="90.3" stroke="rgb(76,76,76)"  stroke-width="2.0"/>
<line x1="153.1" y1="96.7" x2="202.3" y2="92.2" stroke="rgb(76,76,76)"  stroke-width="2.0"/>
<line x1="155.4" y1="98.6" x2="134.5" y2="124.8" stroke="rgb(76,76,76)"  stroke-width="2.0"/>
<line x1="150.8" y1="94.9" x2="129.8" y2="121.0" stroke="rgb(76,76,76)"  stroke-width="2.0"/>
<line x1="202.3" y1="92.2" x2="218.4" y2="119.6" stroke="rgb(76,76,76)"  stroke-width="2.0"/>
<line x1="281.7" y1="124.5" x2="264.7" y2="117.6" stroke="rgb(76,76,76)"  stroke-width="2.0"/>
<line x1="218.4" y1="119.6" x2="264.7" y2="117.6" stroke="rgb(76,76,76)"  stroke-width="2.0"/>
<line x1="264.7" y1="117.6" x2="274.4" y2="85.6" stroke="rgb(76,76,76)"  stroke-width="2.0"/>
<line x1="264.7" y1="117.6" x2="274.9" y2="141.0" stroke="rgb(76,76,76)"  stroke-width="2.0"/>
<circle cx="73.696461" cy="149.193842" r="2.066667" opacity="1.000000" style="stroke:black;fill:url(#radialffffffbfbfbf)"/>
<circle cx="127.789679" cy="166.352044" r="2.066667" opacity="1.000000" style="stroke:black;fill:url(#radialffffffbfbfbf)"/>
<circle cx="99.311067" cy="157.424225" r="5.066667" opacity="1.000000" style="stroke:black;fill:url(#radialffffff666666)"/>
<circle cx="89.023896" cy="185.492770" r="2.066667" opacity="1.000000" style="stroke:black;fill:url(#radialffffffbfbfbf)"/>
<circle cx="108.597290" cy="121.457870" r="4.400000" opacity="1.000000" style="stroke:black;fill:url(#radialffffffffcc)"/>
<circle cx="40.000000" cy="123.349986" r="4.400000" opacity="1.000000" style="stroke:black;fill:url(#radialffffffffcc)"/>
<circle cx="75.998644" cy="107.722267" r="5.066667" opacity="1.000000" style="stroke:black;fill:url(#radialffffff666666)"/>
<circle cx="80.822572" cy="40.000000" r="2.066667" opacity="1.000000" style="stroke:black;fill:url(#radialffffffbfbfbf)"/>
<circle cx="155.125271" cy="49.354029" r="2.066667" opacity="1.000000" style="stroke:black;fill:url(#radialffffffbfbfbf)"/>
<circle cx="89.753620" cy="70.270633" r="5.104476" opacity="1.000000" style="stroke:black;fill:url(#radialffffff666666)"/>
<circle cx="135.655200" cy="69.957433" r="5.169067" opacity="1.000000" style="stroke:black;fill:url(#radialffffff0ccff)"/>
<circle cx="223.583720" cy="66.744710" r="5.356081" opacity="1.000000" style="stroke:black;fill:url(#radialffffffffcc)"/>
<circle cx="72.201496" cy="71.678419" r="2.702822" opacity="1.000000" style="stroke:black;fill:url(#radialffffffbfbfbf)"/>
<circle cx="153.094314" cy="96.737660" r="6.959762" opacity="1.000000" style="stroke:black;fill:url(#radialffffff666666)"/>
<circle cx="202.318399" cy="92.246305" r="7.184859" opacity="1.000000" style="stroke:black;fill:url(#radialffffff666666)"/>
<circle cx="281.706565" cy="124.547896" r="3.041588" opacity="1.000000" style="stroke:black;fill:url(#radialffffffbfbfbf)"/>
<circle cx="132.126048" cy="122.901174" r="6.960309" opacity="1.000000" style="stroke:black;fill:url(#radialffffffffcc)"/>
<circle cx="218.436906" cy="119.594813" r="7.487185" opacity="1.000000" style="stroke:black;fill:url(#radialffffffffcc)"/>
<circle cx="264.677517" cy="117.576771" r="8.938468" opacity="1.000000" style="stroke:black;fill:url(#radialffffff666666)"/>
<circle cx="274.357662" cy="85.614211" r="3.866233" opacity="1.000000" style="stroke:black;fill:url(#radialffffffbfbfbf)"/>
<circle cx="274.942087" cy="140.953772" r="4.133333" opacity="1.000000" style="stroke:black;fill:url(#radialffffffbfbfbf)"/>
</svg>
</g>
</svg>
