<?xml version="1.0"?>
<svg version="1.1" id="topsvg"
xmlns="http://www.w3.org/2000/svg" xmlns:xlink="http://www.w3.org/1999/xlink"
xmlns:cml="http://www.xml-cml.org/schema" x="0" y="0" width="200px" height="200px" viewBox="0 0 100 100">
<title>91 - Open Babel Depiction</title>
<defs>
<radialGradient id='radialffffff0ccff' cx='50%' cy='50%' r='50%' fx='30%' fy='30%'>
  <stop offset=' 0%' stop-color="rgb(255,255,255)"  stop-opacity='0.8'/>
  <stop offset='100%' stop-color="rgb(12,12,255)"  stop-opacity ='1.0'/>
</radialGradient>
<radialGradient id='radialffffff666666' cx='50%' cy='50%' r='50%' fx='30%' fy='30%'>
  <stop offset=' 0%' stop-color="rgb(255,255,255)"  stop-opacity='0.8'/>
  <stop offset='100%' stop-color="rgb(102,102,102)"  stop-opacity ='1.0'/>
</radialGradient>
<radialGradient id='radialffffffbfbfbf' cx='50%' cy='50%' r='50%' fx='30%' fy='30%'>
  <stop offset=' 0%' stop-color="rgb(255,255,255)"  stop-opacity='0.8'/>
  <stop offset='100%' stop-color="rgb(191,191,191)"  stop-opacity ='1.0'/>
</radialGradient>
<radialGradient id='radialffffffffcc' cx='50%' cy='50%' r='50%' fx='30%' fy='30%'>
  <stop offset=' 0%' stop-color="rgb(255,255,255)"  stop-opacity='0.8'/>
  <stop offset='100%' stop-color="rgb(255,12,12)"  stop-opacity ='1.0'/>
</radialGradient>
</defs>
<g transform="translate(0,0)">
<svg width="100" height="100" x="0" y="0" viewBox="0 0 409.164 195.623"
font-family="sans-serif" stroke="rgb(76,76,76)" stroke-width="2"  stroke-linecap="round">
<line x1="170.5" y1="97.1" x2="175.9" y2="69.3" stroke="rgb(76,76,76)"  stroke-width="2.0"/>
<line x1="168.5" y1="40.0" x2="175.9" y2="69.3" stroke="rgb(76,76,76)"  stroke-width="2.0"/>
<line x1="175.9" y1="69.3" x2="220.8" y2="68.3" stroke="rgb(76,76,76)"  stroke-width="2.0"/>
<line x1="175.9" y1="69.3" x2="145.4" y2="72.1" stroke="rgb(76,76,76)"  stroke-width="2.0"/>
<line x1="238.6" y1="41.2" x2="220.8" y2="68.3" stroke="rgb(76,76,76)"  stroke-width="2.0"/>
<line x1="220.8" y1="68.3" x2="239.2" y2="102.0" stroke="rgb(76,76,76)"  stroke-width="2.0"/>
<line x1="104.7" y1="73.8" x2="145.4" y2="72.1" stroke="rgb(76,76,76)"  stroke-width="2.0"/>
<line x1="104.7" y1="73.8" x2="72.2" y2="76.7" stroke="rgb(76,76,76)"  stroke-width="2.0"/>
<line x1="241.8" y1="103.5" x2="222.7" y2="137.4" stroke="rgb(76,76,76)"  stroke-width="2.0"/>
<line x1="236.6" y1="100.5" x2="217.5" y2="134.4" stroke="rgb(76,76,76)"  stroke-width="2.0"/>
<line x1="239.2" y1="102.0" x2="287.0" y2="95.2" stroke="rgb(76,76,76)"  stroke-width="2.0"/>
<line x1="309.1" y1="63.7" x2="289.6" y2="96.7" stroke="rgb(76,76,76)"  stroke-width="2.0"/>
<line x1="303.9" y1="60.7" x2="284.5" y2="93.6" stroke="rgb(76,76,76)"  stroke-width="2.0"/>
<line x1="145.6" y1="69.1" x2="156.5" y2="69.8" stroke="rgb(76,76,76)"  stroke-width="2.0"/>
<line x1="145.2" y1="75.1" x2="156.1" y2="75.8" stroke="rgb(76,76,76)"  stroke-width="2.0"/>
<line x1="287.0" y1="95.2" x2="304.2" y2="129.6" stroke="rgb(76,76,76)"  stroke-width="2.0"/>
<line x1="40.0" y1="77.9" x2="72.2" y2="76.7" stroke="rgb(76,76,76)"  stroke-width="2.0"/>
<line x1="369.2" y1="120.3" x2="349.2" y2="126.1" stroke="rgb(76,76,76)"  stroke-width="2.0"/>
<line x1="72.2" y1="76.7" x2="76.9" y2="105.6" stroke="rgb(76,76,76)"  stroke-width="2.0"/>
<line x1="72.2" y1="76.7" x2="73.9" y2="48.8" stroke="rgb(76,76,76)"  stroke-width="2.0"/>
<line x1="304.2" y1="129.6" x2="349.2" y2="126.1" stroke="rgb(76,76,76)"  stroke-width="2.0"/>
<line x1="349.2" y1="126.1" x2="360.4" y2="155.6" stroke="rgb(76,76,76)"  stroke-width="2.0"/>
<line x1="349.2" y1="126.1" x2="354.2" y2="99.5" stroke="rgb(76,76,76)"  stroke-width="2.0"/>
<circle cx="170.494873" cy="97.083233" r="2.066667" opacity="1.000000" style="stroke:black;fill:url(#radialffffffbfbfbf)"/>
<circle cx="168.489743" cy="40.000000" r="2.066667" opacity="1.000000" style="stroke:black;fill:url(#radialffffffbfbfbf)"/>
<circle cx="175.854800" cy="69.250354" r="5.066667" opacity="1.000000" style="stroke:black;fill:url(#radialffffff666666)"/>
<circle cx="238.604704" cy="41.165623" r="2.066667" opacity="1.000000" style="stroke:black;fill:url(#radialffffffbfbfbf)"/>
<circle cx="220.778100" cy="68.268777" r="4.733333" opacity="1.000000" style="stroke:black;fill:url(#radialffffff0ccff)"/>
<circle cx="104.654938" cy="73.793377" r="4.400000" opacity="1.000000" style="stroke:black;fill:url(#radialffffffffcc)"/>
<circle cx="239.211732" cy="102.023407" r="5.066667" opacity="1.000000" style="stroke:black;fill:url(#radialffffff666666)"/>
<circle cx="306.482057" cy="62.185581" r="4.400000" opacity="1.000000" style="stroke:black;fill:url(#radialffffffffcc)"/>
<circle cx="145.429137" cy="72.104677" r="5.070129" opacity="1.000000" style="stroke:black;fill:url(#radialffffff666666)"/>
<circle cx="220.116181" cy="135.878133" r="4.583880" opacity="1.000000" style="stroke:black;fill:url(#radialffffffffcc)"/>
<circle cx="287.044246" cy="95.155596" r="5.547617" opacity="1.000000" style="stroke:black;fill:url(#radialffffff666666)"/>
<circle cx="40.000000" cy="77.877901" r="2.289166" opacity="1.000000" style="stroke:black;fill:url(#radialffffffbfbfbf)"/>
<circle cx="369.164154" cy="120.324655" r="2.356385" opacity="1.000000" style="stroke:black;fill:url(#radialffffffbfbfbf)"/>
<circle cx="72.230603" cy="76.650929" r="6.806425" opacity="1.000000" style="stroke:black;fill:url(#radialffffff666666)"/>
<circle cx="304.183100" cy="129.630265" r="6.246131" opacity="1.000000" style="stroke:black;fill:url(#radialffffffffcc)"/>
<circle cx="349.242012" cy="126.091421" r="8.208978" opacity="1.000000" style="stroke:black;fill:url(#radialffffff666666)"/>
<circle cx="156.313666" cy="72.785969" r="7.211348" opacity="1.000000" style="stroke:black;fill:url(#radialffffffffcc)"/>
<circle cx="76.883408" cy="105.575167" r="3.454706" opacity="1.000000" style="stroke:black;fill:url(#radialffffffbfbfbf)"/>
<circle cx="73.883786" cy="48.792219" r="3.522942" opacity="1.000000" style="stroke:black;fill:url(#radialffffffbfbfbf)"/>
<circle cx="360.410681" cy="155.622687" r="3.887166" opacity="1.000000" style="stroke:black;fill:url(#radialffffffbfbfbf)"/>
<circle cx="354.172500" cy="99.511345" r="4.133333" opacity="1.000000" style="stroke:black;fill:url(#radialffffffbfbfbf)"/>
</svg>
</g>
</svg>
