<?xml version="1.0"?>
<svg version="1.1" id="topsvg"
xmlns="http://www.w3.org/2000/svg" xmlns:xlink="http://www.w3.org/1999/xlink"
xmlns:cml="http://www.xml-cml.org/schema" x="0" y="0" width="200px" height="200px" viewBox="0 0 100 100">
<title>51 - Open Babel Depiction</title>
<defs>
<radialGradient id='radialffffff0ccff' cx='50%' cy='50%' r='50%' fx='30%' fy='30%'>
  <stop offset=' 0%' stop-color="rgb(255,255,255)"  stop-opacity='0.8'/>
  <stop offset='100%' stop-color="rgb(12,12,255)"  stop-opacity ='1.0'/>
</radialGradient>
<radialGradient id='radialffffff666666' cx='50%' cy='50%' r='50%' fx='30%' fy='30%'>
  <stop offset=' 0%' stop-color="rgb(255,255,255)"  stop-opacity='0.8'/>
  <stop offset='100%' stop-color="rgb(102,102,102)"  stop-opacity ='1.0'/>
</radialGradient>
<radialGradient id='radialffffffbfbfbf' cx='50%' cy='50%' r='50%' fx='30%' fy='30%'>
  <stop offset=' 0%' stop-color="rgb(255,255,255)"  stop-opacity='0.8'/>
  <stop offset='100%' stop-color="rgb(191,191,191)"  stop-opacity ='1.0'/>
</radialGradient>
<radialGradient id='radialffffffffcc' cx='50%' cy='50%' r='50%' fx='30%' fy='30%'>
  <stop offset=' 0%' stop-color="rgb(255,255,255)"  stop-opacity='0.8'/>
  <stop offset='100%' stop-color="rgb(255,12,12)"  stop-opacity ='1.0'/>
</radialGradient>
</defs>
<g transform="translate(0,0)">
<svg width="100" height="100" x="0" y="0" viewBox="0 0 391.58 215.326"
font-family="sans-serif" stroke="rgb(76,76,76)" stroke-width="2"  stroke-linecap="round">
<line x1="85.7" y1="80.9" x2="74.6" y2="86.6" stroke="rgb(76,76,76)"  stroke-width="2.0"/>
<line x1="151.4" y1="87.2" x2="159.2" y2="95.3" stroke="rgb(76,76,76)"  stroke-width="2.0"/>
<line x1="224.7" y1="77.8" x2="205.7" y2="98.0" stroke="rgb(76,76,76)"  stroke-width="2.0"/>
<line x1="74.6" y1="86.6" x2="40.0" y2="80.5" stroke="rgb(76,76,76)"  stroke-width="2.0"/>
<line x1="74.6" y1="86.6" x2="79.8" y2="120.5" stroke="rgb(76,76,76)"  stroke-width="2.0"/>
<line x1="74.6" y1="86.6" x2="97.1" y2="59.1" stroke="rgb(76,76,76)"  stroke-width="2.0"/>
<line x1="159.2" y1="95.3" x2="205.7" y2="98.0" stroke="rgb(76,76,76)"  stroke-width="2.0"/>
<line x1="159.2" y1="95.3" x2="145.4" y2="127.2" stroke="rgb(76,76,76)"  stroke-width="2.0"/>
<line x1="159.2" y1="95.3" x2="139.9" y2="62.1" stroke="rgb(76,76,76)"  stroke-width="2.0"/>
<line x1="205.7" y1="98.0" x2="224.1" y2="125.6" stroke="rgb(76,76,76)"  stroke-width="2.0"/>
<line x1="296.7" y1="100.9" x2="276.0" y2="125.3" stroke="rgb(76,76,76)"  stroke-width="2.0"/>
<line x1="292.1" y1="97.1" x2="271.4" y2="121.5" stroke="rgb(76,76,76)"  stroke-width="2.0"/>
<line x1="97.1" y1="59.1" x2="139.9" y2="62.1" stroke="rgb(76,76,76)"  stroke-width="2.0"/>
<line x1="137.7" y1="60.0" x2="158.7" y2="37.9" stroke="rgb(76,76,76)"  stroke-width="2.0"/>
<line x1="142.0" y1="64.1" x2="163.1" y2="42.1" stroke="rgb(76,76,76)"  stroke-width="2.0"/>
<line x1="351.6" y1="159.5" x2="337.4" y2="151.6" stroke="rgb(76,76,76)"  stroke-width="2.0"/>
<line x1="224.1" y1="125.6" x2="273.7" y2="123.4" stroke="rgb(76,76,76)"  stroke-width="2.0"/>
<line x1="226.4" y1="127.4" x2="206.1" y2="152.5" stroke="rgb(76,76,76)"  stroke-width="2.0"/>
<line x1="221.8" y1="123.7" x2="201.4" y2="148.8" stroke="rgb(76,76,76)"  stroke-width="2.0"/>
<line x1="273.7" y1="123.4" x2="290.8" y2="151.4" stroke="rgb(76,76,76)"  stroke-width="2.0"/>
<line x1="290.8" y1="151.4" x2="337.4" y2="151.6" stroke="rgb(76,76,76)"  stroke-width="2.0"/>
<line x1="337.4" y1="151.6" x2="349.5" y2="120.1" stroke="rgb(76,76,76)"  stroke-width="2.0"/>
<line x1="337.4" y1="151.6" x2="348.5" y2="175.3" stroke="rgb(76,76,76)"  stroke-width="2.0"/>
<circle cx="85.707987" cy="80.850243" r="2.066667" opacity="1.000000" style="stroke:black;fill:url(#radialffffffbfbfbf)"/>
<circle cx="151.353707" cy="87.218568" r="2.066667" opacity="1.000000" style="stroke:black;fill:url(#radialffffffbfbfbf)"/>
<circle cx="224.652393" cy="77.841992" r="2.066667" opacity="1.000000" style="stroke:black;fill:url(#radialffffffbfbfbf)"/>
<circle cx="74.562610" cy="86.605298" r="5.066667" opacity="1.000000" style="stroke:black;fill:url(#radialffffff666666)"/>
<circle cx="40.000000" cy="80.466142" r="2.066667" opacity="1.000000" style="stroke:black;fill:url(#radialffffffbfbfbf)"/>
<circle cx="159.232614" cy="95.349238" r="5.066667" opacity="1.000000" style="stroke:black;fill:url(#radialffffff666666)"/>
<circle cx="79.820594" cy="120.486856" r="2.066667" opacity="1.000000" style="stroke:black;fill:url(#radialffffffbfbfbf)"/>
<circle cx="205.676525" cy="98.018577" r="4.733333" opacity="1.000000" style="stroke:black;fill:url(#radialffffff0ccff)"/>
<circle cx="145.440493" cy="127.174728" r="2.066667" opacity="1.000000" style="stroke:black;fill:url(#radialffffffbfbfbf)"/>
<circle cx="294.368289" cy="98.999809" r="4.400000" opacity="1.000000" style="stroke:black;fill:url(#radialffffffffcc)"/>
<circle cx="97.079306" cy="59.050105" r="4.540468" opacity="1.000000" style="stroke:black;fill:url(#radialffffffffcc)"/>
<circle cx="139.875874" cy="62.055129" r="5.501923" opacity="1.000000" style="stroke:black;fill:url(#radialffffff666666)"/>
<circle cx="351.579932" cy="159.529566" r="2.290444" opacity="1.000000" style="stroke:black;fill:url(#radialffffffbfbfbf)"/>
<circle cx="224.103677" cy="125.554404" r="5.641750" opacity="1.000000" style="stroke:black;fill:url(#radialffffff666666)"/>
<circle cx="273.678494" cy="123.401503" r="5.683725" opacity="1.000000" style="stroke:black;fill:url(#radialffffff666666)"/>
<circle cx="160.898126" cy="40.000000" r="6.555770" opacity="1.000000" style="stroke:black;fill:url(#radialffffffffcc)"/>
<circle cx="203.726972" cy="150.650061" r="6.559253" opacity="1.000000" style="stroke:black;fill:url(#radialffffffffcc)"/>
<circle cx="290.801640" cy="151.402123" r="6.933755" opacity="1.000000" style="stroke:black;fill:url(#radialffffffffcc)"/>
<circle cx="337.442443" cy="151.602243" r="8.195536" opacity="1.000000" style="stroke:black;fill:url(#radialffffff666666)"/>
<circle cx="349.517408" cy="120.112439" r="3.673783" opacity="1.000000" style="stroke:black;fill:url(#radialffffffbfbfbf)"/>
<circle cx="348.539404" cy="175.326112" r="4.133333" opacity="1.000000" style="stroke:black;fill:url(#radialffffffbfbfbf)"/>
</svg>
</g>
</svg>
