<?xml version="1.0"?>
<svg version="1.1" id="topsvg"
xmlns="http://www.w3.org/2000/svg" xmlns:xlink="http://www.w3.org/1999/xlink"
xmlns:cml="http://www.xml-cml.org/schema" x="0" y="0" width="200px" height="200px" viewBox="0 0 100 100">
<title>63 - Open Babel Depiction</title>
<defs>
<radialGradient id='radialffffff0ccff' cx='50%' cy='50%' r='50%' fx='30%' fy='30%'>
  <stop offset=' 0%' stop-color="rgb(255,255,255)"  stop-opacity='0.8'/>
  <stop offset='100%' stop-color="rgb(12,12,255)"  stop-opacity ='1.0'/>
</radialGradient>
<radialGradient id='radialffffff666666' cx='50%' cy='50%' r='50%' fx='30%' fy='30%'>
  <stop offset=' 0%' stop-color="rgb(255,255,255)"  stop-opacity='0.8'/>
  <stop offset='100%' stop-color="rgb(102,102,102)"  stop-opacity ='1.0'/>
</radialGradient>
<radialGradient id='radialffffffbfbfbf' cx='50%' cy='50%' r='50%' fx='30%' fy='30%'>
  <stop offset=' 0%' stop-color="rgb(255,255,255)"  stop-opacity='0.8'/>
  <stop offset='100%' stop-color="rgb(191,191,191)"  stop-opacity ='1.0'/>
</radialGradient>
<radialGradient id='radialffffffffcc' cx='50%' cy='50%' r='50%' fx='30%' fy='30%'>
  <stop offset=' 0%' stop-color="rgb(255,255,255)"  stop-opacity='0.8'/>
  <stop offset='100%' stop-color="rgb(255,12,12)"  stop-opacity ='1.0'/>
</radialGradient>
</defs>
<g transform="translate(0,0)">
<svg width="100" height="100" x="0" y="0" viewBox="0 0 410.972 219.257"
font-family="sans-serif" stroke="rgb(76,76,76)" stroke-width="2"  stroke-linecap="round">
<line x1="174.2" y1="128.5" x2="175.1" y2="125.3" stroke="rgb(76,76,76)"  stroke-width="2.0"/>
<line x1="175.1" y1="125.3" x2="145.4" y2="89.2" stroke="rgb(76,76,76)"  stroke-width="2.0"/>
<line x1="175.1" y1="125.3" x2="219.3" y2="118.2" stroke="rgb(76,76,76)"  stroke-width="2.0"/>
<line x1="175.1" y1="125.3" x2="163.1" y2="155.7" stroke="rgb(76,76,76)"  stroke-width="2.0"/>
<line x1="76.0" y1="40.0" x2="72.6" y2="68.7" stroke="rgb(76,76,76)"  stroke-width="2.0"/>
<line x1="234.9" y1="91.1" x2="219.3" y2="118.2" stroke="rgb(76,76,76)"  stroke-width="2.0"/>
<line x1="104.3" y1="100.9" x2="145.4" y2="89.2" stroke="rgb(76,76,76)"  stroke-width="2.0"/>
<line x1="104.3" y1="100.9" x2="72.6" y2="68.7" stroke="rgb(76,76,76)"  stroke-width="2.0"/>
<line x1="142.5" y1="88.2" x2="154.2" y2="52.9" stroke="rgb(76,76,76)"  stroke-width="2.0"/>
<line x1="148.2" y1="90.1" x2="159.9" y2="54.8" stroke="rgb(76,76,76)"  stroke-width="2.0"/>
<line x1="219.3" y1="118.2" x2="240.3" y2="145.7" stroke="rgb(76,76,76)"  stroke-width="2.0"/>
<line x1="40.0" y1="81.2" x2="72.6" y2="68.7" stroke="rgb(76,76,76)"  stroke-width="2.0"/>
<line x1="72.6" y1="68.7" x2="76.3" y2="59.3" stroke="rgb(76,76,76)"  stroke-width="2.0"/>
<line x1="305.7" y1="100.4" x2="289.5" y2="133.2" stroke="rgb(76,76,76)"  stroke-width="2.0"/>
<line x1="300.3" y1="97.8" x2="284.2" y2="130.6" stroke="rgb(76,76,76)"  stroke-width="2.0"/>
<line x1="240.3" y1="145.7" x2="286.8" y2="131.9" stroke="rgb(76,76,76)"  stroke-width="2.0"/>
<line x1="243.0" y1="147.0" x2="227.4" y2="180.5" stroke="rgb(76,76,76)"  stroke-width="2.0"/>
<line x1="237.6" y1="144.5" x2="221.9" y2="178.0" stroke="rgb(76,76,76)"  stroke-width="2.0"/>
<line x1="286.8" y1="131.9" x2="306.9" y2="160.2" stroke="rgb(76,76,76)"  stroke-width="2.0"/>
<line x1="371.0" y1="147.1" x2="351.0" y2="149.6" stroke="rgb(76,76,76)"  stroke-width="2.0"/>
<line x1="306.9" y1="160.2" x2="351.0" y2="149.6" stroke="rgb(76,76,76)"  stroke-width="2.0"/>
<line x1="351.0" y1="149.6" x2="352.5" y2="119.0" stroke="rgb(76,76,76)"  stroke-width="2.0"/>
<line x1="351.0" y1="149.6" x2="364.8" y2="174.4" stroke="rgb(76,76,76)"  stroke-width="2.0"/>
<circle cx="174.153046" cy="128.536749" r="2.066667" opacity="1.000000" style="stroke:black;fill:url(#radialffffffbfbfbf)"/>
<circle cx="175.089328" cy="125.314648" r="5.066667" opacity="1.000000" style="stroke:black;fill:url(#radialffffff666666)"/>
<circle cx="75.975823" cy="40.000000" r="2.066667" opacity="1.000000" style="stroke:black;fill:url(#radialffffffbfbfbf)"/>
<circle cx="234.933880" cy="91.130675" r="2.066667" opacity="1.000000" style="stroke:black;fill:url(#radialffffffbfbfbf)"/>
<circle cx="104.299963" cy="100.922891" r="4.400000" opacity="1.000000" style="stroke:black;fill:url(#radialffffffffcc)"/>
<circle cx="145.373679" cy="89.167711" r="5.066667" opacity="1.000000" style="stroke:black;fill:url(#radialffffff666666)"/>
<circle cx="219.304431" cy="118.150477" r="4.733333" opacity="1.000000" style="stroke:black;fill:url(#radialffffff0ccff)"/>
<circle cx="163.140434" cy="155.656637" r="2.066667" opacity="1.000000" style="stroke:black;fill:url(#radialffffffbfbfbf)"/>
<circle cx="40.000000" cy="81.196401" r="2.066667" opacity="1.000000" style="stroke:black;fill:url(#radialffffffbfbfbf)"/>
<circle cx="72.563237" cy="68.727710" r="5.066667" opacity="1.000000" style="stroke:black;fill:url(#radialffffff666666)"/>
<circle cx="157.015859" cy="53.853743" r="4.400000" opacity="1.000000" style="stroke:black;fill:url(#radialffffffffcc)"/>
<circle cx="303.030628" cy="99.089070" r="4.400000" opacity="1.000000" style="stroke:black;fill:url(#radialffffffffcc)"/>
<circle cx="240.296515" cy="145.722363" r="5.297053" opacity="1.000000" style="stroke:black;fill:url(#radialffffff666666)"/>
<circle cx="286.849095" cy="131.887992" r="6.027380" opacity="1.000000" style="stroke:black;fill:url(#radialffffff666666)"/>
<circle cx="224.660609" cy="179.257396" r="5.497199" opacity="1.000000" style="stroke:black;fill:url(#radialffffffffcc)"/>
<circle cx="76.343878" cy="59.251892" r="2.620641" opacity="1.000000" style="stroke:black;fill:url(#radialffffffbfbfbf)"/>
<circle cx="370.972404" cy="147.107415" r="2.692155" opacity="1.000000" style="stroke:black;fill:url(#radialffffffbfbfbf)"/>
<circle cx="306.898440" cy="160.157247" r="6.812477" opacity="1.000000" style="stroke:black;fill:url(#radialffffffffcc)"/>
<circle cx="350.987630" cy="149.648290" r="8.653559" opacity="1.000000" style="stroke:black;fill:url(#radialffffff666666)"/>
<circle cx="352.482452" cy="118.999588" r="4.027519" opacity="1.000000" style="stroke:black;fill:url(#radialffffffbfbfbf)"/>
<circle cx="364.760658" cy="174.430702" r="4.133333" opacity="1.000000" style="stroke:black;fill:url(#radialffffffbfbfbf)"/>
</svg>
</g>
</svg>
