<?xml version="1.0"?>
<svg version="1.1" id="topsvg"
xmlns="http://www.w3.org/2000/svg" xmlns:xlink="http://www.w3.org/1999/xlink"
xmlns:cml="http://www.xml-cml.org/schema" x="0" y="0" width="200px" height="200px" viewBox="0 0 100 100">
<title>53 - Open Babel Depiction</title>
<defs>
<radialGradient id='radialffffff0ccff' cx='50%' cy='50%' r='50%' fx='30%' fy='30%'>
  <stop offset=' 0%' stop-color="rgb(255,255,255)"  stop-opacity='0.8'/>
  <stop offset='100%' stop-color="rgb(12,12,255)"  stop-opacity ='1.0'/>
</radialGradient>
<radialGradient id='radialffffff666666' cx='50%' cy='50%' r='50%' fx='30%' fy='30%'>
  <stop offset=' 0%' stop-color="rgb(255,255,255)"  stop-opacity='0.8'/>
  <stop offset='100%' stop-color="rgb(102,102,102)"  stop-opacity ='1.0'/>
</radialGradient>
<radialGradient id='radialffffffbfbfbf' cx='50%' cy='50%' r='50%' fx='30%' fy='30%'>
  <stop offset=' 0%' stop-color="rgb(255,255,255)"  stop-opacity='0.8'/>
  <stop offset='100%' stop-color="rgb(191,191,191)"  stop-opacity ='1.0'/>
</radialGradient>
<radialGradient id='radialffffffffcc' cx='50%' cy='50%' r='50%' fx='30%' fy='30%'>
  <stop offset=' 0%' stop-color="rgb(255,255,255)"  stop-opacity='0.8'/>
  <stop offset='100%' stop-color="rgb(255,12,12)"  stop-opacity ='1.0'/>
</radialGradient>
</defs>
<g transform="translate(0,0)">
<svg width="100" height="100" x="0" y="0" viewBox="0 0 354.023 240.581"
font-family="sans-serif" stroke="rgb(76,76,76)" stroke-width="2"  stroke-linecap="round">
<line x1="180.2" y1="84.0" x2="165.9" y2="83.1" stroke="rgb(76,76,76)"  stroke-width="2.0"/>
<line x1="115.7" y1="46.3" x2="123.6" y2="63.7" stroke="rgb(76,76,76)"  stroke-width="2.0"/>
<line x1="246.0" y1="122.7" x2="230.5" y2="123.0" stroke="rgb(76,76,76)"  stroke-width="2.0"/>
<line x1="245.9" y1="116.7" x2="230.3" y2="117.0" stroke="rgb(76,76,76)"  stroke-width="2.0"/>
<line x1="40.0" y1="163.4" x2="69.9" y2="169.8" stroke="rgb(76,76,76)"  stroke-width="2.0"/>
<line x1="82.6" y1="200.6" x2="69.9" y2="169.8" stroke="rgb(76,76,76)"  stroke-width="2.0"/>
<line x1="165.9" y1="83.1" x2="123.6" y2="63.7" stroke="rgb(76,76,76)"  stroke-width="2.0"/>
<line x1="165.9" y1="83.1" x2="186.0" y2="100.5" stroke="rgb(76,76,76)"  stroke-width="2.0"/>
<line x1="100.8" y1="135.5" x2="69.9" y2="169.8" stroke="rgb(76,76,76)"  stroke-width="2.0"/>
<line x1="100.8" y1="135.5" x2="88.7" y2="96.3" stroke="rgb(76,76,76)"  stroke-width="2.0"/>
<line x1="123.6" y1="63.7" x2="88.7" y2="96.3" stroke="rgb(76,76,76)"  stroke-width="2.0"/>
<line x1="123.6" y1="63.7" x2="124.5" y2="40.0" stroke="rgb(76,76,76)"  stroke-width="2.0"/>
<line x1="69.9" y1="169.8" x2="62.3" y2="172.8" stroke="rgb(76,76,76)"  stroke-width="2.0"/>
<line x1="88.0" y1="99.2" x2="53.2" y2="91.1" stroke="rgb(76,76,76)"  stroke-width="2.0"/>
<line x1="89.4" y1="93.4" x2="54.6" y2="85.2" stroke="rgb(76,76,76)"  stroke-width="2.0"/>
<line x1="230.4" y1="120.0" x2="186.0" y2="100.5" stroke="rgb(76,76,76)"  stroke-width="2.0"/>
<line x1="230.4" y1="120.0" x2="249.3" y2="137.2" stroke="rgb(76,76,76)"  stroke-width="2.0"/>
<line x1="289.2" y1="182.5" x2="291.3" y2="156.4" stroke="rgb(76,76,76)"  stroke-width="2.0"/>
<line x1="186.2" y1="103.5" x2="171.1" y2="104.1" stroke="rgb(76,76,76)"  stroke-width="2.0"/>
<line x1="185.9" y1="97.5" x2="170.8" y2="98.2" stroke="rgb(76,76,76)"  stroke-width="2.0"/>
<line x1="314.0" y1="132.5" x2="291.3" y2="156.4" stroke="rgb(76,76,76)"  stroke-width="2.0"/>
<line x1="291.3" y1="156.4" x2="249.3" y2="137.2" stroke="rgb(76,76,76)"  stroke-width="2.0"/>
<line x1="291.3" y1="156.4" x2="304.2" y2="169.6" stroke="rgb(76,76,76)"  stroke-width="2.0"/>
<circle cx="180.235551" cy="83.983438" r="2.066667" opacity="1.000000" style="stroke:black;fill:url(#radialffffffbfbfbf)"/>
<circle cx="115.694005" cy="46.283348" r="2.066667" opacity="1.000000" style="stroke:black;fill:url(#radialffffffbfbfbf)"/>
<circle cx="245.945942" cy="119.678410" r="4.400000" opacity="1.000000" style="stroke:black;fill:url(#radialffffffffcc)"/>
<circle cx="40.000000" cy="163.403540" r="2.066667" opacity="1.000000" style="stroke:black;fill:url(#radialffffffbfbfbf)"/>
<circle cx="82.627320" cy="200.580555" r="2.066667" opacity="1.000000" style="stroke:black;fill:url(#radialffffffbfbfbf)"/>
<circle cx="165.854239" cy="83.137478" r="4.733333" opacity="1.000000" style="stroke:black;fill:url(#radialffffff0ccff)"/>
<circle cx="100.825136" cy="135.522392" r="4.400000" opacity="1.000000" style="stroke:black;fill:url(#radialffffffffcc)"/>
<circle cx="123.620840" cy="63.673951" r="5.066667" opacity="1.000000" style="stroke:black;fill:url(#radialffffff666666)"/>
<circle cx="69.876578" cy="169.799898" r="5.066667" opacity="1.000000" style="stroke:black;fill:url(#radialffffff666666)"/>
<circle cx="88.678190" cy="96.278911" r="5.066667" opacity="1.000000" style="stroke:black;fill:url(#radialffffff666666)"/>
<circle cx="230.386099" cy="120.023897" r="5.066667" opacity="1.000000" style="stroke:black;fill:url(#radialffffff666666)"/>
<circle cx="289.212575" cy="182.476375" r="2.129782" opacity="1.000000" style="stroke:black;fill:url(#radialffffffbfbfbf)"/>
<circle cx="53.909899" cy="88.138972" r="4.758717" opacity="1.000000" style="stroke:black;fill:url(#radialffffffffcc)"/>
<circle cx="124.521690" cy="40.000000" r="2.268259" opacity="1.000000" style="stroke:black;fill:url(#radialffffffbfbfbf)"/>
<circle cx="186.031343" cy="100.511937" r="5.838848" opacity="1.000000" style="stroke:black;fill:url(#radialffffff666666)"/>
<circle cx="314.023083" cy="132.535703" r="2.553458" opacity="1.000000" style="stroke:black;fill:url(#radialffffffbfbfbf)"/>
<circle cx="62.275858" cy="172.825333" r="2.707093" opacity="1.000000" style="stroke:black;fill:url(#radialffffffbfbfbf)"/>
<circle cx="291.288727" cy="156.393699" r="7.379642" opacity="1.000000" style="stroke:black;fill:url(#radialffffff666666)"/>
<circle cx="249.307178" cy="137.159421" r="6.978402" opacity="1.000000" style="stroke:black;fill:url(#radialffffffffcc)"/>
<circle cx="170.939683" cy="101.151250" r="8.008731" opacity="1.000000" style="stroke:black;fill:url(#radialffffffffcc)"/>
<circle cx="304.187996" cy="169.560963" r="4.133333" opacity="1.000000" style="stroke:black;fill:url(#radialffffffbfbfbf)"/>
</svg>
</g>
</svg>
