<?xml version="1.0"?>
<svg version="1.1" id="topsvg"
xmlns="http://www.w3.org/2000/svg" xmlns:xlink="http://www.w3.org/1999/xlink"
xmlns:cml="http://www.xml-cml.org/schema" x="0" y="0" width="200px" height="200px" viewBox="0 0 100 100">
<title>99 - Open Babel Depiction</title>
<defs>
<radialGradient id='radialffffff0ccff' cx='50%' cy='50%' r='50%' fx='30%' fy='30%'>
  <stop offset=' 0%' stop-color="rgb(255,255,255)"  stop-opacity='0.8'/>
  <stop offset='100%' stop-color="rgb(12,12,255)"  stop-opacity ='1.0'/>
</radialGradient>
<radialGradient id='radialffffff666666' cx='50%' cy='50%' r='50%' fx='30%' fy='30%'>
  <stop offset=' 0%' stop-color="rgb(255,255,255)"  stop-opacity='0.8'/>
  <stop offset='100%' stop-color="rgb(102,102,102)"  stop-opacity ='1.0'/>
</radialGradient>
<radialGradient id='radialffffffbfbfbf' cx='50%' cy='50%' r='50%' fx='30%' fy='30%'>
  <stop offset=' 0%' stop-color="rgb(255,255,255)"  stop-opacity='0.8'/>
  <stop offset='100%' stop-color="rgb(191,191,191)"  stop-opacity ='1.0'/>
</radialGradient>
<radialGradient id='radialffffffffcc' cx='50%' cy='50%' r='50%' fx='30%' fy='30%'>
  <stop offset=' 0%' stop-color="rgb(255,255,255)"  stop-opacity='0.8'/>
  <stop offset='100%' stop-color="rgb(255,12,12)"  stop-opacity ='1.0'/>
</radialGradient>
</defs>
<g transform="translate(0,0)">
<svg width="100" height="100" x="0" y="0" viewBox="0 0 213.412 346.344"
font-family="sans-serif" stroke="rgb(76,76,76)" stroke-width="2"  stroke-linecap="round">
<line x1="167.8" y1="43.0" x2="151.6" y2="58.9" stroke="rgb(76,76,76)"  stroke-width="2.0"/>
<line x1="88.2" y1="167.1" x2="108.8" y2="169.8" stroke="rgb(76,76,76)"  stroke-width="2.0"/>
<line x1="139.6" y1="102.5" x2="151.6" y2="58.9" stroke="rgb(76,76,76)"  stroke-width="2.0"/>
<line x1="139.6" y1="102.5" x2="119.6" y2="125.2" stroke="rgb(76,76,76)"  stroke-width="2.0"/>
<line x1="138.6" y1="186.1" x2="108.8" y2="169.8" stroke="rgb(76,76,76)"  stroke-width="2.0"/>
<line x1="151.6" y1="58.9" x2="123.3" y2="40.0" stroke="rgb(76,76,76)"  stroke-width="2.0"/>
<line x1="151.6" y1="58.9" x2="173.4" y2="58.9" stroke="rgb(76,76,76)"  stroke-width="2.0"/>
<line x1="108.8" y1="169.8" x2="119.6" y2="125.2" stroke="rgb(76,76,76)"  stroke-width="2.0"/>
<line x1="108.8" y1="169.8" x2="86.9" y2="195.9" stroke="rgb(76,76,76)"  stroke-width="2.0"/>
<line x1="117.0" y1="126.8" x2="108.7" y2="113.0" stroke="rgb(76,76,76)"  stroke-width="2.0"/>
<line x1="122.2" y1="123.7" x2="113.9" y2="109.9" stroke="rgb(76,76,76)"  stroke-width="2.0"/>
<line x1="86.9" y1="195.9" x2="54.2" y2="193.7" stroke="rgb(76,76,76)"  stroke-width="2.0"/>
<line x1="86.9" y1="195.9" x2="108.7" y2="221.9" stroke="rgb(76,76,76)"  stroke-width="2.0"/>
<line x1="148.0" y1="228.3" x2="108.5" y2="224.9" stroke="rgb(76,76,76)"  stroke-width="2.0"/>
<line x1="148.5" y1="222.3" x2="109.0" y2="218.9" stroke="rgb(76,76,76)"  stroke-width="2.0"/>
<line x1="108.7" y1="221.9" x2="78.4" y2="245.8" stroke="rgb(76,76,76)"  stroke-width="2.0"/>
<line x1="40.5" y1="236.3" x2="78.9" y2="242.9" stroke="rgb(76,76,76)"  stroke-width="2.0"/>
<line x1="39.5" y1="242.2" x2="77.9" y2="248.8" stroke="rgb(76,76,76)"  stroke-width="2.0"/>
<line x1="78.4" y1="245.8" x2="95.3" y2="273.6" stroke="rgb(76,76,76)"  stroke-width="2.0"/>
<line x1="153.1" y1="296.0" x2="141.0" y2="282.9" stroke="rgb(76,76,76)"  stroke-width="2.0"/>
<line x1="95.3" y1="273.6" x2="141.0" y2="282.9" stroke="rgb(76,76,76)"  stroke-width="2.0"/>
<line x1="141.0" y1="282.9" x2="159.2" y2="253.8" stroke="rgb(76,76,76)"  stroke-width="2.0"/>
<line x1="141.0" y1="282.9" x2="147.3" y2="306.3" stroke="rgb(76,76,76)"  stroke-width="2.0"/>
<circle cx="167.788814" cy="42.981137" r="2.066667" opacity="1.000000" style="stroke:black;fill:url(#radialffffffbfbfbf)"/>
<circle cx="88.178913" cy="167.072567" r="2.066667" opacity="1.000000" style="stroke:black;fill:url(#radialffffffbfbfbf)"/>
<circle cx="139.590616" cy="102.523213" r="4.400000" opacity="1.000000" style="stroke:black;fill:url(#radialffffffffcc)"/>
<circle cx="138.635620" cy="186.104738" r="2.066667" opacity="1.000000" style="stroke:black;fill:url(#radialffffffbfbfbf)"/>
<circle cx="151.618406" cy="58.906343" r="5.066667" opacity="1.000000" style="stroke:black;fill:url(#radialffffff666666)"/>
<circle cx="108.791989" cy="169.821408" r="5.066667" opacity="1.000000" style="stroke:black;fill:url(#radialffffff666666)"/>
<circle cx="123.278249" cy="40.000000" r="2.066667" opacity="1.000000" style="stroke:black;fill:url(#radialffffffbfbfbf)"/>
<circle cx="119.590544" cy="125.207599" r="5.066667" opacity="1.000000" style="stroke:black;fill:url(#radialffffff666666)"/>
<circle cx="173.412322" cy="58.854722" r="2.066667" opacity="1.000000" style="stroke:black;fill:url(#radialffffffbfbfbf)"/>
<circle cx="86.939999" cy="195.880544" r="4.733333" opacity="1.000000" style="stroke:black;fill:url(#radialffffff0ccff)"/>
<circle cx="54.241058" cy="193.657596" r="2.066667" opacity="1.000000" style="stroke:black;fill:url(#radialffffffbfbfbf)"/>
<circle cx="111.295628" cy="111.476303" r="4.400000" opacity="1.000000" style="stroke:black;fill:url(#radialffffffffcc)"/>
<circle cx="148.259788" cy="225.295072" r="4.400000" opacity="1.000000" style="stroke:black;fill:url(#radialffffffffcc)"/>
<circle cx="108.730689" cy="221.917095" r="5.066667" opacity="1.000000" style="stroke:black;fill:url(#radialffffff666666)"/>
<circle cx="40.000000" cy="239.287701" r="5.902233" opacity="1.000000" style="stroke:black;fill:url(#radialffffffffcc)"/>
<circle cx="78.445049" cy="245.824263" r="6.869340" opacity="1.000000" style="stroke:black;fill:url(#radialffffff666666)"/>
<circle cx="153.050900" cy="295.997053" r="2.830616" opacity="1.000000" style="stroke:black;fill:url(#radialffffffbfbfbf)"/>
<circle cx="95.315573" cy="273.638527" r="7.388131" opacity="1.000000" style="stroke:black;fill:url(#radialffffffffcc)"/>
<circle cx="141.013431" cy="282.894892" r="8.677481" opacity="1.000000" style="stroke:black;fill:url(#radialffffff666666)"/>
<circle cx="159.174491" cy="253.754603" r="3.710408" opacity="1.000000" style="stroke:black;fill:url(#radialffffffbfbfbf)"/>
<circle cx="147.333829" cy="306.343920" r="4.133333" opacity="1.000000" style="stroke:black;fill:url(#radialffffffbfbfbf)"/>
</svg>
</g>
</svg>
