<?xml version="1.0"?>
<svg version="1.1" id="topsvg"
xmlns="http://www.w3.org/2000/svg" xmlns:xlink="http://www.w3.org/1999/xlink"
xmlns:cml="http://www.xml-cml.org/schema" x="0" y="0" width="200px" height="200px" viewBox="0 0 100 100">
<title>73 - Open Babel Depiction</title>
<defs>
<radialGradient id='radialffffff0ccff' cx='50%' cy='50%' r='50%' fx='30%' fy='30%'>
  <stop offset=' 0%' stop-color="rgb(255,255,255)"  stop-opacity='0.8'/>
  <stop offset='100%' stop-color="rgb(12,12,255)"  stop-opacity ='1.0'/>
</radialGradient>
<radialGradient id='radialffffff666666' cx='50%' cy='50%' r='50%' fx='30%' fy='30%'>
  <stop offset=' 0%' stop-color="rgb(255,255,255)"  stop-opacity='0.8'/>
  <stop offset='100%' stop-color="rgb(102,102,102)"  stop-opacity ='1.0'/>
</radialGradient>
<radialGradient id='radialffffffbfbfbf' cx='50%' cy='50%' r='50%' fx='30%' fy='30%'>
  <stop offset=' 0%' stop-color="rgb(255,255,255)"  stop-opacity='0.8'/>
  <stop offset='100%' stop-color="rgb(191,191,191)"  stop-opacity ='1.0'/>
</radialGradient>
<radialGradient id='radialffffffffcc' cx='50%' cy='50%' r='50%' fx='30%' fy='30%'>
  <stop offset=' 0%' stop-color="rgb(255,255,255)"  stop-opacity='0.8'/>
  <stop offset='100%' stop-color="rgb(255,12,12)"  stop-opacity ='1.0'/>
</radialGradient>
</defs>
<g transform="translate(0,0)">
<svg width="100" height="100" x="0" y="0" viewBox="0 0 367.371 222.572"
font-family="sans-serif" stroke="rgb(76,76,76)" stroke-width="2"  stroke-linecap="round">
<line x1="317.1" y1="156.9" x2="309.7" y2="153.8" stroke="rgb(76,76,76)"  stroke-width="2.0"/>
<line x1="268.5" y1="90.3" x2="248.3" y2="116.0" stroke="rgb(76,76,76)"  stroke-width="2.0"/>
<line x1="263.8" y1="86.6" x2="243.6" y2="112.3" stroke="rgb(76,76,76)"  stroke-width="2.0"/>
<line x1="179.2" y1="77.5" x2="199.5" y2="107.9" stroke="rgb(76,76,76)"  stroke-width="2.0"/>
<line x1="174.2" y1="80.8" x2="194.5" y2="111.2" stroke="rgb(76,76,76)"  stroke-width="2.0"/>
<line x1="246.0" y1="114.1" x2="197.0" y2="109.6" stroke="rgb(76,76,76)"  stroke-width="2.0"/>
<line x1="246.0" y1="114.1" x2="263.8" y2="148.5" stroke="rgb(76,76,76)"  stroke-width="2.0"/>
<line x1="197.0" y1="109.6" x2="178.1" y2="139.9" stroke="rgb(76,76,76)"  stroke-width="2.0"/>
<line x1="309.7" y1="153.8" x2="263.8" y2="148.5" stroke="rgb(76,76,76)"  stroke-width="2.0"/>
<line x1="309.7" y1="153.8" x2="327.4" y2="126.1" stroke="rgb(76,76,76)"  stroke-width="2.0"/>
<line x1="309.7" y1="153.8" x2="321.4" y2="182.6" stroke="rgb(76,76,76)"  stroke-width="2.0"/>
<line x1="115.7" y1="123.1" x2="132.4" y2="137.5" stroke="rgb(76,76,76)"  stroke-width="2.0"/>
<line x1="178.1" y1="139.9" x2="132.4" y2="137.5" stroke="rgb(76,76,76)"  stroke-width="2.0"/>
<line x1="178.1" y1="139.9" x2="195.5" y2="164.7" stroke="rgb(76,76,76)"  stroke-width="2.0"/>
<line x1="132.4" y1="137.5" x2="119.7" y2="170.3" stroke="rgb(76,76,76)"  stroke-width="2.0"/>
<line x1="132.4" y1="137.5" x2="122.6" y2="111.3" stroke="rgb(76,76,76)"  stroke-width="2.0"/>
<line x1="84.5" y1="91.9" x2="122.6" y2="111.3" stroke="rgb(76,76,76)"  stroke-width="2.0"/>
<line x1="84.5" y1="91.9" x2="71.4" y2="65.8" stroke="rgb(76,76,76)"  stroke-width="2.0"/>
<line x1="122.2" y1="108.4" x2="145.6" y2="105.4" stroke="rgb(76,76,76)"  stroke-width="2.0"/>
<line x1="123.0" y1="114.3" x2="146.4" y2="111.4" stroke="rgb(76,76,76)"  stroke-width="2.0"/>
<line x1="40.0" y1="51.3" x2="71.4" y2="65.8" stroke="rgb(76,76,76)"  stroke-width="2.0"/>
<line x1="71.4" y1="65.8" x2="94.6" y2="40.0" stroke="rgb(76,76,76)"  stroke-width="2.0"/>
<line x1="71.4" y1="65.8" x2="69.3" y2="85.3" stroke="rgb(76,76,76)"  stroke-width="2.0"/>
<circle cx="317.087075" cy="156.852231" r="2.066667" opacity="1.000000" style="stroke:black;fill:url(#radialffffffbfbfbf)"/>
<circle cx="266.115732" cy="88.424551" r="4.400000" opacity="1.000000" style="stroke:black;fill:url(#radialffffffffcc)"/>
<circle cx="176.739156" cy="79.134732" r="4.400000" opacity="1.000000" style="stroke:black;fill:url(#radialffffffffcc)"/>
<circle cx="245.957665" cy="114.115192" r="5.066667" opacity="1.000000" style="stroke:black;fill:url(#radialffffff666666)"/>
<circle cx="197.029566" cy="109.580031" r="5.066667" opacity="1.000000" style="stroke:black;fill:url(#radialffffff666666)"/>
<circle cx="309.721068" cy="153.782523" r="5.066667" opacity="1.000000" style="stroke:black;fill:url(#radialffffff666666)"/>
<circle cx="115.654888" cy="123.117730" r="2.066667" opacity="1.000000" style="stroke:black;fill:url(#radialffffffbfbfbf)"/>
<circle cx="263.785208" cy="148.508179" r="4.400000" opacity="1.000000" style="stroke:black;fill:url(#radialffffffffcc)"/>
<circle cx="327.371078" cy="126.132563" r="2.066667" opacity="1.000000" style="stroke:black;fill:url(#radialffffffbfbfbf)"/>
<circle cx="321.441475" cy="182.571923" r="2.066667" opacity="1.000000" style="stroke:black;fill:url(#radialffffffbfbfbf)"/>
<circle cx="178.072268" cy="139.922037" r="4.733333" opacity="1.000000" style="stroke:black;fill:url(#radialffffff0ccff)"/>
<circle cx="132.381725" cy="137.517271" r="5.066667" opacity="1.000000" style="stroke:black;fill:url(#radialffffff666666)"/>
<circle cx="195.473731" cy="164.673367" r="2.066667" opacity="1.000000" style="stroke:black;fill:url(#radialffffffbfbfbf)"/>
<circle cx="119.722008" cy="170.302778" r="2.066667" opacity="1.000000" style="stroke:black;fill:url(#radialffffffbfbfbf)"/>
<circle cx="84.525280" cy="91.910654" r="5.310937" opacity="1.000000" style="stroke:black;fill:url(#radialffffffffcc)"/>
<circle cx="122.614182" cy="111.342449" r="6.328342" opacity="1.000000" style="stroke:black;fill:url(#radialffffff666666)"/>
<circle cx="40.000000" cy="51.252365" r="3.261558" opacity="1.000000" style="stroke:black;fill:url(#radialffffffbfbfbf)"/>
<circle cx="146.013033" cy="108.385718" r="7.163370" opacity="1.000000" style="stroke:black;fill:url(#radialffffffffcc)"/>
<circle cx="71.439483" cy="65.806845" r="8.348563" opacity="1.000000" style="stroke:black;fill:url(#radialffffff666666)"/>
<circle cx="94.554282" cy="40.000000" r="3.549354" opacity="1.000000" style="stroke:black;fill:url(#radialffffffbfbfbf)"/>
<circle cx="69.309087" cy="85.293514" r="4.133333" opacity="1.000000" style="stroke:black;fill:url(#radialffffffbfbfbf)"/>
</svg>
</g>
</svg>
