<?xml version="1.0"?>
<svg version="1.1" id="topsvg"
xmlns="http://www.w3.org/2000/svg" xmlns:xlink="http://www.w3.org/1999/xlink"
xmlns:cml="http://www.xml-cml.org/schema" x="0" y="0" width="200px" height="200px" viewBox="0 0 100 100">
<title>52 - Open Babel Depiction</title>
<defs>
<radialGradient id='radialffffff0ccff' cx='50%' cy='50%' r='50%' fx='30%' fy='30%'>
  <stop offset=' 0%' stop-color="rgb(255,255,255)"  stop-opacity='0.8'/>
  <stop offset='100%' stop-color="rgb(12,12,255)"  stop-opacity ='1.0'/>
</radialGradient>
<radialGradient id='radialffffff666666' cx='50%' cy='50%' r='50%' fx='30%' fy='30%'>
  <stop offset=' 0%' stop-color="rgb(255,255,255)"  stop-opacity='0.8'/>
  <stop offset='100%' stop-color="rgb(102,102,102)"  stop-opacity ='1.0'/>
</radialGradient>
<radialGradient id='radialffffffbfbfbf' cx='50%' cy='50%' r='50%' fx='30%' fy='30%'>
  <stop offset=' 0%' stop-color="rgb(255,255,255)"  stop-opacity='0.8'/>
  <stop offset='100%' stop-color="rgb(191,191,191)"  stop-opacity ='1.0'/>
</radialGradient>
<radialGradient id='radialffffffffcc' cx='50%' cy='50%' r='50%' fx='30%' fy='30%'>
  <stop offset=' 0%' stop-color="rgb(255,255,255)"  stop-opacity='0.8'/>
  <stop offset='100%' stop-color="rgb(255,12,12)"  stop-opacity ='1.0'/>
</radialGradient>
</defs>
<g transform="translate(0,0)">
<svg width="100" height="100" x="0" y="0" viewBox="0 0 354.077 189.369"
font-family="sans-serif" stroke="rgb(76,76,76)" stroke-width="2"  stroke-linecap="round">
<line x1="124.6" y1="100.5" x2="123.7" y2="74.1" stroke="rgb(76,76,76)"  stroke-width="2.0"/>
<line x1="115.8" y1="44.4" x2="123.7" y2="74.1" stroke="rgb(76,76,76)"  stroke-width="2.0"/>
<line x1="123.7" y1="74.1" x2="165.9" y2="69.6" stroke="rgb(76,76,76)"  stroke-width="2.0"/>
<line x1="123.7" y1="74.1" x2="88.7" y2="83.2" stroke="rgb(76,76,76)"  stroke-width="2.0"/>
<line x1="165.9" y1="69.6" x2="180.3" y2="40.0" stroke="rgb(76,76,76)"  stroke-width="2.0"/>
<line x1="165.9" y1="69.6" x2="186.1" y2="103.3" stroke="rgb(76,76,76)"  stroke-width="2.0"/>
<line x1="52.7" y1="96.8" x2="87.5" y2="80.5" stroke="rgb(76,76,76)"  stroke-width="2.0"/>
<line x1="55.2" y1="102.2" x2="90.0" y2="85.9" stroke="rgb(76,76,76)"  stroke-width="2.0"/>
<line x1="88.7" y1="83.2" x2="100.8" y2="70.6" stroke="rgb(76,76,76)"  stroke-width="2.0"/>
<line x1="188.9" y1="104.4" x2="173.8" y2="141.2" stroke="rgb(76,76,76)"  stroke-width="2.0"/>
<line x1="183.3" y1="102.2" x2="168.2" y2="138.9" stroke="rgb(76,76,76)"  stroke-width="2.0"/>
<line x1="186.1" y1="103.3" x2="230.4" y2="92.4" stroke="rgb(76,76,76)"  stroke-width="2.0"/>
<line x1="248.7" y1="57.7" x2="233.2" y2="93.6" stroke="rgb(76,76,76)"  stroke-width="2.0"/>
<line x1="243.2" y1="55.4" x2="227.7" y2="91.2" stroke="rgb(76,76,76)"  stroke-width="2.0"/>
<line x1="230.4" y1="92.4" x2="249.4" y2="126.9" stroke="rgb(76,76,76)"  stroke-width="2.0"/>
<line x1="314.1" y1="107.4" x2="291.4" y2="119.6" stroke="rgb(76,76,76)"  stroke-width="2.0"/>
<line x1="100.8" y1="70.6" x2="69.8" y2="77.5" stroke="rgb(76,76,76)"  stroke-width="2.0"/>
<line x1="249.4" y1="126.9" x2="291.4" y2="119.6" stroke="rgb(76,76,76)"  stroke-width="2.0"/>
<line x1="291.4" y1="119.6" x2="304.4" y2="149.4" stroke="rgb(76,76,76)"  stroke-width="2.0"/>
<line x1="291.4" y1="119.6" x2="289.2" y2="96.0" stroke="rgb(76,76,76)"  stroke-width="2.0"/>
<line x1="40.0" y1="60.1" x2="69.8" y2="77.5" stroke="rgb(76,76,76)"  stroke-width="2.0"/>
<line x1="69.8" y1="77.5" x2="62.2" y2="111.6" stroke="rgb(76,76,76)"  stroke-width="2.0"/>
<line x1="69.8" y1="77.5" x2="82.6" y2="66.3" stroke="rgb(76,76,76)"  stroke-width="2.0"/>
<circle cx="124.628983" cy="100.547985" r="2.066667" opacity="1.000000" style="stroke:black;fill:url(#radialffffffbfbfbf)"/>
<circle cx="115.810908" cy="44.378363" r="2.066667" opacity="1.000000" style="stroke:black;fill:url(#radialffffffbfbfbf)"/>
<circle cx="123.715210" cy="74.138964" r="5.066667" opacity="1.000000" style="stroke:black;fill:url(#radialffffff666666)"/>
<circle cx="165.926377" cy="69.612072" r="4.733333" opacity="1.000000" style="stroke:black;fill:url(#radialffffff0ccff)"/>
<circle cx="180.327189" cy="40.000000" r="2.066667" opacity="1.000000" style="stroke:black;fill:url(#radialffffffbfbfbf)"/>
<circle cx="53.974599" cy="99.488912" r="4.400000" opacity="1.000000" style="stroke:black;fill:url(#radialffffffffcc)"/>
<circle cx="88.733508" cy="83.166916" r="5.066667" opacity="1.000000" style="stroke:black;fill:url(#radialffffff666666)"/>
<circle cx="186.090742" cy="103.305450" r="5.066667" opacity="1.000000" style="stroke:black;fill:url(#radialffffff666666)"/>
<circle cx="171.005408" cy="140.046892" r="4.400000" opacity="1.000000" style="stroke:black;fill:url(#radialffffffffcc)"/>
<circle cx="245.921916" cy="56.557704" r="4.400000" opacity="1.000000" style="stroke:black;fill:url(#radialffffffffcc)"/>
<circle cx="230.429742" cy="92.395060" r="5.066667" opacity="1.000000" style="stroke:black;fill:url(#radialffffff666666)"/>
<circle cx="314.077146" cy="107.380298" r="2.389182" opacity="1.000000" style="stroke:black;fill:url(#radialffffffbfbfbf)"/>
<circle cx="100.835356" cy="70.587194" r="5.232777" opacity="1.000000" style="stroke:black;fill:url(#radialffffffffcc)"/>
<circle cx="249.431710" cy="126.889200" r="5.344723" opacity="1.000000" style="stroke:black;fill:url(#radialffffffffcc)"/>
<circle cx="291.394253" cy="119.553182" r="7.367527" opacity="1.000000" style="stroke:black;fill:url(#radialffffff666666)"/>
<circle cx="40.000000" cy="60.112703" r="3.173318" opacity="1.000000" style="stroke:black;fill:url(#radialffffffbfbfbf)"/>
<circle cx="69.831636" cy="77.487314" r="8.190538" opacity="1.000000" style="stroke:black;fill:url(#radialffffff666666)"/>
<circle cx="304.416332" cy="149.368673" r="3.346618" opacity="1.000000" style="stroke:black;fill:url(#radialffffffbfbfbf)"/>
<circle cx="62.150127" cy="111.623049" r="3.421995" opacity="1.000000" style="stroke:black;fill:url(#radialffffffbfbfbf)"/>
<circle cx="289.237360" cy="96.037238" r="3.675331" opacity="1.000000" style="stroke:black;fill:url(#radialffffffbfbfbf)"/>
<circle cx="82.563116" cy="66.254035" r="4.133333" opacity="1.000000" style="stroke:black;fill:url(#radialffffffbfbfbf)"/>
</svg>
</g>
</svg>
