<?xml version="1.0"?>
<svg version="1.1" id="topsvg"
xmlns="http://www.w3.org/2000/svg" xmlns:xlink="http://www.w3.org/1999/xlink"
xmlns:cml="http://www.xml-cml.org/schema" x="0" y="0" width="200px" height="200px" viewBox="0 0 100 100">
<title>94 - Open Babel Depiction</title>
<defs>
<radialGradient id='radialffffff0ccff' cx='50%' cy='50%' r='50%' fx='30%' fy='30%'>
  <stop offset=' 0%' stop-color="rgb(255,255,255)"  stop-opacity='0.8'/>
  <stop offset='100%' stop-color="rgb(12,12,255)"  stop-opacity ='1.0'/>
</radialGradient>
<radialGradient id='radialffffff666666' cx='50%' cy='50%' r='50%' fx='30%' fy='30%'>
  <stop offset=' 0%' stop-color="rgb(255,255,255)"  stop-opacity='0.8'/>
  <stop offset='100%' stop-color="rgb(102,102,102)"  stop-opacity ='1.0'/>
</radialGradient>
<radialGradient id='radialffffffbfbfbf' cx='50%' cy='50%' r='50%' fx='30%' fy='30%'>
  <stop offset=' 0%' stop-color="rgb(255,255,255)"  stop-opacity='0.8'/>
  <stop offset='100%' stop-color="rgb(191,191,191)"  stop-opacity ='1.0'/>
</radialGradient>
<radialGradient id='radialffffffffcc' cx='50%' cy='50%' r='50%' fx='30%' fy='30%'>
  <stop offset=' 0%' stop-color="rgb(255,255,255)"  stop-opacity='0.8'/>
  <stop offset='100%' stop-color="rgb(255,12,12)"  stop-opacity ='1.0'/>
</radialGradient>
</defs>
<g transform="translate(0,0)">
<svg width="100" height="100" x="0" y="0" viewBox="0 0 316.949 297.472"
font-family="sans-serif" stroke="rgb(76,76,76)" stroke-width="2"  stroke-linecap="round">
<line x1="85.9" y1="116.3" x2="90.6" y2="144.2" stroke="rgb(76,76,76)"  stroke-width="2.0"/>
<line x1="78.8" y1="172.5" x2="90.6" y2="144.2" stroke="rgb(76,76,76)"  stroke-width="2.0"/>
<line x1="90.6" y1="144.2" x2="136.2" y2="150.3" stroke="rgb(76,76,76)"  stroke-width="2.0"/>
<line x1="90.6" y1="144.2" x2="63.8" y2="139.4" stroke="rgb(76,76,76)"  stroke-width="2.0"/>
<line x1="157.4" y1="126.4" x2="136.2" y2="150.3" stroke="rgb(76,76,76)"  stroke-width="2.0"/>
<line x1="136.2" y1="150.3" x2="150.8" y2="186.2" stroke="rgb(76,76,76)"  stroke-width="2.0"/>
<line x1="88.3" y1="60.0" x2="97.2" y2="68.9" stroke="rgb(76,76,76)"  stroke-width="2.0"/>
<line x1="225.9" y1="159.6" x2="202.3" y2="188.8" stroke="rgb(76,76,76)"  stroke-width="2.0"/>
<line x1="221.2" y1="155.8" x2="197.6" y2="185.1" stroke="rgb(76,76,76)"  stroke-width="2.0"/>
<line x1="150.8" y1="186.2" x2="200.0" y2="186.9" stroke="rgb(76,76,76)"  stroke-width="2.0"/>
<line x1="153.2" y1="188.1" x2="129.9" y2="218.3" stroke="rgb(76,76,76)"  stroke-width="2.0"/>
<line x1="148.4" y1="184.4" x2="125.1" y2="214.6" stroke="rgb(76,76,76)"  stroke-width="2.0"/>
<line x1="276.9" y1="224.7" x2="259.2" y2="226.8" stroke="rgb(76,76,76)"  stroke-width="2.0"/>
<line x1="200.0" y1="186.9" x2="213.2" y2="223.4" stroke="rgb(76,76,76)"  stroke-width="2.0"/>
<line x1="66.0" y1="141.3" x2="42.3" y2="169.5" stroke="rgb(76,76,76)"  stroke-width="2.0"/>
<line x1="61.5" y1="137.4" x2="37.7" y2="165.6" stroke="rgb(76,76,76)"  stroke-width="2.0"/>
<line x1="63.8" y1="139.4" x2="68.2" y2="101.5" stroke="rgb(76,76,76)"  stroke-width="2.0"/>
<line x1="130.3" y1="80.6" x2="97.2" y2="68.9" stroke="rgb(76,76,76)"  stroke-width="2.0"/>
<line x1="97.2" y1="68.9" x2="68.2" y2="101.5" stroke="rgb(76,76,76)"  stroke-width="2.0"/>
<line x1="97.2" y1="68.9" x2="96.1" y2="40.0" stroke="rgb(76,76,76)"  stroke-width="2.0"/>
<line x1="213.2" y1="223.4" x2="259.2" y2="226.8" stroke="rgb(76,76,76)"  stroke-width="2.0"/>
<line x1="259.2" y1="226.8" x2="267.0" y2="257.5" stroke="rgb(76,76,76)"  stroke-width="2.0"/>
<line x1="259.2" y1="226.8" x2="270.3" y2="201.0" stroke="rgb(76,76,76)"  stroke-width="2.0"/>
<circle cx="85.892904" cy="116.278395" r="2.066667" opacity="1.000000" style="stroke:black;fill:url(#radialffffffbfbfbf)"/>
<circle cx="78.799190" cy="172.505270" r="2.066667" opacity="1.000000" style="stroke:black;fill:url(#radialffffffbfbfbf)"/>
<circle cx="90.588696" cy="144.162691" r="5.066667" opacity="1.000000" style="stroke:black;fill:url(#radialffffff666666)"/>
<circle cx="157.385140" cy="126.421953" r="2.066667" opacity="1.000000" style="stroke:black;fill:url(#radialffffffbfbfbf)"/>
<circle cx="136.158865" cy="150.265608" r="4.733333" opacity="1.000000" style="stroke:black;fill:url(#radialffffff0ccff)"/>
<circle cx="88.252096" cy="60.035383" r="2.066667" opacity="1.000000" style="stroke:black;fill:url(#radialffffffbfbfbf)"/>
<circle cx="223.542568" cy="157.685283" r="4.400000" opacity="1.000000" style="stroke:black;fill:url(#radialffffffffcc)"/>
<circle cx="150.814257" cy="186.224731" r="5.066667" opacity="1.000000" style="stroke:black;fill:url(#radialffffff666666)"/>
<circle cx="276.948740" cy="224.746369" r="2.066667" opacity="1.000000" style="stroke:black;fill:url(#radialffffffbfbfbf)"/>
<circle cx="199.982920" cy="186.944430" r="5.440977" opacity="1.000000" style="stroke:black;fill:url(#radialffffff666666)"/>
<circle cx="127.503115" cy="216.435945" r="5.103086" opacity="1.000000" style="stroke:black;fill:url(#radialffffffffcc)"/>
<circle cx="63.750062" cy="139.379759" r="6.141443" opacity="1.000000" style="stroke:black;fill:url(#radialffffff666666)"/>
<circle cx="130.301227" cy="80.571005" r="2.620685" opacity="1.000000" style="stroke:black;fill:url(#radialffffffbfbfbf)"/>
<circle cx="97.182171" cy="68.946094" r="6.465995" opacity="1.000000" style="stroke:black;fill:url(#radialffffff666666)"/>
<circle cx="213.237642" cy="223.355382" r="6.333346" opacity="1.000000" style="stroke:black;fill:url(#radialffffffffcc)"/>
<circle cx="40.000000" cy="167.538380" r="6.498663" opacity="1.000000" style="stroke:black;fill:url(#radialffffffffcc)"/>
<circle cx="259.198320" cy="226.818327" r="8.041885" opacity="1.000000" style="stroke:black;fill:url(#radialffffff666666)"/>
<circle cx="68.184439" cy="101.529410" r="7.068213" opacity="1.000000" style="stroke:black;fill:url(#radialffffffffcc)"/>
<circle cx="96.117145" cy="40.000000" r="3.443004" opacity="1.000000" style="stroke:black;fill:url(#radialffffffbfbfbf)"/>
<circle cx="267.044006" cy="257.471689" r="3.897768" opacity="1.000000" style="stroke:black;fill:url(#radialffffffbfbfbf)"/>
<circle cx="270.345584" cy="200.996308" r="4.133333" opacity="1.000000" style="stroke:black;fill:url(#radialffffffbfbfbf)"/>
</svg>
</g>
</svg>
