<?xml version="1.0"?>
<svg version="1.1" id="topsvg"
xmlns="http://www.w3.org/2000/svg" xmlns:xlink="http://www.w3.org/1999/xlink"
xmlns:cml="http://www.xml-cml.org/schema" x="0" y="0" width="200px" height="200px" viewBox="0 0 100 100">
<title>50 - Open Babel Depiction</title>
<defs>
<radialGradient id='radialffffff0ccff' cx='50%' cy='50%' r='50%' fx='30%' fy='30%'>
  <stop offset=' 0%' stop-color="rgb(255,255,255)"  stop-opacity='0.8'/>
  <stop offset='100%' stop-color="rgb(12,12,255)"  stop-opacity ='1.0'/>
</radialGradient>
<radialGradient id='radialffffff666666' cx='50%' cy='50%' r='50%' fx='30%' fy='30%'>
  <stop offset=' 0%' stop-color="rgb(255,255,255)"  stop-opacity='0.8'/>
  <stop offset='100%' stop-color="rgb(102,102,102)"  stop-opacity ='1.0'/>
</radialGradient>
<radialGradient id='radialffffffbfbfbf' cx='50%' cy='50%' r='50%' fx='30%' fy='30%'>
  <stop offset=' 0%' stop-color="rgb(255,255,255)"  stop-opacity='0.8'/>
  <stop offset='100%' stop-color="rgb(191,191,191)"  stop-opacity ='1.0'/>
</radialGradient>
<radialGradient id='radialffffffffcc' cx='50%' cy='50%' r='50%' fx='30%' fy='30%'>
  <stop offset=' 0%' stop-color="rgb(255,255,255)"  stop-opacity='0.8'/>
  <stop offset='100%' stop-color="rgb(255,12,12)"  stop-opacity ='1.0'/>
</radialGradient>
</defs>
<g transform="translate(0,0)">
<svg width="100" height="100" x="0" y="0" viewBox="0 0 391.546 201.604"
font-family="sans-serif" stroke="rgb(76,76,76)" stroke-width="2"  stroke-linecap="round">
<line x1="158.7" y1="133.2" x2="137.6" y2="108.4" stroke="rgb(76,76,76)"  stroke-width="2.0"/>
<line x1="163.3" y1="129.3" x2="142.2" y2="104.5" stroke="rgb(76,76,76)"  stroke-width="2.0"/>
<line x1="97.1" y1="103.2" x2="139.9" y2="106.5" stroke="rgb(76,76,76)"  stroke-width="2.0"/>
<line x1="97.1" y1="103.2" x2="74.6" y2="72.8" stroke="rgb(76,76,76)"  stroke-width="2.0"/>
<line x1="139.9" y1="106.5" x2="159.2" y2="76.4" stroke="rgb(76,76,76)"  stroke-width="2.0"/>
<line x1="224.6" y1="62.8" x2="205.7" y2="80.5" stroke="rgb(76,76,76)"  stroke-width="2.0"/>
<line x1="40.0" y1="73.8" x2="74.6" y2="72.8" stroke="rgb(76,76,76)"  stroke-width="2.0"/>
<line x1="85.7" y1="40.0" x2="74.6" y2="72.8" stroke="rgb(76,76,76)"  stroke-width="2.0"/>
<line x1="74.6" y1="72.8" x2="79.8" y2="80.2" stroke="rgb(76,76,76)"  stroke-width="2.0"/>
<line x1="151.3" y1="42.9" x2="159.2" y2="76.4" stroke="rgb(76,76,76)"  stroke-width="2.0"/>
<line x1="159.2" y1="76.4" x2="205.7" y2="80.5" stroke="rgb(76,76,76)"  stroke-width="2.0"/>
<line x1="159.2" y1="76.4" x2="145.4" y2="83.4" stroke="rgb(76,76,76)"  stroke-width="2.0"/>
<line x1="205.7" y1="80.5" x2="224.1" y2="107.7" stroke="rgb(76,76,76)"  stroke-width="2.0"/>
<line x1="296.6" y1="88.0" x2="275.9" y2="110.3" stroke="rgb(76,76,76)"  stroke-width="2.0"/>
<line x1="292.2" y1="83.9" x2="271.5" y2="106.2" stroke="rgb(76,76,76)"  stroke-width="2.0"/>
<line x1="349.5" y1="148.3" x2="337.4" y2="138.4" stroke="rgb(76,76,76)"  stroke-width="2.0"/>
<line x1="273.7" y1="108.2" x2="224.1" y2="107.7" stroke="rgb(76,76,76)"  stroke-width="2.0"/>
<line x1="273.7" y1="108.2" x2="290.8" y2="135.8" stroke="rgb(76,76,76)"  stroke-width="2.0"/>
<line x1="226.3" y1="109.7" x2="206.0" y2="132.7" stroke="rgb(76,76,76)"  stroke-width="2.0"/>
<line x1="221.8" y1="105.7" x2="201.5" y2="128.7" stroke="rgb(76,76,76)"  stroke-width="2.0"/>
<line x1="290.8" y1="135.8" x2="337.4" y2="138.4" stroke="rgb(76,76,76)"  stroke-width="2.0"/>
<line x1="337.4" y1="138.4" x2="351.5" y2="107.1" stroke="rgb(76,76,76)"  stroke-width="2.0"/>
<line x1="337.4" y1="138.4" x2="348.5" y2="161.6" stroke="rgb(76,76,76)"  stroke-width="2.0"/>
<circle cx="160.990979" cy="131.273387" r="4.400000" opacity="1.000000" style="stroke:black;fill:url(#radialffffffffcc)"/>
<circle cx="97.127367" cy="103.224525" r="4.400000" opacity="1.000000" style="stroke:black;fill:url(#radialffffffffcc)"/>
<circle cx="139.926897" cy="106.461925" r="5.066667" opacity="1.000000" style="stroke:black;fill:url(#radialffffff666666)"/>
<circle cx="224.648018" cy="62.765089" r="2.066667" opacity="1.000000" style="stroke:black;fill:url(#radialffffffbfbfbf)"/>
<circle cx="40.000000" cy="73.839387" r="2.066667" opacity="1.000000" style="stroke:black;fill:url(#radialffffffbfbfbf)"/>
<circle cx="85.675426" cy="40.000000" r="2.066667" opacity="1.000000" style="stroke:black;fill:url(#radialffffffbfbfbf)"/>
<circle cx="74.559168" cy="72.783924" r="5.066667" opacity="1.000000" style="stroke:black;fill:url(#radialffffff666666)"/>
<circle cx="151.327194" cy="42.901718" r="2.066667" opacity="1.000000" style="stroke:black;fill:url(#radialffffffbfbfbf)"/>
<circle cx="159.228646" cy="76.408650" r="5.066667" opacity="1.000000" style="stroke:black;fill:url(#radialffffff666666)"/>
<circle cx="205.672269" cy="80.459435" r="4.733333" opacity="1.000000" style="stroke:black;fill:url(#radialffffff0ccff)"/>
<circle cx="294.363482" cy="85.969148" r="4.400000" opacity="1.000000" style="stroke:black;fill:url(#radialffffffffcc)"/>
<circle cx="79.804209" cy="80.194762" r="2.442840" opacity="1.000000" style="stroke:black;fill:url(#radialffffffbfbfbf)"/>
<circle cx="349.496119" cy="148.322189" r="2.448348" opacity="1.000000" style="stroke:black;fill:url(#radialffffffbfbfbf)"/>
<circle cx="273.667359" cy="108.208120" r="6.229795" opacity="1.000000" style="stroke:black;fill:url(#radialffffff666666)"/>
<circle cx="224.092851" cy="107.723962" r="6.387258" opacity="1.000000" style="stroke:black;fill:url(#radialffffff666666)"/>
<circle cx="145.414016" cy="83.390202" r="2.648410" opacity="1.000000" style="stroke:black;fill:url(#radialffffffbfbfbf)"/>
<circle cx="203.713044" cy="130.666576" r="7.182733" opacity="1.000000" style="stroke:black;fill:url(#radialffffffffcc)"/>
<circle cx="290.783944" cy="135.821241" r="7.237389" opacity="1.000000" style="stroke:black;fill:url(#radialffffffffcc)"/>
<circle cx="337.424457" cy="138.351771" r="8.350602" opacity="1.000000" style="stroke:black;fill:url(#radialffffff666666)"/>
<circle cx="351.545720" cy="107.146201" r="3.642129" opacity="1.000000" style="stroke:black;fill:url(#radialffffffbfbfbf)"/>
<circle cx="348.521349" cy="161.604246" r="4.133333" opacity="1.000000" style="stroke:black;fill:url(#radialffffffbfbfbf)"/>
</svg>
</g>
</svg>
