<?xml version="1.0"?>
<svg version="1.1" id="topsvg"
xmlns="http://www.w3.org/2000/svg" xmlns:xlink="http://www.w3.org/1999/xlink"
xmlns:cml="http://www.xml-cml.org/schema" x="0" y="0" width="200px" height="200px" viewBox="0 0 100 100">
<title>79 - Open Babel Depiction</title>
<defs>
<radialGradient id='radialffffff0ccff' cx='50%' cy='50%' r='50%' fx='30%' fy='30%'>
  <stop offset=' 0%' stop-color="rgb(255,255,255)"  stop-opacity='0.8'/>
  <stop offset='100%' stop-color="rgb(12,12,255)"  stop-opacity ='1.0'/>
</radialGradient>
<radialGradient id='radialffffff666666' cx='50%' cy='50%' r='50%' fx='30%' fy='30%'>
  <stop offset=' 0%' stop-color="rgb(255,255,255)"  stop-opacity='0.8'/>
  <stop offset='100%' stop-color="rgb(102,102,102)"  stop-opacity ='1.0'/>
</radialGradient>
<radialGradient id='radialffffffbfbfbf' cx='50%' cy='50%' r='50%' fx='30%' fy='30%'>
  <stop offset=' 0%' stop-color="rgb(255,255,255)"  stop-opacity='0.8'/>
  <stop offset='100%' stop-color="rgb(191,191,191)"  stop-opacity ='1.0'/>
</radialGradient>
<radialGradient id='radialffffffffcc' cx='50%' cy='50%' r='50%' fx='30%' fy='30%'>
  <stop offset=' 0%' stop-color="rgb(255,255,255)"  stop-opacity='0.8'/>
  <stop offset='100%' stop-color="rgb(255,12,12)"  stop-opacity ='1.0'/>
</radialGradient>
</defs>
<g transform="translate(0,0)">
<svg width="100" height="100" x="0" y="0" viewBox="0 0 340.859 225.713"
font-family="sans-serif" stroke="rgb(76,76,76)" stroke-width="2"  stroke-linecap="round">
<line x1="159.8" y1="38.1" x2="177.7" y2="60.4" stroke="rgb(76,76,76)"  stroke-width="2.0"/>
<line x1="155.1" y1="41.9" x2="173.0" y2="64.2" stroke="rgb(76,76,76)"  stroke-width="2.0"/>
<line x1="250.0" y1="45.9" x2="227.0" y2="66.1" stroke="rgb(76,76,76)"  stroke-width="2.0"/>
<line x1="246.1" y1="41.4" x2="223.0" y2="61.6" stroke="rgb(76,76,76)"  stroke-width="2.0"/>
<line x1="175.3" y1="62.3" x2="225.0" y2="63.8" stroke="rgb(76,76,76)"  stroke-width="2.0"/>
<line x1="175.3" y1="62.3" x2="153.1" y2="86.1" stroke="rgb(76,76,76)"  stroke-width="2.0"/>
<line x1="225.0" y1="63.8" x2="240.0" y2="89.1" stroke="rgb(76,76,76)"  stroke-width="2.0"/>
<line x1="95.9" y1="111.1" x2="106.4" y2="86.8" stroke="rgb(76,76,76)"  stroke-width="2.0"/>
<line x1="300.9" y1="103.7" x2="286.5" y2="91.4" stroke="rgb(76,76,76)"  stroke-width="2.0"/>
<line x1="94.7" y1="55.3" x2="106.4" y2="86.8" stroke="rgb(76,76,76)"  stroke-width="2.0"/>
<line x1="106.4" y1="86.8" x2="153.1" y2="86.1" stroke="rgb(76,76,76)"  stroke-width="2.0"/>
<line x1="106.4" y1="86.8" x2="86.5" y2="96.9" stroke="rgb(76,76,76)"  stroke-width="2.0"/>
<line x1="153.1" y1="86.1" x2="168.5" y2="104.7" stroke="rgb(76,76,76)"  stroke-width="2.0"/>
<line x1="240.0" y1="89.1" x2="286.5" y2="91.4" stroke="rgb(76,76,76)"  stroke-width="2.0"/>
<line x1="286.5" y1="91.4" x2="300.0" y2="59.6" stroke="rgb(76,76,76)"  stroke-width="2.0"/>
<line x1="286.5" y1="91.4" x2="295.8" y2="112.7" stroke="rgb(76,76,76)"  stroke-width="2.0"/>
<line x1="86.5" y1="96.9" x2="92.5" y2="138.1" stroke="rgb(76,76,76)"  stroke-width="2.0"/>
<line x1="84.1" y1="98.6" x2="65.1" y2="72.8" stroke="rgb(76,76,76)"  stroke-width="2.0"/>
<line x1="88.9" y1="95.1" x2="70.0" y2="69.3" stroke="rgb(76,76,76)"  stroke-width="2.0"/>
<line x1="92.5" y1="138.1" x2="74.8" y2="151.7" stroke="rgb(76,76,76)"  stroke-width="2.0"/>
<line x1="74.8" y1="151.7" x2="40.0" y2="146.8" stroke="rgb(76,76,76)"  stroke-width="2.0"/>
<line x1="74.8" y1="151.7" x2="81.2" y2="185.7" stroke="rgb(76,76,76)"  stroke-width="2.0"/>
<line x1="74.8" y1="151.7" x2="89.0" y2="133.3" stroke="rgb(76,76,76)"  stroke-width="2.0"/>
<circle cx="157.427327" cy="40.000000" r="4.400000" opacity="1.000000" style="stroke:black;fill:url(#radialffffffffcc)"/>
<circle cx="248.047047" cy="43.612006" r="4.400000" opacity="1.000000" style="stroke:black;fill:url(#radialffffffffcc)"/>
<circle cx="175.345332" cy="62.311160" r="5.066667" opacity="1.000000" style="stroke:black;fill:url(#radialffffff666666)"/>
<circle cx="224.993473" cy="63.815356" r="5.066667" opacity="1.000000" style="stroke:black;fill:url(#radialffffff666666)"/>
<circle cx="95.887648" cy="111.090999" r="2.066667" opacity="1.000000" style="stroke:black;fill:url(#radialffffffbfbfbf)"/>
<circle cx="300.858518" cy="103.686225" r="2.066667" opacity="1.000000" style="stroke:black;fill:url(#radialffffffbfbfbf)"/>
<circle cx="94.690102" cy="55.303416" r="2.066667" opacity="1.000000" style="stroke:black;fill:url(#radialffffffbfbfbf)"/>
<circle cx="106.429929" cy="86.807600" r="5.066667" opacity="1.000000" style="stroke:black;fill:url(#radialffffff666666)"/>
<circle cx="153.105185" cy="86.094237" r="4.733333" opacity="1.000000" style="stroke:black;fill:url(#radialffffff0ccff)"/>
<circle cx="239.993467" cy="89.112312" r="4.400000" opacity="1.000000" style="stroke:black;fill:url(#radialffffffffcc)"/>
<circle cx="286.487962" cy="91.371833" r="5.066667" opacity="1.000000" style="stroke:black;fill:url(#radialffffff666666)"/>
<circle cx="300.016039" cy="59.586823" r="2.066667" opacity="1.000000" style="stroke:black;fill:url(#radialffffffbfbfbf)"/>
<circle cx="168.505438" cy="104.741744" r="2.066667" opacity="1.000000" style="stroke:black;fill:url(#radialffffffbfbfbf)"/>
<circle cx="295.758455" cy="112.659752" r="2.172826" opacity="1.000000" style="stroke:black;fill:url(#radialffffffbfbfbf)"/>
<circle cx="86.481583" cy="96.868926" r="5.644311" opacity="1.000000" style="stroke:black;fill:url(#radialffffff666666)"/>
<circle cx="92.478998" cy="138.069684" r="5.420676" opacity="1.000000" style="stroke:black;fill:url(#radialffffffffcc)"/>
<circle cx="67.553250" cy="71.049052" r="6.038924" opacity="1.000000" style="stroke:black;fill:url(#radialffffffffcc)"/>
<circle cx="74.777262" cy="151.659092" r="8.611088" opacity="1.000000" style="stroke:black;fill:url(#radialffffff666666)"/>
<circle cx="40.000000" cy="146.823716" r="3.530358" opacity="1.000000" style="stroke:black;fill:url(#radialffffffbfbfbf)"/>
<circle cx="81.216898" cy="185.713307" r="3.646209" opacity="1.000000" style="stroke:black;fill:url(#radialffffffbfbfbf)"/>
<circle cx="88.954145" cy="133.295639" r="4.133333" opacity="1.000000" style="stroke:black;fill:url(#radialffffffbfbfbf)"/>
</svg>
</g>
</svg>
