<?xml version="1.0"?>
<svg version="1.1" id="topsvg"
xmlns="http://www.w3.org/2000/svg" xmlns:xlink="http://www.w3.org/1999/xlink"
xmlns:cml="http://www.xml-cml.org/schema" x="0" y="0" width="200px" height="200px" viewBox="0 0 100 100">
<title>54 - Open Babel Depiction</title>
<defs>
<radialGradient id='radialffffff0ccff' cx='50%' cy='50%' r='50%' fx='30%' fy='30%'>
  <stop offset=' 0%' stop-color="rgb(255,255,255)"  stop-opacity='0.8'/>
  <stop offset='100%' stop-color="rgb(12,12,255)"  stop-opacity ='1.0'/>
</radialGradient>
<radialGradient id='radialffffff666666' cx='50%' cy='50%' r='50%' fx='30%' fy='30%'>
  <stop offset=' 0%' stop-color="rgb(255,255,255)"  stop-opacity='0.8'/>
  <stop offset='100%' stop-color="rgb(102,102,102)"  stop-opacity ='1.0'/>
</radialGradient>
<radialGradient id='radialffffffbfbfbf' cx='50%' cy='50%' r='50%' fx='30%' fy='30%'>
  <stop offset=' 0%' stop-color="rgb(255,255,255)"  stop-opacity='0.8'/>
  <stop offset='100%' stop-color="rgb(191,191,191)"  stop-opacity ='1.0'/>
</radialGradient>
<radialGradient id='radialffffffffcc' cx='50%' cy='50%' r='50%' fx='30%' fy='30%'>
  <stop offset=' 0%' stop-color="rgb(255,255,255)"  stop-opacity='0.8'/>
  <stop offset='100%' stop-color="rgb(255,12,12)"  stop-opacity ='1.0'/>
</radialGradient>
</defs>
<g transform="translate(0,0)">
<svg width="100" height="100" x="0" y="0" viewBox="0 0 326.806 275.205"
font-family="sans-serif" stroke="rgb(76,76,76)" stroke-width="2"  stroke-linecap="round">
<line x1="90.7" y1="231.2" x2="74.6" y2="215.9" stroke="rgb(76,76,76)"  stroke-width="2.0"/>
<line x1="40.0" y1="216.1" x2="74.6" y2="215.9" stroke="rgb(76,76,76)"  stroke-width="2.0"/>
<line x1="74.6" y1="215.9" x2="89.9" y2="172.2" stroke="rgb(76,76,76)"  stroke-width="2.0"/>
<line x1="74.6" y1="215.9" x2="80.6" y2="235.2" stroke="rgb(76,76,76)"  stroke-width="2.0"/>
<line x1="89.9" y1="172.2" x2="72.3" y2="150.2" stroke="rgb(76,76,76)"  stroke-width="2.0"/>
<line x1="81.6" y1="87.2" x2="91.0" y2="105.4" stroke="rgb(76,76,76)"  stroke-width="2.0"/>
<line x1="146.0" y1="38.6" x2="163.1" y2="70.2" stroke="rgb(76,76,76)"  stroke-width="2.0"/>
<line x1="140.7" y1="41.4" x2="157.8" y2="73.1" stroke="rgb(76,76,76)"  stroke-width="2.0"/>
<line x1="235.8" y1="46.9" x2="212.2" y2="75.7" stroke="rgb(76,76,76)"  stroke-width="2.0"/>
<line x1="231.2" y1="43.1" x2="207.6" y2="71.9" stroke="rgb(76,76,76)"  stroke-width="2.0"/>
<line x1="286.8" y1="111.5" x2="270.3" y2="113.1" stroke="rgb(76,76,76)"  stroke-width="2.0"/>
<line x1="160.5" y1="71.6" x2="209.9" y2="73.8" stroke="rgb(76,76,76)"  stroke-width="2.0"/>
<line x1="160.5" y1="71.6" x2="137.6" y2="105.3" stroke="rgb(76,76,76)"  stroke-width="2.0"/>
<line x1="209.9" y1="73.8" x2="224.0" y2="109.9" stroke="rgb(76,76,76)"  stroke-width="2.0"/>
<line x1="72.3" y1="150.2" x2="91.0" y2="105.4" stroke="rgb(76,76,76)"  stroke-width="2.0"/>
<line x1="73.7" y1="152.9" x2="46.3" y2="167.4" stroke="rgb(76,76,76)"  stroke-width="2.0"/>
<line x1="70.9" y1="147.6" x2="43.5" y2="162.1" stroke="rgb(76,76,76)"  stroke-width="2.0"/>
<line x1="91.0" y1="105.4" x2="137.6" y2="105.3" stroke="rgb(76,76,76)"  stroke-width="2.0"/>
<line x1="91.0" y1="105.4" x2="77.3" y2="88.8" stroke="rgb(76,76,76)"  stroke-width="2.0"/>
<line x1="137.6" y1="105.3" x2="152.3" y2="131.0" stroke="rgb(76,76,76)"  stroke-width="2.0"/>
<line x1="224.0" y1="109.9" x2="270.3" y2="113.1" stroke="rgb(76,76,76)"  stroke-width="2.0"/>
<line x1="270.3" y1="113.1" x2="278.8" y2="143.5" stroke="rgb(76,76,76)"  stroke-width="2.0"/>
<line x1="270.3" y1="113.1" x2="282.2" y2="86.9" stroke="rgb(76,76,76)"  stroke-width="2.0"/>
<circle cx="90.716953" cy="231.163402" r="2.066667" opacity="1.000000" style="stroke:black;fill:url(#radialffffffbfbfbf)"/>
<circle cx="40.000000" cy="216.127788" r="2.066667" opacity="1.000000" style="stroke:black;fill:url(#radialffffffbfbfbf)"/>
<circle cx="74.554798" cy="215.853416" r="5.066667" opacity="1.000000" style="stroke:black;fill:url(#radialffffff666666)"/>
<circle cx="89.945482" cy="172.153943" r="4.400000" opacity="1.000000" style="stroke:black;fill:url(#radialffffffffcc)"/>
<circle cx="81.565822" cy="87.204984" r="2.066667" opacity="1.000000" style="stroke:black;fill:url(#radialffffffbfbfbf)"/>
<circle cx="143.351285" cy="40.000000" r="4.400000" opacity="1.000000" style="stroke:black;fill:url(#radialffffffffcc)"/>
<circle cx="233.497182" cy="45.000036" r="4.400000" opacity="1.000000" style="stroke:black;fill:url(#radialffffffffcc)"/>
<circle cx="80.639412" cy="235.204748" r="2.146330" opacity="1.000000" style="stroke:black;fill:url(#radialffffffbfbfbf)"/>
<circle cx="286.806148" cy="111.514389" r="2.170403" opacity="1.000000" style="stroke:black;fill:url(#radialffffffbfbfbf)"/>
<circle cx="160.481814" cy="71.627081" r="5.419249" opacity="1.000000" style="stroke:black;fill:url(#radialffffff666666)"/>
<circle cx="209.894690" cy="73.796238" r="5.940366" opacity="1.000000" style="stroke:black;fill:url(#radialffffff666666)"/>
<circle cx="72.346906" cy="150.229965" r="6.173393" opacity="1.000000" style="stroke:black;fill:url(#radialffffff666666)"/>
<circle cx="91.004237" cy="105.381357" r="6.425282" opacity="1.000000" style="stroke:black;fill:url(#radialffffff666666)"/>
<circle cx="137.570095" cy="105.303887" r="6.312911" opacity="1.000000" style="stroke:black;fill:url(#radialffffff0ccff)"/>
<circle cx="224.036172" cy="109.877838" r="6.685200" opacity="1.000000" style="stroke:black;fill:url(#radialffffffffcc)"/>
<circle cx="152.289373" cy="131.023889" r="3.305178" opacity="1.000000" style="stroke:black;fill:url(#radialffffffbfbfbf)"/>
<circle cx="270.285695" cy="113.096066" r="8.237782" opacity="1.000000" style="stroke:black;fill:url(#radialffffff666666)"/>
<circle cx="44.887059" cy="164.726518" r="7.323999" opacity="1.000000" style="stroke:black;fill:url(#radialffffffffcc)"/>
<circle cx="77.250104" cy="88.786661" r="3.700891" opacity="1.000000" style="stroke:black;fill:url(#radialffffffbfbfbf)"/>
<circle cx="278.826750" cy="143.467490" r="3.953035" opacity="1.000000" style="stroke:black;fill:url(#radialffffffbfbfbf)"/>
<circle cx="282.196690" cy="86.885421" r="4.133333" opacity="1.000000" style="stroke:black;fill:url(#radialffffffbfbfbf)"/>
</svg>
</g>
</svg>
