<?xml version="1.0"?>
<svg version="1.1" id="topsvg"
xmlns="http://www.w3.org/2000/svg" xmlns:xlink="http://www.w3.org/1999/xlink"
xmlns:cml="http://www.xml-cml.org/schema" x="0" y="0" width="200px" height="200px" viewBox="0 0 100 100">
<title>95 - Open Babel Depiction</title>
<defs>
<radialGradient id='radialffffff0ccff' cx='50%' cy='50%' r='50%' fx='30%' fy='30%'>
  <stop offset=' 0%' stop-color="rgb(255,255,255)"  stop-opacity='0.8'/>
  <stop offset='100%' stop-color="rgb(12,12,255)"  stop-opacity ='1.0'/>
</radialGradient>
<radialGradient id='radialffffff666666' cx='50%' cy='50%' r='50%' fx='30%' fy='30%'>
  <stop offset=' 0%' stop-color="rgb(255,255,255)"  stop-opacity='0.8'/>
  <stop offset='100%' stop-color="rgb(102,102,102)"  stop-opacity ='1.0'/>
</radialGradient>
<radialGradient id='radialffffffbfbfbf' cx='50%' cy='50%' r='50%' fx='30%' fy='30%'>
  <stop offset=' 0%' stop-color="rgb(255,255,255)"  stop-opacity='0.8'/>
  <stop offset='100%' stop-color="rgb(191,191,191)"  stop-opacity ='1.0'/>
</radialGradient>
<radialGradient id='radialffffffffcc' cx='50%' cy='50%' r='50%' fx='30%' fy='30%'>
  <stop offset=' 0%' stop-color="rgb(255,255,255)"  stop-opacity='0.8'/>
  <stop offset='100%' stop-color="rgb(255,12,12)"  stop-opacity ='1.0'/>
</radialGradient>
</defs>
<g transform="translate(0,0)">
<svg width="100" height="100" x="0" y="0" viewBox="0 0 349.33 261.56"
font-family="sans-serif" stroke="rgb(76,76,76)" stroke-width="2"  stroke-linecap="round">
<line x1="115.6" y1="168.8" x2="118.6" y2="175.0" stroke="rgb(76,76,76)"  stroke-width="2.0"/>
<line x1="181.7" y1="147.0" x2="163.2" y2="169.9" stroke="rgb(76,76,76)"  stroke-width="2.0"/>
<line x1="118.6" y1="175.0" x2="108.7" y2="208.5" stroke="rgb(76,76,76)"  stroke-width="2.0"/>
<line x1="118.6" y1="175.0" x2="163.2" y2="169.9" stroke="rgb(76,76,76)"  stroke-width="2.0"/>
<line x1="118.6" y1="175.0" x2="88.5" y2="145.3" stroke="rgb(76,76,76)"  stroke-width="2.0"/>
<line x1="163.2" y1="169.9" x2="180.3" y2="193.7" stroke="rgb(76,76,76)"  stroke-width="2.0"/>
<line x1="99.9" y1="104.3" x2="88.5" y2="145.3" stroke="rgb(76,76,76)"  stroke-width="2.0"/>
<line x1="99.9" y1="104.3" x2="73.3" y2="72.5" stroke="rgb(76,76,76)"  stroke-width="2.0"/>
<line x1="89.6" y1="148.1" x2="59.0" y2="159.6" stroke="rgb(76,76,76)"  stroke-width="2.0"/>
<line x1="87.4" y1="142.5" x2="56.8" y2="154.0" stroke="rgb(76,76,76)"  stroke-width="2.0"/>
<line x1="40.0" y1="74.5" x2="73.3" y2="72.5" stroke="rgb(76,76,76)"  stroke-width="2.0"/>
<line x1="85.0" y1="40.0" x2="73.3" y2="72.5" stroke="rgb(76,76,76)"  stroke-width="2.0"/>
<line x1="250.7" y1="157.9" x2="230.3" y2="185.1" stroke="rgb(76,76,76)"  stroke-width="2.0"/>
<line x1="245.9" y1="154.3" x2="225.5" y2="181.5" stroke="rgb(76,76,76)"  stroke-width="2.0"/>
<line x1="73.3" y1="72.5" x2="73.6" y2="77.6" stroke="rgb(76,76,76)"  stroke-width="2.0"/>
<line x1="180.3" y1="193.7" x2="227.9" y2="183.3" stroke="rgb(76,76,76)"  stroke-width="2.0"/>
<line x1="182.7" y1="195.4" x2="162.7" y2="223.3" stroke="rgb(76,76,76)"  stroke-width="2.0"/>
<line x1="177.9" y1="191.9" x2="157.8" y2="219.8" stroke="rgb(76,76,76)"  stroke-width="2.0"/>
<line x1="227.9" y1="183.3" x2="243.7" y2="207.8" stroke="rgb(76,76,76)"  stroke-width="2.0"/>
<line x1="309.3" y1="206.2" x2="288.4" y2="200.3" stroke="rgb(76,76,76)"  stroke-width="2.0"/>
<line x1="243.7" y1="207.8" x2="288.4" y2="200.3" stroke="rgb(76,76,76)"  stroke-width="2.0"/>
<line x1="288.4" y1="200.3" x2="293.2" y2="167.1" stroke="rgb(76,76,76)"  stroke-width="2.0"/>
<line x1="288.4" y1="200.3" x2="298.5" y2="221.6" stroke="rgb(76,76,76)"  stroke-width="2.0"/>
<circle cx="115.619252" cy="168.801349" r="2.066667" opacity="1.000000" style="stroke:black;fill:url(#radialffffffbfbfbf)"/>
<circle cx="181.736051" cy="147.045477" r="2.066667" opacity="1.000000" style="stroke:black;fill:url(#radialffffffbfbfbf)"/>
<circle cx="118.563947" cy="175.023309" r="5.066667" opacity="1.000000" style="stroke:black;fill:url(#radialffffff666666)"/>
<circle cx="108.696636" cy="208.548275" r="2.066667" opacity="1.000000" style="stroke:black;fill:url(#radialffffffbfbfbf)"/>
<circle cx="163.228385" cy="169.883008" r="4.733333" opacity="1.000000" style="stroke:black;fill:url(#radialffffff0ccff)"/>
<circle cx="99.862551" cy="104.269907" r="4.400000" opacity="1.000000" style="stroke:black;fill:url(#radialffffffffcc)"/>
<circle cx="88.506748" cy="145.266390" r="5.066667" opacity="1.000000" style="stroke:black;fill:url(#radialffffff666666)"/>
<circle cx="40.000000" cy="74.493615" r="2.066667" opacity="1.000000" style="stroke:black;fill:url(#radialffffffbfbfbf)"/>
<circle cx="85.013151" cy="40.000000" r="2.066667" opacity="1.000000" style="stroke:black;fill:url(#radialffffffbfbfbf)"/>
<circle cx="248.304887" cy="156.128182" r="4.400000" opacity="1.000000" style="stroke:black;fill:url(#radialffffffffcc)"/>
<circle cx="73.279574" cy="72.482053" r="5.066667" opacity="1.000000" style="stroke:black;fill:url(#radialffffff666666)"/>
<circle cx="180.312136" cy="193.666587" r="5.081107" opacity="1.000000" style="stroke:black;fill:url(#radialffffff666666)"/>
<circle cx="57.903875" cy="156.812695" r="4.498788" opacity="1.000000" style="stroke:black;fill:url(#radialffffffffcc)"/>
<circle cx="227.908353" cy="183.340781" r="5.697364" opacity="1.000000" style="stroke:black;fill:url(#radialffffff666666)"/>
<circle cx="160.219113" cy="221.524952" r="5.528351" opacity="1.000000" style="stroke:black;fill:url(#radialffffffffcc)"/>
<circle cx="309.329817" cy="206.162168" r="2.724198" opacity="1.000000" style="stroke:black;fill:url(#radialffffffbfbfbf)"/>
<circle cx="73.576627" cy="77.551320" r="2.874544" opacity="1.000000" style="stroke:black;fill:url(#radialffffffbfbfbf)"/>
<circle cx="243.690885" cy="207.792728" r="6.717418" opacity="1.000000" style="stroke:black;fill:url(#radialffffffffcc)"/>
<circle cx="288.426357" cy="200.272777" r="8.455560" opacity="1.000000" style="stroke:black;fill:url(#radialffffff666666)"/>
<circle cx="293.230859" cy="167.090068" r="3.724331" opacity="1.000000" style="stroke:black;fill:url(#radialffffffbfbfbf)"/>
<circle cx="298.480941" cy="221.560469" r="4.133333" opacity="1.000000" style="stroke:black;fill:url(#radialffffffbfbfbf)"/>
</svg>
</g>
</svg>
