<?xml version="1.0"?>
<svg version="1.1" id="topsvg"
xmlns="http://www.w3.org/2000/svg" xmlns:xlink="http://www.w3.org/1999/xlink"
xmlns:cml="http://www.xml-cml.org/schema" x="0" y="0" width="200px" height="200px" viewBox="0 0 100 100">
<title>75 - Open Babel Depiction</title>
<defs>
<radialGradient id='radialffffff0ccff' cx='50%' cy='50%' r='50%' fx='30%' fy='30%'>
  <stop offset=' 0%' stop-color="rgb(255,255,255)"  stop-opacity='0.8'/>
  <stop offset='100%' stop-color="rgb(12,12,255)"  stop-opacity ='1.0'/>
</radialGradient>
<radialGradient id='radialffffff666666' cx='50%' cy='50%' r='50%' fx='30%' fy='30%'>
  <stop offset=' 0%' stop-color="rgb(255,255,255)"  stop-opacity='0.8'/>
  <stop offset='100%' stop-color="rgb(102,102,102)"  stop-opacity ='1.0'/>
</radialGradient>
<radialGradient id='radialffffffbfbfbf' cx='50%' cy='50%' r='50%' fx='30%' fy='30%'>
  <stop offset=' 0%' stop-color="rgb(255,255,255)"  stop-opacity='0.8'/>
  <stop offset='100%' stop-color="rgb(191,191,191)"  stop-opacity ='1.0'/>
</radialGradient>
<radialGradient id='radialffffffffcc' cx='50%' cy='50%' r='50%' fx='30%' fy='30%'>
  <stop offset=' 0%' stop-color="rgb(255,255,255)"  stop-opacity='0.8'/>
  <stop offset='100%' stop-color="rgb(255,12,12)"  stop-opacity ='1.0'/>
</radialGradient>
</defs>
<g transform="translate(0,0)">
<svg width="100" height="100" x="0" y="0" viewBox="0 0 319.831 180.201"
font-family="sans-serif" stroke="rgb(76,76,76)" stroke-width="2"  stroke-linecap="round">
<line x1="134.2" y1="65.1" x2="104.0" y2="69.8" stroke="rgb(76,76,76)"  stroke-width="2.0"/>
<line x1="81.5" y1="45.0" x2="104.0" y2="69.8" stroke="rgb(76,76,76)"  stroke-width="2.0"/>
<line x1="90.9" y1="101.1" x2="104.0" y2="69.8" stroke="rgb(76,76,76)"  stroke-width="2.0"/>
<line x1="104.0" y1="69.8" x2="110.9" y2="67.7" stroke="rgb(76,76,76)"  stroke-width="2.0"/>
<line x1="110.9" y1="67.7" x2="76.1" y2="73.0" stroke="rgb(76,76,76)"  stroke-width="2.0"/>
<line x1="39.5" y1="76.3" x2="75.5" y2="70.1" stroke="rgb(76,76,76)"  stroke-width="2.0"/>
<line x1="40.5" y1="82.2" x2="76.6" y2="76.0" stroke="rgb(76,76,76)"  stroke-width="2.0"/>
<line x1="76.1" y1="73.0" x2="87.3" y2="70.1" stroke="rgb(76,76,76)"  stroke-width="2.0"/>
<line x1="152.9" y1="50.3" x2="133.4" y2="70.9" stroke="rgb(76,76,76)"  stroke-width="2.0"/>
<line x1="87.3" y1="70.1" x2="133.4" y2="70.9" stroke="rgb(76,76,76)"  stroke-width="2.0"/>
<line x1="87.3" y1="70.1" x2="74.0" y2="40.0" stroke="rgb(76,76,76)"  stroke-width="2.0"/>
<line x1="87.3" y1="70.1" x2="71.9" y2="96.9" stroke="rgb(76,76,76)"  stroke-width="2.0"/>
<line x1="133.4" y1="70.9" x2="151.1" y2="97.1" stroke="rgb(76,76,76)"  stroke-width="2.0"/>
<line x1="223.7" y1="69.5" x2="202.7" y2="94.5" stroke="rgb(76,76,76)"  stroke-width="2.0"/>
<line x1="219.1" y1="65.6" x2="198.1" y2="90.7" stroke="rgb(76,76,76)"  stroke-width="2.0"/>
<line x1="151.1" y1="97.1" x2="200.4" y2="92.6" stroke="rgb(76,76,76)"  stroke-width="2.0"/>
<line x1="153.5" y1="99.0" x2="133.0" y2="124.7" stroke="rgb(76,76,76)"  stroke-width="2.0"/>
<line x1="148.8" y1="95.3" x2="128.3" y2="121.0" stroke="rgb(76,76,76)"  stroke-width="2.0"/>
<line x1="200.4" y1="92.6" x2="216.9" y2="119.4" stroke="rgb(76,76,76)"  stroke-width="2.0"/>
<line x1="279.8" y1="124.9" x2="263.2" y2="117.3" stroke="rgb(76,76,76)"  stroke-width="2.0"/>
<line x1="216.9" y1="119.4" x2="263.2" y2="117.3" stroke="rgb(76,76,76)"  stroke-width="2.0"/>
<line x1="263.2" y1="117.3" x2="273.1" y2="85.1" stroke="rgb(76,76,76)"  stroke-width="2.0"/>
<line x1="263.2" y1="117.3" x2="273.8" y2="140.2" stroke="rgb(76,76,76)"  stroke-width="2.0"/>
<circle cx="134.215440" cy="65.104316" r="2.066667" opacity="1.000000" style="stroke:black;fill:url(#radialffffffbfbfbf)"/>
<circle cx="81.462800" cy="44.968563" r="2.066667" opacity="1.000000" style="stroke:black;fill:url(#radialffffffbfbfbf)"/>
<circle cx="90.880147" cy="101.059405" r="2.066667" opacity="1.000000" style="stroke:black;fill:url(#radialffffffbfbfbf)"/>
<circle cx="104.013423" cy="69.817832" r="5.066667" opacity="1.000000" style="stroke:black;fill:url(#radialffffff666666)"/>
<circle cx="110.880306" cy="67.716121" r="4.400000" opacity="1.000000" style="stroke:black;fill:url(#radialffffffffcc)"/>
<circle cx="40.000000" cy="79.241636" r="4.400000" opacity="1.000000" style="stroke:black;fill:url(#radialffffffffcc)"/>
<circle cx="76.055170" cy="73.013984" r="5.066667" opacity="1.000000" style="stroke:black;fill:url(#radialffffff666666)"/>
<circle cx="152.901626" cy="50.343908" r="2.217314" opacity="1.000000" style="stroke:black;fill:url(#radialffffffbfbfbf)"/>
<circle cx="87.338553" cy="70.059965" r="5.819914" opacity="1.000000" style="stroke:black;fill:url(#radialffffff666666)"/>
<circle cx="133.414788" cy="70.867074" r="5.755315" opacity="1.000000" style="stroke:black;fill:url(#radialffffff0ccff)"/>
<circle cx="73.982514" cy="40.000000" r="2.604360" opacity="1.000000" style="stroke:black;fill:url(#radialffffffbfbfbf)"/>
<circle cx="71.861432" cy="96.933464" r="2.673903" opacity="1.000000" style="stroke:black;fill:url(#radialffffffbfbfbf)"/>
<circle cx="221.373519" cy="67.545014" r="5.778137" opacity="1.000000" style="stroke:black;fill:url(#radialffffffffcc)"/>
<circle cx="151.122758" cy="97.136855" r="7.416169" opacity="1.000000" style="stroke:black;fill:url(#radialffffff666666)"/>
<circle cx="200.408057" cy="92.594446" r="7.574016" opacity="1.000000" style="stroke:black;fill:url(#radialffffff666666)"/>
<circle cx="279.830804" cy="124.891717" r="3.177194" opacity="1.000000" style="stroke:black;fill:url(#radialffffffbfbfbf)"/>
<circle cx="130.673846" cy="122.877173" r="7.274287" opacity="1.000000" style="stroke:black;fill:url(#radialffffffffcc)"/>
<circle cx="216.924734" cy="119.364635" r="7.673574" opacity="1.000000" style="stroke:black;fill:url(#radialffffffffcc)"/>
<circle cx="263.246330" cy="117.298436" r="9.081205" opacity="1.000000" style="stroke:black;fill:url(#radialffffff666666)"/>
<circle cx="273.115658" cy="85.143217" r="3.881971" opacity="1.000000" style="stroke:black;fill:url(#radialffffffbfbfbf)"/>
<circle cx="273.816229" cy="140.200959" r="4.133333" opacity="1.000000" style="stroke:black;fill:url(#radialffffffbfbfbf)"/>
</svg>
</g>
</svg>
