<?xml version="1.0"?>
<svg version="1.1" id="topsvg"
xmlns="http://www.w3.org/2000/svg" xmlns:xlink="http://www.w3.org/1999/xlink"
xmlns:cml="http://www.xml-cml.org/schema" x="0" y="0" width="200px" height="200px" viewBox="0 0 100 100">
<title>60 - Open Babel Depiction</title>
<defs>
<radialGradient id='radialffffff0ccff' cx='50%' cy='50%' r='50%' fx='30%' fy='30%'>
  <stop offset=' 0%' stop-color="rgb(255,255,255)"  stop-opacity='0.8'/>
  <stop offset='100%' stop-color="rgb(12,12,255)"  stop-opacity ='1.0'/>
</radialGradient>
<radialGradient id='radialffffff666666' cx='50%' cy='50%' r='50%' fx='30%' fy='30%'>
  <stop offset=' 0%' stop-color="rgb(255,255,255)"  stop-opacity='0.8'/>
  <stop offset='100%' stop-color="rgb(102,102,102)"  stop-opacity ='1.0'/>
</radialGradient>
<radialGradient id='radialffffffbfbfbf' cx='50%' cy='50%' r='50%' fx='30%' fy='30%'>
  <stop offset=' 0%' stop-color="rgb(255,255,255)"  stop-opacity='0.8'/>
  <stop offset='100%' stop-color="rgb(191,191,191)"  stop-opacity ='1.0'/>
</radialGradient>
<radialGradient id='radialffffffffcc' cx='50%' cy='50%' r='50%' fx='30%' fy='30%'>
  <stop offset=' 0%' stop-color="rgb(255,255,255)"  stop-opacity='0.8'/>
  <stop offset='100%' stop-color="rgb(255,12,12)"  stop-opacity ='1.0'/>
</radialGradient>
</defs>
<g transform="translate(0,0)">
<svg width="100" height="100" x="0" y="0" viewBox="0 0 350.175 170.093"
font-family="sans-serif" stroke="rgb(76,76,76)" stroke-width="2"  stroke-linecap="round">
<line x1="91.9" y1="99.9" x2="64.7" y2="93.4" stroke="rgb(76,76,76)"  stroke-width="2.0"/>
<line x1="51.5" y1="62.0" x2="64.7" y2="93.4" stroke="rgb(76,76,76)"  stroke-width="2.0"/>
<line x1="40.0" y1="117.7" x2="64.7" y2="93.4" stroke="rgb(76,76,76)"  stroke-width="2.0"/>
<line x1="64.7" y1="93.4" x2="78.1" y2="94.2" stroke="rgb(76,76,76)"  stroke-width="2.0"/>
<line x1="126.9" y1="41.6" x2="110.8" y2="67.4" stroke="rgb(76,76,76)"  stroke-width="2.0"/>
<line x1="121.8" y1="38.4" x2="105.7" y2="64.2" stroke="rgb(76,76,76)"  stroke-width="2.0"/>
<line x1="78.1" y1="94.2" x2="108.2" y2="65.8" stroke="rgb(76,76,76)"  stroke-width="2.0"/>
<line x1="108.2" y1="65.8" x2="119.3" y2="69.9" stroke="rgb(76,76,76)"  stroke-width="2.0"/>
<line x1="185.2" y1="52.3" x2="165.4" y2="70.3" stroke="rgb(76,76,76)"  stroke-width="2.0"/>
<line x1="119.3" y1="69.9" x2="165.4" y2="70.3" stroke="rgb(76,76,76)"  stroke-width="2.0"/>
<line x1="119.3" y1="69.9" x2="105.1" y2="99.8" stroke="rgb(76,76,76)"  stroke-width="2.0"/>
<line x1="119.3" y1="69.9" x2="104.8" y2="42.8" stroke="rgb(76,76,76)"  stroke-width="2.0"/>
<line x1="165.4" y1="70.3" x2="182.3" y2="93.0" stroke="rgb(76,76,76)"  stroke-width="2.0"/>
<line x1="255.5" y1="69.8" x2="233.7" y2="91.3" stroke="rgb(76,76,76)"  stroke-width="2.0"/>
<line x1="251.3" y1="65.5" x2="229.5" y2="87.0" stroke="rgb(76,76,76)"  stroke-width="2.0"/>
<line x1="182.3" y1="93.0" x2="231.6" y2="89.2" stroke="rgb(76,76,76)"  stroke-width="2.0"/>
<line x1="184.4" y1="95.1" x2="162.9" y2="117.3" stroke="rgb(76,76,76)"  stroke-width="2.0"/>
<line x1="180.1" y1="90.9" x2="158.6" y2="113.1" stroke="rgb(76,76,76)"  stroke-width="2.0"/>
<line x1="231.6" y1="89.2" x2="247.2" y2="112.2" stroke="rgb(76,76,76)"  stroke-width="2.0"/>
<line x1="310.2" y1="122.4" x2="293.5" y2="110.5" stroke="rgb(76,76,76)"  stroke-width="2.0"/>
<line x1="247.2" y1="112.2" x2="293.5" y2="110.5" stroke="rgb(76,76,76)"  stroke-width="2.0"/>
<line x1="293.5" y1="110.5" x2="304.1" y2="77.5" stroke="rgb(76,76,76)"  stroke-width="2.0"/>
<line x1="293.5" y1="110.5" x2="303.3" y2="130.1" stroke="rgb(76,76,76)"  stroke-width="2.0"/>
<circle cx="91.881946" cy="99.938049" r="2.066667" opacity="1.000000" style="stroke:black;fill:url(#radialffffffbfbfbf)"/>
<circle cx="51.452904" cy="61.988801" r="2.066667" opacity="1.000000" style="stroke:black;fill:url(#radialffffffbfbfbf)"/>
<circle cx="40.000000" cy="117.667932" r="2.066667" opacity="1.000000" style="stroke:black;fill:url(#radialffffffbfbfbf)"/>
<circle cx="64.678474" cy="93.405987" r="5.066667" opacity="1.000000" style="stroke:black;fill:url(#radialffffff666666)"/>
<circle cx="124.387271" cy="40.000000" r="4.400000" opacity="1.000000" style="stroke:black;fill:url(#radialffffffffcc)"/>
<circle cx="78.075175" cy="94.197067" r="4.400000" opacity="1.000000" style="stroke:black;fill:url(#radialffffffffcc)"/>
<circle cx="108.246006" cy="65.779528" r="5.066667" opacity="1.000000" style="stroke:black;fill:url(#radialffffff666666)"/>
<circle cx="185.184207" cy="52.305333" r="2.066667" opacity="1.000000" style="stroke:black;fill:url(#radialffffffbfbfbf)"/>
<circle cx="119.321129" cy="69.870543" r="5.373883" opacity="1.000000" style="stroke:black;fill:url(#radialffffff666666)"/>
<circle cx="165.371684" cy="70.335504" r="5.335568" opacity="1.000000" style="stroke:black;fill:url(#radialffffff0ccff)"/>
<circle cx="105.139805" cy="99.757231" r="2.415110" opacity="1.000000" style="stroke:black;fill:url(#radialffffffbfbfbf)"/>
<circle cx="104.849204" cy="42.799455" r="2.503508" opacity="1.000000" style="stroke:black;fill:url(#radialffffffbfbfbf)"/>
<circle cx="253.430213" cy="67.665205" r="5.407004" opacity="1.000000" style="stroke:black;fill:url(#radialffffffffcc)"/>
<circle cx="182.281427" cy="93.002374" r="7.113079" opacity="1.000000" style="stroke:black;fill:url(#radialffffff666666)"/>
<circle cx="231.631917" cy="89.166442" r="7.273561" opacity="1.000000" style="stroke:black;fill:url(#radialffffff666666)"/>
<circle cx="310.174881" cy="122.430558" r="3.146775" opacity="1.000000" style="stroke:black;fill:url(#radialffffffbfbfbf)"/>
<circle cx="160.783418" cy="115.165536" r="7.115378" opacity="1.000000" style="stroke:black;fill:url(#radialffffffffcc)"/>
<circle cx="247.211353" cy="112.185262" r="7.548380" opacity="1.000000" style="stroke:black;fill:url(#radialffffffffcc)"/>
<circle cx="293.529907" cy="110.457801" r="8.947588" opacity="1.000000" style="stroke:black;fill:url(#radialffffff666666)"/>
<circle cx="304.117466" cy="77.468142" r="3.752018" opacity="1.000000" style="stroke:black;fill:url(#radialffffffbfbfbf)"/>
<circle cx="303.319928" cy="130.092735" r="4.133333" opacity="1.000000" style="stroke:black;fill:url(#radialffffffbfbfbf)"/>
</svg>
</g>
</svg>
