<?xml version="1.0"?>
<svg version="1.1" id="topsvg"
xmlns="http://www.w3.org/2000/svg" xmlns:xlink="http://www.w3.org/1999/xlink"
xmlns:cml="http://www.xml-cml.org/schema" x="0" y="0" width="200px" height="200px" viewBox="0 0 100 100">
<title>83 - Open Babel Depiction</title>
<defs>
<radialGradient id='radialffffff0ccff' cx='50%' cy='50%' r='50%' fx='30%' fy='30%'>
  <stop offset=' 0%' stop-color="rgb(255,255,255)"  stop-opacity='0.8'/>
  <stop offset='100%' stop-color="rgb(12,12,255)"  stop-opacity ='1.0'/>
</radialGradient>
<radialGradient id='radialffffff666666' cx='50%' cy='50%' r='50%' fx='30%' fy='30%'>
  <stop offset=' 0%' stop-color="rgb(255,255,255)"  stop-opacity='0.8'/>
  <stop offset='100%' stop-color="rgb(102,102,102)"  stop-opacity ='1.0'/>
</radialGradient>
<radialGradient id='radialffffffbfbfbf' cx='50%' cy='50%' r='50%' fx='30%' fy='30%'>
  <stop offset=' 0%' stop-color="rgb(255,255,255)"  stop-opacity='0.8'/>
  <stop offset='100%' stop-color="rgb(191,191,191)"  stop-opacity ='1.0'/>
</radialGradient>
<radialGradient id='radialffffffffcc' cx='50%' cy='50%' r='50%' fx='30%' fy='30%'>
  <stop offset=' 0%' stop-color="rgb(255,255,255)"  stop-opacity='0.8'/>
  <stop offset='100%' stop-color="rgb(255,12,12)"  stop-opacity ='1.0'/>
</radialGradient>
</defs>
<g transform="translate(0,0)">
<svg width="100" height="100" x="0" y="0" viewBox="0 0 398.345 195.06"
font-family="sans-serif" stroke="rgb(76,76,76)" stroke-width="2"  stroke-linecap="round">
<line x1="212.7" y1="81.9" x2="231.0" y2="93.0" stroke="rgb(76,76,76)"  stroke-width="2.0"/>
<line x1="209.6" y1="87.0" x2="227.9" y2="98.1" stroke="rgb(76,76,76)"  stroke-width="2.0"/>
<line x1="40.0" y1="79.3" x2="67.1" y2="69.6" stroke="rgb(76,76,76)"  stroke-width="2.0"/>
<line x1="299.6" y1="63.5" x2="278.9" y2="84.8" stroke="rgb(76,76,76)"  stroke-width="2.0"/>
<line x1="295.3" y1="59.3" x2="274.6" y2="80.6" stroke="rgb(76,76,76)"  stroke-width="2.0"/>
<line x1="80.5" y1="40.0" x2="67.1" y2="69.6" stroke="rgb(76,76,76)"  stroke-width="2.0"/>
<line x1="162.0" y1="149.2" x2="165.2" y2="132.3" stroke="rgb(76,76,76)"  stroke-width="2.0"/>
<line x1="229.5" y1="95.6" x2="276.7" y2="82.7" stroke="rgb(76,76,76)"  stroke-width="2.0"/>
<line x1="229.5" y1="95.6" x2="209.7" y2="119.1" stroke="rgb(76,76,76)"  stroke-width="2.0"/>
<line x1="67.1" y1="69.6" x2="99.5" y2="103.2" stroke="rgb(76,76,76)"  stroke-width="2.0"/>
<line x1="67.1" y1="69.6" x2="54.9" y2="62.5" stroke="rgb(76,76,76)"  stroke-width="2.0"/>
<line x1="99.5" y1="103.2" x2="134.2" y2="94.8" stroke="rgb(76,76,76)"  stroke-width="2.0"/>
<line x1="276.7" y1="82.7" x2="292.5" y2="97.0" stroke="rgb(76,76,76)"  stroke-width="2.0"/>
<line x1="165.2" y1="132.3" x2="134.2" y2="94.8" stroke="rgb(76,76,76)"  stroke-width="2.0"/>
<line x1="165.2" y1="132.3" x2="209.7" y2="119.1" stroke="rgb(76,76,76)"  stroke-width="2.0"/>
<line x1="165.2" y1="132.3" x2="156.5" y2="155.1" stroke="rgb(76,76,76)"  stroke-width="2.0"/>
<line x1="131.2" y1="94.3" x2="136.7" y2="60.9" stroke="rgb(76,76,76)"  stroke-width="2.0"/>
<line x1="137.1" y1="95.3" x2="142.6" y2="61.9" stroke="rgb(76,76,76)"  stroke-width="2.0"/>
<line x1="209.7" y1="119.1" x2="225.3" y2="128.0" stroke="rgb(76,76,76)"  stroke-width="2.0"/>
<line x1="358.3" y1="98.2" x2="336.8" y2="85.5" stroke="rgb(76,76,76)"  stroke-width="2.0"/>
<line x1="292.5" y1="97.0" x2="336.8" y2="85.5" stroke="rgb(76,76,76)"  stroke-width="2.0"/>
<line x1="336.8" y1="85.5" x2="340.7" y2="50.6" stroke="rgb(76,76,76)"  stroke-width="2.0"/>
<line x1="336.8" y1="85.5" x2="346.9" y2="98.5" stroke="rgb(76,76,76)"  stroke-width="2.0"/>
<circle cx="211.148295" cy="84.419601" r="4.400000" opacity="1.000000" style="stroke:black;fill:url(#radialffffffffcc)"/>
<circle cx="40.000000" cy="79.335605" r="2.066667" opacity="1.000000" style="stroke:black;fill:url(#radialffffffbfbfbf)"/>
<circle cx="297.489077" cy="61.365696" r="4.400000" opacity="1.000000" style="stroke:black;fill:url(#radialffffffffcc)"/>
<circle cx="80.523485" cy="40.000000" r="2.066667" opacity="1.000000" style="stroke:black;fill:url(#radialffffffbfbfbf)"/>
<circle cx="161.980403" cy="149.194555" r="2.066667" opacity="1.000000" style="stroke:black;fill:url(#radialffffffbfbfbf)"/>
<circle cx="229.450682" cy="95.588254" r="5.066667" opacity="1.000000" style="stroke:black;fill:url(#radialffffff666666)"/>
<circle cx="67.085595" cy="69.574332" r="5.066667" opacity="1.000000" style="stroke:black;fill:url(#radialffffff666666)"/>
<circle cx="99.455319" cy="103.209406" r="4.400000" opacity="1.000000" style="stroke:black;fill:url(#radialffffffffcc)"/>
<circle cx="276.743144" cy="82.686201" r="5.066667" opacity="1.000000" style="stroke:black;fill:url(#radialffffff666666)"/>
<circle cx="165.198653" cy="132.260813" r="5.066667" opacity="1.000000" style="stroke:black;fill:url(#radialffffff666666)"/>
<circle cx="134.174978" cy="94.797410" r="5.066667" opacity="1.000000" style="stroke:black;fill:url(#radialffffff666666)"/>
<circle cx="209.656990" cy="119.139261" r="5.037939" opacity="1.000000" style="stroke:black;fill:url(#radialffffff0ccff)"/>
<circle cx="358.345319" cy="98.202880" r="2.208809" opacity="1.000000" style="stroke:black;fill:url(#radialffffffbfbfbf)"/>
<circle cx="54.851725" cy="62.505157" r="2.268699" opacity="1.000000" style="stroke:black;fill:url(#radialffffffbfbfbf)"/>
<circle cx="139.681834" cy="61.394747" r="5.791317" opacity="1.000000" style="stroke:black;fill:url(#radialffffffffcc)"/>
<circle cx="292.476095" cy="97.008545" r="5.840468" opacity="1.000000" style="stroke:black;fill:url(#radialffffffffcc)"/>
<circle cx="156.521966" cy="155.059712" r="2.891359" opacity="1.000000" style="stroke:black;fill:url(#radialffffffbfbfbf)"/>
<circle cx="336.808543" cy="85.513871" r="7.504644" opacity="1.000000" style="stroke:black;fill:url(#radialffffff666666)"/>
<circle cx="340.682063" cy="50.623131" r="3.095678" opacity="1.000000" style="stroke:black;fill:url(#radialffffffbfbfbf)"/>
<circle cx="225.270507" cy="127.951521" r="3.152669" opacity="1.000000" style="stroke:black;fill:url(#radialffffffbfbfbf)"/>
<circle cx="346.857101" cy="98.525674" r="4.133333" opacity="1.000000" style="stroke:black;fill:url(#radialffffffbfbfbf)"/>
</svg>
</g>
</svg>
