<?xml version="1.0"?>
<svg version="1.1" id="topsvg"
xmlns="http://www.w3.org/2000/svg" xmlns:xlink="http://www.w3.org/1999/xlink"
xmlns:cml="http://www.xml-cml.org/schema" x="0" y="0" width="200px" height="200px" viewBox="0 0 100 100">
<title>96 - Open Babel Depiction</title>
<defs>
<radialGradient id='radialffffff0ccff' cx='50%' cy='50%' r='50%' fx='30%' fy='30%'>
  <stop offset=' 0%' stop-color="rgb(255,255,255)"  stop-opacity='0.8'/>
  <stop offset='100%' stop-color="rgb(12,12,255)"  stop-opacity ='1.0'/>
</radialGradient>
<radialGradient id='radialffffff666666' cx='50%' cy='50%' r='50%' fx='30%' fy='30%'>
  <stop offset=' 0%' stop-color="rgb(255,255,255)"  stop-opacity='0.8'/>
  <stop offset='100%' stop-color="rgb(102,102,102)"  stop-opacity ='1.0'/>
</radialGradient>
<radialGradient id='radialffffffbfbfbf' cx='50%' cy='50%' r='50%' fx='30%' fy='30%'>
  <stop offset=' 0%' stop-color="rgb(255,255,255)"  stop-opacity='0.8'/>
  <stop offset='100%' stop-color="rgb(191,191,191)"  stop-opacity ='1.0'/>
</radialGradient>
<radialGradient id='radialffffffffcc' cx='50%' cy='50%' r='50%' fx='30%' fy='30%'>
  <stop offset=' 0%' stop-color="rgb(255,255,255)"  stop-opacity='0.8'/>
  <stop offset='100%' stop-color="rgb(255,12,12)"  stop-opacity ='1.0'/>
</radialGradient>
</defs>
<g transform="translate(0,0)">
<svg width="100" height="100" x="0" y="0" viewBox="0 0 371.446 255.641"
font-family="sans-serif" stroke="rgb(76,76,76)" stroke-width="2"  stroke-linecap="round">
<line x1="133.2" y1="169.7" x2="132.7" y2="157.7" stroke="rgb(76,76,76)"  stroke-width="2.0"/>
<line x1="88.5" y1="99.4" x2="105.9" y2="116.5" stroke="rgb(76,76,76)"  stroke-width="2.0"/>
<line x1="84.3" y1="103.7" x2="101.8" y2="120.8" stroke="rgb(76,76,76)"  stroke-width="2.0"/>
<line x1="132.7" y1="157.7" x2="103.8" y2="118.6" stroke="rgb(76,76,76)"  stroke-width="2.0"/>
<line x1="132.7" y1="157.7" x2="176.5" y2="148.9" stroke="rgb(76,76,76)"  stroke-width="2.0"/>
<line x1="132.7" y1="157.7" x2="119.2" y2="183.3" stroke="rgb(76,76,76)"  stroke-width="2.0"/>
<line x1="103.8" y1="118.6" x2="99.9" y2="105.0" stroke="rgb(76,76,76)"  stroke-width="2.0"/>
<line x1="189.7" y1="119.3" x2="176.5" y2="148.9" stroke="rgb(76,76,76)"  stroke-width="2.0"/>
<line x1="176.5" y1="148.9" x2="200.3" y2="179.1" stroke="rgb(76,76,76)"  stroke-width="2.0"/>
<line x1="85.1" y1="40.0" x2="72.8" y2="67.6" stroke="rgb(76,76,76)"  stroke-width="2.0"/>
<line x1="203.1" y1="180.1" x2="190.0" y2="216.7" stroke="rgb(76,76,76)"  stroke-width="2.0"/>
<line x1="197.5" y1="178.0" x2="184.3" y2="214.6" stroke="rgb(76,76,76)"  stroke-width="2.0"/>
<line x1="200.3" y1="179.1" x2="246.3" y2="164.3" stroke="rgb(76,76,76)"  stroke-width="2.0"/>
<line x1="262.7" y1="129.6" x2="249.1" y2="165.3" stroke="rgb(76,76,76)"  stroke-width="2.0"/>
<line x1="257.1" y1="127.4" x2="243.5" y2="163.2" stroke="rgb(76,76,76)"  stroke-width="2.0"/>
<line x1="40.0" y1="73.9" x2="72.8" y2="67.6" stroke="rgb(76,76,76)"  stroke-width="2.0"/>
<line x1="99.9" y1="105.0" x2="72.8" y2="67.6" stroke="rgb(76,76,76)"  stroke-width="2.0"/>
<line x1="246.3" y1="164.3" x2="268.9" y2="195.4" stroke="rgb(76,76,76)"  stroke-width="2.0"/>
<line x1="331.4" y1="175.3" x2="312.7" y2="184.4" stroke="rgb(76,76,76)"  stroke-width="2.0"/>
<line x1="72.8" y1="67.6" x2="71.6" y2="58.8" stroke="rgb(76,76,76)"  stroke-width="2.0"/>
<line x1="268.9" y1="195.4" x2="312.7" y2="184.4" stroke="rgb(76,76,76)"  stroke-width="2.0"/>
<line x1="312.7" y1="184.4" x2="328.6" y2="211.6" stroke="rgb(76,76,76)"  stroke-width="2.0"/>
<line x1="312.7" y1="184.4" x2="313.0" y2="157.3" stroke="rgb(76,76,76)"  stroke-width="2.0"/>
<circle cx="133.190157" cy="169.708093" r="2.066667" opacity="1.000000" style="stroke:black;fill:url(#radialffffffbfbfbf)"/>
<circle cx="86.359375" cy="101.560652" r="4.400000" opacity="1.000000" style="stroke:black;fill:url(#radialffffffffcc)"/>
<circle cx="132.731665" cy="157.725948" r="5.066667" opacity="1.000000" style="stroke:black;fill:url(#radialffffff666666)"/>
<circle cx="103.846655" cy="118.637872" r="5.066667" opacity="1.000000" style="stroke:black;fill:url(#radialffffff666666)"/>
<circle cx="189.736454" cy="119.348212" r="2.066667" opacity="1.000000" style="stroke:black;fill:url(#radialffffffbfbfbf)"/>
<circle cx="176.527358" cy="148.888672" r="4.733333" opacity="1.000000" style="stroke:black;fill:url(#radialffffff0ccff)"/>
<circle cx="119.222288" cy="183.320791" r="2.066667" opacity="1.000000" style="stroke:black;fill:url(#radialffffffbfbfbf)"/>
<circle cx="85.135653" cy="40.000000" r="2.066667" opacity="1.000000" style="stroke:black;fill:url(#radialffffffbfbfbf)"/>
<circle cx="200.314063" cy="179.058751" r="5.109430" opacity="1.000000" style="stroke:black;fill:url(#radialffffff666666)"/>
<circle cx="259.943881" cy="128.508370" r="4.699033" opacity="1.000000" style="stroke:black;fill:url(#radialffffffffcc)"/>
<circle cx="40.000000" cy="73.909051" r="2.259044" opacity="1.000000" style="stroke:black;fill:url(#radialffffffbfbfbf)"/>
<circle cx="187.137255" cy="215.641264" r="4.981873" opacity="1.000000" style="stroke:black;fill:url(#radialffffffffcc)"/>
<circle cx="99.933327" cy="105.044547" r="5.098896" opacity="1.000000" style="stroke:black;fill:url(#radialffffffffcc)"/>
<circle cx="246.273064" cy="164.277220" r="5.998999" opacity="1.000000" style="stroke:black;fill:url(#radialffffff666666)"/>
<circle cx="331.446065" cy="175.335924" r="2.540360" opacity="1.000000" style="stroke:black;fill:url(#radialffffffbfbfbf)"/>
<circle cx="72.804795" cy="67.567652" r="6.373672" opacity="1.000000" style="stroke:black;fill:url(#radialffffff666666)"/>
<circle cx="268.884479" cy="195.406259" r="6.495392" opacity="1.000000" style="stroke:black;fill:url(#radialffffffffcc)"/>
<circle cx="312.667257" cy="184.366929" r="8.405659" opacity="1.000000" style="stroke:black;fill:url(#radialffffff666666)"/>
<circle cx="71.590759" cy="58.836927" r="3.667854" opacity="1.000000" style="stroke:black;fill:url(#radialffffffbfbfbf)"/>
<circle cx="328.578874" cy="211.608470" r="3.914081" opacity="1.000000" style="stroke:black;fill:url(#radialffffffbfbfbf)"/>
<circle cx="312.980452" cy="157.338490" r="4.133333" opacity="1.000000" style="stroke:black;fill:url(#radialffffffbfbfbf)"/>
</svg>
</g>
</svg>
