<?xml version="1.0"?>
<svg version="1.1" id="topsvg"
xmlns="http://www.w3.org/2000/svg" xmlns:xlink="http://www.w3.org/1999/xlink"
xmlns:cml="http://www.xml-cml.org/schema" x="0" y="0" width="200px" height="200px" viewBox="0 0 100 100">
<title>81 - Open Babel Depiction</title>
<defs>
<radialGradient id='radialffffff0ccff' cx='50%' cy='50%' r='50%' fx='30%' fy='30%'>
  <stop offset=' 0%' stop-color="rgb(255,255,255)"  stop-opacity='0.8'/>
  <stop offset='100%' stop-color="rgb(12,12,255)"  stop-opacity ='1.0'/>
</radialGradient>
<radialGradient id='radialffffff666666' cx='50%' cy='50%' r='50%' fx='30%' fy='30%'>
  <stop offset=' 0%' stop-color="rgb(255,255,255)"  stop-opacity='0.8'/>
  <stop offset='100%' stop-color="rgb(102,102,102)"  stop-opacity ='1.0'/>
</radialGradient>
<radialGradient id='radialffffffbfbfbf' cx='50%' cy='50%' r='50%' fx='30%' fy='30%'>
  <stop offset=' 0%' stop-color="rgb(255,255,255)"  stop-opacity='0.8'/>
  <stop offset='100%' stop-color="rgb(191,191,191)"  stop-opacity ='1.0'/>
</radialGradient>
<radialGradient id='radialffffffffcc' cx='50%' cy='50%' r='50%' fx='30%' fy='30%'>
  <stop offset=' 0%' stop-color="rgb(255,255,255)"  stop-opacity='0.8'/>
  <stop offset='100%' stop-color="rgb(255,12,12)"  stop-opacity ='1.0'/>
</radialGradient>
</defs>
<g transform="translate(0,0)">
<svg width="100" height="100" x="0" y="0" viewBox="0 0 356.784 212.75"
font-family="sans-serif" stroke="rgb(76,76,76)" stroke-width="2"  stroke-linecap="round">
<line x1="259.0" y1="98.5" x2="238.3" y2="118.0" stroke="rgb(76,76,76)"  stroke-width="2.0"/>
<line x1="254.9" y1="94.2" x2="234.2" y2="113.7" stroke="rgb(76,76,76)"  stroke-width="2.0"/>
<line x1="169.3" y1="83.8" x2="189.4" y2="108.5" stroke="rgb(76,76,76)"  stroke-width="2.0"/>
<line x1="164.7" y1="87.6" x2="184.7" y2="112.3" stroke="rgb(76,76,76)"  stroke-width="2.0"/>
<line x1="308.7" y1="161.4" x2="299.9" y2="149.6" stroke="rgb(76,76,76)"  stroke-width="2.0"/>
<line x1="236.3" y1="115.9" x2="187.0" y2="110.4" stroke="rgb(76,76,76)"  stroke-width="2.0"/>
<line x1="236.3" y1="115.9" x2="253.7" y2="143.7" stroke="rgb(76,76,76)"  stroke-width="2.0"/>
<line x1="187.0" y1="110.4" x2="167.5" y2="133.5" stroke="rgb(76,76,76)"  stroke-width="2.0"/>
<line x1="105.3" y1="127.5" x2="121.4" y2="129.7" stroke="rgb(76,76,76)"  stroke-width="2.0"/>
<line x1="299.9" y1="149.6" x2="253.7" y2="143.7" stroke="rgb(76,76,76)"  stroke-width="2.0"/>
<line x1="299.9" y1="149.6" x2="316.8" y2="119.2" stroke="rgb(76,76,76)"  stroke-width="2.0"/>
<line x1="299.9" y1="149.6" x2="311.3" y2="172.7" stroke="rgb(76,76,76)"  stroke-width="2.0"/>
<line x1="167.5" y1="133.5" x2="121.4" y2="129.7" stroke="rgb(76,76,76)"  stroke-width="2.0"/>
<line x1="167.5" y1="133.5" x2="184.7" y2="153.5" stroke="rgb(76,76,76)"  stroke-width="2.0"/>
<line x1="121.4" y1="129.7" x2="109.6" y2="159.0" stroke="rgb(76,76,76)"  stroke-width="2.0"/>
<line x1="121.4" y1="129.7" x2="109.4" y2="91.0" stroke="rgb(76,76,76)"  stroke-width="2.0"/>
<line x1="127.7" y1="56.3" x2="112.1" y2="92.2" stroke="rgb(76,76,76)"  stroke-width="2.0"/>
<line x1="122.2" y1="53.9" x2="106.6" y2="89.8" stroke="rgb(76,76,76)"  stroke-width="2.0"/>
<line x1="109.4" y1="91.0" x2="79.1" y2="101.0" stroke="rgb(76,76,76)"  stroke-width="2.0"/>
<line x1="79.1" y1="101.0" x2="64.7" y2="66.2" stroke="rgb(76,76,76)"  stroke-width="2.0"/>
<line x1="51.1" y1="40.0" x2="64.7" y2="66.2" stroke="rgb(76,76,76)"  stroke-width="2.0"/>
<line x1="64.7" y1="66.2" x2="91.4" y2="53.4" stroke="rgb(76,76,76)"  stroke-width="2.0"/>
<line x1="64.7" y1="66.2" x2="40.0" y2="77.4" stroke="rgb(76,76,76)"  stroke-width="2.0"/>
<circle cx="256.980921" cy="96.352225" r="4.400000" opacity="1.000000" style="stroke:black;fill:url(#radialffffffffcc)"/>
<circle cx="167.003932" cy="85.738975" r="4.400000" opacity="1.000000" style="stroke:black;fill:url(#radialffffffffcc)"/>
<circle cx="308.675324" cy="161.403571" r="2.066667" opacity="1.000000" style="stroke:black;fill:url(#radialffffffbfbfbf)"/>
<circle cx="236.274109" cy="115.861496" r="5.066667" opacity="1.000000" style="stroke:black;fill:url(#radialffffff666666)"/>
<circle cx="187.026435" cy="110.432212" r="5.066667" opacity="1.000000" style="stroke:black;fill:url(#radialffffff666666)"/>
<circle cx="105.325715" cy="127.481842" r="2.066667" opacity="1.000000" style="stroke:black;fill:url(#radialffffffbfbfbf)"/>
<circle cx="299.947153" cy="149.554045" r="5.066667" opacity="1.000000" style="stroke:black;fill:url(#radialffffff666666)"/>
<circle cx="253.733680" cy="143.682542" r="4.400000" opacity="1.000000" style="stroke:black;fill:url(#radialffffffffcc)"/>
<circle cx="316.783744" cy="119.205573" r="2.066667" opacity="1.000000" style="stroke:black;fill:url(#radialffffffbfbfbf)"/>
<circle cx="167.488113" cy="133.540562" r="4.733333" opacity="1.000000" style="stroke:black;fill:url(#radialffffff0ccff)"/>
<circle cx="121.429579" cy="129.728443" r="5.066667" opacity="1.000000" style="stroke:black;fill:url(#radialffffff666666)"/>
<circle cx="311.348004" cy="172.749548" r="2.066667" opacity="1.000000" style="stroke:black;fill:url(#radialffffffbfbfbf)"/>
<circle cx="184.657175" cy="153.514647" r="2.066667" opacity="1.000000" style="stroke:black;fill:url(#radialffffffbfbfbf)"/>
<circle cx="109.625243" cy="159.008488" r="2.066667" opacity="1.000000" style="stroke:black;fill:url(#radialffffffbfbfbf)"/>
<circle cx="124.922138" cy="55.141957" r="4.633415" opacity="1.000000" style="stroke:black;fill:url(#radialffffffffcc)"/>
<circle cx="109.396064" cy="90.964903" r="5.562184" opacity="1.000000" style="stroke:black;fill:url(#radialffffff666666)"/>
<circle cx="79.086327" cy="101.016503" r="6.277262" opacity="1.000000" style="stroke:black;fill:url(#radialffffffffcc)"/>
<circle cx="51.149077" cy="40.000000" r="3.152827" opacity="1.000000" style="stroke:black;fill:url(#radialffffffbfbfbf)"/>
<circle cx="64.693236" cy="66.223249" r="8.835978" opacity="1.000000" style="stroke:black;fill:url(#radialffffff666666)"/>
<circle cx="91.429717" cy="53.405361" r="4.050572" opacity="1.000000" style="stroke:black;fill:url(#radialffffffbfbfbf)"/>
<circle cx="40.000000" cy="77.443339" r="4.133333" opacity="1.000000" style="stroke:black;fill:url(#radialffffffbfbfbf)"/>
</svg>
</g>
</svg>
