<?xml version="1.0"?>
<svg version="1.1" id="topsvg"
xmlns="http://www.w3.org/2000/svg" xmlns:xlink="http://www.w3.org/1999/xlink"
xmlns:cml="http://www.xml-cml.org/schema" x="0" y="0" width="200px" height="200px" viewBox="0 0 100 100">
<title>68 - Open Babel Depiction</title>
<defs>
<radialGradient id='radialffffff0ccff' cx='50%' cy='50%' r='50%' fx='30%' fy='30%'>
  <stop offset=' 0%' stop-color="rgb(255,255,255)"  stop-opacity='0.8'/>
  <stop offset='100%' stop-color="rgb(12,12,255)"  stop-opacity ='1.0'/>
</radialGradient>
<radialGradient id='radialffffff666666' cx='50%' cy='50%' r='50%' fx='30%' fy='30%'>
  <stop offset=' 0%' stop-color="rgb(255,255,255)"  stop-opacity='0.8'/>
  <stop offset='100%' stop-color="rgb(102,102,102)"  stop-opacity ='1.0'/>
</radialGradient>
<radialGradient id='radialffffffbfbfbf' cx='50%' cy='50%' r='50%' fx='30%' fy='30%'>
  <stop offset=' 0%' stop-color="rgb(255,255,255)"  stop-opacity='0.8'/>
  <stop offset='100%' stop-color="rgb(191,191,191)"  stop-opacity ='1.0'/>
</radialGradient>
<radialGradient id='radialffffffffcc' cx='50%' cy='50%' r='50%' fx='30%' fy='30%'>
  <stop offset=' 0%' stop-color="rgb(255,255,255)"  stop-opacity='0.8'/>
  <stop offset='100%' stop-color="rgb(255,12,12)"  stop-opacity ='1.0'/>
</radialGradient>
</defs>
<g transform="translate(0,0)">
<svg width="100" height="100" x="0" y="0" viewBox="0 0 390.966 214.677"
font-family="sans-serif" stroke="rgb(76,76,76)" stroke-width="2"  stroke-linecap="round">
<line x1="169.9" y1="42.2" x2="145.5" y2="63.9" stroke="rgb(76,76,76)"  stroke-width="2.0"/>
<line x1="165.9" y1="37.8" x2="141.5" y2="59.5" stroke="rgb(76,76,76)"  stroke-width="2.0"/>
<line x1="100.7" y1="58.8" x2="143.5" y2="61.7" stroke="rgb(76,76,76)"  stroke-width="2.0"/>
<line x1="100.7" y1="58.8" x2="74.1" y2="85.9" stroke="rgb(76,76,76)"  stroke-width="2.0"/>
<line x1="143.5" y1="61.7" x2="158.4" y2="94.4" stroke="rgb(76,76,76)"  stroke-width="2.0"/>
<line x1="223.4" y1="77.9" x2="204.9" y2="97.1" stroke="rgb(76,76,76)"  stroke-width="2.0"/>
<line x1="80.4" y1="119.9" x2="74.1" y2="85.9" stroke="rgb(76,76,76)"  stroke-width="2.0"/>
<line x1="40.0" y1="79.9" x2="74.1" y2="85.9" stroke="rgb(76,76,76)"  stroke-width="2.0"/>
<line x1="74.1" y1="85.9" x2="80.4" y2="79.5" stroke="rgb(76,76,76)"  stroke-width="2.0"/>
<line x1="145.8" y1="126.4" x2="158.4" y2="94.4" stroke="rgb(76,76,76)"  stroke-width="2.0"/>
<line x1="158.4" y1="94.4" x2="204.9" y2="97.1" stroke="rgb(76,76,76)"  stroke-width="2.0"/>
<line x1="158.4" y1="94.4" x2="145.7" y2="85.7" stroke="rgb(76,76,76)"  stroke-width="2.0"/>
<line x1="204.9" y1="97.1" x2="224.1" y2="124.2" stroke="rgb(76,76,76)"  stroke-width="2.0"/>
<line x1="296.1" y1="101.2" x2="275.9" y2="124.8" stroke="rgb(76,76,76)"  stroke-width="2.0"/>
<line x1="291.5" y1="97.3" x2="271.4" y2="120.8" stroke="rgb(76,76,76)"  stroke-width="2.0"/>
<line x1="351.0" y1="160.1" x2="338.1" y2="151.3" stroke="rgb(76,76,76)"  stroke-width="2.0"/>
<line x1="273.6" y1="122.8" x2="224.1" y2="124.2" stroke="rgb(76,76,76)"  stroke-width="2.0"/>
<line x1="273.6" y1="122.8" x2="291.4" y2="150.4" stroke="rgb(76,76,76)"  stroke-width="2.0"/>
<line x1="226.4" y1="126.1" x2="206.6" y2="150.4" stroke="rgb(76,76,76)"  stroke-width="2.0"/>
<line x1="221.7" y1="122.4" x2="201.9" y2="146.6" stroke="rgb(76,76,76)"  stroke-width="2.0"/>
<line x1="291.4" y1="150.4" x2="338.1" y2="151.3" stroke="rgb(76,76,76)"  stroke-width="2.0"/>
<line x1="338.1" y1="151.3" x2="350.9" y2="119.8" stroke="rgb(76,76,76)"  stroke-width="2.0"/>
<line x1="338.1" y1="151.3" x2="349.6" y2="174.7" stroke="rgb(76,76,76)"  stroke-width="2.0"/>
<circle cx="167.894990" cy="40.000000" r="4.400000" opacity="1.000000" style="stroke:black;fill:url(#radialffffffffcc)"/>
<circle cx="100.701945" cy="58.785777" r="4.400000" opacity="1.000000" style="stroke:black;fill:url(#radialffffffffcc)"/>
<circle cx="143.531580" cy="61.700477" r="5.066667" opacity="1.000000" style="stroke:black;fill:url(#radialffffff666666)"/>
<circle cx="223.393726" cy="77.868511" r="2.066667" opacity="1.000000" style="stroke:black;fill:url(#radialffffffbfbfbf)"/>
<circle cx="80.395876" cy="119.884741" r="2.066667" opacity="1.000000" style="stroke:black;fill:url(#radialffffffbfbfbf)"/>
<circle cx="40.000000" cy="79.895568" r="2.066667" opacity="1.000000" style="stroke:black;fill:url(#radialffffffbfbfbf)"/>
<circle cx="74.066167" cy="85.892814" r="5.066667" opacity="1.000000" style="stroke:black;fill:url(#radialffffff666666)"/>
<circle cx="145.761987" cy="126.398435" r="2.066667" opacity="1.000000" style="stroke:black;fill:url(#radialffffffbfbfbf)"/>
<circle cx="158.376217" cy="94.417425" r="5.066667" opacity="1.000000" style="stroke:black;fill:url(#radialffffff666666)"/>
<circle cx="204.917818" cy="97.093268" r="4.733333" opacity="1.000000" style="stroke:black;fill:url(#radialffffff0ccff)"/>
<circle cx="293.808112" cy="99.226842" r="4.400000" opacity="1.000000" style="stroke:black;fill:url(#radialffffffffcc)"/>
<circle cx="80.360370" cy="79.540510" r="2.440138" opacity="1.000000" style="stroke:black;fill:url(#radialffffffbfbfbf)"/>
<circle cx="350.965936" cy="160.122455" r="2.457264" opacity="1.000000" style="stroke:black;fill:url(#radialffffffbfbfbf)"/>
<circle cx="273.634382" cy="122.799442" r="6.229123" opacity="1.000000" style="stroke:black;fill:url(#radialffffff666666)"/>
<circle cx="224.055425" cy="124.248722" r="6.335535" opacity="1.000000" style="stroke:black;fill:url(#radialffffff666666)"/>
<circle cx="145.729709" cy="85.741107" r="2.641514" opacity="1.000000" style="stroke:black;fill:url(#radialffffffbfbfbf)"/>
<circle cx="204.259347" cy="148.534665" r="7.086101" opacity="1.000000" style="stroke:black;fill:url(#radialffffffffcc)"/>
<circle cx="291.364670" cy="150.413243" r="7.213297" opacity="1.000000" style="stroke:black;fill:url(#radialffffffffcc)"/>
<circle cx="338.057977" cy="151.294431" r="8.374991" opacity="1.000000" style="stroke:black;fill:url(#radialffffff666666)"/>
<circle cx="350.936886" cy="119.791135" r="3.680187" opacity="1.000000" style="stroke:black;fill:url(#radialffffffbfbfbf)"/>
<circle cx="349.603806" cy="174.676590" r="4.133333" opacity="1.000000" style="stroke:black;fill:url(#radialffffffbfbfbf)"/>
</svg>
</g>
</svg>
