<?xml version="1.0"?>
<svg version="1.1" id="topsvg"
xmlns="http://www.w3.org/2000/svg" xmlns:xlink="http://www.w3.org/1999/xlink"
xmlns:cml="http://www.xml-cml.org/schema" x="0" y="0" width="200px" height="200px" viewBox="0 0 100 100">
<title>87 - Open Babel Depiction</title>
<defs>
<radialGradient id='radialffffff0ccff' cx='50%' cy='50%' r='50%' fx='30%' fy='30%'>
  <stop offset=' 0%' stop-color="rgb(255,255,255)"  stop-opacity='0.8'/>
  <stop offset='100%' stop-color="rgb(12,12,255)"  stop-opacity ='1.0'/>
</radialGradient>
<radialGradient id='radialffffff666666' cx='50%' cy='50%' r='50%' fx='30%' fy='30%'>
  <stop offset=' 0%' stop-color="rgb(255,255,255)"  stop-opacity='0.8'/>
  <stop offset='100%' stop-color="rgb(102,102,102)"  stop-opacity ='1.0'/>
</radialGradient>
<radialGradient id='radialffffffbfbfbf' cx='50%' cy='50%' r='50%' fx='30%' fy='30%'>
  <stop offset=' 0%' stop-color="rgb(255,255,255)"  stop-opacity='0.8'/>
  <stop offset='100%' stop-color="rgb(191,191,191)"  stop-opacity ='1.0'/>
</radialGradient>
<radialGradient id='radialffffffffcc' cx='50%' cy='50%' r='50%' fx='30%' fy='30%'>
  <stop offset=' 0%' stop-color="rgb(255,255,255)"  stop-opacity='0.8'/>
  <stop offset='100%' stop-color="rgb(255,12,12)"  stop-opacity ='1.0'/>
</radialGradient>
</defs>
<g transform="translate(0,0)">
<svg width="100" height="100" x="0" y="0" viewBox="0 0 393.895 168.559"
font-family="sans-serif" stroke="rgb(76,76,76)" stroke-width="2"  stroke-linecap="round">
<line x1="208.8" y1="39.6" x2="228.7" y2="63.8" stroke="rgb(76,76,76)"  stroke-width="2.0"/>
<line x1="204.2" y1="43.4" x2="224.1" y2="67.6" stroke="rgb(76,76,76)"  stroke-width="2.0"/>
<line x1="299.5" y1="43.0" x2="278.3" y2="67.0" stroke="rgb(76,76,76)"  stroke-width="2.0"/>
<line x1="295.0" y1="39.0" x2="273.9" y2="63.0" stroke="rgb(76,76,76)"  stroke-width="2.0"/>
<line x1="147.4" y1="88.3" x2="159.7" y2="95.4" stroke="rgb(76,76,76)"  stroke-width="2.0"/>
<line x1="81.6" y1="88.7" x2="74.7" y2="95.4" stroke="rgb(76,76,76)"  stroke-width="2.0"/>
<line x1="226.4" y1="65.7" x2="276.1" y2="65.0" stroke="rgb(76,76,76)"  stroke-width="2.0"/>
<line x1="226.4" y1="65.7" x2="206.3" y2="93.4" stroke="rgb(76,76,76)"  stroke-width="2.0"/>
<line x1="353.9" y1="101.3" x2="340.0" y2="93.3" stroke="rgb(76,76,76)"  stroke-width="2.0"/>
<line x1="276.1" y1="65.0" x2="293.4" y2="93.0" stroke="rgb(76,76,76)"  stroke-width="2.0"/>
<line x1="206.3" y1="93.4" x2="159.7" y2="95.4" stroke="rgb(76,76,76)"  stroke-width="2.0"/>
<line x1="206.3" y1="93.4" x2="223.3" y2="112.8" stroke="rgb(76,76,76)"  stroke-width="2.0"/>
<line x1="159.7" y1="95.4" x2="150.1" y2="128.5" stroke="rgb(76,76,76)"  stroke-width="2.0"/>
<line x1="159.7" y1="95.4" x2="140.4" y2="64.2" stroke="rgb(76,76,76)"  stroke-width="2.0"/>
<line x1="293.4" y1="93.0" x2="340.0" y2="93.3" stroke="rgb(76,76,76)"  stroke-width="2.0"/>
<line x1="340.0" y1="93.3" x2="352.3" y2="61.8" stroke="rgb(76,76,76)"  stroke-width="2.0"/>
<line x1="340.0" y1="93.3" x2="351.2" y2="117.0" stroke="rgb(76,76,76)"  stroke-width="2.0"/>
<line x1="74.7" y1="95.4" x2="40.0" y2="92.9" stroke="rgb(76,76,76)"  stroke-width="2.0"/>
<line x1="74.7" y1="95.4" x2="84.2" y2="128.6" stroke="rgb(76,76,76)"  stroke-width="2.0"/>
<line x1="74.7" y1="95.4" x2="97.4" y2="65.6" stroke="rgb(76,76,76)"  stroke-width="2.0"/>
<line x1="140.4" y1="64.2" x2="97.4" y2="65.6" stroke="rgb(76,76,76)"  stroke-width="2.0"/>
<line x1="138.1" y1="62.2" x2="159.3" y2="38.0" stroke="rgb(76,76,76)"  stroke-width="2.0"/>
<line x1="142.6" y1="66.2" x2="163.8" y2="42.0" stroke="rgb(76,76,76)"  stroke-width="2.0"/>
<circle cx="206.469636" cy="41.535948" r="4.400000" opacity="1.000000" style="stroke:black;fill:url(#radialffffffffcc)"/>
<circle cx="297.277710" cy="41.032570" r="4.400000" opacity="1.000000" style="stroke:black;fill:url(#radialffffffffcc)"/>
<circle cx="147.429223" cy="88.301686" r="2.066667" opacity="1.000000" style="stroke:black;fill:url(#radialffffffbfbfbf)"/>
<circle cx="81.554487" cy="88.711487" r="2.066667" opacity="1.000000" style="stroke:black;fill:url(#radialffffffbfbfbf)"/>
<circle cx="226.372422" cy="65.678724" r="5.066667" opacity="1.000000" style="stroke:black;fill:url(#radialffffff666666)"/>
<circle cx="353.894811" cy="101.324975" r="2.066667" opacity="1.000000" style="stroke:black;fill:url(#radialffffffbfbfbf)"/>
<circle cx="276.100345" cy="65.017234" r="5.066667" opacity="1.000000" style="stroke:black;fill:url(#radialffffff666666)"/>
<circle cx="206.308297" cy="93.364506" r="4.733333" opacity="1.000000" style="stroke:black;fill:url(#radialffffff0ccff)"/>
<circle cx="159.674857" cy="95.442553" r="5.066667" opacity="1.000000" style="stroke:black;fill:url(#radialffffff666666)"/>
<circle cx="293.399119" cy="92.964385" r="4.440416" opacity="1.000000" style="stroke:black;fill:url(#radialffffffffcc)"/>
<circle cx="340.042239" cy="93.287063" r="5.320015" opacity="1.000000" style="stroke:black;fill:url(#radialffffff666666)"/>
<circle cx="74.687897" cy="95.442553" r="5.460251" opacity="1.000000" style="stroke:black;fill:url(#radialffffff666666)"/>
<circle cx="150.059049" cy="128.471884" r="2.338845" opacity="1.000000" style="stroke:black;fill:url(#radialffffffbfbfbf)"/>
<circle cx="40.000000" cy="92.886942" r="2.412892" opacity="1.000000" style="stroke:black;fill:url(#radialffffffbfbfbf)"/>
<circle cx="84.187540" cy="128.559007" r="2.490208" opacity="1.000000" style="stroke:black;fill:url(#radialffffffbfbfbf)"/>
<circle cx="352.274967" cy="61.819494" r="2.544895" opacity="1.000000" style="stroke:black;fill:url(#radialffffffbfbfbf)"/>
<circle cx="223.319887" cy="112.789728" r="2.769301" opacity="1.000000" style="stroke:black;fill:url(#radialffffffbfbfbf)"/>
<circle cx="351.245623" cy="116.984543" r="3.079822" opacity="1.000000" style="stroke:black;fill:url(#radialffffffbfbfbf)"/>
<circle cx="140.381933" cy="64.191178" r="7.990348" opacity="1.000000" style="stroke:black;fill:url(#radialffffff666666)"/>
<circle cx="97.410889" cy="65.601281" r="7.054079" opacity="1.000000" style="stroke:black;fill:url(#radialffffffffcc)"/>
<circle cx="161.591565" cy="40.000000" r="8.800000" opacity="1.000000" style="stroke:black;fill:url(#radialffffffffcc)"/>
</svg>
</g>
</svg>
