<?xml version="1.0"?>
<svg version="1.1" id="topsvg"
xmlns="http://www.w3.org/2000/svg" xmlns:xlink="http://www.w3.org/1999/xlink"
xmlns:cml="http://www.xml-cml.org/schema" x="0" y="0" width="200px" height="200px" viewBox="0 0 100 100">
<title>74 - Open Babel Depiction</title>
<defs>
<radialGradient id='radialffffff0ccff' cx='50%' cy='50%' r='50%' fx='30%' fy='30%'>
  <stop offset=' 0%' stop-color="rgb(255,255,255)"  stop-opacity='0.8'/>
  <stop offset='100%' stop-color="rgb(12,12,255)"  stop-opacity ='1.0'/>
</radialGradient>
<radialGradient id='radialffffff666666' cx='50%' cy='50%' r='50%' fx='30%' fy='30%'>
  <stop offset=' 0%' stop-color="rgb(255,255,255)"  stop-opacity='0.8'/>
  <stop offset='100%' stop-color="rgb(102,102,102)"  stop-opacity ='1.0'/>
</radialGradient>
<radialGradient id='radialffffffbfbfbf' cx='50%' cy='50%' r='50%' fx='30%' fy='30%'>
  <stop offset=' 0%' stop-color="rgb(255,255,255)"  stop-opacity='0.8'/>
  <stop offset='100%' stop-color="rgb(191,191,191)"  stop-opacity ='1.0'/>
</radialGradient>
<radialGradient id='radialffffffffcc' cx='50%' cy='50%' r='50%' fx='30%' fy='30%'>
  <stop offset=' 0%' stop-color="rgb(255,255,255)"  stop-opacity='0.8'/>
  <stop offset='100%' stop-color="rgb(255,12,12)"  stop-opacity ='1.0'/>
</radialGradient>
</defs>
<g transform="translate(0,0)">
<svg width="100" height="100" x="0" y="0" viewBox="0 0 367.06 245.937"
font-family="sans-serif" stroke="rgb(76,76,76)" stroke-width="2"  stroke-linecap="round">
<line x1="94.6" y1="183.0" x2="71.4" y2="177.0" stroke="rgb(76,76,76)"  stroke-width="2.0"/>
<line x1="40.0" y1="171.4" x2="71.4" y2="177.0" stroke="rgb(76,76,76)"  stroke-width="2.0"/>
<line x1="71.4" y1="177.0" x2="69.2" y2="205.9" stroke="rgb(76,76,76)"  stroke-width="2.0"/>
<line x1="71.4" y1="177.0" x2="84.4" y2="140.3" stroke="rgb(76,76,76)"  stroke-width="2.0"/>
<line x1="178.3" y1="52.1" x2="198.6" y2="67.6" stroke="rgb(76,76,76)"  stroke-width="2.0"/>
<line x1="174.6" y1="56.9" x2="194.9" y2="72.4" stroke="rgb(76,76,76)"  stroke-width="2.0"/>
<line x1="268.0" y1="42.9" x2="247.9" y2="64.2" stroke="rgb(76,76,76)"  stroke-width="2.0"/>
<line x1="263.7" y1="38.8" x2="243.5" y2="60.1" stroke="rgb(76,76,76)"  stroke-width="2.0"/>
<line x1="84.4" y1="140.3" x2="122.4" y2="143.6" stroke="rgb(76,76,76)"  stroke-width="2.0"/>
<line x1="143.3" y1="176.8" x2="120.0" y2="145.4" stroke="rgb(76,76,76)"  stroke-width="2.0"/>
<line x1="148.2" y1="173.2" x2="124.8" y2="141.8" stroke="rgb(76,76,76)"  stroke-width="2.0"/>
<line x1="196.7" y1="70.0" x2="245.7" y2="62.2" stroke="rgb(76,76,76)"  stroke-width="2.0"/>
<line x1="196.7" y1="70.0" x2="177.8" y2="94.2" stroke="rgb(76,76,76)"  stroke-width="2.0"/>
<line x1="122.4" y1="143.6" x2="132.1" y2="103.5" stroke="rgb(76,76,76)"  stroke-width="2.0"/>
<line x1="245.7" y1="62.2" x2="263.5" y2="80.8" stroke="rgb(76,76,76)"  stroke-width="2.0"/>
<line x1="115.4" y1="75.9" x2="132.1" y2="103.5" stroke="rgb(76,76,76)"  stroke-width="2.0"/>
<line x1="327.1" y1="86.8" x2="309.4" y2="74.2" stroke="rgb(76,76,76)"  stroke-width="2.0"/>
<line x1="132.1" y1="103.5" x2="177.8" y2="94.2" stroke="rgb(76,76,76)"  stroke-width="2.0"/>
<line x1="132.1" y1="103.5" x2="119.3" y2="107.5" stroke="rgb(76,76,76)"  stroke-width="2.0"/>
<line x1="177.8" y1="94.2" x2="195.2" y2="107.2" stroke="rgb(76,76,76)"  stroke-width="2.0"/>
<line x1="263.5" y1="80.8" x2="309.4" y2="74.2" stroke="rgb(76,76,76)"  stroke-width="2.0"/>
<line x1="309.4" y1="74.2" x2="316.8" y2="40.0" stroke="rgb(76,76,76)"  stroke-width="2.0"/>
<line x1="309.4" y1="74.2" x2="321.1" y2="90.5" stroke="rgb(76,76,76)"  stroke-width="2.0"/>
<circle cx="94.596714" cy="183.018601" r="2.066667" opacity="1.000000" style="stroke:black;fill:url(#radialffffffbfbfbf)"/>
<circle cx="40.000000" cy="171.398158" r="2.066667" opacity="1.000000" style="stroke:black;fill:url(#radialffffffbfbfbf)"/>
<circle cx="71.378424" cy="176.995338" r="5.066667" opacity="1.000000" style="stroke:black;fill:url(#radialffffff666666)"/>
<circle cx="176.459507" cy="54.490047" r="4.400000" opacity="1.000000" style="stroke:black;fill:url(#radialffffffffcc)"/>
<circle cx="69.176995" cy="205.936697" r="2.066667" opacity="1.000000" style="stroke:black;fill:url(#radialffffffbfbfbf)"/>
<circle cx="265.869131" cy="40.858622" r="4.400000" opacity="1.000000" style="stroke:black;fill:url(#radialffffffffcc)"/>
<circle cx="84.357813" cy="140.271511" r="4.400000" opacity="1.000000" style="stroke:black;fill:url(#radialffffffffcc)"/>
<circle cx="145.755714" cy="174.977900" r="4.400000" opacity="1.000000" style="stroke:black;fill:url(#radialffffffffcc)"/>
<circle cx="196.743635" cy="70.029161" r="5.066667" opacity="1.000000" style="stroke:black;fill:url(#radialffffff666666)"/>
<circle cx="122.372801" cy="143.576881" r="5.068048" opacity="1.000000" style="stroke:black;fill:url(#radialffffff666666)"/>
<circle cx="245.681839" cy="62.185362" r="5.246731" opacity="1.000000" style="stroke:black;fill:url(#radialffffff666666)"/>
<circle cx="115.429586" cy="75.939448" r="2.390041" opacity="1.000000" style="stroke:black;fill:url(#radialffffffbfbfbf)"/>
<circle cx="327.060447" cy="86.788422" r="2.490914" opacity="1.000000" style="stroke:black;fill:url(#radialffffffbfbfbf)"/>
<circle cx="132.082326" cy="103.502493" r="6.909677" opacity="1.000000" style="stroke:black;fill:url(#radialffffff666666)"/>
<circle cx="177.776490" cy="94.180315" r="6.618363" opacity="1.000000" style="stroke:black;fill:url(#radialffffff0ccff)"/>
<circle cx="263.483712" cy="80.832945" r="6.688784" opacity="1.000000" style="stroke:black;fill:url(#radialffffffffcc)"/>
<circle cx="309.419969" cy="74.202837" r="8.078252" opacity="1.000000" style="stroke:black;fill:url(#radialffffff666666)"/>
<circle cx="316.795722" cy="40.000000" r="3.383270" opacity="1.000000" style="stroke:black;fill:url(#radialffffffbfbfbf)"/>
<circle cx="195.178103" cy="107.153248" r="3.608965" opacity="1.000000" style="stroke:black;fill:url(#radialffffffbfbfbf)"/>
<circle cx="119.319206" cy="107.498634" r="3.772484" opacity="1.000000" style="stroke:black;fill:url(#radialffffffbfbfbf)"/>
<circle cx="321.134021" cy="90.519876" r="4.133333" opacity="1.000000" style="stroke:black;fill:url(#radialffffffbfbfbf)"/>
</svg>
</g>
</svg>
