<?xml version="1.0"?>
<svg version="1.1" id="topsvg"
xmlns="http://www.w3.org/2000/svg" xmlns:xlink="http://www.w3.org/1999/xlink"
xmlns:cml="http://www.xml-cml.org/schema" x="0" y="0" width="200px" height="200px" viewBox="0 0 100 100">
<title>55 - Open Babel Depiction</title>
<defs>
<radialGradient id='radialffffff0ccff' cx='50%' cy='50%' r='50%' fx='30%' fy='30%'>
  <stop offset=' 0%' stop-color="rgb(255,255,255)"  stop-opacity='0.8'/>
  <stop offset='100%' stop-color="rgb(12,12,255)"  stop-opacity ='1.0'/>
</radialGradient>
<radialGradient id='radialffffff666666' cx='50%' cy='50%' r='50%' fx='30%' fy='30%'>
  <stop offset=' 0%' stop-color="rgb(255,255,255)"  stop-opacity='0.8'/>
  <stop offset='100%' stop-color="rgb(102,102,102)"  stop-opacity ='1.0'/>
</radialGradient>
<radialGradient id='radialffffffbfbfbf' cx='50%' cy='50%' r='50%' fx='30%' fy='30%'>
  <stop offset=' 0%' stop-color="rgb(255,255,255)"  stop-opacity='0.8'/>
  <stop offset='100%' stop-color="rgb(191,191,191)"  stop-opacity ='1.0'/>
</radialGradient>
<radialGradient id='radialffffffffcc' cx='50%' cy='50%' r='50%' fx='30%' fy='30%'>
  <stop offset=' 0%' stop-color="rgb(255,255,255)"  stop-opacity='0.8'/>
  <stop offset='100%' stop-color="rgb(255,12,12)"  stop-opacity ='1.0'/>
</radialGradient>
</defs>
<g transform="translate(0,0)">
<svg width="100" height="100" x="0" y="0" viewBox="0 0 326.935 188.134"
font-family="sans-serif" stroke="rgb(76,76,76)" stroke-width="2"  stroke-linecap="round">
<line x1="145.7" y1="79.6" x2="162.8" y2="96.2" stroke="rgb(76,76,76)"  stroke-width="2.0"/>
<line x1="141.5" y1="83.9" x2="158.6" y2="100.5" stroke="rgb(76,76,76)"  stroke-width="2.0"/>
<line x1="235.0" y1="95.2" x2="211.4" y2="106.6" stroke="rgb(76,76,76)"  stroke-width="2.0"/>
<line x1="232.4" y1="89.8" x2="208.8" y2="101.2" stroke="rgb(76,76,76)"  stroke-width="2.0"/>
<line x1="160.7" y1="98.3" x2="210.1" y2="103.9" stroke="rgb(76,76,76)"  stroke-width="2.0"/>
<line x1="160.7" y1="98.3" x2="137.7" y2="112.2" stroke="rgb(76,76,76)"  stroke-width="2.0"/>
<line x1="210.1" y1="103.9" x2="224.2" y2="122.1" stroke="rgb(76,76,76)"  stroke-width="2.0"/>
<line x1="81.8" y1="79.8" x2="91.2" y2="108.7" stroke="rgb(76,76,76)"  stroke-width="2.0"/>
<line x1="282.4" y1="148.1" x2="270.4" y2="127.8" stroke="rgb(76,76,76)"  stroke-width="2.0"/>
<line x1="77.4" y1="136.8" x2="91.2" y2="108.7" stroke="rgb(76,76,76)"  stroke-width="2.0"/>
<line x1="137.7" y1="112.2" x2="91.2" y2="108.7" stroke="rgb(76,76,76)"  stroke-width="2.0"/>
<line x1="137.7" y1="112.2" x2="152.4" y2="126.3" stroke="rgb(76,76,76)"  stroke-width="2.0"/>
<line x1="91.2" y1="108.7" x2="72.5" y2="105.9" stroke="rgb(76,76,76)"  stroke-width="2.0"/>
<line x1="224.2" y1="122.1" x2="270.4" y2="127.8" stroke="rgb(76,76,76)"  stroke-width="2.0"/>
<line x1="286.9" y1="96.8" x2="270.4" y2="127.8" stroke="rgb(76,76,76)"  stroke-width="2.0"/>
<line x1="270.4" y1="127.8" x2="279.0" y2="142.9" stroke="rgb(76,76,76)"  stroke-width="2.0"/>
<line x1="74.5" y1="108.2" x2="47.2" y2="132.3" stroke="rgb(76,76,76)"  stroke-width="2.0"/>
<line x1="70.5" y1="103.7" x2="43.2" y2="127.8" stroke="rgb(76,76,76)"  stroke-width="2.0"/>
<line x1="72.5" y1="105.9" x2="89.9" y2="73.3" stroke="rgb(76,76,76)"  stroke-width="2.0"/>
<line x1="89.9" y1="73.3" x2="74.6" y2="67.3" stroke="rgb(76,76,76)"  stroke-width="2.0"/>
<line x1="74.6" y1="67.3" x2="40.0" y2="61.4" stroke="rgb(76,76,76)"  stroke-width="2.0"/>
<line x1="74.6" y1="67.3" x2="90.6" y2="40.0" stroke="rgb(76,76,76)"  stroke-width="2.0"/>
<line x1="74.6" y1="67.3" x2="81.0" y2="95.9" stroke="rgb(76,76,76)"  stroke-width="2.0"/>
<circle cx="143.592076" cy="81.752516" r="4.400000" opacity="1.000000" style="stroke:black;fill:url(#radialffffffffcc)"/>
<circle cx="233.727157" cy="92.501328" r="4.400000" opacity="1.000000" style="stroke:black;fill:url(#radialffffffffcc)"/>
<circle cx="160.686883" cy="98.340547" r="5.066667" opacity="1.000000" style="stroke:black;fill:url(#radialffffff666666)"/>
<circle cx="210.092683" cy="103.879575" r="5.066667" opacity="1.000000" style="stroke:black;fill:url(#radialffffff666666)"/>
<circle cx="81.781567" cy="79.789971" r="2.066667" opacity="1.000000" style="stroke:black;fill:url(#radialffffffbfbfbf)"/>
<circle cx="282.416369" cy="148.133692" r="2.066667" opacity="1.000000" style="stroke:black;fill:url(#radialffffffbfbfbf)"/>
<circle cx="77.411029" cy="136.768356" r="2.066667" opacity="1.000000" style="stroke:black;fill:url(#radialffffffbfbfbf)"/>
<circle cx="137.743174" cy="112.242990" r="4.733333" opacity="1.000000" style="stroke:black;fill:url(#radialffffff0ccff)"/>
<circle cx="91.184357" cy="108.663280" r="5.066667" opacity="1.000000" style="stroke:black;fill:url(#radialffffff666666)"/>
<circle cx="224.198481" cy="122.123504" r="4.400000" opacity="1.000000" style="stroke:black;fill:url(#radialffffffffcc)"/>
<circle cx="286.935389" cy="96.833132" r="2.066667" opacity="1.000000" style="stroke:black;fill:url(#radialffffffbfbfbf)"/>
<circle cx="270.444194" cy="127.781962" r="5.066667" opacity="1.000000" style="stroke:black;fill:url(#radialffffff666666)"/>
<circle cx="152.439672" cy="126.326192" r="2.066667" opacity="1.000000" style="stroke:black;fill:url(#radialffffffbfbfbf)"/>
<circle cx="278.956091" cy="142.904540" r="2.204872" opacity="1.000000" style="stroke:black;fill:url(#radialffffffbfbfbf)"/>
<circle cx="72.511121" cy="105.919590" r="5.727580" opacity="1.000000" style="stroke:black;fill:url(#radialffffff666666)"/>
<circle cx="45.196873" cy="130.015649" r="5.630913" opacity="1.000000" style="stroke:black;fill:url(#radialffffffffcc)"/>
<circle cx="89.925487" cy="73.324544" r="5.955395" opacity="1.000000" style="stroke:black;fill:url(#radialffffffffcc)"/>
<circle cx="74.606009" cy="67.346526" r="9.125223" opacity="1.000000" style="stroke:black;fill:url(#radialffffff666666)"/>
<circle cx="40.000000" cy="61.365281" r="3.729710" opacity="1.000000" style="stroke:black;fill:url(#radialffffffbfbfbf)"/>
<circle cx="90.600112" cy="40.000000" r="4.042789" opacity="1.000000" style="stroke:black;fill:url(#radialffffffbfbfbf)"/>
<circle cx="80.974599" cy="95.893821" r="4.133333" opacity="1.000000" style="stroke:black;fill:url(#radialffffffbfbfbf)"/>
</svg>
</g>
</svg>
