<?xml version="1.0"?>
<svg version="1.1" id="topsvg"
xmlns="http://www.w3.org/2000/svg" xmlns:xlink="http://www.w3.org/1999/xlink"
xmlns:cml="http://www.xml-cml.org/schema" x="0" y="0" width="200px" height="200px" viewBox="0 0 100 100">
<title>90 - Open Babel Depiction</title>
<defs>
<radialGradient id='radialffffff0ccff' cx='50%' cy='50%' r='50%' fx='30%' fy='30%'>
  <stop offset=' 0%' stop-color="rgb(255,255,255)"  stop-opacity='0.8'/>
  <stop offset='100%' stop-color="rgb(12,12,255)"  stop-opacity ='1.0'/>
</radialGradient>
<radialGradient id='radialffffff666666' cx='50%' cy='50%' r='50%' fx='30%' fy='30%'>
  <stop offset=' 0%' stop-color="rgb(255,255,255)"  stop-opacity='0.8'/>
  <stop offset='100%' stop-color="rgb(102,102,102)"  stop-opacity ='1.0'/>
</radialGradient>
<radialGradient id='radialffffffbfbfbf' cx='50%' cy='50%' r='50%' fx='30%' fy='30%'>
  <stop offset=' 0%' stop-color="rgb(255,255,255)"  stop-opacity='0.8'/>
  <stop offset='100%' stop-color="rgb(191,191,191)"  stop-opacity ='1.0'/>
</radialGradient>
<radialGradient id='radialffffffffcc' cx='50%' cy='50%' r='50%' fx='30%' fy='30%'>
  <stop offset=' 0%' stop-color="rgb(255,255,255)"  stop-opacity='0.8'/>
  <stop offset='100%' stop-color="rgb(255,12,12)"  stop-opacity ='1.0'/>
</radialGradient>
</defs>
<g transform="translate(0,0)">
<svg width="100" height="100" x="0" y="0" viewBox="0 0 409.025 198.027"
font-family="sans-serif" stroke="rgb(76,76,76)" stroke-width="2"  stroke-linecap="round">
<line x1="168.4" y1="43.1" x2="175.8" y2="61.4" stroke="rgb(76,76,76)"  stroke-width="2.0"/>
<line x1="238.6" y1="68.6" x2="220.7" y2="74.1" stroke="rgb(76,76,76)"  stroke-width="2.0"/>
<line x1="74.0" y1="141.2" x2="72.3" y2="119.7" stroke="rgb(76,76,76)"  stroke-width="2.0"/>
<line x1="307.6" y1="99.7" x2="288.1" y2="107.4" stroke="rgb(76,76,76)"  stroke-width="2.0"/>
<line x1="305.4" y1="94.1" x2="285.9" y2="101.8" stroke="rgb(76,76,76)"  stroke-width="2.0"/>
<line x1="220.7" y1="74.1" x2="175.8" y2="61.4" stroke="rgb(76,76,76)"  stroke-width="2.0"/>
<line x1="220.7" y1="74.1" x2="239.1" y2="93.2" stroke="rgb(76,76,76)"  stroke-width="2.0"/>
<line x1="175.8" y1="61.4" x2="145.4" y2="99.3" stroke="rgb(76,76,76)"  stroke-width="2.0"/>
<line x1="175.8" y1="61.4" x2="170.3" y2="40.0" stroke="rgb(76,76,76)"  stroke-width="2.0"/>
<line x1="148.3" y1="98.5" x2="159.2" y2="136.2" stroke="rgb(76,76,76)"  stroke-width="2.0"/>
<line x1="142.5" y1="100.2" x2="153.5" y2="137.9" stroke="rgb(76,76,76)"  stroke-width="2.0"/>
<line x1="145.4" y1="99.3" x2="104.6" y2="86.1" stroke="rgb(76,76,76)"  stroke-width="2.0"/>
<line x1="104.6" y1="86.1" x2="72.3" y2="119.7" stroke="rgb(76,76,76)"  stroke-width="2.0"/>
<line x1="72.3" y1="119.7" x2="40.0" y2="105.8" stroke="rgb(76,76,76)"  stroke-width="2.0"/>
<line x1="72.3" y1="119.7" x2="76.9" y2="138.8" stroke="rgb(76,76,76)"  stroke-width="2.0"/>
<line x1="287.0" y1="104.6" x2="239.1" y2="93.2" stroke="rgb(76,76,76)"  stroke-width="2.0"/>
<line x1="287.0" y1="104.6" x2="304.0" y2="123.7" stroke="rgb(76,76,76)"  stroke-width="2.0"/>
<line x1="354.1" y1="158.0" x2="349.1" y2="135.6" stroke="rgb(76,76,76)"  stroke-width="2.0"/>
<line x1="240.3" y1="96.0" x2="221.1" y2="104.0" stroke="rgb(76,76,76)"  stroke-width="2.0"/>
<line x1="238.0" y1="90.5" x2="218.8" y2="98.5" stroke="rgb(76,76,76)"  stroke-width="2.0"/>
<line x1="369.0" y1="107.2" x2="349.1" y2="135.6" stroke="rgb(76,76,76)"  stroke-width="2.0"/>
<line x1="349.1" y1="135.6" x2="304.0" y2="123.7" stroke="rgb(76,76,76)"  stroke-width="2.0"/>
<line x1="349.1" y1="135.6" x2="360.2" y2="151.0" stroke="rgb(76,76,76)"  stroke-width="2.0"/>
<circle cx="168.352662" cy="43.086767" r="2.066667" opacity="1.000000" style="stroke:black;fill:url(#radialffffffbfbfbf)"/>
<circle cx="238.557228" cy="68.591337" r="2.066667" opacity="1.000000" style="stroke:black;fill:url(#radialffffffbfbfbf)"/>
<circle cx="74.015780" cy="141.214301" r="2.066667" opacity="1.000000" style="stroke:black;fill:url(#radialffffffbfbfbf)"/>
<circle cx="306.517754" cy="96.911451" r="4.400000" opacity="1.000000" style="stroke:black;fill:url(#radialffffffffcc)"/>
<circle cx="220.711455" cy="74.128789" r="4.733333" opacity="1.000000" style="stroke:black;fill:url(#radialffffff0ccff)"/>
<circle cx="175.762839" cy="61.429780" r="5.066667" opacity="1.000000" style="stroke:black;fill:url(#radialffffff666666)"/>
<circle cx="145.411787" cy="99.339536" r="5.066667" opacity="1.000000" style="stroke:black;fill:url(#radialffffff666666)"/>
<circle cx="156.363996" cy="137.016815" r="4.400000" opacity="1.000000" style="stroke:black;fill:url(#radialffffffffcc)"/>
<circle cx="104.615452" cy="86.107768" r="4.400000" opacity="1.000000" style="stroke:black;fill:url(#radialffffffffcc)"/>
<circle cx="72.262523" cy="119.681198" r="5.066667" opacity="1.000000" style="stroke:black;fill:url(#radialffffff666666)"/>
<circle cx="40.000000" cy="105.826266" r="2.066667" opacity="1.000000" style="stroke:black;fill:url(#radialffffffbfbfbf)"/>
<circle cx="286.976843" cy="104.589622" r="5.066667" opacity="1.000000" style="stroke:black;fill:url(#radialffffff666666)"/>
<circle cx="170.348082" cy="40.000000" r="2.066667" opacity="1.000000" style="stroke:black;fill:url(#radialffffffbfbfbf)"/>
<circle cx="354.068812" cy="158.026846" r="2.139837" opacity="1.000000" style="stroke:black;fill:url(#radialffffffbfbfbf)"/>
<circle cx="239.122274" cy="93.217664" r="5.433311" opacity="1.000000" style="stroke:black;fill:url(#radialffffff666666)"/>
<circle cx="76.905588" cy="138.847565" r="2.351665" opacity="1.000000" style="stroke:black;fill:url(#radialffffffbfbfbf)"/>
<circle cx="369.024777" cy="107.240496" r="2.879800" opacity="1.000000" style="stroke:black;fill:url(#radialffffffbfbfbf)"/>
<circle cx="349.086719" cy="135.589670" r="7.559230" opacity="1.000000" style="stroke:black;fill:url(#radialffffff666666)"/>
<circle cx="304.021864" cy="123.720471" r="6.823418" opacity="1.000000" style="stroke:black;fill:url(#radialffffffffcc)"/>
<circle cx="219.978510" cy="101.254235" r="7.279778" opacity="1.000000" style="stroke:black;fill:url(#radialffffffffcc)"/>
<circle cx="360.193912" cy="150.984757" r="4.133333" opacity="1.000000" style="stroke:black;fill:url(#radialffffffbfbfbf)"/>
</svg>
</g>
</svg>
