<?xml version="1.0"?>
<svg version="1.1" id="topsvg"
xmlns="http://www.w3.org/2000/svg" xmlns:xlink="http://www.w3.org/1999/xlink"
xmlns:cml="http://www.xml-cml.org/schema" x="0" y="0" width="200px" height="200px" viewBox="0 0 100 100">
<title>85 - Open Babel Depiction</title>
<defs>
<radialGradient id='radialffffff0ccff' cx='50%' cy='50%' r='50%' fx='30%' fy='30%'>
  <stop offset=' 0%' stop-color="rgb(255,255,255)"  stop-opacity='0.8'/>
  <stop offset='100%' stop-color="rgb(12,12,255)"  stop-opacity ='1.0'/>
</radialGradient>
<radialGradient id='radialffffff666666' cx='50%' cy='50%' r='50%' fx='30%' fy='30%'>
  <stop offset=' 0%' stop-color="rgb(255,255,255)"  stop-opacity='0.8'/>
  <stop offset='100%' stop-color="rgb(102,102,102)"  stop-opacity ='1.0'/>
</radialGradient>
<radialGradient id='radialffffffbfbfbf' cx='50%' cy='50%' r='50%' fx='30%' fy='30%'>
  <stop offset=' 0%' stop-color="rgb(255,255,255)"  stop-opacity='0.8'/>
  <stop offset='100%' stop-color="rgb(191,191,191)"  stop-opacity ='1.0'/>
</radialGradient>
<radialGradient id='radialffffffffcc' cx='50%' cy='50%' r='50%' fx='30%' fy='30%'>
  <stop offset=' 0%' stop-color="rgb(255,255,255)"  stop-opacity='0.8'/>
  <stop offset='100%' stop-color="rgb(255,12,12)"  stop-opacity ='1.0'/>
</radialGradient>
</defs>
<g transform="translate(0,0)">
<svg width="100" height="100" x="0" y="0" viewBox="0 0 343.62 243.699"
font-family="sans-serif" stroke="rgb(76,76,76)" stroke-width="2"  stroke-linecap="round">
<line x1="99.0" y1="47.5" x2="107.8" y2="63.3" stroke="rgb(76,76,76)"  stroke-width="2.0"/>
<line x1="170.0" y1="70.5" x2="153.1" y2="74.8" stroke="rgb(76,76,76)"  stroke-width="2.0"/>
<line x1="40.0" y1="173.3" x2="71.2" y2="176.5" stroke="rgb(76,76,76)"  stroke-width="2.0"/>
<line x1="88.1" y1="203.7" x2="71.2" y2="176.5" stroke="rgb(76,76,76)"  stroke-width="2.0"/>
<line x1="96.2" y1="137.3" x2="71.2" y2="176.5" stroke="rgb(76,76,76)"  stroke-width="2.0"/>
<line x1="96.2" y1="137.3" x2="78.8" y2="101.8" stroke="rgb(76,76,76)"  stroke-width="2.0"/>
<line x1="240.2" y1="98.7" x2="221.8" y2="104.7" stroke="rgb(76,76,76)"  stroke-width="2.0"/>
<line x1="238.3" y1="93.0" x2="219.9" y2="99.0" stroke="rgb(76,76,76)"  stroke-width="2.0"/>
<line x1="71.2" y1="176.5" x2="65.7" y2="183.9" stroke="rgb(76,76,76)"  stroke-width="2.0"/>
<line x1="153.1" y1="74.8" x2="107.8" y2="63.3" stroke="rgb(76,76,76)"  stroke-width="2.0"/>
<line x1="153.1" y1="74.8" x2="172.9" y2="91.4" stroke="rgb(76,76,76)"  stroke-width="2.0"/>
<line x1="107.8" y1="63.3" x2="78.8" y2="101.8" stroke="rgb(76,76,76)"  stroke-width="2.0"/>
<line x1="107.8" y1="63.3" x2="102.6" y2="40.0" stroke="rgb(76,76,76)"  stroke-width="2.0"/>
<line x1="78.7" y1="104.8" x2="43.9" y2="103.8" stroke="rgb(76,76,76)"  stroke-width="2.0"/>
<line x1="78.9" y1="98.8" x2="44.0" y2="97.8" stroke="rgb(76,76,76)"  stroke-width="2.0"/>
<line x1="220.8" y1="101.9" x2="172.9" y2="91.4" stroke="rgb(76,76,76)"  stroke-width="2.0"/>
<line x1="220.8" y1="101.9" x2="239.4" y2="118.3" stroke="rgb(76,76,76)"  stroke-width="2.0"/>
<line x1="289.4" y1="153.3" x2="284.6" y2="129.3" stroke="rgb(76,76,76)"  stroke-width="2.0"/>
<line x1="173.9" y1="94.2" x2="155.9" y2="100.7" stroke="rgb(76,76,76)"  stroke-width="2.0"/>
<line x1="171.9" y1="88.5" x2="153.9" y2="95.0" stroke="rgb(76,76,76)"  stroke-width="2.0"/>
<line x1="303.6" y1="100.9" x2="284.6" y2="129.3" stroke="rgb(76,76,76)"  stroke-width="2.0"/>
<line x1="284.6" y1="129.3" x2="239.4" y2="118.3" stroke="rgb(76,76,76)"  stroke-width="2.0"/>
<line x1="284.6" y1="129.3" x2="297.0" y2="142.4" stroke="rgb(76,76,76)"  stroke-width="2.0"/>
<circle cx="98.979021" cy="47.542702" r="2.066667" opacity="1.000000" style="stroke:black;fill:url(#radialffffffbfbfbf)"/>
<circle cx="170.030885" cy="70.458179" r="2.066667" opacity="1.000000" style="stroke:black;fill:url(#radialffffffbfbfbf)"/>
<circle cx="40.000000" cy="173.256552" r="2.066667" opacity="1.000000" style="stroke:black;fill:url(#radialffffffbfbfbf)"/>
<circle cx="88.055664" cy="203.698587" r="2.066667" opacity="1.000000" style="stroke:black;fill:url(#radialffffffbfbfbf)"/>
<circle cx="96.218314" cy="137.260816" r="4.400000" opacity="1.000000" style="stroke:black;fill:url(#radialffffffffcc)"/>
<circle cx="239.222905" cy="95.805016" r="4.400000" opacity="1.000000" style="stroke:black;fill:url(#radialffffffffcc)"/>
<circle cx="71.239572" cy="176.488677" r="5.066667" opacity="1.000000" style="stroke:black;fill:url(#radialffffff666666)"/>
<circle cx="153.063034" cy="74.843020" r="4.733333" opacity="1.000000" style="stroke:black;fill:url(#radialffffff0ccff)"/>
<circle cx="107.810052" cy="63.341692" r="5.066667" opacity="1.000000" style="stroke:black;fill:url(#radialffffff666666)"/>
<circle cx="78.772587" cy="101.765558" r="5.066667" opacity="1.000000" style="stroke:black;fill:url(#radialffffff666666)"/>
<circle cx="43.961856" cy="100.774287" r="4.400000" opacity="1.000000" style="stroke:black;fill:url(#radialffffffffcc)"/>
<circle cx="220.837569" cy="101.878570" r="5.066667" opacity="1.000000" style="stroke:black;fill:url(#radialffffff666666)"/>
<circle cx="102.579240" cy="40.000000" r="2.066667" opacity="1.000000" style="stroke:black;fill:url(#radialffffffbfbfbf)"/>
<circle cx="65.708473" cy="183.882850" r="2.083205" opacity="1.000000" style="stroke:black;fill:url(#radialffffffbfbfbf)"/>
<circle cx="289.412869" cy="153.305202" r="2.185387" opacity="1.000000" style="stroke:black;fill:url(#radialffffffbfbfbf)"/>
<circle cx="172.894916" cy="91.362054" r="5.481446" opacity="1.000000" style="stroke:black;fill:url(#radialffffff666666)"/>
<circle cx="303.620013" cy="100.900214" r="2.784047" opacity="1.000000" style="stroke:black;fill:url(#radialffffffbfbfbf)"/>
<circle cx="284.605043" cy="129.285442" r="7.530963" opacity="1.000000" style="stroke:black;fill:url(#radialffffff666666)"/>
<circle cx="239.361747" cy="118.323339" r="6.840599" opacity="1.000000" style="stroke:black;fill:url(#radialffffffffcc)"/>
<circle cx="154.903505" cy="97.832762" r="7.370076" opacity="1.000000" style="stroke:black;fill:url(#radialffffffffcc)"/>
<circle cx="296.952342" cy="142.417363" r="4.133333" opacity="1.000000" style="stroke:black;fill:url(#radialffffffbfbfbf)"/>
</svg>
</g>
</svg>
